<svg width="170" height="36" fill="none" xmlns="http://www.w3.org/2000/svg"><path d="M38.896 29V7.182h14.446v3.803H43.51v5.199h8.874v3.803H43.51V29h-4.613zm15.4 0V12.636h4.4v2.856h.17c.299-1.016.8-1.783 1.503-2.302.703-.525 1.513-.788 2.429-.788a6.725 6.725 0 011.427.16v4.027a5.93 5.93 0 00-.884-.17 7.945 7.945 0 00-1.033-.075c-.668 0-1.265.145-1.79.436-.519.285-.93.682-1.236 1.194-.298.511-.447 1.1-.447 1.768V29h-4.539zm17.171.32c-1.683 0-3.132-.341-4.346-1.023a7.004 7.004 0 01-2.791-2.92c-.654-1.263-.98-2.758-.98-4.484 0-1.684.326-3.16.98-4.432.653-1.271 1.573-2.262 2.759-2.972 1.193-.71 2.592-1.066 4.197-1.066 1.08 0 2.085.174 3.015.522a6.683 6.683 0 012.45 1.545c.703.689 1.25 1.556 1.641 2.6.39 1.036.586 2.25.586 3.643v1.246H65.16v-2.812h9.545c0-.654-.142-1.232-.426-1.737a3.053 3.053 0 00-1.183-1.182c-.497-.291-1.076-.437-1.736-.437-.69 0-1.3.16-1.833.48a3.361 3.361 0 00-1.235 1.267 3.58 3.58 0 00-.459 1.758v2.674c0 .81.15 1.51.448 2.099.305.59.735 1.044 1.289 1.363.554.32 1.21.48 1.97.48.505 0 .967-.071 1.386-.213a2.875 2.875 0 001.076-.64 2.79 2.79 0 00.682-1.044l4.197.277a5.732 5.732 0 01-1.31 2.642c-.654.746-1.499 1.329-2.536 1.748-1.03.412-2.22.618-3.569.618zm22.288-12.017l-4.155.255a2.147 2.147 0 00-.458-.959 2.431 2.431 0 00-.927-.692c-.377-.178-.828-.266-1.353-.266-.703 0-1.296.149-1.78.447-.482.291-.724.682-.724 1.172 0 .39.157.72.47.99.312.27.848.487 1.608.65l2.961.597c1.591.327 2.777.852 3.559 1.577.78.724 1.171 1.676 1.171 2.855 0 1.072-.316 2.014-.948 2.823-.625.81-1.484 1.442-2.578 1.896-1.086.448-2.34.672-3.76.672-2.167 0-3.892-.451-5.178-1.353-1.278-.91-2.028-2.145-2.248-3.708l4.464-.234c.135.66.462 1.165.98 1.513.519.34 1.183.511 1.992.511.796 0 1.435-.153 1.918-.458.49-.313.738-.714.746-1.204a1.253 1.253 0 00-.522-1.012c-.341-.27-.867-.476-1.577-.618l-2.834-.565c-1.598-.32-2.788-.873-3.569-1.662-.774-.788-1.161-1.793-1.161-3.014 0-1.051.284-1.957.852-2.717.576-.76 1.382-1.346 2.419-1.758 1.044-.412 2.265-.618 3.664-.618 2.067 0 3.694.437 4.88 1.31 1.193.874 1.889 2.064 2.088 3.57zm5.969 2.237V29h-4.539V7.182h4.41v8.341h.193c.369-.966.965-1.722 1.789-2.269.824-.554 1.858-.83 3.1-.83 1.137 0 2.128.248 2.973.745.852.49 1.513 1.197 1.981 2.12.476.916.711 2.014.703 3.292V29h-4.538v-9.61c.007-1.008-.248-1.793-.767-2.354-.511-.56-1.229-.841-2.152-.841-.618 0-1.165.131-1.641.394a2.8 2.8 0 00-1.108 1.15c-.262.497-.397 1.098-.404 1.8zm31.718-4.72h-4.666a4.555 4.555 0 00-.522-1.608 4.097 4.097 0 00-1.012-1.215 4.455 4.455 0 00-1.428-.767 5.46 5.46 0 00-1.736-.266c-1.13 0-2.113.28-2.951.841-.838.554-1.488 1.364-1.95 2.43-.462 1.058-.692 2.343-.692 3.856 0 1.555.23 2.862.692 3.92.469 1.059 1.122 1.858 1.96 2.397.838.54 1.808.81 2.909.81.618 0 1.189-.082 1.715-.245a4.505 4.505 0 001.417-.714c.412-.32.753-.706 1.022-1.161a4.53 4.53 0 00.576-1.555l4.666.02a8.447 8.447 0 01-.906 2.899 8.686 8.686 0 01-1.928 2.482c-.802.724-1.761 1.3-2.876 1.726-1.108.419-2.362.628-3.761.628-1.946 0-3.686-.44-5.22-1.32-1.527-.881-2.734-2.156-3.622-3.825-.881-1.67-1.321-3.69-1.321-6.062 0-2.38.447-4.404 1.342-6.073.895-1.669 2.109-2.94 3.644-3.813 1.534-.881 3.259-1.321 5.177-1.321 1.264 0 2.436.177 3.516.532a8.92 8.92 0 012.887 1.556 7.993 7.993 0 012.045 2.482c.533.98.874 2.102 1.023 3.366zm6.089 14.489c-1.044 0-1.975-.181-2.791-.543a4.493 4.493 0 01-1.939-1.63c-.469-.725-.703-1.627-.703-2.706 0-.91.166-1.673.5-2.29a4.06 4.06 0 011.364-1.492 6.614 6.614 0 011.96-.852 14.954 14.954 0 012.323-.405c.951-.1 1.718-.192 2.301-.277.582-.093 1.005-.228 1.267-.405.263-.178.395-.44.395-.788v-.064c0-.675-.213-1.197-.64-1.566-.419-.37-1.015-.555-1.789-.555-.817 0-1.467.182-1.95.544a2.504 2.504 0 00-.959 1.342l-4.197-.34c.213-.995.632-1.854 1.257-2.579.625-.731 1.431-1.292 2.418-1.683.995-.398 2.145-.597 3.452-.597.909 0 1.779.107 2.61.32.838.213 1.58.543 2.227.99a4.813 4.813 0 011.544 1.726c.377.697.565 1.531.565 2.504V29h-4.304v-2.27h-.128a4.611 4.611 0 01-1.055 1.354 4.88 4.88 0 01-1.587.905c-.618.213-1.332.32-2.141.32zm1.3-3.132c.667 0 1.257-.131 1.768-.394.511-.27.913-.632 1.204-1.087.291-.455.437-.97.437-1.545v-1.736a2.446 2.446 0 01-.586.256 10.75 10.75 0 01-.821.202c-.305.057-.61.11-.916.16l-.831.117a5.61 5.61 0 00-1.395.373c-.398.17-.707.401-.927.692-.22.284-.331.64-.331 1.066 0 .617.224 1.09.672 1.416.454.32 1.029.48 1.726.48zM148.467 29V12.636h4.4v2.856h.17c.299-1.016.799-1.783 1.502-2.302.704-.525 1.513-.788 2.429-.788a6.697 6.697 0 011.428.16v4.027a5.934 5.934 0 00-.884-.17 7.955 7.955 0 00-1.034-.075c-.667 0-1.264.145-1.789.436a3.21 3.21 0 00-1.236 1.194c-.299.511-.448 1.1-.448 1.768V29h-4.538zm19.999-16.364v3.41h-9.854v-3.41h9.854zm-7.617-3.92h4.539v15.256c0 .419.064.745.191.98.128.227.306.387.533.48.234.091.504.138.81.138.213 0 .426-.018.639-.054.213-.042.376-.074.49-.095l.714 3.377c-.228.07-.547.152-.959.245-.412.099-.913.16-1.502.18-1.094.043-2.053-.102-2.877-.436-.816-.334-1.452-.852-1.907-1.555-.454-.704-.678-1.591-.671-2.664V8.716z" fill="#F0F3F2"/><path d="M8.453 28.485a2.791 2.791 0 100-5.582 2.791 2.791 0 000 5.582zm-1.2-16.397h16.885M8.73 15.465H23.4M7.97 22.902h10.935c1.198 0 2.265-.76 2.654-1.894l4.508-13.114A2.806 2.806 0 0128.72 6H32" stroke="#0AAD0A" stroke-width="1.144" stroke-miterlimit="10" stroke-linecap="round"/><path d="M8.453 26.097a.403.403 0 100-.806.403.403 0 000 .806z" stroke="#0AAD0A" stroke-width=".381" stroke-miterlimit="10" stroke-linecap="round"/><path d="M18.6 28.485a2.791 2.791 0 100-5.582 2.791 2.791 0 000 5.582z" stroke="#0AAD0A" stroke-width="1.144" stroke-miterlimit="10" stroke-linecap="round"/><path d="M18.6 26.097a.403.403 0 100-.806.403.403 0 000 .806z" stroke="#0AAD0A" stroke-width=".381" stroke-miterlimit="10" stroke-linecap="round"/><path d="M22.122 19.373H7.432c-.491 0-.923-.341-1.058-.837L3.882 9.409c-.124-.455.202-.909.654-.909h18.83" stroke="#0AAD0A" stroke-width="1.144" stroke-miterlimit="10" stroke-linecap="round"/><path d="M1 30.228s10.735-3.632 25.221 0" stroke="#0AAD0A" stroke-width=".763" stroke-miterlimit="10" stroke-linecap="round"/></svg>