<svg width="100" height="100" fill="none" xmlns="http://www.w3.org/2000/svg"><path fill="#F1F4F3" d="M0 0h100v100H0z"/><path d="M65.6 27.88H34.11A2.88 2.88 0 0131.23 25v-.12A2.88 2.88 0 0134.11 22H65.6a2.88 2.88 0 012.88 2.88V25a2.88 2.88 0 01-2.88 2.88z" fill="#DD7C3A"/><path d="M66.56 30.59h-2.92v-2.71H36.07v2.71h-2.92c-2.29 0-4.15 1.86-4.15 4.15v39.57c0 2.29 1.86 4.15 4.15 4.15h33.41c2.29 0 4.15-1.86 4.15-4.15V34.74c0-2.29-1.85-4.15-4.15-4.15z" fill="#D7513E"/><path d="M66.56 78.46c2.29 0 4.15-1.86 4.15-4.15V37.63c-.86-.02-1.73.05-2.57.21-2.85.56-5.46 1.94-8.16 3.02s-5.68 1.86-8.5 1.15c-3.24-.81-5.9-3.49-9.23-3.76-1.92-.15-3.8.53-5.59 1.23-1.79.71-3.62 1.47-5.55 1.48-.71 0-1.43-.12-2.11-.37v33.7c0 2.29 1.86 4.15 4.15 4.15h33.41v.02z" fill="#2B5B4F"/><path d="M49.862 63.72c8.34 0 15.1-4.119 15.1-9.2 0-5.081-6.76-9.2-15.1-9.2s-15.1 4.119-15.1 9.2c0 5.081 6.76 9.2 15.1 9.2z" fill="#EABC49"/></svg>