<svg width="100" height="100" fill="none" xmlns="http://www.w3.org/2000/svg"><path fill="#F1F4F3" d="M0 0h100v100H0z"/><path d="M41.35 22c-14.211 8.789-18.613 27.44-9.824 41.65 8.788 14.211 27.44 18.613 41.65 9.824L41.35 22z" fill="#2B5B4F"/><path d="M44.093 26.448c-11.757 7.27-15.4 22.7-8.122 34.457 7.27 11.757 22.7 15.4 34.457 8.121L44.093 26.448z" fill="#D7513E"/><path d="M44.08 36.119c-.881.544-1.81.636-2.078.199-.268-.43.23-1.22 1.105-1.764.882-.544 1.81-.636 2.078-.2.276.43-.222 1.228-1.104 1.765zm-4.777 9.931c-.882.544-1.81.637-2.078.2-.268-.43.23-1.22 1.104-1.764.882-.545 1.81-.637 2.079-.2.268.43-.23 1.22-1.105 1.764zm8.59 2.101c-.882.545-1.81.637-2.078.2-.268-.43.23-1.22 1.104-1.764.882-.545 1.81-.637 2.079-.2.268.43-.23 1.22-1.105 1.764zm-6.519 9.771c-.882.544-1.81.636-2.079.199-.268-.43.23-1.22 1.105-1.764.882-.544 1.81-.636 2.078-.2.268.43-.23 1.22-1.104 1.765zm10.254 1.211c-.882.545-1.81.637-2.079.2-.268-.43.23-1.22 1.105-1.764.881-.545 1.81-.637 2.078-.2.268.43-.222 1.22-1.104 1.764zm10.214 7.377c-.881.545-1.81.637-2.078.2-.268-.43.23-1.22 1.104-1.764.882-.544 1.81-.636 2.079-.199.268.43-.223 1.22-1.105 1.764zM51.03 67.516c-.882.544-1.81.636-2.078.199-.269-.43.23-1.22 1.104-1.764.882-.544 1.81-.636 2.078-.2.276.43-.222 1.22-1.104 1.764z" fill="#000"/></svg>