<svg width="100" height="100" fill="none" xmlns="http://www.w3.org/2000/svg"><path fill="#F1F4F3" d="M0 0h100v100H0z"/><g clip-path="url(#clip0_2503_4792)"><path d="M71.674 22.105C63.861 19.97 53.82 50.57 63.198 53.132c9.378 2.562 16.292-28.889 8.476-31.027z" fill="#EABC49"/><path d="M73.645 28.883a4.979 4.979 0 00-3.126-2.533 5.001 5.001 0 00-3.98.592l7.106 1.94zm-5.309 19.425a4.979 4.979 0 00-3.126-2.533 4.988 4.988 0 00-3.98.592l7.106 1.94zm4.627-14.403a5.89 5.89 0 00-3.693-2.995 5.896 5.896 0 00-4.704.7l8.397 2.295zm-2.738 10.021a5.9 5.9 0 00-8.397-2.294l8.397 2.294zm1.686-4.843a6.379 6.379 0 00-9.075-2.48l9.075 2.48z" fill="#EB8F48"/><path d="M60.475 25.244h-6.427a1.446 1.446 0 110-2.893h6.427a1.446 1.446 0 110 2.893z" fill="#D7513E"/><path d="M63.265 34.82c0-.925-.749-1.674-1.673-1.674h-.163a1.835 1.835 0 001.645-2.644l-2.6-5.261h-6.428l-2.6 5.26a1.833 1.833 0 001.644 2.645h-.162a1.673 1.673 0 100 3.346 1.673 1.673 0 100 3.346 1.673 1.673 0 100 3.346 1.673 1.673 0 100 3.346h8.664a1.673 1.673 0 100-3.346 1.673 1.673 0 100-3.346 1.673 1.673 0 100-3.346c.924 0 1.673-.749 1.673-1.673z" fill="#FAE7DB"/><path d="M63.265 34.82c0-.925-.749-1.674-1.673-1.674h-.163a1.835 1.835 0 001.645-2.644l-.864-1.75c-.162.029-.322.06-.478.105-1 .28-1.899.832-2.839 1.272-.94.44-1.985.777-3.008.586-.921-.172-1.705-.749-2.568-1.115a3.554 3.554 0 00-1.285-.287l-.586 1.189a1.833 1.833 0 001.644 2.644h-.162a1.673 1.673 0 100 3.346 1.673 1.673 0 100 3.346 1.673 1.673 0 100 3.346 1.673 1.673 0 100 3.346h8.664a1.673 1.673 0 100-3.346 1.673 1.673 0 100-3.346 1.673 1.673 0 100-3.346c.924 0 1.673-.749 1.673-1.673z" fill="#EB8F48"/><path d="M37.767 31.824h-13.38v22.124h13.38V31.824zm3.164-5.143h-13.38v-2.192a1.97 1.97 0 011.97-1.97h9.44a1.97 1.97 0 011.97 1.97v2.192z" fill="#2B5B4F"/><path d="M37.767 31.824h-13.38l3.164-5.143h13.38l-3.164 5.143z" fill="#FAE7DB"/><path d="M44.094 31.824v22.124h-6.328V31.824l3.164-5.143 3.164 5.143z" fill="#EABC49"/><path d="M34.787 36.642h-7.421a.491.491 0 010-.981h7.421a.491.491 0 010 .981zm0 3.512h-7.421a.491.491 0 010-.982h7.421a.491.491 0 010 .982z" fill="#254C40"/><path d="M34.787 43.662h-7.421a.491.491 0 010-.981h7.421a.491.491 0 010 .981z" fill="#EABC49"/><path d="M46.236 48.308l-1.06-1.026-1.438.328-1.061-1.026-1.437.328-1.061-1.026-1.44.332s2.354-4.541 3.47-8.537c1.115-3.996 1.45-9.1 1.45-9.1l1.06 1.025 1.44-.328 1.062 1.026 1.437-.328 1.061 1.026 1.437-.328 1.061 1.026 1.437-.328 1.061 1.026 1.438-.329 1.06 1.026 1.441-.328s-2.355 4.541-3.47 8.537c-1.115 3.996-1.45 9.1-1.45 9.1l-1.061-1.025-1.44.328-1.061-1.026-1.438.328-1.06-1.026-1.438.325z" fill="#FAE7DB"/><path d="M56.155 32.063l-1.437.328-1.061-1.026-1.437.328-1.061-1.026-1.438.329-1.06-1.026-1.438.328-1.06-1.026-1.441.328-1.061-1.026s-.055.812-.188 2.042l14.288 3.987c.523-1.122.895-1.845.895-1.845l-1.44.328-1.061-1.023zM41.24 46.916l1.437-.329 1.06 1.026 1.438-.328 1.061 1.026 1.437-.328 1.061 1.026 1.438-.328 1.06 1.026 1.441-.328 1.061 1.026s.054-.813.188-2.043L39.637 44.37c-.523 1.122-.899 1.849-.899 1.849l1.44-.329 1.062 1.026z" fill="#EABC49"/><path d="M51.786 40.351c-.764 2.75-2.772 4.592-4.477 4.114-1.708-.475-2.47-3.09-1.701-5.84.768-2.75 2.772-4.593 4.477-4.115 1.708.478 2.47 3.091 1.701 5.841zM69.69 78H30.26a3.528 3.528 0 01-3.46-2.846L21.19 48.84h57.57l-5.611 26.314A3.522 3.522 0 0169.69 78z" fill="#D7513E"/><path d="M79.23 48.84H20.719a2.559 2.559 0 01-2.559-2.559V44.38a2.559 2.559 0 012.559-2.559h58.51a2.559 2.559 0 012.56 2.559v1.902a2.557 2.557 0 01-2.56 2.56zM49.976 72.37a1.281 1.281 0 01-1.28-1.282v-15.34a1.281 1.281 0 012.561 0v15.34a1.28 1.28 0 01-1.28 1.281zm7.168 0a1.281 1.281 0 01-1.28-1.282v-15.34a1.281 1.281 0 012.561 0v15.34c0 .711-.573 1.281-1.28 1.281zm7.176 0c-.707 0-1.28-.574-1.28-1.282v-15.34a1.281 1.281 0 012.561 0v15.34a1.283 1.283 0 01-1.281 1.281zm-21.516 0c.708 0 1.281-.574 1.281-1.282v-15.34a1.281 1.281 0 00-2.562 0v15.34a1.28 1.28 0 001.281 1.281zm-7.168 0c.708 0 1.281-.574 1.281-1.282v-15.34a1.281 1.281 0 00-2.562 0v15.34a1.28 1.28 0 001.282 1.281z" fill="#C94536"/><path d="M80.846 60.694L65.255 46.829a1.866 1.866 0 112.482-2.788l15.592 13.865a1.866 1.866 0 11-2.483 2.788z" fill="#EABC49"/><path d="M67.234 45.418a.762.762 0 11-1.523 0 .762.762 0 011.523 0z" fill="#D7513E"/><path d="M19.108 60.694L34.7 46.829a1.866 1.866 0 10-2.483-2.788L16.626 57.906a1.866 1.866 0 102.482 2.788z" fill="#EABC49"/><path d="M32.719 45.418a.762.762 0 101.523 0 .762.762 0 00-1.523 0z" fill="#D7513E"/></g><defs><clipPath id="clip0_2503_4792"><path fill="#fff" transform="translate(16 22)" d="M0 0h67.95v56H0z"/></clipPath></defs></svg>