<svg width="100" height="100" fill="none" xmlns="http://www.w3.org/2000/svg"><path fill="#F1F4F3" d="M0 0h100v100H0z"/><path d="M49.806 78l-3.967-2.15L41.87 78l-3.968-2.15L33.935 78l-3.967-2.15L26 78s3.208-15.316 3.208-27.996C29.208 37.316 26 22.01 26 22.01l3.968 2.15 3.967-2.15 3.968 2.15 3.968-2.15 3.968 2.15 3.967-2.15 3.968 2.15 3.968-2.15 3.967 2.15 3.968-2.15 3.968 2.15 3.967-2.15s-3.208 15.316-3.208 27.995C70.404 62.692 73.612 78 73.612 78l-3.967-2.15L65.677 78l-3.968-2.15L57.742 78l-3.968-2.15L49.806 78z" fill="#FAE7DB"/><path d="M65.677 22l-3.968 2.15L57.742 22l-3.968 2.15L49.806 22l-3.967 2.15L41.87 22l-3.968 2.15L33.935 22l-3.967 2.15L26 22s.512 2.44 1.126 6.178h45.369C73.109 24.44 73.62 22 73.62 22l-3.968 2.15L65.677 22zM33.944 78l3.968-2.15L41.879 78l3.968-2.15L49.815 78l3.967-2.15L57.75 78l3.968-2.15L65.686 78l3.967-2.15L73.621 78s-.512-2.44-1.126-6.178H27.126C26.512 75.56 26 78 26 78l3.968-2.15L33.944 78z" fill="#2B5B4F"/><path d="M49.813 65.798c5.419 0 9.812-7.075 9.812-15.802 0-8.728-4.393-15.803-9.812-15.803-5.42 0-9.813 7.075-9.813 15.803 0 8.727 4.393 15.802 9.813 15.802z" fill="#D7513E"/></svg>