<svg width="100" height="100" fill="none" xmlns="http://www.w3.org/2000/svg"><path fill="#F1F4F3" d="M0 0h100v100H0z"/><path d="M55.833 38.585H32V78h23.833V38.585z" fill="#D7513E"/><path d="M61.474 29.421H37.64v-3.914A3.505 3.505 0 0141.148 22h16.819a3.505 3.505 0 013.507 3.507v3.914z" fill="#2B5B4F"/><path d="M55.833 38.585H32l5.634-9.164h23.84l-5.641 9.164z" fill="#FAE7DB"/><path d="M67.111 38.585V78H55.836V38.585l5.642-9.164 5.633 9.164z" fill="#2B5B4F"/><path d="M50.526 47.16H37.304a.876.876 0 010-1.75h13.222a.876.876 0 010 1.75zm0 6.26H37.304a.876.876 0 010-1.75h13.222a.875.875 0 010 1.75zm0 6.253H37.304a.875.875 0 010-1.75h13.222a.876.876 0 010 1.75z" fill="#C94536"/></svg>