<svg width="100" height="100" fill="none" xmlns="http://www.w3.org/2000/svg"><path fill="#F1F4F3" d="M0 0h100v100H0z"/><g clip-path="url(#clip0_2503_4792)"><path d="M38.353 34.742h-9.396V50.28h9.396V34.742zm2.223-3.609H31.18V29.59a1.38 1.38 0 011.381-1.382h6.633a1.38 1.38 0 011.382 1.382v1.541z" fill="#2B5B4F"/><path d="M38.353 34.742h-9.396l2.224-3.61h9.396l-2.224 3.61z" fill="#FAE7DB"/><path d="M42.795 34.742V50.28h-4.443V34.742l2.223-3.61 2.22 3.61z" fill="#D7513E"/><path d="M36.26 38.123h-5.21a.347.347 0 01-.346-.345c0-.19.156-.346.346-.346h5.211c.19 0 .346.156.346.346a.344.344 0 01-.346.345zm0 2.466h-5.21a.346.346 0 01-.346-.346c0-.19.156-.345.346-.345h5.211c.19 0 .346.155.346.345a.344.344 0 01-.346.346zm0 2.465h-5.21a.347.347 0 01-.346-.345c0-.19.156-.345.346-.345h5.211c.19 0 .346.155.346.345a.344.344 0 01-.346.345z" fill="#254C40"/><path d="M69.507 29.518l1.067-6.27a.727.727 0 00-.592-.838l-2.366-.401a.727.727 0 00-.838.591l-1.066 6.27c-.393 2.314-3.9 3.67-4.322 6.153l-3.148 18.511c-.1.592.298 1.153.89 1.257l4.006.682 4.008.682c.591.1 1.152-.298 1.256-.89l3.148-18.51c.427-2.483-2.435-4.923-2.043-7.237z" fill="#2B5B4F"/><path d="M69.506 29.518l-3.795-.644 1.067-6.27a.725.725 0 01.837-.591l2.366.401c.393.07.661.441.592.838l-1.067 6.266z" fill="#D7513E"/><path d="M70.277 25.247l-3.878-.66a.602.602 0 11.203-1.188l3.878.66a.602.602 0 11-.203 1.188zm-.931 12.878l-6.327-1.076-2.288 13.465 6.325 1.076 2.29-13.465z" fill="#EB8F48"/><path d="M51.297 26.171c-6.965 2.017-.346 30.084 8.014 27.661 8.36-2.422-1.045-29.677-8.014-27.66z" fill="#D7513E"/><path d="M55.963 30.429a4.46 4.46 0 00-3.57-.475 4.483 4.483 0 00-2.764 2.31l6.334-1.835zm5.02 17.319a4.46 4.46 0 00-3.571-.475 4.482 4.482 0 00-2.764 2.31l6.335-1.835zm-3.191-13.165a5.261 5.261 0 00-4.219-.562 5.263 5.263 0 00-3.264 2.734l7.483-2.172zm2.59 8.934a5.261 5.261 0 00-4.22-.562 5.264 5.264 0 00-3.264 2.733l7.483-2.172zm-.97-4.487a5.72 5.72 0 00-4.56-.609 5.686 5.686 0 00-3.528 2.954l8.088-2.345z" fill="#EB8F48"/><path d="M49.31 34.237h-5.493a1.235 1.235 0 110-2.47h5.492a1.235 1.235 0 110 2.47z" fill="#EABC49"/><path d="M51.693 42.42c0-.79-.639-1.43-1.43-1.43h-.137a1.565 1.565 0 001.403-2.258l-2.22-4.495h-5.492l-2.22 4.495a1.565 1.565 0 001.404 2.258h-.138a1.428 1.428 0 100 2.859 1.428 1.428 0 100 2.859 1.428 1.428 0 100 2.858 1.428 1.428 0 100 2.859h7.405a1.428 1.428 0 100-2.859 1.428 1.428 0 100-2.858 1.428 1.428 0 100-2.859c.786 0 1.425-.639 1.425-1.43z" fill="#FAE7DB"/><path d="M51.694 42.42c0-.79-.64-1.43-1.43-1.43h-.138a1.565 1.565 0 001.404-2.258l-.739-1.494a3.3 3.3 0 00-.41.09c-.855.238-1.624.713-2.427 1.089-.803.376-1.697.665-2.569.5-.786-.146-1.46-.638-2.194-.953a3.094 3.094 0 00-1.096-.246l-.501 1.014a1.565 1.565 0 001.403 2.258h-.138a1.428 1.428 0 100 2.859 1.428 1.428 0 100 2.859 1.428 1.428 0 100 2.858 1.428 1.428 0 100 2.859h7.405a1.428 1.428 0 100-2.859 1.428 1.428 0 100-2.858 1.428 1.428 0 100-2.859c.79 0 1.43-.639 1.43-1.43z" fill="#EB8F48"/><path d="M66.27 70.068H32.56a3.012 3.012 0 01-2.958-2.431l-4.797-24.328h47.998c.635 0 1.11.579.985 1.2l-4.56 23.128a3.012 3.012 0 01-2.958 2.43z" fill="#EABC49"/><path d="M24.806 43.31l-.872-4.414a4.88 4.88 0 00-4.771-3.925h-3.407a.753.753 0 110-1.507h3.407a6.389 6.389 0 016.252 5.139l.963 4.706h-1.572z" fill="#2B5B4F"/><path d="M38.18 77.996a4.547 4.547 0 100-9.094 4.547 4.547 0 000 9.094z" fill="#EB8F48"/><path d="M36.32 73.449a1.861 1.861 0 103.723 0 1.861 1.861 0 00-3.723 0z" fill="#2B5B4F"/><path d="M60.656 77.996a4.547 4.547 0 100-9.094 4.547 4.547 0 000 9.094z" fill="#EB8F48"/><path d="M58.8 73.449a1.861 1.861 0 103.723 0 1.861 1.861 0 00-3.722 0z" fill="#2B5B4F"/><path opacity=".8" d="M49.306 65.767a1.196 1.196 0 01-1.197-1.196v-15.76a1.196 1.196 0 112.392 0v15.76c0 .66-.535 1.196-1.195 1.196zm-9.622 0c-.66 0-1.196-.535-1.196-1.196v-15.76a1.196 1.196 0 112.392 0v15.76c0 .66-.535 1.196-1.196 1.196zm19.243 0c.66 0 1.196-.535 1.196-1.196v-15.76a1.196 1.196 0 10-2.392 0v15.76c0 .66.535 1.196 1.196 1.196z" fill="#D39F37"/></g><defs><clipPath id="clip0_2503_4792"><path fill="#fff" transform="translate(15 22)" d="M0 0h58.811v56H0z"/></clipPath></defs></svg>