<svg width="100" height="100" fill="none" xmlns="http://www.w3.org/2000/svg"><path fill="#F1F4F3" d="M0 0h100v100H0z"/><path d="M71.72 60.506A27.738 27.738 0 0078 42.898C78 27.49 65.464 15 49.997 15 34.531 15 22 27.491 22 42.898a27.749 27.749 0 006.28 17.608l.016.015c.43.525.885 1.035 1.355 1.529l18.817 21.257a2.05 2.05 0 003.064 0L70.349 62.05c.47-.494.92-1.004 1.355-1.53l.015-.014z" fill="#DB3030"/><path opacity=".8" d="M49.998 63.946c11.666 0 21.124-9.424 21.124-21.048 0-11.625-9.458-21.049-21.124-21.049-11.666 0-21.123 9.424-21.123 21.049 0 11.624 9.457 21.048 21.123 21.048z" fill="#700B0B"/><path d="M61.333 37.195a.382.382 0 00-.296-.138H39.279l-.742-3.756a.382.382 0 00-.373-.306h-2.179a.382.382 0 100 .765h1.867l.742 3.756 2.153 10.87a1.735 1.735 0 001.703 1.392h.762a2.394 2.394 0 00-.665 1.651 2.422 2.422 0 002.425 2.416 2.422 2.422 0 002.424-2.416c0-.642-.256-1.218-.665-1.651h6.562a2.394 2.394 0 00-.665 1.651 2.425 2.425 0 004.849 0c0-.642-.256-1.218-.665-1.651h.762a1.74 1.74 0 001.703-1.392l2.153-10.87a.471.471 0 00-.097-.321zm-1.202 2.849h-4.485l.22-2.227h4.705l-.44 2.227zm-.593 2.991h-4.189l.22-2.227h4.409l-.44 2.227zm-.588 2.987h-3.892l.22-2.227h4.112l-.44 2.227zm-8.567-5.978v-2.227h4.71l-.22 2.227h-4.49zm4.419.764l-.22 2.227h-4.194v-2.227h4.414zm-5.181-.764h-4.49l-.22-2.227h4.71v2.227zm0 .764v2.227h-4.194l-.22-2.227h4.414zm-4.967 2.227h-4.188l-.44-2.227h4.408l.22 2.227zm-4.04.76h4.112l.22 2.227h-3.892l-.44-2.227zm4.884 0h4.123v2.227h-3.903l-.22-2.227zm4.123 2.991v2.227h-3.606l-.22-2.227h3.826zm.762 0h3.826l-.22 2.227h-3.606v-2.227zm0-.764v-2.227h4.122l-.22 2.227h-3.902zm-6.245-8.206l.22 2.228h-4.486l-.44-2.227h4.706zm-2.644 10.418l-.287-1.448h3.816l.22 2.227H42.44a.973.973 0 01-.946-.78zm3.467 4.841a1.654 1.654 0 01-1.657-1.651c0-.912.742-1.651 1.657-1.651.916 0 1.657.739 1.657 1.65 0 .913-.741 1.652-1.657 1.652zM56.7 51.424c0 .912-.741 1.651-1.657 1.651a1.654 1.654 0 01-1.657-1.651c0-.912.742-1.651 1.657-1.651.91 0 1.657.744 1.657 1.65zm.86-2.416h-2.803l.22-2.227h3.815l-.286 1.447a.959.959 0 01-.946.78z" fill="#fff"/></svg>