<svg width="100" height="100" fill="none" xmlns="http://www.w3.org/2000/svg"><path fill="#F1F4F3" d="M0 0h100v100H0z"/><g clip-path="url(#clip0_2503_4792)"><path d="M52.794 33.759V23.204c0-.665-.54-1.204-1.208-1.204h-3.998c-.668 0-1.208.539-1.208 1.204v10.555c0 3.897-5.38 7.09-5.38 11.273v31.166c0 .997.814 1.809 1.815 1.809h13.55a1.814 1.814 0 001.815-1.81V45.033c-.007-4.183-5.386-7.376-5.386-11.273z" fill="#2B5B4F"/><path d="M52.793 33.759h-6.414V23.204c0-.665.54-1.204 1.208-1.204h3.998c.667 0 1.208.539 1.208 1.204v10.555z" fill="#D7513E"/><path d="M52.861 26.556h-6.547a.998.998 0 110-1.995h6.547a.998.998 0 110 1.995zm2.074 21.329H44.242v22.666h10.693V47.885z" fill="#EB8F48"/></g><defs><clipPath id="clip0_2503_4792"><path fill="#fff" transform="translate(41 22)" d="M0 0h17.173v56H0z"/></clipPath></defs></svg>