<svg width="120" height="120" fill="none" xmlns="http://www.w3.org/2000/svg"><path d="M90.655 20.149c-11.04-3.017-25.225 40.216-11.976 43.835 13.25 3.62 23.019-40.815 11.976-43.835z" fill="#EABC49"/><path d="M93.438 29.724a7.034 7.034 0 00-4.417-3.579 7.066 7.066 0 00-5.623.838l10.04 2.741z" fill="#DB3030"/><path d="M85.938 57.168a7.034 7.034 0 00-4.417-3.579 7.048 7.048 0 00-5.623.838l10.04 2.741z" fill="#EB8F48"/><path d="M92.476 36.82a8.322 8.322 0 00-5.218-4.233 8.33 8.33 0 00-6.645.991l11.863 3.241zm-3.871 14.158a8.336 8.336 0 00-11.863-3.241l11.863 3.241zm2.388-6.843a9.011 9.011 0 00-12.821-3.502l12.822 3.502z" fill="#DB3030"/><path d="M74.835 24.583h-9.08a2.042 2.042 0 01-2.044-2.044c0-1.13.914-2.044 2.044-2.044h9.08c1.13 0 2.044.914 2.044 2.044a2.045 2.045 0 01-2.044 2.044z" fill="#00684A"/><path d="M78.778 38.111a2.363 2.363 0 00-2.364-2.363h-.23c1.919 0 3.17-2.017 2.324-3.737l-3.674-7.433h-9.08l-3.674 7.433c-.85 1.72.4 3.737 2.323 3.737h-.23a2.363 2.363 0 100 4.727 2.363 2.363 0 100 4.727 2.363 2.363 0 100 4.727 2.363 2.363 0 100 4.727h12.241a2.363 2.363 0 100-4.727 2.363 2.363 0 100-4.727 2.363 2.363 0 100-4.727 2.363 2.363 0 002.364-2.364z" fill="#FAE7DB"/><path d="M78.778 38.111a2.363 2.363 0 00-2.364-2.363h-.23c1.919 0 3.17-2.017 2.324-3.737l-1.22-2.471a6.67 6.67 0 00-.675.148c-1.414.396-2.684 1.175-4.012 1.797-1.328.62-2.805 1.098-4.25.828-1.3-.243-2.408-1.058-3.628-1.576a5.02 5.02 0 00-1.815-.405l-.828 1.68c-.85 1.719.4 3.736 2.323 3.736h-.23a2.363 2.363 0 100 4.727 2.363 2.363 0 100 4.727 2.363 2.363 0 100 4.727 2.363 2.363 0 100 4.727h12.241a2.363 2.363 0 100-4.727 2.363 2.363 0 100-4.727 2.363 2.363 0 100-4.727 2.363 2.363 0 002.364-2.364z" fill="#016BF8"/><path d="M42.755 33.88H23.852v31.257h18.903V33.879zm4.469-7.267H28.32v-3.097a2.784 2.784 0 012.782-2.782h13.34a2.784 2.784 0 012.782 2.782v3.097z" fill="#2B5B4F"/><path d="M42.755 33.88H23.852l4.47-7.267h18.904l-4.47 7.267z" fill="#FAE7DB"/><path d="M51.695 33.88v31.257h-8.941V33.879l4.47-7.266 4.47 7.267z" fill="#EABC49"/><path d="M38.546 40.687H28.06a.694.694 0 010-1.387h10.485a.694.694 0 010 1.387zm0 4.961H28.06a.694.694 0 010-1.387h10.485a.694.694 0 010 1.387z" fill="#254C40"/><path d="M38.546 50.604H28.06a.694.694 0 010-1.386h10.485a.694.694 0 010 1.386z" fill="#EABC49"/><path d="M54.718 57.169l-1.499-1.45-2.03.464-1.5-1.45-2.03.464-1.5-1.45-2.034.469s3.327-6.416 4.903-12.061c1.575-5.646 2.048-12.858 2.048-12.858l1.5 1.45 2.034-.464 1.5 1.45 2.03-.464 1.499 1.45 2.03-.464 1.5 1.45 2.03-.464 1.499 1.45 2.03-.464 1.5 1.45 2.034-.464s-3.327 6.415-4.902 12.06c-1.576 5.646-2.049 12.858-2.049 12.858l-1.499-1.45-2.035.464-1.499-1.45-2.03.464-1.5-1.45-2.03.46z" fill="#FAE7DB"/><path d="M68.734 34.217l-2.03.464-1.5-1.45-2.03.464-1.499-1.45-2.03.464-1.5-1.45-2.03.464-1.499-1.45-2.035.464-1.499-1.45s-.077 1.149-.266 2.886l20.187 5.632c.739-1.584 1.265-2.606 1.265-2.606l-2.035.463-1.499-1.445zM47.659 55.2l2.03-.463 1.5 1.45 2.03-.464 1.5 1.45 2.03-.464 1.499 1.45 2.03-.464 1.5 1.45 2.034-.464 1.5 1.45s.076-1.148.265-2.886l-20.182-5.641a77.42 77.42 0 01-1.27 2.61l2.035-.463 1.499 1.45z" fill="#EABC49"/><path d="M62.562 45.927c-1.08 3.885-3.917 6.487-6.325 5.812-2.413-.671-3.49-4.367-2.404-8.252 1.085-3.886 3.916-6.488 6.325-5.812 2.413.675 3.49 4.367 2.404 8.252zm25.294 53.191H32.149a4.985 4.985 0 01-4.89-4.02L19.336 57.92h81.332L92.74 95.097a4.977 4.977 0 01-4.884 4.02z" fill="#00684A"/><path d="M101.335 57.92H18.67a3.615 3.615 0 01-3.615-3.615v-2.688a3.615 3.615 0 013.615-3.615h82.665a3.615 3.615 0 013.615 3.615v2.688a3.612 3.612 0 01-3.615 3.615zM60.001 91.162c-1 0-1.81-.81-1.81-1.81V67.68a1.81 1.81 0 013.62 0v21.673c0 1.004-.81 1.81-1.81 1.81zm10.129 0c-1 0-1.81-.81-1.81-1.81V67.68a1.81 1.81 0 013.62 0v21.673c0 1.004-.81 1.81-1.81 1.81zm10.137 0c-1 0-1.81-.81-1.81-1.81V67.68a1.81 1.81 0 013.62 0v21.673a1.813 1.813 0 01-1.81 1.81zm-30.395 0c1 0 1.81-.81 1.81-1.81V67.68a1.81 1.81 0 00-3.62 0v21.673c0 1.004.81 1.81 1.81 1.81zm-10.129 0c1 0 1.81-.81 1.81-1.81V67.68a1.81 1.81 0 00-3.62 0v21.673c0 1.004.81 1.81 1.81 1.81z" fill="#0AAD0A"/><path d="M103.615 74.667L81.587 55.08a2.636 2.636 0 113.507-3.939l22.028 19.588a2.635 2.635 0 01.216 3.723 2.636 2.636 0 01-3.723.216z" fill="#EABC49"/><path d="M84.382 53.085a1.076 1.076 0 11-2.152 0 1.076 1.076 0 012.152 0z" fill="#00684A"/><path d="M16.391 74.667L38.419 55.08a2.636 2.636 0 10-3.507-3.939L12.884 70.728a2.636 2.636 0 00-.216 3.723 2.636 2.636 0 003.723.216z" fill="#EABC49"/><path d="M35.617 53.085a1.076 1.076 0 102.152 0 1.076 1.076 0 00-2.152 0z" fill="#00684A"/></svg>