<svg width="120" height="120" fill="none" xmlns="http://www.w3.org/2000/svg"><path d="M58.513 21.168c-10.746 3.16-.293 46.294 12.597 42.501 12.897-3.793-1.851-45.661-12.597-42.501z" fill="#EABC49"/><path d="M65.754 27.686a6.949 6.949 0 00-5.523-.707 6.893 6.893 0 00-4.25 3.582l9.773-2.875zm7.895 26.609a6.949 6.949 0 00-5.523-.708 6.904 6.904 0 00-4.251 3.576l9.774-2.868zm-5.04-20.239a8.176 8.176 0 00-6.526-.832 8.171 8.171 0 00-5.024 4.228l11.55-3.396zm4.07 13.732a8.176 8.176 0 00-6.526-.831 8.17 8.17 0 00-5.024 4.227l11.55-3.395zm-1.536-6.903a8.845 8.845 0 00-7.05-.9 8.827 8.827 0 00-5.429 4.57l12.479-3.67z" fill="#C94536"/><path d="M82.936 31.48h-9.312c-1.16 0-2.1-.938-2.1-2.093 0-1.154.94-2.092 2.1-2.092h9.312c1.16 0 2.101.938 2.101 2.092a2.097 2.097 0 01-2.1 2.093z" fill="#D7513E"/><path d="M86.981 45.299a2.419 2.419 0 00-2.424-2.415h-.237c1.97 0 3.253-2.061 2.38-3.818l-3.764-7.593h-9.312l-3.765 7.593c-.873 1.757.411 3.818 2.38 3.818h-.236a2.419 2.419 0 00-2.425 2.415 2.419 2.419 0 002.425 2.415 2.419 2.419 0 00-2.425 2.415 2.419 2.419 0 002.425 2.415 2.419 2.419 0 00-2.425 2.415 2.419 2.419 0 002.425 2.415 2.419 2.419 0 00-2.425 2.415 2.419 2.419 0 002.425 2.415h12.56c1.34 0 2.424-1.08 2.424-2.415a2.419 2.419 0 00-2.424-2.415c1.34 0 2.424-1.08 2.424-2.415a2.419 2.419 0 00-2.424-2.415c1.34 0 2.424-1.08 2.424-2.415a2.419 2.419 0 00-2.424-2.415 2.417 2.417 0 002.418-2.415z" fill="#FAE7DB"/><path d="M86.981 45.299a2.419 2.419 0 00-2.424-2.415h-.237c1.97 0 3.253-2.061 2.38-3.818l-1.252-2.52a6.218 6.218 0 00-.692.148c-1.446.404-2.749 1.199-4.114 1.838-1.365.633-2.88 1.124-4.357.844-1.334-.248-2.474-1.08-3.721-1.608a5.146 5.146 0 00-1.858-.41l-.847 1.714c-.873 1.757.411 3.818 2.38 3.818h-.236a2.418 2.418 0 00-2.425 2.415 2.419 2.419 0 002.425 2.415 2.419 2.419 0 00-2.425 2.415 2.419 2.419 0 002.425 2.415 2.418 2.418 0 00-2.425 2.415 2.419 2.419 0 002.425 2.415 2.419 2.419 0 00-2.425 2.415 2.419 2.419 0 002.425 2.415h12.56c1.34 0 2.424-1.08 2.424-2.415a2.419 2.419 0 00-2.424-2.415c1.34 0 2.424-1.08 2.424-2.415a2.418 2.418 0 00-2.424-2.415c1.34 0 2.424-1.08 2.424-2.415a2.419 2.419 0 00-2.424-2.415 2.426 2.426 0 002.417-2.42z" fill="#016BF8"/><path d="M44.755 32.373H32.949v19.445h11.806V32.373zm2.793-4.519H35.742v-1.93c0-.957.78-1.733 1.74-1.733h8.333c.96 0 1.74.776 1.74 1.732v1.93h-.007z" fill="#0AAD0A"/><path d="M44.755 32.373H32.949l2.793-4.52h11.805l-2.792 4.52z" fill="#FAE7DB"/><path d="M50.339 32.373v19.445h-5.585V32.374l2.792-4.52 2.793 4.52z" fill="#EABC49"/><path d="M42.123 36.608H35.58a.43.43 0 01-.43-.429.43.43 0 01.43-.428h6.544a.43.43 0 01.43.428.422.422 0 01-.43.428zm0 3.085H35.58a.43.43 0 01-.43-.428.43.43 0 01.43-.429h6.544a.43.43 0 01.43.428.422.422 0 01-.43.429zm0 3.086H35.58a.43.43 0 01-.43-.429.43.43 0 01.43-.428h6.544a.43.43 0 01.43.428.422.422 0 01-.43.428zm17.74-7.382H47.627a1.112 1.112 0 01-1.115-1.111v-.044c0-.614.498-1.111 1.115-1.111h12.236c.617 0 1.116.496 1.116 1.111v.044c0 .608-.499 1.11-1.116 1.11z" fill="#254C40"/><path d="M60.239 36.44h-1.135v-1.05H48.39v1.05h-1.134c-.891 0-1.614.72-1.614 1.608v15.315c0 .888.723 1.608 1.614 1.608H60.24c.891 0 1.614-.72 1.614-1.608V38.048c0-.888-.723-1.608-1.614-1.608z" fill="#D7513E"/><path d="M60.24 54.965c.892 0 1.615-.72 1.615-1.608V39.165a4.85 4.85 0 00-.997.08c-1.11.218-2.126.752-3.173 1.168-1.047.416-2.207.72-3.304.447-1.259-.31-2.287-1.353-3.584-1.453-.748-.062-1.477.205-2.175.478-.698.273-1.409.572-2.157.572-.274 0-.555-.05-.817-.143v13.043c0 .888.723 1.608 1.615 1.608H60.24z" fill="#2B5B4F"/><path d="M53.748 49.266c3.24 0 5.866-1.596 5.866-3.564s-2.626-3.563-5.866-3.563c-3.24 0-5.865 1.595-5.865 3.563 0 1.968 2.626 3.564 5.865 3.564z" fill="#EABC49"/><path d="M84.861 47.335l-4.145-3.29-4.139 3.29h-.031l-4.139-3.29-4.145 3.29h-.025l-4.139-3.29-4.145 3.29h-.025l-4.139-3.29-4.145 3.29h-.024l-4.146-3.29-4.138 3.29h-.025l-4.145-3.29-4.083 3.234L31 44.045V99h58V44.045l-4.139 3.29z" fill="#00684A"/><path d="M75.593 65.19H44.408c-.792 0-1.428-.64-1.428-1.422 0-.788.643-1.421 1.428-1.421h31.185a1.42 1.42 0 110 2.843zm0 9.958H44.408c-.792 0-1.428-.64-1.428-1.422 0-.782.643-1.421 1.428-1.421h31.185c.791 0 1.427.64 1.427 1.421 0 .783-.636 1.422-1.427 1.422zm0 9.952H44.408c-.792 0-1.428-.64-1.428-1.422 0-.782.643-1.421 1.428-1.421h31.185a1.42 1.42 0 110 2.843z" fill="#0AAD0A"/></svg>