<svg width="120" height="120" fill="none" xmlns="http://www.w3.org/2000/svg"><path d="M75.416 98.836H54.545a.843.843 0 01-.842-.842c0-1.165.945-2.113 2.113-2.113h18.33c1.164 0 2.112.945 2.112 2.113a.843.843 0 01-.842.842z" fill="#00684A"/><path d="M71.59 95.881H58.37l1.486-8.65h10.25l1.483 8.65z" fill="#24473D"/><path d="M100.16 87.214H30.474A2.474 2.474 0 0128 84.74V42.474A2.474 2.474 0 0130.474 40h69.683a2.474 2.474 0 012.473 2.474V84.74a2.472 2.472 0 01-2.47 2.473z" fill="#00684A"/><path d="M99.051 79.473h-68.14a.864.864 0 01-.864-.864V43.253c0-.478.386-.865.864-.865h68.14c.478 0 .865.387.865.865v35.353a.866.866 0 01-.865.867z" fill="#0AAD0A"/><path d="M67.135 83.847a2.216 2.216 0 10-4.313-1.018 2.216 2.216 0 004.313 1.018z" fill="#24473D"/><path d="M60.049 68.402h9.797c.601 0 1.088-.487 1.088-1.088v-13.98c0-.601-.487-1.088-1.088-1.088H60.05c-.601 0-1.088.487-1.088 1.088v13.98c0 .601.487 1.088 1.088 1.088z" fill="#45C945"/><path d="M67.752 66.784h-5.609a.806.806 0 110-1.614h5.609a.806.806 0 110 1.614z" fill="#088F08"/><path d="M67.004 57.528h-3.87a.352.352 0 01-.353-.352v-.014c0-.195.158-.352.352-.352h3.871c.195 0 .352.157.352.352v.014a.35.35 0 01-.352.352z" fill="#EABC49"/><path d="M67.123 57.86h-.358v-.332h-3.39v.332h-.358a.51.51 0 00-.51.51v4.864c0 .28.23.51.51.51h4.109a.51.51 0 00.51-.51V58.37a.515.515 0 00-.513-.51z" fill="#D7513E"/><path d="M67.123 63.747a.51.51 0 00.51-.51v-4.51a1.454 1.454 0 00-.315.027c-.35.068-.673.24-1.005.372-.332.132-.699.229-1.045.143-.398-.1-.725-.43-1.134-.461-.235-.02-.467.066-.687.152-.22.086-.447.18-.681.183a.72.72 0 01-.258-.046v4.143c0 .28.229.51.51.51h4.105v-.003z" fill="#2B5B4F"/><path d="M65.066 61.934c1.025 0 1.855-.506 1.855-1.13 0-.625-.83-1.131-1.855-1.131-1.024 0-1.855.506-1.855 1.13 0 .625.83 1.131 1.855 1.131z" fill="#EABC49"/><path d="M70.333 71.586H59.556a.595.595 0 110-1.192h10.777a.595.595 0 110 1.192zm0 2.459H59.556a.595.595 0 110-1.191h10.777a.595.595 0 110 1.19zm17.57-2.459H77.127a.595.595 0 110-1.192h10.776a.595.595 0 110 1.192zm0 2.459H77.127a.595.595 0 110-1.191h10.776a.595.595 0 110 1.19z" fill="#097609"/><path d="M52.276 68.402h-9.797a1.087 1.087 0 01-1.088-1.088v-13.98c0-.601.486-1.088 1.088-1.088h9.797c.601 0 1.088.487 1.088 1.088v13.98a1.091 1.091 0 01-1.088 1.088z" fill="#45C945"/><path d="M50.182 66.784h-5.609a.806.806 0 110-1.614h5.609a.806.806 0 110 1.614z" fill="#088F08"/><path d="M46.107 55.639a4.368 4.368 0 00-1.417 6.015 4.368 4.368 0 006.015 1.417l-4.598-7.432z" fill="#2B5B4F"/><path d="M46.504 56.28a3.615 3.615 0 103.802 6.15l-3.802-6.15z" fill="#D7513E"/><path d="M46.506 57.677c-.126.077-.26.092-.3.029-.038-.063.033-.178.16-.255.126-.078.26-.092.3-.029.037.063-.034.178-.16.255zm-.692 1.434c-.126.078-.26.092-.3.029-.038-.063.034-.178.16-.255.126-.077.26-.091.3-.029.038.063-.034.175-.16.255zm1.239.304c-.126.077-.26.091-.301.028-.037-.063.034-.177.16-.254.126-.078.26-.092.301-.029.037.06-.034.175-.16.255zm-.942 1.411c-.126.078-.26.092-.3.029-.038-.063.034-.178.16-.255.126-.077.26-.092.3-.029.038.06-.034.175-.16.255zm1.481.175c-.126.077-.26.092-.3.029-.038-.063.033-.178.16-.255.125-.078.26-.092.3-.029.037.063-.034.175-.16.255zm1.476 1.065c-.126.077-.26.092-.3.029-.038-.063.034-.178.16-.255.126-.077.26-.092.3-.029.04.063-.03.175-.16.255zm-1.562.146c-.126.077-.26.092-.3.029-.038-.063.033-.178.16-.255.126-.077.26-.092.3-.029.037.06-.034.175-.16.255z" fill="#000"/><path d="M52.763 71.586H41.986a.595.595 0 110-1.192h10.777a.595.595 0 110 1.192zm0 2.459H41.986a.595.595 0 110-1.191h10.777a.595.595 0 110 1.19z" fill="#097609"/><path d="M77.615 68.402h9.798c.6 0 1.088-.487 1.088-1.088v-13.98c0-.601-.487-1.088-1.088-1.088h-9.798c-.6 0-1.088.487-1.088 1.088v13.98c0 .601.487 1.088 1.088 1.088z" fill="#45C945"/><path d="M85.318 66.784H79.71a.806.806 0 110-1.614h5.608a.806.806 0 110 1.614z" fill="#088F08"/><path d="M84.447 55.928c-1.935-.928-6 6.568-3.681 7.681 2.321 1.111 5.617-6.754 3.681-7.681z" fill="#D7513E"/><path d="M84.64 57.786a1.321 1.321 0 00-1.757-.842l1.758.842zm-2.304 4.81a1.321 1.321 0 00-1.758-.842l1.758.842zm1.887-3.533a1.56 1.56 0 00-2.079-.996l2.08.996zm-1.191 2.479a1.56 1.56 0 00-2.079-.996l2.079.996zm.672-1.18a1.69 1.69 0 00-2.247-1.076l2.248 1.076z" fill="#EB8F48"/><path d="M92.57 58.318a.302.302 0 00-.212.515l1.491 1.492-1.491 1.492a.302.302 0 00.426.426l1.492-1.491a.601.601 0 000-.85l-1.492-1.492a.31.31 0 00-.215-.092zm-55.176 0a.302.302 0 01.212.515l-1.492 1.492 1.492 1.492a.302.302 0 010 .426.302.302 0 01-.427 0l-1.491-1.491a.601.601 0 010-.85l1.491-1.492a.304.304 0 01.215-.092z" fill="#FFC107"/><path d="M60.2 49.995a4.778 4.778 0 004.778 4.779 4.778 4.778 0 004.778-4.779h-9.557z" fill="#EAC9B7"/><path d="M69.762 49.995a4.778 4.778 0 004.778 4.779 4.778 4.778 0 004.778-4.779h-9.556z" fill="#00684A"/><path d="M79.32 49.995a4.778 4.778 0 004.779 4.779 4.778 4.778 0 004.778-4.779H79.32z" fill="#EAC9B7"/><path d="M88.879 49.995a4.778 4.778 0 004.778 4.779 4.778 4.778 0 004.779-4.779h-9.557z" fill="#00684A"/><path d="M98.438 49.995a4.777 4.777 0 004.778 4.779 4.777 4.777 0 004.778-4.779h-9.556z" fill="#EAC9B7"/><path d="M60.201 49.995a4.778 4.778 0 01-4.778 4.779 4.778 4.778 0 01-4.779-4.779h9.557z" fill="#00684A"/><path d="M50.643 49.995a4.778 4.778 0 01-4.779 4.779 4.778 4.778 0 01-4.778-4.779h9.557z" fill="#EAC9B7"/><path d="M41.08 49.995a4.778 4.778 0 01-4.778 4.779 4.778 4.778 0 01-4.779-4.779h9.557z" fill="#00684A"/><path d="M31.522 49.995a4.778 4.778 0 01-4.779 4.779 4.778 4.778 0 01-4.778-4.779h9.557z" fill="#EAC9B7"/><path d="M69.759 49.995h-9.56l1.017-17.85h7.53l1.013 17.85z" fill="#FAE7DB"/><path d="M79.32 49.995h-9.56l-1.014-17.85h7.53l3.043 17.85z" fill="#0AAD0A"/><path d="M88.88 49.995h-9.56l-3.043-17.85h7.53l5.073 17.85z" fill="#FAE7DB"/><path d="M98.438 49.995h-9.56l-5.073-17.85h7.532l7.1 17.85z" fill="#0AAD0A"/><path d="M108 49.995h-9.56l-7.1-17.85h7.53l9.13 17.85z" fill="#FAE7DB"/><path d="M50.64 49.995h9.56l1.017-17.85h-7.53l-3.046 17.85z" fill="#0AAD0A"/><path d="M41.082 49.995h9.56l3.046-17.85h-7.533l-5.073 17.85z" fill="#FAE7DB"/><path d="M31.523 49.995h9.56l5.073-17.85h-7.53l-7.103 17.85z" fill="#0AAD0A"/><path d="M21.965 49.995h9.557l7.103-17.85h-7.53l-9.13 17.85z" fill="#FAE7DB"/><path d="M91.332 32.145h7.53V30h-7.53v2.145z" fill="#EAC9B7"/><path d="M83.805 32.145h7.53V30h-7.53v2.145z" fill="#00684A"/><path d="M76.273 32.145h7.53V30h-7.53v2.145z" fill="#EAC9B7"/><path d="M68.742 32.145h7.53V30h-7.53v2.145z" fill="#00684A"/><path d="M61.215 32.145h7.53V30h-7.53v2.145z" fill="#EAC9B7"/><path d="M53.684 32.145h7.53V30h-7.53v2.145z" fill="#00684A"/><path d="M46.152 32.145h7.53V30h-7.53v2.145z" fill="#EAC9B7"/><path d="M38.625 32.145h7.53V30h-7.53v2.145z" fill="#00684A"/><path d="M31.094 32.145h7.53V30h-7.53v2.145z" fill="#EAC9B7"/><path d="M24.606 75.198l-11.56-14.312a1.029 1.029 0 01.154-1.448l7.501-6.061a1.029 1.029 0 011.449.154l11.56 14.312a1.03 1.03 0 01-.154 1.45l-7.5 6.06a1.034 1.034 0 01-1.45-.154z" fill="#D7513E"/><path d="M32.795 69.906L19.94 53.993l-1.561 1.261 12.855 15.913 1.56-1.261zm-16.706-7.983l-1.117-1.383a.425.425 0 01.063-.596l.49-.395a.426.426 0 01.595.063l1.117 1.383a.426.426 0 01-.063.596l-.49.395a.423.423 0 01-.595-.063z" fill="#EABC49"/><path d="M25.818 67.385l-7.736-9.58a.25.25 0 01.037-.349.25.25 0 01.35.038l7.738 9.58a.25.25 0 01-.389.311zm-4.121-3.338l-4.478-5.543a.25.25 0 01.037-.349.25.25 0 01.35.037l4.477 5.543a.25.25 0 01-.037.35.25.25 0 01-.35-.038z" fill="#FAE7DB"/><path d="M31.233 77.186l-18.306-1.824a1.03 1.03 0 01-.922-1.128l.957-9.597c.057-.567.56-.98 1.128-.922l18.306 1.824c.567.057.979.56.922 1.128l-.957 9.597a1.03 1.03 0 01-1.128.922z" fill="#EABC49"/><path d="M33.219 67.64l-20.356-2.027-.199 1.997 20.356 2.027.199-1.997zm-17.414 6.284l-1.77-.174a.426.426 0 01-.38-.464l.062-.627a.426.426 0 01.464-.38l1.77.177a.426.426 0 01.38.464l-.063.627a.424.424 0 01-.463.377z" fill="#D7513E"/><path d="M26.525 70.835l-12.253-1.22a.248.248 0 01-.224-.271.248.248 0 01.272-.224l12.254 1.22a.248.248 0 01.223.272.25.25 0 01-.272.223z" fill="#FAE7DB"/><path d="M21.063 69.79l1.062.607 4.397.438a.246.246 0 00.272-.223.246.246 0 00-.223-.272" fill="#EAC9B7"/><path d="M21.251 71.428l-7.089-.707a.248.248 0 01-.223-.272.248.248 0 01.272-.224l7.089.708a.248.248 0 01.223.272.25.25 0 01-.272.223z" fill="#FAE7DB"/></svg>