<svg width="56" height="22" viewBox="0 0 33 22" fill="none" xmlns="http://www.w3.org/2000/svg"><rect width="32" height="21.333" rx="4" fill="#fff"/><g fill="#296DB6"><path d="M5.92 11.933v5.44h5.507L12 16.56l.56.813h3.367v-1.226h.373c.339.003.676-.047 1-.147v1.373h2.287V16.4l.773.973h10.413c.428.008.85-.108 1.214-.333v2.294a2.667 2.667 0 01-2.594 2H2.667A2.667 2.667 0 010 18.666v-8.4h1.52l.313-.814h.747l.307.814h12.226v-.974l.774.974h3.206v-.494a2.67 2.67 0 001.614.494h1.913l.307-.814h.746l.327.814h3.267V9.213l.666 1.054h2.254v-5.44h-2.394v1.106l-.713-1.106h-2.093v1.4l-.667-1.4h-3.56a2.587 2.587 0 00-1.667.546v-.546H7.333L6.933 6l-.4-1.2H3.867v1.4L3.24 4.8H1.067L0 7.333V2.667A2.667 2.667 0 012.667 0h26.726A2.667 2.667 0 0132 2v9.933H12.573l-.573.8-.56-.8H5.92z"/><path fill-rule="evenodd" clip-rule="evenodd" d="M14.216 12.8h2.074v-.027a1.206 1.206 0 011.306 1.254 1.24 1.24 0 01-1.333 1.267h-1.134v1.24h-.913V12.8zm-4.407.773v-.8H6.79v3.76h3.02v-.8H7.696v-.666h2.073v-.813H7.696v-.667l2.113-.014zm2.727 1.094l1.507-1.867h-1.107l-.933 1.16-.927-1.187H9.943l1.526 1.894-1.466 1.867h1.093l.907-1.2.906 1.213h1.147l-1.52-1.88zm3.674-.147h-1.08v-.947h1.08a.46.46 0 110 .92v.027zm5.24-.66a1.195 1.195 0 01-1.047 1.327l1.26 1.347h-1.14l-1.12-1.334h-.413v1.334h-.907v-3.72h2.04a1.195 1.195 0 011.327 1.046zm-1.407.58H18.99v-.867h1.053a.413.413 0 01.467.414.407.407 0 01-.467.413v.04zm4.865-1.627v.8l-2.113-.026v.667h2.06v.813h-2.06v.666h2.113v.8h-3.033v-3.72h3.033zm2.515 1.467h-.873a.34.34 0 110-.666h1.62l.36-.8h-1.953a1.16 1.16 0 00-1.294 1.173 1.046 1.046 0 001.174 1.107h.88a.34.34 0 110 .666H25.39v.8h1.947a1.167 1.167 0 001.26-1.226 1.033 1.033 0 00-1.174-1.08v.026zm4.219-.666h-1.62l-.02-.027a.34.34 0 100 .667h.906a1.08 1.08 0 011.093.626v.893a1.18 1.18 0 01-1.226.774h-1.913v-.8h1.926a.34.34 0 100-.667h-.86a1.046 1.046 0 01-1.173-1.107 1.16 1.16 0 011.293-1.173h1.954l-.36.813zM16.966 6.853a1.167 1.167 0 01-1.027 1.187l1.253 1.387H16.06l-1.12-1.334h-.413v1.334H13.6v-3.76h2.033a1.18 1.18 0 011.334 1.186zM2.82 5.667H1.633L0 9.427h.987l.346-.76h1.754l.32.786h1.026L2.82 5.667zm-1.234 2.24l.367-.88.24-.587.24.587.36.88H1.586zm5.48-.067L7.8 5.667h1.46v3.76h-.88v-3.04l-.173.573-.874 2.467h-.8L5.68 6.96l-.187-.573v3.04h-.886v-3.76H6.08l.747 2.173.12.413.12-.413zM13 6.467v-.8h-3v3.76h3v-.8h-2.113V7.96h2.06v-.813h-2.06V6.48L13 6.467zm2.58.826h-1.054v-.826h1.053a.42.42 0 01.33.729.407.407 0 01-.33.097zm1.826 2.134v-3.76h.914v3.76h-.914zm3.335-2.947h.98v-.813h-1.053a1.7 1.7 0 00-1.8 1.853v.053a1.666 1.666 0 001.746 1.854h.053l.367-.8h-.3a.933.933 0 01-.973-1.054V7.52a.933.933 0 01.973-1.04h.007zm1.987-.813h1.2l1.607 3.786h-1.027l-.32-.786h-1.78l-.32.76h-.973l1.613-3.76zm-.027 2.24l.346-.88.24-.587.227.587.36.88H22.7zm5.705-.24v-2h.926v3.76h-1.1l-1.393-2.12-.24-.414v2.56h-.893v-3.76h1.113l1.333 2 .254.427v-.453z"/></g></svg>