<svg width="376" height="248" fill="none" xmlns="http://www.w3.org/2000/svg"><ellipse cx="187.964" cy="240.706" rx="187.964" ry="7.294" fill="#F0F3F2"/><g clip-path="url(#clip0_3281_7443)"><path fill-rule="evenodd" clip-rule="evenodd" d="M112.508 165.458c21.514 0 38.947 17.469 38.947 39.026 0 21.558-17.433 39.027-38.947 39.027-21.514 0-38.948-17.469-38.948-39.027 0-21.542 17.433-39.026 38.948-39.026zm0 10.027c-15.978 0-28.941 12.989-28.941 28.999 0 16.011 12.963 29 28.941 29s28.94-12.989 28.94-29c0-16.01-12.962-28.999-28.94-28.999z" fill="#004"/><path fill-rule="evenodd" clip-rule="evenodd" d="M112.508 175.485c15.978 0 28.94 12.989 28.94 29 0 16.01-12.962 28.999-28.94 28.999-15.978 0-28.941-12.989-28.941-28.999 0-16.011 12.963-29 28.941-29zm0 10.929c-9.962 0-18.049 8.088-18.049 18.086 0 9.982 8.072 18.085 18.049 18.085 9.962 0 18.048-8.088 18.048-18.085 0-9.998-8.086-18.086-18.048-18.086z" fill="#A9C2C2"/><path d="M112.508 225.005c-11.312 0-20.479-9.185-20.479-20.52 0-11.336 9.167-20.521 20.479-20.521 11.313 0 20.479 9.185 20.479 20.521 0 11.335-9.166 20.52-20.479 20.52zm0-47.084c-14.643 0-26.51 11.891-26.51 26.564 0 14.672 11.867 26.564 26.51 26.564s26.511-11.892 26.511-26.564c0-14.673-11.868-26.564-26.511-26.564z" fill="#7E9191"/><path fill-rule="evenodd" clip-rule="evenodd" d="M108.982 198.05c.48-.255.975-.466 1.485-.616l.976-12.643h2.13l.975 12.643c.51.15 1.005.361 1.486.616l9.601-8.253.766.752.765.766-8.237 9.622c.255.481.465.977.615 1.488l12.618.977v2.15l-12.618.977a7.985 7.985 0 01-.615 1.488l8.237 9.622-.765.767-.766.751-9.601-8.253a7.999 7.999 0 01-1.486.616l-.975 12.643h-2.13l-.976-12.643a7.962 7.962 0 01-1.485-.616l-9.602 8.253-.765-.751-.765-.767 8.237-9.622a8.057 8.057 0 01-.616-1.488l-12.617-.977v-2.15l12.617-.977a8.057 8.057 0 01.616-1.488l-8.237-9.622.765-.766.765-.752 9.602 8.253zm171.889 15.244c4.846 0 8.792-3.954 8.792-8.809 0-4.856-3.946-8.81-8.792-8.81s-8.792 3.954-8.792 8.81c-.015 4.855 3.946 8.809 8.792 8.809z" fill="#A9C2C2"/><path fill-rule="evenodd" clip-rule="evenodd" d="M287.082 198.261a8.822 8.822 0 010 12.462 8.779 8.779 0 01-12.437 0 8.822 8.822 0 010-12.462 8.779 8.779 0 0112.437 0z" fill="#A9C2C2"/><path fill-rule="evenodd" clip-rule="evenodd" d="M289.663 204.485c0 4.87-3.931 8.809-8.792 8.809s-8.792-3.939-8.792-8.809c0-4.871 3.931-8.81 8.792-8.81 4.846 0 8.792 3.939 8.792 8.81z" fill="#A9C2C2"/><path fill-rule="evenodd" clip-rule="evenodd" d="M287.082 210.723a8.779 8.779 0 01-12.437 0 8.822 8.822 0 010-12.462 8.779 8.779 0 0112.437 0 8.822 8.822 0 010 12.462z" fill="#A9C2C2"/><path fill-rule="evenodd" clip-rule="evenodd" d="M280.871 213.294c-4.861 0-8.792-3.939-8.792-8.809 0-4.871 3.931-8.81 8.792-8.81s8.792 3.939 8.792 8.81c0 4.87-3.946 8.809-8.792 8.809z" fill="#A9C2C2"/><path fill-rule="evenodd" clip-rule="evenodd" d="M274.645 210.723a8.822 8.822 0 010-12.462 8.779 8.779 0 0112.437 0 8.822 8.822 0 010 12.462 8.779 8.779 0 01-12.437 0z" fill="#A9C2C2"/><path fill-rule="evenodd" clip-rule="evenodd" d="M272.064 204.485c0-4.871 3.931-8.81 8.792-8.81s8.792 3.939 8.792 8.81c0 4.87-3.931 8.809-8.792 8.809-4.846 0-8.792-3.939-8.792-8.809z" fill="#A9C2C2"/><path fill-rule="evenodd" clip-rule="evenodd" d="M280.872 165.458c21.514 0 38.947 17.469 38.947 39.026 0 21.558-17.433 39.027-38.947 39.027-21.515 0-38.948-17.469-38.948-39.027 0-21.542 17.433-39.026 38.948-39.026zm0 10.027c-15.979 0-28.941 12.989-28.941 28.999 0 16.011 12.962 29 28.941 29 15.978 0 28.94-12.989 28.94-29 0-16.01-12.962-28.999-28.94-28.999z" fill="#004"/><path fill-rule="evenodd" clip-rule="evenodd" d="M280.871 175.485c15.979 0 28.941 12.989 28.941 29 0 16.01-12.962 28.999-28.941 28.999-15.978 0-28.94-12.989-28.94-28.999 0-16.011 12.947-29 28.94-29zm0 10.929c-9.962 0-18.048 8.088-18.048 18.086 0 9.982 8.071 18.085 18.048 18.085 9.962 0 18.049-8.088 18.049-18.085-.015-9.998-8.087-18.086-18.049-18.086z" fill="#A9C2C2"/><path d="M280.871 225.005c-11.312 0-20.479-9.185-20.479-20.52 0-11.336 9.167-20.521 20.479-20.521s20.479 9.185 20.479 20.521c-.015 11.335-9.182 20.52-20.479 20.52zm0-47.084c-14.643 0-26.51 11.891-26.51 26.564 0 14.672 11.867 26.564 26.51 26.564s26.51-11.892 26.51-26.564c0-14.673-11.867-26.564-26.51-26.564z" fill="#7E9191"/><path fill-rule="evenodd" clip-rule="evenodd" d="M277.331 198.05c.48-.255.975-.466 1.485-.616l.975-12.643h2.131l.975 12.643c.51.15 1.005.361 1.485.616l9.602-8.253.75.752.765.766-8.236 9.622c.27.481.465.977.615 1.488l12.617.977v2.15l-12.617.977a7.985 7.985 0 01-.615 1.488l8.236 9.622-.765.767-.765.751-9.602-8.253c-.48.255-.975.466-1.485.616l-.975 12.643h-2.131l-.975-12.643a7.962 7.962 0 01-1.485-.616l-9.602 8.253-.765-.751-.766-.767 8.237-9.622a7.085 7.085 0 01-.615-1.488l-12.617-.977v-2.15l12.617-.977c.15-.511.36-1.007.615-1.488l-8.237-9.622.766-.766.765-.752 9.617 8.253z" fill="#A9C2C2"/><path fill-rule="evenodd" clip-rule="evenodd" d="M247.61 155.19l7.067-4.089 29.436 51.76c1.11 1.954.09 3.984-1.486 5.577-1.59 1.594-4.456.451-5.566-1.488l-29.451-51.76z" fill="#000"/><path fill-rule="evenodd" clip-rule="evenodd" d="M280.872 154.589c4.53 0 8.926.616 13.112 1.743 1.26.346 2.176 1.263 2.506 2.526.33 1.263 0 2.526-.931 3.443l-56.786 56.901c-.93.932-2.175 1.263-3.436.932-1.26-.33-2.175-1.247-2.52-2.51a49.862 49.862 0 01-1.74-13.139c0-27.557 22.294-49.896 49.795-49.896z" fill="#9F0B0F"/><path fill-rule="evenodd" clip-rule="evenodd" d="M111.023 144.847l77.265-1.128c-14.583 28.699-15.228 49.46 0 66.764h-35.407l-2.506-2.481H65.114c-2.16 0-4.021-.842-5.446-2.48-1.426-1.624-2.01-3.593-1.726-5.728 3.886-29.15 21.664-50.798 49.93-52.301 3.376-.181 3.781-1.894 3.151-2.646z" fill="#B0040A"/><path fill-rule="evenodd" clip-rule="evenodd" d="M176.541 206.574h3.901c-11.883-18.536-7.577-39.087 1.56-58.886l-3.061.045c-2.685.045-4.951 1.609-5.941 4.105-6.751 17.108-9.467 34.516-2.415 50.812 1.065 2.451 3.315 3.924 5.956 3.924z" fill="#CA0007"/><path fill-rule="evenodd" clip-rule="evenodd" d="M152.146 208.754h34.447c10.952 0 25.685 1.578 32.572-9.877l30.231-50.302c3.84-6.404 3.885-11.275 1.8-19.979l-6.901-28.864c-.615-2.571-.901-4.586 1.56-4.586h3.166c3.03 0 5.581 2.015 6.301 4.961l6.121 25.211c1.23 5.097 5.431 21.949 2.746 26.459l-36.983 62.179h-75.78c.33-1.699.57-3.428.72-5.202z" fill="#CA0007"/><path fill-rule="evenodd" clip-rule="evenodd" d="M226.38 213.535h-75.555a.92.92 0 00-.915.917v3.382a.91.91 0 00.915.917h75.555a.92.92 0 00.915-.917v-3.382a.92.92 0 00-.915-.917z" fill="#B0040A"/><path fill-rule="evenodd" clip-rule="evenodd" d="M112.403 152.935c27.86 0 50.875 20.776 54.461 47.701.255 1.924-.27 3.683-1.546 5.141-1.275 1.459-2.94 2.225-4.876 2.225H64.363c-1.935 0-3.6-.751-4.876-2.225-1.275-1.458-1.8-3.217-1.545-5.141 3.586-26.925 26.6-47.701 54.461-47.701z" fill="#CA0007"/><path fill-rule="evenodd" clip-rule="evenodd" d="M112.403 158.257c23.645 0 43.194 17.634 46.239 40.5.225 1.638-.225 3.127-1.32 4.36a4.237 4.237 0 01-.435.451c-5.971-18.913-23.63-32.638-44.484-32.638-20.854 0-38.513 13.71-44.484 32.638-.15-.136-.3-.286-.435-.451-1.08-1.248-1.53-2.737-1.32-4.36 3.046-22.866 22.594-40.5 46.239-40.5z" fill="#B10B09"/><path fill-rule="evenodd" clip-rule="evenodd" d="M109.657 130.55h78.931c.945 0 1.71.767 1.71 1.714v10.854c0 .947-.765 1.714-1.71 1.714h-78.931c-.945 0-1.71-.767-1.71-1.714v-10.854c-.015-.947.765-1.714 1.71-1.714z" fill="#000"/><path fill-rule="evenodd" clip-rule="evenodd" d="M52.586 43.958h90.948a3.218 3.218 0 013.211 3.217v79.963a3.218 3.218 0 01-3.211 3.217H52.586c-1.77.015-3.21-1.443-3.21-3.217V47.19c0-1.774 1.44-3.232 3.21-3.232z" fill="#CA0007"/><path fill-rule="evenodd" clip-rule="evenodd" d="M57.807 48.904h80.536a2.862 2.862 0 012.851 2.856v29.375c-28.761 11.696-66.073-15.53-86.237 22.791V51.76a2.862 2.862 0 012.85-2.856z" fill="#B10B09"/><path d="M68.181 105.274v-9.793h6.485v1.707h-4.414v2.333h3.983v1.707h-3.983v4.046h-2.07zm6.913 0v-7.345h1.975v1.281h.076c.134-.456.359-.8.675-1.032a1.77 1.77 0 011.09-.354 3.069 3.069 0 01.64.071v1.808a2.657 2.657 0 00-.396-.077 3.55 3.55 0 00-.464-.033c-.3 0-.568.065-.803.196a1.441 1.441 0 00-.555.536 1.543 1.543 0 00-.201.793v4.156h-2.037zm7.707.143c-.755 0-1.406-.153-1.95-.459a3.144 3.144 0 01-1.254-1.31c-.293-.567-.44-1.238-.44-2.013 0-.756.147-1.419.44-1.99a3.252 3.252 0 011.239-1.334c.536-.318 1.164-.478 1.884-.478.485 0 .936.078 1.353.234.421.154.788.385 1.1.694.316.31.561.698.737 1.167.175.465.263 1.01.263 1.635v.56H79.97v-1.263h4.285c0-.293-.064-.553-.191-.779a1.368 1.368 0 00-.531-.531 1.513 1.513 0 00-.78-.196 1.57 1.57 0 00-.822.215c-.236.14-.42.33-.555.569a1.608 1.608 0 00-.205.789v1.2c0 .364.067.678.2.942.138.265.33.469.58.613.248.143.543.215.884.215.226 0 .433-.032.622-.096a1.248 1.248 0 00.789-.755l1.884.124a2.571 2.571 0 01-.589 1.186 2.948 2.948 0 01-1.138.784c-.462.185-.996.277-1.602.277zm10.004-5.394l-1.865.115a.964.964 0 00-.205-.43 1.091 1.091 0 00-.416-.311 1.413 1.413 0 00-.608-.12c-.315 0-.581.067-.798.201-.217.13-.325.306-.325.526 0 .176.07.324.21.445.14.121.381.218.722.292l1.33.267c.714.147 1.246.383 1.597.708.35.325.526.753.526 1.282a2 2 0 01-.426 1.267c-.28.363-.666.647-1.157.851-.488.201-1.05.301-1.688.301-.972 0-1.747-.202-2.324-.607a2.367 2.367 0 01-1.01-1.664l2.005-.105c.06.296.207.523.44.679.232.153.53.229.894.229.357 0 .644-.068.86-.205.22-.141.332-.321.335-.541a.561.561 0 00-.234-.454c-.153-.121-.389-.213-.708-.277l-1.272-.254c-.717-.143-1.251-.392-1.602-.746-.347-.354-.521-.805-.521-1.353 0-.472.127-.878.383-1.22.258-.34.62-.603 1.085-.788.469-.185 1.017-.278 1.645-.278.928 0 1.658.196 2.19.588.536.392.848.926.938 1.602zm2.68 1.005v4.246h-2.037v-9.793h1.98v3.744h.085c.166-.434.434-.773.804-1.019.37-.248.834-.373 1.391-.373.51 0 .955.112 1.335.335.382.22.679.537.889.952.214.41.319.903.316 1.477v4.677H98.21v-4.313c.004-.453-.111-.805-.344-1.057-.23-.252-.551-.378-.966-.378-.277 0-.523.059-.736.177-.21.118-.376.29-.498.516a1.753 1.753 0 00-.181.809zm14.237-2.119h-2.094a2.063 2.063 0 00-.235-.722 1.836 1.836 0 00-.454-.545 1.994 1.994 0 00-.641-.344 2.45 2.45 0 00-.779-.12c-.507 0-.949.126-1.325.378-.376.249-.668.612-.875 1.09-.207.475-.311 1.052-.311 1.731 0 .698.104 1.285.311 1.76.21.475.504.834.88 1.076.376.242.811.363 1.305.363.278 0 .534-.036.77-.11a1.836 1.836 0 001.095-.841c.125-.204.211-.437.259-.698l2.094.009a3.908 3.908 0 01-1.272 2.415c-.36.325-.791.583-1.291.775-.497.188-1.06.282-1.688.282-.874 0-1.655-.198-2.343-.593-.686-.395-1.228-.968-1.626-1.717-.395-.749-.593-1.656-.593-2.721 0-1.068.201-1.976.602-2.725.402-.75.947-1.32 1.636-1.712.688-.396 1.463-.593 2.324-.593.567 0 1.093.08 1.578.239.488.16.92.392 1.296.698.376.303.682.674.918 1.114.239.44.392.944.459 1.511zm2.733 6.504c-.468 0-.886-.082-1.253-.244a2.024 2.024 0 01-.87-.732c-.21-.325-.316-.73-.316-1.214 0-.409.075-.751.225-1.029.15-.277.354-.5.612-.669.258-.169.552-.297.88-.383a6.712 6.712 0 011.043-.181c.427-.045.771-.086 1.033-.125.261-.041.451-.102.569-.181a.4.4 0 00.177-.354v-.029c0-.303-.096-.537-.287-.703-.189-.166-.456-.249-.804-.249-.366 0-.658.082-.875.244-.217.16-.36.36-.43.603l-1.884-.153c.095-.447.283-.832.564-1.157.28-.329.642-.58 1.085-.756.447-.178.963-.268 1.55-.268.408 0 .798.048 1.171.144.377.095.71.244 1 .444.293.201.524.46.693.775.169.313.254.687.254 1.124v4.954h-1.932v-1.019h-.058c-.118.23-.275.432-.473.608a2.196 2.196 0 01-.713.406 2.93 2.93 0 01-.961.144zm.584-1.406c.299 0 .564-.059.793-.177.23-.121.41-.284.541-.488.13-.204.196-.435.196-.693v-.78a1.08 1.08 0 01-.263.115 4.96 4.96 0 01-.368.091c-.137.025-.275.049-.412.072l-.373.052a2.487 2.487 0 00-.626.168 1 1 0 00-.416.31.758.758 0 00-.148.479c0 .277.1.489.301.636.204.143.462.215.775.215zm4.325 1.267v-7.345h1.975v1.281h.077c.133-.456.358-.8.674-1.032a1.77 1.77 0 011.09-.354 3.07 3.07 0 01.641.071v1.808a2.669 2.669 0 00-.397-.077 3.557 3.557 0 00-.464-.033c-.3 0-.567.065-.803.196a1.44 1.44 0 00-.555.536 1.543 1.543 0 00-.201.793v4.156h-2.037zm8.977-7.345v1.53h-4.423v-1.53h4.423zm-3.419-1.76h2.037v6.848c0 .188.029.335.086.44a.475.475 0 00.239.215c.106.041.227.062.364.062.096 0 .191-.008.287-.024l.22-.043.32 1.516a5.435 5.435 0 01-.43.11c-.185.045-.41.072-.674.081-.491.02-.922-.046-1.292-.196a1.797 1.797 0 01-.856-.698c-.204-.315-.304-.714-.301-1.195v-7.116z" fill="#fff"/><path d="M89.16 88.074a3.132 3.132 0 100-6.264 3.132 3.132 0 000 6.264zm-1.347-18.4h18.948m-17.289 3.789h16.461m-17.316 8.346h12.273a3.15 3.15 0 002.978-2.126l5.058-14.716a3.149 3.149 0 012.978-2.125h3.68" stroke="#fff" stroke-width="1.284" stroke-miterlimit="10" stroke-linecap="round"/><path d="M89.16 85.394a.452.452 0 100-.904.452.452 0 000 .904z" stroke="#fff" stroke-width=".428" stroke-miterlimit="10" stroke-linecap="round"/><path d="M100.547 88.074a3.133 3.133 0 100-6.265 3.133 3.133 0 000 6.265z" stroke="#fff" stroke-width="1.284" stroke-miterlimit="10" stroke-linecap="round"/><path d="M100.547 85.394a.452.452 0 100-.903.452.452 0 000 .903z" stroke="#fff" stroke-width=".428" stroke-miterlimit="10" stroke-linecap="round"/><path d="M104.498 77.849H88.014c-.551 0-1.036-.383-1.188-.94l-2.795-10.242c-.14-.51.226-1.02.732-1.02h21.132" stroke="#fff" stroke-width="1.284" stroke-miterlimit="10" stroke-linecap="round"/><path d="M80.796 90.03s12.046-4.076 28.302 0" stroke="#fff" stroke-width=".856" stroke-miterlimit="10" stroke-linecap="round"/><path fill-rule="evenodd" clip-rule="evenodd" d="M266.949 105.97c1.965-.165 3.916 3.909 4.351 9.111.435 5.201-.796 9.546-2.761 9.711-1.965.166-3.916-3.908-4.351-9.11-.45-5.201.795-9.546 2.761-9.712z" fill="#F1CF00"/><path fill-rule="evenodd" clip-rule="evenodd" d="M266.154 104.723h.045a1.296 1.296 0 011.425 1.142l2.13 18.672a1.32 1.32 0 01-1.14 1.443h-.045c-6.616.752-12.527-3.382-13.202-9.246-.661-5.878 4.17-11.26 10.787-12.011z" fill="#9F0B0F"/><path fill-rule="evenodd" clip-rule="evenodd" d="M264.068 105.129l2.716 20.926c.585.015 1.185-.015 1.785-.09h.045a1.32 1.32 0 001.14-1.443l-2.13-18.672a1.296 1.296 0 00-1.425-1.142h-.045c-.72.09-1.426.24-2.086.421z" fill="#9DC6C6"/><path fill-rule="evenodd" clip-rule="evenodd" d="M247.67 97.431l-14.343-3.683c-.75-.195-1.5.256-1.695 1.008l-.375 1.458a1.397 1.397 0 001.005 1.699l14.343 3.683c.735.195 1.5-.256 1.695-1.007l.375-1.459a1.383 1.383 0 00-1.005-1.698z" fill="#000"/><path d="M188.813 198.336c-.615 1.338-1.275 2.661-1.575 4.104-.3 1.443-.21 3.022.615 4.239 1.56 2.316 4.876 2.376 7.651 2.195l4.096-.27c1.756-.121 3.781-.391 4.651-1.925.78-1.353.24-3.051-.21-4.555a34.796 34.796 0 01-1.47-10.463c.015-1.052.06-2.135-.33-3.112-.54-1.368-1.891-2.27-3.316-2.646-3.195-.872-5.611-.797-6.481 2.285-.96 3.473-2.116 6.856-3.631 10.148z" fill="#191213"/><path d="M199.69 150.755c.706.782 1.441 1.609 1.696 2.631.24.947.03 1.954-.24 2.886-1.216 4.135-3.916 7.863-4.156 12.162-.075 1.293.09 2.601-.165 3.879-.27 1.428-1.02 2.706-1.771 3.969-.975 1.638-1.95 3.277-2.925 4.931-.6 1.022-1.23 2.119-1.155 3.307.135 2.225 2.565 3.503 4.681 4.209 1.23.406 2.76.707 3.66-.21.375-.376.555-.902.72-1.398 3.676-10.914 7.352-21.844 11.013-32.758.915-2.736 1.83-5.728.825-8.434-1.11-2.961-4.201-4.63-7.052-6.013-2.64-1.293-5.281-2.601-7.921-3.894-2.311-1.142-5.446-2.134-7.142-.195-2.37 2.706-.075 4.931 1.846 6.374 3 2.225 5.566 5.803 8.086 8.554z" fill="#2E4C5E"/><path d="M194.259 199.313c-.915 2.315-1.861 4.751-1.591 7.231.06.541.196 1.113.586 1.488.33.331.795.451 1.245.572a54.093 54.093 0 0023.735.917c1.14-.211 2.31-.481 3.225-1.188.915-.706 1.47-1.999 1.02-3.067-.57-1.308-2.235-1.608-3.66-1.774-2.536-.285-5.116-.691-7.337-1.939-2.22-1.248-4.021-3.533-4.051-6.073-.015-1.94.841-4.285-.63-5.548-.69-.601-1.68-.691-2.61-.752-3.046-.195-4.651-.856-6.497 1.384-1.635 1.969-2.505 6.344-3.435 8.749z" fill="#281B1C"/><path d="M155.401 71.62c-6.556 12.357-9.872 26.127-13.127 39.732-.285 1.203-.57 2.466-.24 3.654.33 1.187 1.5 2.24 2.715 1.984.015 1.173.03 2.345.06 3.518 1.636 2.375 4.561 3.593 7.427 3.833 2.865.241 5.731-.361 8.552-.947 6.091-1.293 12.182-2.586 18.288-3.878 1.23-.256 2.551-.587 3.331-1.564.78-.992.495-2.826-.75-3.037 4.32-.781 6.136-5.878 7.141-10.162 1.005-4.3 2.025-8.6 3.031-12.899 1.605-6.825 3.225-13.725 3.315-20.746.075-5.187-.435-11.125 3.241-14.778 1.155-1.142 2.685-2.03 3.256-3.548.87-2.33-.946-4.72-2.626-6.554-2.19-2.376-4.381-4.75-6.571-7.141-.36-.391-.765-.797-1.275-.827-.616-.045-1.111.45-1.531.902-3.195 3.473-5.236 4.84-9.392 6.87-3.675 1.804-7.081 4.134-10.187 6.81-5.641 4.856-11.852 11.742-14.658 18.777z" fill="#A11211"/><path d="M167.104 80.865c-.885 7.742 1.005 16.22 6.736 21.498 3.856 3.547 9.062 5.306 14.268 5.878 5.206.571 10.442.045 15.648-.497.33-.601.645-1.187.976-1.788l3.735 1.307 1.351-1.623c.435 1.323 2.01 2.15 3.345 1.774a30.888 30.888 0 013.106-10.343c-9.452-1.864-19.039-3.789-27.666-8.073-1.365-.677-2.895-1.443-4.366-1.007a73.034 73.034 0 00.916-19.138c-.255-3.037-.766-6.224-2.716-8.569-9.152-10.99-14.763 15.515-15.333 20.58z" fill="#A11211"/><path d="M185.647 64.9c-.24-1.474-.525-2.977-1.17-4.315-.675-1.398-2.146-2.736-3.631-2.24-1.8.601-1.845 3.096-1.53 4.96.885 5.458 1.785 10.915 2.67 16.372.631 3.879 1.261 7.938 0 11.666.826-.09 1.666-.165 2.506-.255.06.916.105 1.849.165 2.766a100.223 100.223 0 0019.744 3.668c-.135-2.466-3.181-3.443-5.581-4.014-2.881-.662-5.851-1.564-8.507-2.902-3.286-1.668-2.866-2.27-2.911-6.028a131.07 131.07 0 00-1.755-19.679zm9.828-9.096a23.086 23.086 0 003.885-3.578c-1.155-1.443-2.31-2.901-3.48-4.345-.18-.225-.36-.45-.615-.57-.48-.226-1.066-.016-1.456.33-1.065.917-1.185 2.586-.675 3.879.51 1.307 1.531 2.33 2.521 3.322m-13.654 59.247c-1.185 1.052-2.94 1.037-4.53.962-.766-.045-1.576-.09-2.236-.496-.66-.406-1.065-1.323-.69-1.985.375-.631 1.215-.767 1.95-.797 1.051-.06 2.131-.075 3.121-.436.99-.36 1.905-1.127 2.115-2.164.826-.466 1.951.15 2.251 1.037.3.902-.075 1.909-.705 2.616-.63.706-1.486 1.157-2.311 1.608" fill="#CA0007"/><path d="M152.581 132.369c4.081 2.345 8.897 2.932 13.563 3.473 5.206.601 10.412 1.218 15.618 1.819 7.201.842 15.213 2.12 19.624 7.893.45.601.93 1.277 1.65 1.458.795.195 1.575-.286 2.37-.511.78-.226 1.906.015 1.981.827-.855.766-1.321 1.939-1.246 3.096.601-.105 1.186-.21 1.786-.3.345 1.428-.585 2.826-1.38 4.059a28.812 28.812 0 00-4.396 12.928c-.285 3.248-.075 6.735-1.771 9.532-.765 1.262-1.875 2.285-2.67 3.548a8.216 8.216 0 00-1.245 3.818c-.331 4.495 3.81 8.885 8.281 8.524 4.591-.376 7.682-4.766 9.902-8.81 6.781-12.372 11.732-25.887 13.353-39.898.27-2.33.435-4.736-.27-6.961-1.591-5.051-7.007-7.682-11.913-9.621a337.503 337.503 0 00-25.34-8.9c-2.325-.722-4.696-1.413-7.126-1.563-2.16-.136-4.336.135-6.481.421-8.267 1.082-16.549 2.179-24.815 3.262-3.841.511-6.932-.12-5.566 4.6.855 3.082 3.345 5.728 6.091 7.306z" fill="#3D5E77"/><path d="M208.346 131.587c2.461.948 4.996 1.955 6.932 3.759 4.621 4.36 4.216 11.861 2.25 17.905-1.98 6.043-5.206 11.891-5.161 18.25.945.842 2.281-.421 2.866-1.533a76.023 76.023 0 008.161-26.294c.285-2.42.421-5.036-.87-7.095-1.11-1.774-3.075-2.812-4.951-3.729-9.587-4.69-21.739-11.275-32.436-12.432-.285 4.765 19.204 9.621 23.209 11.169z" fill="#4A6D82"/><path d="M221.549 106.091c.945.03 1.921.06 2.851-.166 3.541-.841 5.536-4.9 9.017-5.923.21-.06.435-.12.66-.075.315.06.555.301.78.541.57.632 1.065 1.338 1.74 1.849.675.512 1.636.767 2.386.376.75-.391 1.02-1.593.33-2.104.315.751 1.32 1.127 2.055.766.735-.361 1.05-1.368.66-2.09a1.66 1.66 0 001.741.737 1.648 1.648 0 001.245-1.428c.09-.992-.69-1.804-1.35-2.556-.961-1.082-1.771-2.3-2.776-3.352-1.005-1.037-2.28-1.924-3.721-2.09-1.14-.12-2.28.21-3.375.587a43.208 43.208 0 00-7.067 3.172c-1.8 1.007-3.525 2.134-5.416 2.931-1.89.797-4.006 1.248-6.016.812-1.245-.27-3.031 6.434-2.475 7.381.48.812 2.76.466 3.69.481 1.681.046 3.361.091 5.041.151zm7.277-77.873c.9 1.473 2.971 1.984 3.676 3.548-2.491.962-4.531 3.066-5.416 5.592-1.05 3.007-.63 6.69-2.791 9.035-1.935 2.105-5.236 2.225-8.011 1.549-2.776-.677-5.401-2.015-8.237-2.3-3.541-.376-7.216.992-9.662 3.577-.57.602-1.245 1.338-2.07 1.188-.57-.105-.961-.601-1.306-1.052-1.365-1.834-2.73-3.683-4.095-5.518a11.62 11.62 0 003-7.922c-.045-2.255-.735-4.435-.885-6.69-.57-8.193 6.511-15.47 14.463-17.394 6.211-1.518 16.638-.887 22.024 3.067 5.386 3.924-3.51 8.765-.69 13.32z" fill="#EDB38C"/><path d="M223.59 19.453c.375.977-.99 1.714-2.04 1.714-2.041 0-4.006-.812-6.031-.977-2.041-.166-4.441.571-5.101 2.495-.451 1.293 0 2.706.18 4.06.165 1.352-.15 3.036-1.426 3.532-1.125-1.443-.735-3.758-2.1-4.976-1.155-1.022-2.971-.676-4.381-.045-1.185.526-2.34 1.263-2.926 2.42-1.365 2.707 1.126 6.074.12 8.93-.33.962-1.02 1.744-1.71 2.48-.855.903-1.755 1.805-2.91 2.286-1.141.481-2.596.436-3.496-.421-1.53-1.443-.69-3.969-1.08-6.043-.405-2.18-2.266-3.88-2.671-6.074-.225-1.203.03-2.45.3-3.638.69-3.067 1.545-6.149 3.181-8.84 2.685-4.405 7.321-7.396 12.287-8.764 4.966-1.368 10.247-1.233 15.318-.361 2.221.376 4.441.902 6.376 2.06 2.266 1.353 4.336 3.623 6.962 3.382a6.276 6.276 0 01-2.461 1.398 10.263 10.263 0 013.226 2.376c-.345.586-1.02.902-1.68.947.705 1.187.24 3.127-1.336 3.307-1.11.12-2.355-1.098-3.495-1.263.285.15.585.526.87.707-.735.225-3.586.315-3.976-.692z" fill="#9E5E32"/><path d="M205.601 32.066c.015.136-.18.21-.3.136-.12-.076-.165-.226-.195-.346-.135-.511-.255-1.053-.075-1.534.18-.496.796-.857 1.246-.57.36-.858.09-1.925-.616-2.511-.72-.587-1.815-.632-2.58-.09-.615.42-.96 1.127-1.215 1.818-.21.572-.39 1.188-.255 1.774.105.496.405.917.705 1.338.345.481.69.947 1.02 1.428.33.466.75.963 1.305.978.57.015 1.035-.512 1.141-1.068.105-.556-.061-1.127-.256-1.668" fill="#C19272"/><path d="M227.086 30.052c.915-.421 1.905-.902 2.895-.737 1.516.256 2.416 1.954 2.341 3.473-.075 1.533-.885 2.916-1.666 4.24-1.335 2.24-2.67 4.494-4.035 6.72-.916 1.503-1.906 3.036-3.406 3.953-1.86 1.143-4.261 1.097-6.331.421-2.071-.691-3.901-1.954-5.701-3.202.075-1.173 1.245-1.91 2.04-2.766 1.56-1.654 1.875-4.15 1.65-6.42-.36-3.547 1.696-2.69 4.531-3.232a30.954 30.954 0 007.682-2.45z" fill="#CEEAE8"/><path d="M208.167 28.699a76.142 76.142 0 008.297 5.321c.45.256.87-.45.405-.706a76.255 76.255 0 01-8.297-5.322c-.42-.3-.825.406-.405.707zm-8.581 7.321a301.847 301.847 0 0112.932 9.23c.42.316.825-.39.405-.706a301.85 301.85 0 00-12.932-9.23c-.435-.286-.841.42-.405.706z" fill="#CEEAE8"/><path d="M217.154 38.02c.06-.812.03-1.684.495-2.346.54-.751 1.53-.992 2.415-1.232a19.394 19.394 0 004.576-1.91c.255-.15.525-.3.81-.315.675-.03 1.14.736 1.095 1.413-.045.676-.42 1.278-.705 1.879l-.075.36c.045.136.165.226.285.316.525.451.51 1.338.075 1.895-.42.556-1.14.812-1.83.857-.45.03-1.005.045-1.23.45-.105.196-.105.422-.105.632-.06 2.09-1.666 4.044-3.721 4.495.15.436.21.887.195 1.338-.015.165-.03.36-.165.466-.21.18-.54.06-.78-.075-1.516-.827-3.691-1.263-3.166-3.217.48-1.744 1.831-2.992 1.831-5.007z" fill="#B7CECC"/><path d="M202.781 34.727c.69-.06 1.395-.12 1.995-.496.57-.36.975-.962 1.306-1.578 1.62-3.022 1.995-6.886 4.29-9.306 2.806-2.962 7.217-2.57 11.103-2.57 3.105 0 6.196-.377 9.226-1.128.556-.136 1.126-.301 1.591-.662.825-.661 1.14-1.864 1.17-2.976.135-4.195-2.821-7.743-5.956-10.103C222 1.774 215.248-.316 208.587.06c-6.661.376-13.173 3.232-18.274 7.968-2.7 2.51-5.071 5.713-5.821 9.531-.465 2.36-.27 4.81.03 7.201.27 2.105.645 4.24 1.561 6.119 3.165 6.419 11.252 4.27 16.698 3.848z" fill="#A11211"/><path d="M198.115 3.202c-4.156 1.443-8.132 3.819-10.712 7.382-2.581 3.578-3.586 8.463-1.83 12.522.525 1.203 1.335 2.376 2.565 2.857 1.635.631 3.526-.166 4.771-1.414 2.476-2.48 3.796-5.908 6.316-8.433 2.056-2.075 4.636-3.022 6.797-4.841 1.86-1.563 2.58-4.224 1.29-6.48-1.905-3.262-6.241-2.63-9.197-1.593z" fill="#CA0007"/><path d="M204.642 45.266l.045.375-.255.226c-.48.24-.975.436-1.501.586a51.207 51.207 0 01-2.43-11.11c-.045-.405-.075-.811.075-1.187.255-.647 1.815-1.549 2.4-.962.361.345-.06 3.457-.015 4.059a27.316 27.316 0 001.681 8.013z" fill="#681616"/><path d="M220.859 24.805c1.62-.797 2.971-1.022 4.756-.992.795.015 1.635-.226 1.65-1.158l-.06-.09c-.54-.075-1.05.09-1.59.09-.69 0-1.305-.045-1.995.075-1.111.211-2.476.722-3.106 1.73-.15.225.135.45.345.345zm.405 2.421c1.05-.632 2.16-.617 3.316-.797.585-.09 1.29-.18 1.59-.737.06-.12-.045-.27-.18-.24-.39.105-.705.33-1.095.45-.42.136-.87.18-1.291.286-.825.196-1.65.526-2.355 1.007l.015.03z" fill="#4C3729"/><path d="M224.01 26.293c-.09.361-.315 1.263.255 1.369.63.105.645-.857.57-1.248l-.225-.226-.06-.015-.255.105-.075.316.06.226v.3l.075-.15-.015-.18-.09-.482h-.24v-.015z" fill="#4C3729"/><path d="M222.69 27.662c.435.24.9.345 1.395.315.375-.03.915-.105 1.095-.48l-.075-.121c-.315 0-.6.21-.915.27-.48.09-.945.015-1.38-.18-.15-.06-.255.12-.12.195zm.99.886c.225 0 .435 0 .63-.12l-.06-.195c-.195 0-.375.045-.57.045-.18-.015-.18.255 0 .27z" fill="#4C3729"/></g><defs><clipPath id="clip0_3281_7443"><path fill="#fff" transform="translate(49.376)" d="M0 0h270.443v243.511H0z"/></clipPath></defs></svg>