<svg width="56" height="22" viewBox="0 0 33 22" fill="none" xmlns="http://www.w3.org/2000/svg"><path d="M32 2.667v16a2.667 2.667 0 01-2.667 2.666H2.667a2.537 2.537 0 01-.907-.16A2.667 2.667 0 010 18.667v-16A2.667 2.667 0 012.667 0h26.666A2.667 2.667 0 0132 2.667z" fill="#DFE3E8"/><path d="M32.003 10.667v7.976a2.697 2.697 0 01-2.705 2.69H2.255a2.59 2.59 0 01-.92-.161 97.843 97.843 0 006.613-1.184c.568-.107 1.122-.242 1.677-.363 8.937-2.031 16.672-5.017 21.026-7.95.486-.336.946-.672 1.352-1.008z" fill="#EE7623"/><path fill-rule="evenodd" clip-rule="evenodd" d="M2.668 7.093h1.213v-.026a2.147 2.147 0 011.534 3.786 2.271 2.271 0 01-1.534.48H2.668v-4.24zm1.054 3.574a1.54 1.54 0 001.147-.374c.3-.273.47-.66.467-1.066a1.407 1.407 0 00-.467-1.067 1.56 1.56 0 00-1.147-.347H3.51v2.854h.213z" fill="#231F20"/><path fill="#231F20" d="M6.57 7.087h.833v4.28H6.57zm2.88 1.64c-.5-.18-.666-.307-.666-.54 0-.234.26-.474.62-.474a.887.887 0 01.666.347l.434-.567a1.833 1.833 0 00-1.254-.48A1.253 1.253 0 007.917 8.24c0 .593.267.893 1.047 1.173.2.065.394.147.58.247.157.09.253.259.253.44a.613.613 0 01-.667.607.987.987 0 01-.906-.574l-.54.52a1.66 1.66 0 001.52.814 1.373 1.373 0 001.466-1.4c0-.68-.273-.994-1.22-1.34zm1.491.5a2.214 2.214 0 002.26 2.233c.364.002.723-.082 1.047-.247v-.98c-.252.295-.62.465-1.006.467a1.407 1.407 0 01-1.44-1.48 1.42 1.42 0 011.4-1.467c.401.002.783.177 1.046.48v-.98a2.127 2.127 0 00-1.026-.266 2.253 2.253 0 00-2.28 2.24zm9.929.733l-1.147-2.873h-.907l1.814 4.386h.446l1.854-4.386h-.907L20.87 9.96zm2.43 1.407h2.374v-.727h-1.54V9.487h1.48V8.76h-1.48v-.947h1.54v-.726h-2.373v4.28z"/><path fill-rule="evenodd" clip-rule="evenodd" d="M28.977 8.347c.046.6-.378 1.134-.973 1.226l1.333 1.76h-1.013l-1.16-1.693h-.094v1.693h-.84v-4.24h1.227c.973 0 1.52.454 1.52 1.254zm-1.905.706h.266c.494 0 .787-.173.787-.626 0-.454-.28-.667-.787-.667h-.266v1.293z" fill="#231F20"/><path d="M19.062 9.227a2.273 2.273 0 11-2.273-2.274 2.28 2.28 0 012.273 2.274z" fill="#EE7623"/><path fill-rule="evenodd" clip-rule="evenodd" d="M29.413 7.173a.1.1 0 01-.08.094l.12.173h-.107l-.12-.16v.16h-.093v-.387h.133c.094 0 .147.04.147.12zm-.093 0c0-.04-.026-.04-.066-.04v.08h.013c.035 0 .048 0 .053-.006.003-.005 0-.015 0-.034z" fill="#231F20"/><path fill-rule="evenodd" clip-rule="evenodd" d="M28.977 7.24a.333.333 0 11.666 0 .333.333 0 01-.666 0zm.32.28a.213.213 0 00.174-.08.306.306 0 00.08-.2.253.253 0 10-.507 0 .26.26 0 00.253.28z" fill="#231F20"/></svg>