<svg width="536" height="333" fill="none" xmlns="http://www.w3.org/2000/svg"><g clip-path="url(#clip0_2812_6697)"><path d="M343.094 322.855c3.79-2.129 8.656-2.208 12.517-.206 3.861 2.002 6.599 6.022 7.042 10.351-7.991.008-15.864-1.86-19.559-10.145zm9.312-8.182c5.349 1.749 11.544.633 15.944-2.873 4.399-3.505 6.868-9.298 6.353-14.901-10.151 1.987-19.678 6.323-22.297 17.774z" fill="#EBEBEB"/><path d="M317.617 328.189c-.007-.016.167-.079.499-.198.372-.127.854-.293 1.456-.491a253.373 253.373 0 005.364-1.796c4.51-1.559 10.706-3.822 17.384-6.734a188.035 188.035 0 009.281-4.376c2.801-1.449 5.286-2.833 7.319-4.076 2.018-1.274 3.624-2.342 4.645-3.197 1.044-.823 1.558-1.361 1.59-1.321.008.008-.111.142-.364.395-.253.246-.601.634-1.131 1.053-1.005.894-2.596 2.01-4.598 3.316-2.025 1.282-4.494 2.698-7.295 4.162a165.3 165.3 0 01-9.289 4.416 203 203 0 01-17.455 6.631c-2.27.752-4.122 1.306-5.404 1.67-.609.174-1.1.308-1.479.419-.333.103-.515.143-.523.127z" fill="#E0E0E0"/><path d="M353.357 327.508c-.039.056-.965-.585-2.563-1.448a31.521 31.521 0 00-6.544-2.627 31.249 31.249 0 00-6.971-1.068c-1.812-.072-2.935.015-2.943-.056 0-.032.277-.071.783-.126.507-.064 1.25-.103 2.16-.103 1.828-.008 4.368.229 7.074.965 2.698.744 5.009 1.836 6.575 2.77.784.467 1.401.878 1.812 1.187.419.308.633.482.617.506z" fill="#E0E0E0"/><path d="M164.861 291.93c-1.923 5.136-1.1 11.213 2.136 15.644 3.236 4.432 8.767 7.075 14.242 6.798-1.511-9.963-5.349-19.419-16.378-22.442z" fill="#EBEBEB"/><path d="M163.3 287.039c.063-.015.34 1.092.91 2.826a42.216 42.216 0 002.809 6.552 43.217 43.217 0 003.9 5.966c1.132 1.441 1.899 2.279 1.844 2.327-.024.016-.23-.174-.601-.53-.372-.356-.879-.91-1.472-1.607-1.195-1.4-2.706-3.474-4.035-5.958a34.751 34.751 0 01-2.722-6.663 24.704 24.704 0 01-.523-2.121c-.102-.499-.142-.784-.11-.792z" fill="#E0E0E0"/><path d="M6.737 92.246c-2.983 7.952-1.701 17.369 3.307 24.23 5.009 6.861 13.586 10.952 22.068 10.533-2.35-15.431-8.284-30.079-25.375-34.763z" fill="#EBEBEB"/><path d="M4.317 84.68c.023-.008.158.412.372 1.18.205.767.53 1.867.965 3.22a63.08 63.08 0 004.328 10.177 62.454 62.454 0 006.085 9.242 67.923 67.923 0 002.144 2.588c.522.601.799.942.775.965-.024.016-.34-.284-.894-.854-.562-.562-1.337-1.417-2.255-2.509-1.836-2.184-4.154-5.389-6.22-9.234-2.056-3.846-3.441-7.558-4.24-10.288-.404-1.369-.688-2.485-.847-3.268-.158-.783-.237-1.21-.213-1.219z" fill="#E0E0E0"/><path d="M33.479 249.76c-4.273 3.442-6.647 9.092-6.117 14.553.53 5.46 3.949 10.548 8.807 13.104 3.75-9.354 5.27-19.443-2.69-27.657z" fill="#EBEBEB"/><path d="M34.618 244.759c.063.023-.261 1.108-.649 2.896a42.457 42.457 0 00-.918 7.067 42.01 42.01 0 00.325 7.122c.237 1.812.474 2.927.403 2.943-.024.008-.11-.261-.245-.759a25.327 25.327 0 01-.451-2.137c-.317-1.812-.562-4.368-.443-7.185.118-2.817.577-5.342 1.044-7.122.23-.894.451-1.607.625-2.089.174-.483.285-.744.309-.736z" fill="#E0E0E0"/><path d="M180.312 49.664c4.906 2.445 11.038 2.24 15.778-.522 4.739-2.762 7.936-8 8.221-13.477-10.065.49-19.86 3.332-23.999 13.999z" fill="#EBEBEB"/><path d="M175.289 50.709c-.008-.072 1.116-.222 2.904-.618a42.087 42.087 0 006.805-2.12 42.626 42.626 0 006.337-3.269c1.551-.973 2.461-1.654 2.501-1.598.016.023-.19.214-.594.546-.395.332-.989.775-1.748 1.298-1.52 1.044-3.735 2.334-6.338 3.41-2.611 1.069-5.088 1.71-6.908 2.026-.91.158-1.645.261-2.16.3-.506.048-.791.056-.799.025z" fill="#E0E0E0"/><path d="M159.805 48.224c7.066-1.52 13.222-6.766 15.833-13.508 2.611-6.742 1.598-14.767-2.603-20.654-9.97 8.776-17.74 19.76-13.23 34.162z" fill="#EBEBEB"/><path d="M155.494 53.43c-.024-.023.221-.308.664-.814a57.039 57.039 0 001.852-2.177 54.757 54.757 0 005.293-7.778 54.456 54.456 0 003.83-8.602 60.27 60.27 0 00.878-2.722c.198-.65.317-1.005.34-.997.024.008-.039.372-.19 1.036-.142.665-.395 1.615-.751 2.77-.712 2.319-1.947 5.46-3.743 8.705-1.812 3.244-3.829 5.943-5.428 7.77a35.247 35.247 0 01-1.962 2.105c-.483.475-.767.728-.783.705z" fill="#E0E0E0"/><path d="M224.711 319.302c1.495 2.944 4.526 5.049 7.809 5.421 3.284.372 6.71-1.013 8.815-3.553-5.032-3.379-10.785-5.532-16.624-1.868z" fill="#EBEBEB"/><path d="M221.907 318.004c.063-.118 2.445 1.266 5.697 2.089 3.244.847 5.997.776 5.997.902 0 .048-.68.135-1.796.103-1.115-.023-2.65-.19-4.304-.609a20.479 20.479 0 01-4.067-1.527c-.989-.507-1.551-.91-1.527-.958z" fill="#E0E0E0"/><path d="M298.062 35.183c2.034 2.603 5.42 4.083 8.712 3.806 3.292-.27 6.385-2.287 7.96-5.191-5.594-2.335-11.655-3.332-16.672 1.385z" fill="#EBEBEB"/><path d="M295.063 34.455c.039-.127 2.643.775 5.989.95 3.347.205 6.038-.404 6.061-.27.008.048-.641.261-1.74.451-1.1.19-2.643.325-4.344.23a19.881 19.881 0 01-4.289-.713c-1.068-.316-1.693-.601-1.677-.648z" fill="#E0E0E0"/><path d="M488.148 59.532c5.286 1.456 11.26.087 15.382-3.53 4.115-3.616 6.251-9.369 5.491-14.79-9.787 2.398-18.855 7.06-20.873 18.32z" fill="#EBEBEB"/><path d="M483.414 61.518c-.023-.063 1.053-.435 2.73-1.163a42.461 42.461 0 006.267-3.387 42.445 42.445 0 005.594-4.424c1.329-1.25 2.097-2.089 2.144-2.05.024.017-.15.246-.475.65-.324.403-.823.957-1.471 1.614a34.789 34.789 0 01-5.571 4.558c-2.358 1.543-4.668 2.651-6.385 3.308a26.75 26.75 0 01-2.057.712c-.491.142-.768.214-.776.182z" fill="#E0E0E0"/><path d="M506.87 300.714c9.289-2.145 17.304-9.196 20.612-18.146 3.307-8.942 1.811-19.514-3.854-27.19-12.976 11.791-22.993 26.439-16.758 45.336z" fill="#EBEBEB"/><path d="M501.282 307.677c-.023-.015.293-.403.879-1.076a70.648 70.648 0 002.413-2.896 72.81 72.81 0 003.307-4.511 75.032 75.032 0 003.537-5.863 75.911 75.911 0 002.928-6.189 69.104 69.104 0 001.93-5.246 74.394 74.394 0 001.084-3.617c.238-.862.38-1.337.404-1.329.032.008-.063.491-.253 1.369-.182.878-.507 2.129-.958 3.664-.451 1.535-1.076 3.339-1.859 5.31a67.064 67.064 0 01-2.92 6.235 68.451 68.451 0 01-3.584 5.88c-1.211 1.741-2.366 3.26-3.394 4.479-1.029 1.227-1.891 2.192-2.524 2.825-.61.641-.966.981-.99.965z" fill="#E0E0E0"/><path d="M399.455 200.943c-5-27.895-28.943-52.252-57.182-54.555-15.39-1.25-30.859 3.601-46.185 1.749-12.858-1.551-25.066-7.992-33.612-17.726-12.644-14.402-16.948-34.89-30.344-48.603-18.467-18.897-50.702-19.198-73.165-5.294-22.472 13.904-36.057 38.997-42.276 64.675l-.245 7.811c-1.353 26.636 5.649 57.601 21.11 81.341 15.658 24.056 25.952 33.987 54.484 51.286 24.228 14.687 71.671 21.144 99.997 21.825 28.326.68 57.42-7.763 78.728-26.447 21.292-18.675 33.691-48.168 28.69-76.062z" fill="#0AAD0A"/><path d="M399.455 200.943c-5-27.895-28.943-52.252-57.182-54.555-15.39-1.25-30.859 3.601-46.185 1.749-12.858-1.551-25.066-7.992-33.612-17.726-12.644-14.402-16.948-34.89-30.344-48.603-18.467-18.897-50.702-19.198-73.165-5.294-22.472 13.904-36.057 38.997-42.276 64.675l-.245 7.811c-1.353 26.636 5.649 57.601 21.11 81.341 15.658 24.056 25.952 33.987 54.484 51.286 24.228 14.687 71.671 21.144 99.997 21.825 28.326.68 57.42-7.763 78.728-26.447 21.292-18.675 33.691-48.168 28.69-76.062z" fill="#fff" opacity=".8"/><path d="M427.193 300.528c1.082-7.461-4.088-14.386-11.547-15.469-7.46-1.082-14.385 4.088-15.467 11.549-1.083 7.46 4.087 14.386 11.547 15.468 7.459 1.083 14.384-4.087 15.467-11.548z" fill="#0AAD0A"/><path opacity=".8" d="M427.193 300.528c1.082-7.461-4.088-14.386-11.547-15.469-7.46-1.082-14.385 4.088-15.467 11.549-1.083 7.46 4.087 14.386 11.547 15.468 7.459 1.083 14.384-4.087 15.467-11.548z" fill="#fff"/><path d="M317.913 193.544c.261 27.245-5.681 48.073-17.819 62.491-12.145 14.418-28.769 21.722-49.872 21.92-21.205.206-38.058-6.782-50.568-20.962-12.509-14.173-18.894-34.882-19.163-62.136l-.459-47.923c-.261-27.15 5.681-47.978 17.818-62.491 12.138-14.505 28.809-21.865 50.014-22.07 21.103-.206 37.917 6.829 50.426 21.105 12.509 14.275 18.903 34.984 19.164 62.135l.459 47.931zm-35.471-52.948c-.167-17.156-3.165-29.833-8.997-38.016-5.831-8.19-14.266-12.226-25.296-12.123-11.03.103-19.361 4.305-24.987 12.606-5.626 8.301-8.363 21.026-8.197 38.182l.562 58.226c.166 17.259 3.188 29.999 9.075 38.237 5.879 8.238 14.337 12.297 25.375 12.194 11.03-.103 19.338-4.305 24.916-12.606 5.578-8.301 8.284-21.12 8.118-38.474l-.569-58.226z" fill="#0AAD0A"/><path d="M317.913 193.544c.261 27.245-5.681 48.073-17.819 62.491-12.145 14.418-28.769 21.722-49.872 21.92-21.205.206-38.058-6.782-50.568-20.962-12.509-14.173-18.894-34.882-19.163-62.136l-.459-47.923c-.261-27.15 5.681-47.978 17.818-62.491 12.138-14.505 28.809-21.865 50.014-22.07 21.103-.206 37.917 6.829 50.426 21.105 12.509 14.275 18.903 34.984 19.164 62.135l.459 47.931zm-35.471-52.948c-.167-17.156-3.165-29.833-8.997-38.016-5.831-8.19-14.266-12.226-25.296-12.123-11.03.103-19.361 4.305-24.987 12.606-5.626 8.301-8.363 21.026-8.197 38.182l.562 58.226c.166 17.259 3.188 29.999 9.075 38.237 5.879 8.238 14.337 12.297 25.375 12.194 11.03-.103 19.338-4.305 24.916-12.606 5.578-8.301 8.284-21.12 8.118-38.474l-.569-58.226z" fill="#001E2B" opacity=".4"/><path d="M338.061 193.354c.261 27.245-5.681 48.073-17.819 62.491-12.145 14.418-28.769 21.722-49.871 21.92-21.205.206-38.059-6.782-50.568-20.962-12.51-14.173-18.895-34.882-19.164-62.136l-.451-47.915c-.261-27.15 5.681-47.978 17.819-62.491 12.137-14.505 28.809-21.865 50.014-22.07 21.102-.206 37.916 6.829 50.425 21.105 12.51 14.275 18.903 34.984 19.164 62.135l.451 47.923zm-35.471-52.956c-.166-17.156-3.165-29.833-8.997-38.016-5.831-8.19-14.266-12.226-25.295-12.123-11.03.103-19.362 4.305-24.988 12.606-5.625 8.301-8.363 21.026-8.197 38.182l.562 58.226c.166 17.259 3.189 29.999 9.075 38.237 5.879 8.238 14.338 12.297 25.375 12.194 11.03-.102 19.338-4.304 24.916-12.605 5.579-8.301 8.285-21.121 8.119-38.475l-.57-58.226z" fill="#0AAD0A"/><path d="M200.328 149.601c.04.103-4.636 1.963-10.444 4.147-5.816 2.184-10.555 3.869-10.595 3.759-.039-.103 4.637-1.963 10.453-4.147 5.807-2.184 10.547-3.87 10.586-3.759zm1.164 18.937c.04.103-4.636 1.962-10.444 4.146-5.816 2.184-10.555 3.87-10.595 3.759-.039-.103 4.637-1.962 10.453-4.147 5.799-2.184 10.547-3.869 10.586-3.758zm1.164 18.936c.04.103-4.636 1.963-10.444 4.147-5.815 2.184-10.555 3.869-10.595 3.759-.039-.103 4.637-1.963 10.453-4.147 5.799-2.184 10.547-3.87 10.586-3.759zm1.164 18.937c.04.103-4.636 1.962-10.444 4.146-5.815 2.184-10.555 3.87-10.595 3.759-.039-.103 4.637-1.962 10.453-4.146 5.8-2.184 10.547-3.87 10.586-3.759zm1.164 18.936c.008.024-.245.151-.728.356-.475.206-1.171.491-2.025.831a376 376 0 01-6.75 2.604 306.067 306.067 0 01-6.796 2.485c-.871.308-1.583.554-2.073.712-.491.158-.768.237-.784.206-.008-.024.246-.151.728-.357.475-.205 1.171-.49 2.026-.83a375.505 375.505 0 016.749-2.604 323.043 323.043 0 016.789-2.485c.87-.308 1.582-.554 2.073-.712.498-.158.775-.237.791-.206zm5.399 17.323c.024.055-.894.451-2.397 1.052a305.669 305.669 0 01-5.887 2.279c-2.31.871-4.407 1.63-5.926 2.16-1.527.531-2.477.839-2.501.784-.023-.056.894-.451 2.398-1.053a307.155 307.155 0 015.887-2.279c2.302-.87 4.399-1.63 5.926-2.16 1.527-.538 2.484-.839 2.5-.783zm11.579 15.889c.024.056-.791.412-2.129.958a266.222 266.222 0 01-10.523 3.957c-1.361.474-2.208.736-2.231.68-.024-.055.791-.411 2.128-.957a262.408 262.408 0 0110.524-3.957c1.36-.467 2.207-.736 2.231-.681zm19.234 10.422c.024.056-.791.412-2.128.958-1.33.538-3.189 1.258-5.238 2.034a231.716 231.716 0 01-5.286 1.922c-1.361.475-2.207.736-2.231.681-.024-.055.791-.411 2.128-.957 1.33-.539 3.189-1.259 5.238-2.034a234.173 234.173 0 015.286-1.923c1.361-.475 2.207-.736 2.231-.681zm58.012-40.405c.048.103-5.958 2.904-13.411 6.259-7.454 3.356-13.538 5.983-13.586 5.88-.047-.103 5.958-2.904 13.412-6.259 7.461-3.356 13.538-5.991 13.585-5.88zm3.941-16.23c.048.103-4.913 2.437-11.069 5.207-6.164 2.769-11.196 4.93-11.244 4.827-.047-.103 4.914-2.437 11.078-5.207 6.155-2.77 11.188-4.93 11.235-4.827zm1.813-18.225c.047.103-4.914 2.438-11.07 5.207-6.163 2.77-11.196 4.93-11.243 4.827-.048-.102 4.913-2.437 11.077-5.206 6.156-2.77 11.188-4.93 11.236-4.828zm1.812-18.224c.048.103-4.913 2.437-11.069 5.207-6.164 2.77-11.196 4.93-11.244 4.827-.047-.103 4.914-2.437 11.078-5.207 6.155-2.77 11.196-4.938 11.235-4.827zm1.82-18.232c.048.103-4.913 2.437-11.069 5.207-6.164 2.769-11.196 4.93-11.243 4.827-.048-.103 4.913-2.437 11.077-5.207 6.148-2.77 11.188-4.93 11.235-4.827zm-3.632-16.23c.047.102-4.914 2.437-11.07 5.207-6.163 2.769-11.196 4.93-11.243 4.827-.048-.103 4.913-2.438 11.077-5.207 6.156-2.77 11.188-4.93 11.236-4.827zm0-17.473c.047.103-4.914 2.437-11.07 5.207-6.163 2.77-11.196 4.93-11.243 4.827-.048-.103 4.913-2.437 11.077-5.207 6.156-2.77 11.188-4.93 11.236-4.827zm-1.813-16.452c.048.103-4.913 2.438-11.069 5.207-6.164 2.77-11.196 4.93-11.244 4.827-.047-.103 4.914-2.437 11.078-5.207 6.155-2.769 11.188-4.93 11.235-4.827zm-15.626-11.458c.048.103-2.951 1.55-6.701 3.236-3.751 1.686-6.829 2.968-6.868 2.865-.048-.103 2.951-1.551 6.701-3.237 3.743-1.693 6.821-2.975 6.868-2.864zm-8.359-7.027c.047.103-2.951 1.55-6.702 3.236-3.75 1.686-6.828 2.968-6.868 2.865-.047-.103 2.952-1.551 6.702-3.237 3.743-1.685 6.821-2.967 6.868-2.864zm-77.945 37.62c.039.102-4.637 1.962-10.444 4.146-5.816 2.184-10.556 3.87-10.595 3.759-.04-.111 4.637-1.962 10.452-4.147 5.808-2.176 10.547-3.861 10.587-3.758zm5.827-23.614c.039.103-5.032 2.113-11.331 4.479-6.298 2.366-11.433 4.202-11.473 4.091-.039-.102 5.033-2.112 11.331-4.479 6.298-2.366 11.433-4.202 11.473-4.091zm15.217-23.376c.04.103-6.393 2.62-14.369 5.619-7.975 2.999-14.471 5.341-14.511 5.23-.04-.102 6.393-2.619 14.369-5.618 7.968-2.991 14.472-5.334 14.511-5.23z" fill="#0AAD0A"/><path d="M334.648 228.837c0 .008-.119-.032-.333-.111-.229-.087-.546-.213-.949-.372-.42-.158-.966-.269-1.599-.451-.648-.087-1.392-.269-2.239-.269-3.378-.221-8.442 1.013-13.34 4.677-2.485 1.773-4.803 4.202-7.066 6.987-2.271 2.778-4.494 5.92-7.018 9.093-2.524 3.157-5.428 6.362-9.115 8.839-3.664 2.485-7.992 4.281-12.612 5.112-4.629.855-9.305.609-13.602-.451-4.312-1.037-8.244-2.73-11.916-4.424-3.671-1.701-7.105-3.442-10.397-4.866-3.283-1.456-6.464-2.509-9.431-3.213-2.975-.681-5.729-.973-8.15-.942a24.872 24.872 0 00-6.132.831c-1.63.499-2.856 1.013-3.648 1.432-.387.206-.68.365-.902.475-.205.103-.308.159-.316.151 0-.008.095-.072.293-.19.213-.127.514-.293.886-.515.783-.443 2.009-.989 3.639-1.511a24.413 24.413 0 016.172-.91c2.437-.056 5.222.221 8.221.886 2.991.689 6.203 1.733 9.503 3.181 3.315 1.417 6.749 3.15 10.42 4.835 3.672 1.678 7.58 3.356 11.853 4.376 4.249 1.045 8.862 1.282 13.435.444 4.566-.823 8.838-2.596 12.462-5.041 3.648-2.438 6.528-5.603 9.052-8.744 2.524-3.15 4.755-6.284 7.05-9.069 2.287-2.786 4.645-5.231 7.161-7.003 4.961-3.672 10.104-4.875 13.514-4.606.863.016 1.606.206 2.263.309.633.19 1.179.324 1.598.49.404.174.712.309.942.412.198.095.308.15.301.158zm4.993-52.821c.008.047-.561.118-1.535.443-.973.332-2.326.973-3.821 2.042-1.512 1.052-3.15 2.524-5.072 4.043a36.806 36.806 0 01-6.797 4.186c-5.127 2.469-10.278 3.427-13.973 3.609-.926.079-1.765.047-2.501.063-.735-.031-1.368-.039-1.891-.079l-1.186-.119c-.269-.031-.412-.055-.412-.071 0-.016.143-.016.419-.016.317.008.713.024 1.187.04.538 0 1.163.008 1.883.016.728-.04 1.567-.032 2.485-.127 3.663-.253 8.743-1.25 13.823-3.695a37.911 37.911 0 006.741-4.115c1.923-1.496 3.592-2.952 5.143-3.989 1.535-1.052 2.936-1.669 3.941-1.954.506-.135.894-.222 1.171-.253.245-.024.395-.04.395-.024zm-103.359 18.335c0 .016-.151-.008-.435-.063-.277-.064-.705-.127-1.227-.277a18.883 18.883 0 01-4.241-1.86c-1.693-.989-3.561-2.398-5.539-4.044-1.986-1.638-4.106-3.521-6.535-5.199-2.437-1.669-5.017-2.864-7.509-3.442a22.71 22.71 0 00-6.734-.641c-1.93.095-3.481.419-4.525.688-1.053.269-1.622.475-1.638.436-.008-.016.134-.072.403-.182.269-.103.665-.261 1.187-.412a21.016 21.016 0 014.55-.831 22.442 22.442 0 016.844.562c2.54.57 5.183 1.781 7.651 3.474 2.461 1.701 4.581 3.601 6.552 5.247 1.962 1.661 3.79 3.086 5.443 4.091a20.535 20.535 0 004.139 1.954c1.036.317 1.622.459 1.614.499zm.146-74.805c.008.024-.458.198-1.321.483-.427.15-.957.317-1.582.467-.625.158-1.33.364-2.121.506-.791.167-1.662.341-2.611.459-.942.159-1.954.23-3.023.325a46.055 46.055 0 01-6.962-.087 46.572 46.572 0 01-6.86-1.219c-1.029-.293-2.018-.554-2.912-.886a31.722 31.722 0 01-2.477-.934c-.759-.285-1.408-.625-1.994-.894a18.374 18.374 0 01-1.463-.752c-.792-.443-1.219-.696-1.203-.72.016-.024.467.182 1.282.578.403.205.894.443 1.487.688.586.253 1.242.57 2.002.839.752.293 1.575.609 2.477.878.894.317 1.875.562 2.896.839a48.27 48.27 0 006.804 1.171c2.445.222 4.779.222 6.9.119 1.06-.087 2.065-.142 2.999-.285.941-.103 1.804-.261 2.595-.403.799-.127 1.495-.309 2.12-.452.625-.126 1.156-.277 1.591-.395.878-.23 1.369-.348 1.376-.325zm98.718-.197c-.008.007-.126-.048-.34-.159a54.164 54.164 0 01-.918-.53 14.708 14.708 0 00-1.472-.799c-.585-.285-1.234-.657-2.001-.942-.38-.158-.776-.324-1.187-.49-.412-.167-.863-.293-1.322-.452-.902-.332-1.914-.561-2.959-.838a35.777 35.777 0 00-6.986-.823c-2.501-.008-4.874.277-7.003.696-1.052.253-2.065.467-2.975.783-.459.151-.91.269-1.329.428-.412.166-.815.324-1.195.475-.775.277-1.424.633-2.018.91-.593.269-1.084.538-1.479.775-.364.206-.673.372-.926.514-.214.111-.332.167-.34.159-.008-.008.095-.087.292-.23.246-.158.539-.348.895-.585.387-.254.87-.554 1.455-.847.586-.293 1.235-.673 2.01-.973.388-.159.784-.325 1.203-.499.419-.174.87-.301 1.337-.459.918-.34 1.939-.562 2.999-.831a34.617 34.617 0 017.081-.736c2.532.04 4.93.38 7.066.863 1.06.285 2.073.53 2.983.878.459.166.91.301 1.322.483.411.182.807.356 1.186.522.768.309 1.417.704 1.994 1.005.586.301 1.061.602 1.44.871.349.237.641.435.879.601.221.142.316.222.308.23zm-48.369-53.748c.008.016-.19.127-.57.34-.419.23-.973.53-1.677.91a229.67 229.67 0 01-6.243 3.221c-5.301 2.62-12.755 6.204-21.569 8.436-4.407 1.084-8.72 1.67-12.652 1.757-3.933.087-7.477-.27-10.389-.894-2.912-.618-5.198-1.401-6.726-2.058-.775-.3-1.337-.617-1.74-.791-.396-.19-.594-.301-.586-.309.008-.016.222.071.625.238.412.158.981.45 1.765.72 1.535.609 3.821 1.345 6.717 1.915 2.896.585 6.417.91 10.326.799 3.901-.11 8.181-.697 12.557-1.78 8.759-2.216 16.204-5.746 21.537-8.302 2.627-1.297 4.772-2.35 6.291-3.102.72-.348 1.289-.633 1.717-.838.395-.183.609-.278.617-.262z" fill="#fff"/><path d="M127.933 203.475l26.451 1.155-1.227 28.037-26.451-1.155-2.033 46.585-34.791-1.519 2.033-46.586-89.853-3.925.072-21.35 95.74-137.533 35.937 1.567-5.878 134.724zm-91-3.973l56.209 2.454 3.71-84.974-.846-.324-3.141 6.054-55.933 76.79z" fill="#0AAD0A"/><path d="M127.933 203.475l26.451 1.155-1.227 28.037-26.451-1.155-2.033 46.585-34.791-1.519 2.033-46.586-89.853-3.925.072-21.35 95.74-137.533 35.937 1.567-5.878 134.724zm-91-3.973l56.209 2.454 3.71-84.974-.846-.324-3.141 6.054-55.933 76.79z" fill="#001E2B" opacity=".4"/><path d="M150.058 204.44l26.451 1.156-1.227 28.037-26.451-1.156-2.033 46.586-34.791-1.519 2.033-46.586-89.853-3.925.072-21.35 95.739-137.534 35.938 1.567-5.878 134.724zm-91.009-3.972l56.21 2.453 3.711-84.973-.847-.325-3.141 6.054-55.933 76.791z" fill="#0AAD0A"/><path d="M24.704 209.742c.008.024-.293.198-.855.483s-1.385.681-2.405 1.163a234.374 234.374 0 01-8.047 3.569 237.562 237.562 0 01-8.174 3.284 99.642 99.642 0 01-2.508.918c-.593.206-.933.309-.941.277-.008-.024.3-.182.886-.427.656-.277 1.48-.625 2.46-1.037 2.16-.902 4.985-2.081 8.119-3.395 3.117-1.329 5.934-2.54 8.086-3.458l2.453-1.036c.593-.246.918-.364.926-.341zm12.882-23.692c.016.024-.412.245-1.195.633-.783.38-1.915.91-3.323 1.559-2.817 1.29-6.741 3.007-11.101 4.851-4.36 1.844-8.324 3.458-11.212 4.582a143.01 143.01 0 01-3.434 1.297c-.815.293-1.274.443-1.282.42-.008-.024.427-.23 1.227-.562.862-.364 2.001-.839 3.378-1.425 2.92-1.226 6.829-2.872 11.157-4.692 4.32-1.836 8.229-3.498 11.14-4.732 1.377-.586 2.516-1.069 3.379-1.433.807-.356 1.25-.53 1.266-.498zm15.72-21.129c.008.024-.435.254-1.25.633-.815.38-2.002.918-3.473 1.559-2.944 1.29-7.042 3.007-11.584 4.851a484.057 484.057 0 01-11.695 4.582c-1.503.562-2.73 1.005-3.576 1.298-.847.293-1.321.443-1.337.411-.008-.024.443-.229 1.282-.562.894-.364 2.088-.838 3.529-1.424 3.038-1.227 7.128-2.873 11.646-4.693 4.51-1.835 8.593-3.497 11.624-4.732l3.52-1.432c.832-.348 1.298-.522 1.314-.491zm62.976 24.405c.008.024-.292.19-.862.467-.562.277-1.385.657-2.413 1.116-2.042.925-4.89 2.152-8.063 3.442a242.953 242.953 0 01-8.182 3.142c-1.052.379-1.914.68-2.508.87-.593.198-.933.293-.941.261-.008-.024.308-.174.886-.411.657-.269 1.487-.602 2.46-.997 2.169-.863 5.001-2.003 8.135-3.253 3.125-1.282 5.95-2.437 8.102-3.323.981-.396 1.804-.728 2.461-.998.585-.229.909-.348.925-.316zm-2.563 43.468c.008.023-.285.19-.831.467a81.82 81.82 0 01-2.334 1.115 206.44 206.44 0 01-7.818 3.435 222.78 222.78 0 01-7.936 3.141c-1.02.38-1.86.681-2.437.879-.577.198-.902.293-.918.269-.007-.024.293-.174.855-.412.64-.269 1.44-.601 2.39-.997 2.104-.87 4.85-2.002 7.888-3.252 3.023-1.282 5.76-2.437 7.857-3.324.942-.395 1.741-.728 2.39-.997.569-.229.886-.348.894-.324zm-.367 15.241c.008.024-.285.19-.831.467s-1.345.657-2.334 1.115a206.44 206.44 0 01-7.818 3.435 222.92 222.92 0 01-7.936 3.141c-1.02.38-1.86.681-2.437.879-.578.198-.902.293-.918.269-.008-.024.293-.174.855-.412.64-.269 1.44-.601 2.39-.997 2.104-.87 4.85-2.002 7.888-3.252 3.023-1.282 5.76-2.437 7.857-3.324.942-.395 1.741-.728 2.39-.997.561-.237.886-.348.894-.324zm-.36 15.233c.008.024-.285.19-.831.467a81.34 81.34 0 01-2.334 1.116 208.132 208.132 0 01-7.817 3.434 225.353 225.353 0 01-7.936 3.142c-1.02.379-1.86.68-2.437.878-.578.198-.902.293-.918.269-.008-.024.293-.174.854-.412.641-.269 1.44-.601 2.39-.997 2.105-.87 4.85-2.002 7.889-3.252 3.022-1.282 5.76-2.437 7.857-3.324.941-.395 1.74-.728 2.389-.997.562-.229.878-.348.894-.324zm3.704-90.046c.008.024-.292.19-.862.467-.562.277-1.385.657-2.413 1.116a232.08 232.08 0 01-8.063 3.442 242.96 242.96 0 01-8.181 3.142c-1.053.38-1.915.68-2.509.87-.593.198-.933.293-.941.262-.008-.024.308-.175.886-.412.657-.269 1.487-.601 2.46-.997 2.169-.863 5.001-2.002 8.135-3.252 3.125-1.282 5.95-2.438 8.102-3.324.981-.396 1.804-.728 2.461-.997.585-.23.91-.34.925-.317zm.407-16.095c.007.023-.293.19-.863.467-.562.277-1.385.656-2.413 1.115-2.042.926-4.89 2.153-8.063 3.443a240.594 240.594 0 01-8.181 3.141c-1.053.38-1.915.681-2.508.871-.594.198-.934.292-.942.261-.008-.024.309-.174.886-.412.657-.269 1.488-.601 2.46-.997 2.169-.862 5.002-2.002 8.135-3.252 3.125-1.282 5.95-2.437 8.102-3.324.981-.395 1.804-.728 2.461-.997.585-.229.91-.34.926-.316zm.415-16.096c.008.024-.277.182-.815.443-.538.261-1.321.625-2.294 1.068a221.392 221.392 0 01-7.675 3.284 206.301 206.301 0 01-7.802 2.984 97.41 97.41 0 01-2.39.831c-.569.182-.886.277-.893.245-.008-.024.292-.166.838-.396.633-.253 1.417-.577 2.342-.949 2.073-.823 4.764-1.907 7.747-3.094 2.967-1.219 5.657-2.327 7.714-3.174.926-.372 1.709-.696 2.342-.949.562-.214.871-.317.886-.293zm1.819-15.043c.039.103-1.733.862-3.964 1.693-2.231.823-4.067 1.409-4.107 1.306-.039-.103 1.733-.863 3.964-1.693 2.224-.831 4.067-1.417 4.107-1.306zm-50.343 17.021c.008.024-.436.254-1.25.633-.815.38-2.002.918-3.474 1.559-2.943 1.29-7.042 3.007-11.584 4.851a484.057 484.057 0 01-11.694 4.582c-1.503.562-2.73 1.005-3.577 1.298-.846.293-1.32.443-1.337.411-.008-.023.443-.229 1.282-.562.894-.364 2.089-.838 3.529-1.424 3.038-1.227 7.129-2.872 11.647-4.693 4.51-1.835 8.593-3.497 11.623-4.732l3.521-1.432c.839-.34 1.306-.514 1.314-.491zm15.703-21.904c.008.024-.435.254-1.25.633-.815.38-2.002.918-3.474 1.559-2.943 1.29-7.042 3.007-11.584 4.851a484.057 484.057 0 01-11.694 4.582c-1.503.562-2.73 1.005-3.577 1.298-.846.293-1.32.443-1.337.411-.008-.023.443-.229 1.282-.562.894-.364 2.089-.838 3.53-1.424 3.037-1.227 7.128-2.873 11.646-4.693 4.51-1.835 8.593-3.497 11.623-4.732l3.521-1.432c.831-.348 1.298-.522 1.314-.491zm14.5-21.912c.008.024-.435.254-1.25.633-.815.38-2.002.918-3.474 1.559-2.943 1.29-7.042 3.007-11.584 4.851a484.057 484.057 0 01-11.694 4.582c-1.503.562-2.73 1.005-3.576 1.298-.847.293-1.322.443-1.338.411-.008-.023.443-.229 1.282-.562.894-.364 2.089-.838 3.53-1.424 3.037-1.227 7.128-2.872 11.646-4.693 4.51-1.835 8.593-3.497 11.623-4.732l3.521-1.432c.84-.34 1.306-.514 1.314-.49zm15.101-21.065c.008.024-.435.253-1.25.633s-2.002.918-3.473 1.56c-2.944 1.289-7.042 3.006-11.584 4.85a483.519 483.519 0 01-11.695 4.582c-1.503.562-2.73 1.005-3.576 1.298-.846.292-1.321.443-1.337.411-.008-.024.443-.23 1.282-.562.894-.364 2.089-.839 3.529-1.424 3.038-1.227 7.129-2.873 11.647-4.693l11.623-4.732 3.521-1.432c.831-.34 1.298-.515 1.313-.49z" fill="#0AAD0A"/><path d="M154.349 110.319c.008.008-.15.19-.458.523-.309.332-.768.823-1.433 1.385-1.289 1.147-3.323 2.666-6.148 3.972-2.816 1.298-6.448 2.319-10.57 2.414a24.79 24.79 0 01-6.402-.72c-2.183-.515-4.336-1.401-6.472-2.414-4.257-2.073-8.039-4.519-11.734-6.22-3.671-1.741-7.295-2.603-10.357-2.706-3.078-.111-5.523.585-7.066 1.321-.767.38-1.353.712-1.717.982-.372.253-.578.379-.586.371-.007-.007.175-.158.538-.435.349-.293.926-.649 1.694-1.06 1.543-.792 4.027-1.543 7.145-1.472 3.109.071 6.788.91 10.515 2.651 3.735 1.701 7.533 4.139 11.75 6.196 2.113 1.005 4.241 1.883 6.385 2.398 2.137.53 4.265.759 6.299.728 4.059-.071 7.659-1.045 10.452-2.295a26.165 26.165 0 006.164-3.822c.672-.538 1.147-1.013 1.479-1.322.333-.332.515-.49.522-.475zM143.33 71.188c.016.024-.348.23-1.004.586-.657.356-1.638.823-2.873 1.345-1.234.53-2.729 1.068-4.431 1.583-1.701.498-3.6.95-5.617 1.29-2.018.324-3.964.49-5.737.561-1.772.048-3.371.016-4.7-.095-1.337-.102-2.413-.23-3.149-.364-.736-.126-1.139-.205-1.139-.237.008-.032.419 0 1.155.08.744.086 1.82.165 3.141.229 1.329.07 2.912.079 4.668.008a53.544 53.544 0 005.681-.594 52.763 52.763 0 005.579-1.25c1.685-.49 3.188-.997 4.423-1.488a51.121 51.121 0 002.911-1.219c.697-.3 1.077-.459 1.092-.435zm-56.171 87.885c-.024.016-.27-.269-.712-.799a457.3 457.3 0 00-1.876-2.223c-1.598-1.86-3.885-4.377-6.622-6.925-1.37-1.274-2.762-2.382-4.154-3.197-1.385-.815-2.762-1.305-3.956-1.535-2.406-.475-3.917.071-3.925-.024 0-.015.087-.047.261-.102.174-.056.435-.119.776-.182.68-.119 1.7-.182 2.935.023 1.227.198 2.659.673 4.09 1.496 1.433.807 2.865 1.939 4.242 3.221a70.763 70.763 0 016.567 7.043 51.475 51.475 0 011.78 2.318c.412.546.618.871.594.886zm63.113 23.914c.008.016-.094.095-.308.238-.214.142-.514.364-.942.601-.83.507-2.081 1.156-3.711 1.765-3.22 1.234-8.141 2.129-13.395 1.06-5.246-1.076-9.424-3.838-11.9-6.235-1.259-1.203-2.153-2.287-2.722-3.079-.293-.387-.483-.712-.625-.926-.135-.213-.206-.332-.19-.34.031-.024.34.412.941 1.163a26.718 26.718 0 002.785 2.968c2.501 2.319 6.631 4.993 11.782 6.046 5.151 1.052 10.001.221 13.214-.926a25.869 25.869 0 003.726-1.63c.863-.459 1.322-.736 1.345-.705zm23.052 50.1s-.087-.119-.23-.364c-.15-.262-.356-.626-.625-1.092-.506-.99-1.432-2.343-2.706-4.013l-1.076-1.274c-.19-.221-.38-.451-.578-.68-.221-.214-.443-.435-.672-.657a1243.1 1243.1 0 01-1.424-1.401c-.53-.443-1.092-.902-1.662-1.384a37.391 37.391 0 00-8.688-5.168c-3.457-1.448-7.493-2.532-11.908-2.762-4.407-.253-9.162.428-13.791 2.216-4.629 1.82-9.099 4.574-13.831 7.233-2.366 1.329-4.819 2.627-7.43 3.68-2.603 1.06-5.38 1.875-8.268 2.168-2.888.332-5.776.063-8.538-.514-2.761-.586-5.38-1.559-7.857-2.683-4.969-2.263-9.32-5.247-13.38-8.135-4.066-2.888-7.896-5.674-11.718-7.905-3.813-2.224-7.603-3.933-11.259-4.812-3.655-.87-7.097-1.013-10.056-.664-2.968.324-5.436 1.171-7.312 2.112-1.899.926-3.125 2.026-3.98 2.731-.38.379-.68.68-.886.894-.205.198-.316.293-.316.293s.087-.111.285-.325c.205-.221.49-.53.862-.926.839-.728 2.057-1.859 3.964-2.809 1.875-.973 4.36-1.852 7.35-2.2 2.984-.38 6.457-.253 10.152.609 3.695.871 7.525 2.572 11.362 4.796 3.854 2.231 7.7 5.017 11.766 7.889 4.067 2.873 8.403 5.841 13.333 8.08 2.46 1.108 5.048 2.081 7.778 2.651 2.721.57 5.562.831 8.402.506 2.841-.292 5.579-1.092 8.158-2.144 2.587-1.045 5.024-2.335 7.39-3.656 4.724-2.643 9.21-5.397 13.886-7.233 1.179-.435 2.335-.862 3.529-1.139.594-.151 1.171-.333 1.765-.451.593-.095 1.187-.198 1.772-.293 2.342-.388 4.661-.412 6.884-.317 4.455.253 8.522 1.361 11.995 2.841 3.482 1.488 6.377 3.379 8.72 5.255.577.482 1.131.949 1.661 1.4l1.424 1.425.665.664.578.697c.372.451.728.878 1.068 1.29 1.258 1.693 2.16 3.07 2.65 4.075.254.483.451.847.594 1.116.142.245.198.38.198.38zm-23.91 33.053c0 .016-.134.048-.403.103a70.54 70.54 0 01-1.171.222c-.507.103-1.132.206-1.86.269-.728.071-1.559.198-2.484.214-.467.023-.95.039-1.448.063-.507.016-1.029-.008-1.575-.016-1.092.008-2.247-.103-3.465-.198a47.875 47.875 0 01-7.81-1.519 48.169 48.169 0 01-7.406-2.912c-1.084-.578-2.12-1.1-3.03-1.694-.459-.292-.918-.546-1.338-.831a99.022 99.022 0 00-1.186-.83c-.768-.515-1.409-1.061-1.979-1.52a17.445 17.445 0 01-1.424-1.226 75.09 75.09 0 01-.862-.815c-.198-.19-.293-.293-.285-.309.008-.016.127.071.34.245.245.206.546.451.918.76.388.34.87.744 1.464 1.171.585.435 1.226.966 2.002 1.456.379.261.783.522 1.194.807.42.277.879.531 1.338.807.917.578 1.954 1.085 3.022 1.646a48.516 48.516 0 007.351 2.857c2.69.768 5.325 1.25 7.73 1.535 1.211.103 2.358.23 3.434.238.538.008 1.06.047 1.559.039.498-.015.981-.023 1.44-.039.918 0 1.749-.103 2.476-.151a24.557 24.557 0 001.86-.197c.475-.056.862-.111 1.179-.151.269-.031.411-.039.419-.024z" fill="#fff"/><path d="M471.539 203.799l26.348-2.579 2.73 27.926-26.349 2.579 4.542 46.404-34.656 3.387-4.542-46.404-89.512 8.752-2.936-21.144 75.445-149.633 35.803-3.505 13.127 134.217zm-90.66 8.871l55.996-5.476-8.277-84.648-.886-.198-2.263 6.441-44.57 83.881z" fill="#0AAD0A"/><path d="M471.539 203.799l26.348-2.579 2.73 27.926-26.349 2.579 4.542 46.404-34.656 3.387-4.542-46.404-89.512 8.752-2.936-21.144 75.445-149.633 35.803-3.505 13.127 134.217zm-90.66 8.871l55.996-5.476-8.277-84.648-.886-.198-2.263 6.441-44.57 83.881z" fill="#001E2B" opacity=".4"/><path d="M493.578 201.647l26.348-2.58 2.73 27.926-26.348 2.58 4.541 46.404-34.656 3.387-4.542-46.404-89.512 8.752-2.936-21.144 75.445-149.633 35.803-3.498 13.127 134.21zm-90.652 8.871l55.996-5.484-8.277-84.649-.886-.206-2.263 6.442-44.57 83.897z" fill="#0AAD0A"/><path d="M370.215 224.532c.016.024-.261.238-.783.594a81.97 81.97 0 01-2.216 1.487 238.685 238.685 0 01-7.461 4.669 231.312 231.312 0 01-7.627 4.4c-.99.546-1.789.973-2.35 1.258-.562.285-.879.436-.895.412-.015-.024.277-.222.815-.546.61-.364 1.377-.831 2.287-1.369a3291.06 3291.06 0 007.556-4.503c2.896-1.757 5.523-3.347 7.525-4.558.91-.546 1.67-1.005 2.287-1.377.546-.324.854-.49.862-.467zm9.414-25.275c.015.024-.372.301-1.092.791-.72.483-1.765 1.172-3.07 2.01a468.336 468.336 0 01-10.302 6.363 498.461 498.461 0 01-10.452 6.117 173.473 173.473 0 01-3.213 1.772c-.767.404-1.195.618-1.21.594-.016-.024.387-.285 1.131-.728l3.149-1.884c2.714-1.622 6.362-3.806 10.389-6.212 4.02-2.421 7.651-4.621 10.365-6.251 1.282-.776 2.342-1.409 3.141-1.899.736-.459 1.148-.697 1.164-.673zm12.595-23.13c.016.023-.396.308-1.147.799-.752.49-1.852 1.187-3.221 2.034a558.811 558.811 0 01-10.784 6.433c-4.241 2.461-8.11 4.645-10.935 6.18a167.74 167.74 0 01-3.363 1.789c-.799.411-1.25.625-1.266.601-.016-.024.412-.285 1.187-.736a619.23 619.23 0 003.292-1.907c2.84-1.638 6.654-3.846 10.871-6.283 4.21-2.453 8.015-4.669 10.848-6.323 1.345-.783 2.453-1.432 3.284-1.915.783-.459 1.218-.696 1.234-.672zm65.789 15.304c.016.024-.269.229-.783.578-.522.348-1.282.846-2.231 1.448a249.58 249.58 0 01-7.501 4.542 245.625 245.625 0 01-7.659 4.265c-.99.522-1.797.942-2.358 1.219-.562.277-.879.419-.894.396-.016-.024.276-.214.814-.539.618-.356 1.385-.799 2.295-1.329 2.018-1.163 4.668-2.683 7.596-4.368l7.556-4.432c.91-.53 1.678-.973 2.295-1.337.546-.309.854-.467.87-.443zm3.578 43.404c.015.024-.254.23-.76.578-.499.348-1.234.839-2.152 1.432a219.65 219.65 0 01-7.256 4.503 226.939 226.939 0 01-7.414 4.234c-.957.522-1.74.933-2.286 1.21-.546.277-.855.42-.871.388-.016-.024.269-.214.791-.53.602-.356 1.346-.799 2.224-1.322 1.962-1.155 4.518-2.658 7.35-4.328 2.817-1.694 5.357-3.221 7.311-4.392l2.224-1.322c.522-.316.823-.474.839-.451zm1.773 15.139c.016.023-.253.229-.76.577-.498.348-1.234.839-2.152 1.432a219.463 219.463 0 01-7.255 4.503 229.075 229.075 0 01-7.414 4.234c-.958.522-1.741.934-2.287 1.211-.546.276-.855.419-.87.387-.016-.031.269-.213.791-.53l2.223-1.321c1.963-1.156 4.518-2.659 7.351-4.329 2.817-1.693 5.357-3.221 7.311-4.392l2.223-1.321c.522-.317.823-.475.839-.451zm1.781 15.13c.016.024-.253.229-.759.577a77.5 77.5 0 01-2.153 1.433c-1.827 1.195-4.391 2.793-7.255 4.502a225.093 225.093 0 01-7.414 4.234c-.957.522-1.741.934-2.287 1.211-.546.277-.854.419-.87.388-.016-.024.269-.214.791-.531l2.223-1.321c1.963-1.156 4.518-2.659 7.351-4.329 2.817-1.693 5.357-3.22 7.311-4.392.878-.522 1.622-.965 2.224-1.321.522-.317.822-.475.838-.451zm-8.991-89.666c.016.024-.269.23-.783.578-.523.348-1.282.846-2.232 1.448a246.252 246.252 0 01-7.501 4.542 244.477 244.477 0 01-7.659 4.265c-.989.523-1.796.942-2.358 1.219-.562.277-.878.419-.894.396-.016-.024.277-.214.815-.538.617-.357 1.385-.8 2.295-1.33 2.017-1.163 4.668-2.682 7.596-4.368 2.911-1.709 5.546-3.252 7.556-4.431.91-.531 1.677-.974 2.295-1.338.546-.308.854-.467.87-.443zm-1.852-16.001c.016.024-.269.23-.783.578-.522.348-1.282.847-2.231 1.448a247.5 247.5 0 01-7.501 4.542 244.782 244.782 0 01-7.659 4.266c-.989.522-1.797.941-2.358 1.218-.562.277-.879.42-.894.396-.016-.024.277-.214.815-.538.617-.356 1.384-.799 2.294-1.33 2.018-1.163 4.668-2.682 7.596-4.368 2.912-1.709 5.547-3.252 7.556-4.431.91-.53 1.678-.973 2.295-1.337.546-.309.854-.467.87-.444zm-1.864-15.992c.016.023-.253.221-.744.554-.498.332-1.218.807-2.12 1.384a216.096 216.096 0 01-14.44 8.381c-.942.498-1.717.894-2.255 1.155-.538.261-.839.396-.855.372-.016-.024.261-.206.775-.515.594-.34 1.322-.767 2.192-1.274l7.24-4.154a3469.07 3469.07 0 007.192-4.226c.863-.498 1.599-.926 2.192-1.274.514-.277.807-.427.823-.403zm-.318-15.147c.056.103-1.598 1.1-3.687 2.232-2.089 1.132-3.829 1.97-3.885 1.868-.055-.103 1.599-1.1 3.687-2.232 2.089-1.132 3.83-1.97 3.885-1.868zm-47.435 23.93c.016.024-.396.309-1.147.8-.752.49-1.852 1.187-3.221 2.033a553.075 553.075 0 01-10.784 6.434c-4.241 2.461-8.11 4.645-10.935 6.18a167.74 167.74 0 01-3.363 1.789c-.799.411-1.25.625-1.266.601-.016-.024.412-.285 1.187-.736.839-.483 1.946-1.124 3.292-1.907 2.84-1.638 6.654-3.846 10.871-6.283 4.21-2.453 8.015-4.669 10.848-6.323 1.345-.783 2.453-1.432 3.284-1.915.783-.459 1.226-.696 1.234-.673zm12.461-23.898c.016.024-.396.309-1.147.799-.752.491-1.852 1.187-3.221 2.034a553.075 553.075 0 01-10.784 6.434c-4.241 2.461-8.11 4.645-10.935 6.18a164.333 164.333 0 01-3.363 1.788c-.799.412-1.25.625-1.266.602-.016-.024.412-.285 1.187-.736.839-.483 1.946-1.124 3.292-1.907 2.84-1.638 6.654-3.846 10.871-6.283 4.209-2.454 8.015-4.669 10.848-6.323 1.345-.784 2.453-1.433 3.284-1.915.783-.459 1.218-.697 1.234-.673zm11.281-23.732c.016.024-.395.309-1.147.799-.752.491-1.852 1.187-3.22 2.034a556.594 556.594 0 01-10.785 6.434c-4.241 2.461-8.11 4.645-10.935 6.18a166.735 166.735 0 01-3.363 1.788c-.799.412-1.25.625-1.266.602-.015-.024.412-.285 1.187-.736.839-.483 1.947-1.124 3.292-1.907 2.84-1.638 6.654-3.846 10.871-6.283 4.21-2.454 8.016-4.669 10.848-6.323 1.345-.784 2.453-1.433 3.284-1.915.783-.459 1.218-.697 1.234-.673zm11.977-22.98c.016.024-.396.309-1.148.8-.751.49-1.851 1.186-3.22 2.033a557.965 557.965 0 01-10.784 6.433c-4.241 2.461-8.111 4.645-10.935 6.18a169.506 169.506 0 01-3.363 1.79c-.799.41-1.25.624-1.266.6-.016-.023.411-.284 1.187-.735.838-.483 1.946-1.124 3.291-1.908 2.841-1.638 6.655-3.845 10.872-6.283 4.209-2.453 8.015-4.669 10.848-6.323 1.345-.783 2.453-1.432 3.283-1.915.784-.459 1.219-.696 1.235-.672z" fill="#0AAD0A"/><path d="M484.586 107.858c.008.008-.119.206-.388.578-.261.372-.649.926-1.226 1.575-1.116 1.313-2.92 3.11-5.531 4.795-2.603 1.678-6.061 3.205-10.128 3.87a24.82 24.82 0 01-6.433.19c-2.231-.206-4.494-.776-6.741-1.48-4.502-1.456-8.593-3.347-12.494-4.511-3.877-1.21-7.588-1.551-10.642-1.218-3.062.324-5.388 1.353-6.812 2.303-.704.482-1.235.894-1.559 1.21-.332.301-.522.459-.53.451-.008-.008.15-.182.475-.506.308-.34.822-.776 1.527-1.29 1.416-.997 3.766-2.097 6.868-2.461 3.085-.372 6.852-.055 10.784 1.147 3.941 1.156 8.039 3.039 12.51 4.479 2.239.705 4.462 1.266 6.662 1.472a24.74 24.74 0 006.338-.158c4.011-.641 7.437-2.113 10.025-3.743a26.66 26.66 0 005.57-4.653c.593-.625.997-1.163 1.274-1.519.285-.357.443-.539.451-.531zm-16.408-37.192c.016.024-.309.277-.91.72-.601.451-1.503 1.044-2.651 1.733-1.147.696-2.555 1.44-4.162 2.192a49.114 49.114 0 01-5.38 2.065 48.48 48.48 0 01-5.602 1.361c-1.749.301-3.331.491-4.668.57-1.338.087-2.422.111-3.165.08-.752-.016-1.163-.04-1.163-.072 0-.032.411-.055 1.155-.087.744-.024 1.82-.087 3.149-.214a51.338 51.338 0 004.621-.648 53.965 53.965 0 005.546-1.385 54.26 54.26 0 005.349-2.018 50.728 50.728 0 004.17-2.097 60.014 60.014 0 002.706-1.615c.633-.395.989-.609 1.005-.585zm-43.253 94.912c-.024.024-.309-.229-.815-.688-.57-.515-1.298-1.164-2.168-1.939-1.844-1.614-4.463-3.783-7.533-5.927-1.535-1.068-3.07-1.971-4.557-2.58-1.488-.609-2.92-.902-4.131-.965-2.452-.127-3.869.617-3.885.522-.007-.016.08-.063.246-.143.166-.079.411-.182.743-.284.657-.214 1.662-.42 2.912-.388 1.242.024 2.73.293 4.265.902 1.535.601 3.11 1.511 4.652 2.588a69.658 69.658 0 017.494 6.045 48.54 48.54 0 012.08 2.042c.467.506.72.799.697.815zm65.846 14.798c.008.008-.087.103-.269.277-.19.166-.459.435-.847.728-.751.617-1.899 1.432-3.426 2.271-3.014 1.678-7.762 3.252-13.11 2.936-5.349-.325-9.867-2.477-12.66-4.503-1.417-1.013-2.453-1.962-3.126-2.667-.348-.34-.577-.641-.751-.823-.167-.197-.246-.3-.238-.308.024-.024.396.364 1.1 1.021a24.857 24.857 0 003.181 2.54c2.801 1.947 7.263 4.012 12.517 4.328 5.254.317 9.93-1.187 12.953-2.777a26.255 26.255 0 003.465-2.137c.776-.577 1.195-.918 1.211-.886zm29.878 46.364s-.103-.111-.277-.332c-.182-.238-.443-.57-.775-.997-.641-.903-1.749-2.113-3.244-3.593-.396-.348-.808-.72-1.243-1.108-.221-.19-.443-.396-.672-.593-.246-.182-.499-.364-.752-.562-.514-.38-1.052-.776-1.606-1.187-.594-.364-1.203-.744-1.844-1.132a37.26 37.26 0 00-9.328-3.893c-3.632-.95-7.778-1.448-12.178-1.061-4.399.364-9.012 1.71-13.34 4.131-4.328 2.453-8.363 5.809-12.676 9.1-2.16 1.646-4.407 3.277-6.836 4.693-2.429 1.417-5.064 2.611-7.88 3.316-2.809.736-5.713.878-8.522.688-2.817-.19-5.547-.791-8.158-1.551-5.238-1.543-9.961-3.885-14.392-6.172-4.431-2.287-8.617-4.511-12.716-6.18-4.09-1.67-8.086-2.826-11.821-3.182-3.742-.348-7.168-.008-10.048.76-2.896.736-5.223 1.923-6.94 3.118-1.748 1.179-2.808 2.445-3.552 3.26-.325.435-.578.768-.752 1.013-.174.23-.269.34-.269.34s.071-.126.237-.364c.175-.245.412-.593.728-1.036.728-.831 1.781-2.129 3.529-3.34 1.717-1.234 4.059-2.453 6.971-3.213 2.904-.791 6.362-1.155 10.136-.823 3.782.341 7.809 1.488 11.924 3.15 4.122 1.662 8.332 3.878 12.762 6.157 4.431 2.271 9.139 4.597 14.33 6.124 2.587.752 5.293 1.346 8.07 1.536 2.77.182 5.626.039 8.395-.681 2.77-.688 5.365-1.867 7.778-3.268 2.414-1.401 4.645-3.015 6.805-4.661 4.304-3.284 8.363-6.639 12.731-9.116 1.1-.594 2.192-1.179 3.331-1.622.562-.23 1.116-.491 1.678-.697.577-.182 1.147-.356 1.709-.538 2.27-.712 4.557-1.06 6.773-1.282 4.446-.38 8.624.15 12.28 1.124a37.639 37.639 0 019.368 3.972l1.843 1.156c.554.419 1.092.823 1.607 1.21.253.19.506.38.751.57.23.206.451.412.665.602.435.395.847.767 1.242 1.123 1.488 1.504 2.572 2.738 3.197 3.656.316.435.569.776.744 1.021.158.237.237.364.237.364zm-19.04 36.085c.008.016-.127.071-.38.158-.301.103-.673.23-1.124.388a16.67 16.67 0 01-1.804.53c-.712.174-1.519.412-2.429.562-.459.087-.933.174-1.424.269-.499.087-1.021.134-1.559.206-1.076.158-2.239.213-3.465.292a46.957 46.957 0 01-7.944-.403 47.878 47.878 0 01-7.739-1.844c-1.147-.419-2.255-.791-3.244-1.25-.498-.222-.989-.412-1.44-.641-.451-.23-.878-.451-1.298-.657-.838-.396-1.542-.855-2.175-1.219a17.555 17.555 0 01-1.583-1.013c-.388-.277-.712-.498-.973-.688-.222-.158-.332-.253-.324-.261.007-.008.134.055.371.19.269.166.602.372 1.013.617.435.277.965.609 1.614.95.641.348 1.353.783 2.192 1.163.411.198.847.411 1.298.625.451.214.941.396 1.44.609.989.443 2.081.8 3.228 1.203a49.1 49.1 0 007.683 1.796c2.777.38 5.444.491 7.873.436 1.21-.064 2.365-.103 3.434-.254.538-.063 1.06-.102 1.55-.182.491-.079.966-.166 1.425-.237.91-.127 1.717-.348 2.429-.498.72-.143 1.321-.317 1.82-.459.459-.127.838-.23 1.147-.309.245-.063.388-.095.388-.079z" fill="#fff"/><path d="M336.84 146.926l-5.539-.862-34.316-11.071-20.074-5.8c-4.692-1.623-10.768-2.184-17.367 1.179-9.479 4.835-35.646 29.184-35.646 29.184l18.84 19.427-8.878 39.314c9.93 28.234 29.371 31.471 29.371 31.471s12.77 1.147 27.851-4.606c18.056-6.884 37.007-23.02 39.38-29.96 1.425-4.162 2.596-12.914 3.537-22.798l28.58-11.648 7.746-39.543-33.485 5.713z" fill="#3D4F58"/><path d="M295.093 216.912c.008.008-.087.095-.277.245-.198.143-.467.38-.855.625-.759.523-1.914 1.203-3.434 1.844-3.006 1.298-7.698 2.271-12.675 1.195-4.977-1.092-8.838-3.933-11.03-6.37-1.116-1.219-1.883-2.319-2.35-3.11-.253-.388-.396-.712-.514-.926-.111-.214-.166-.332-.151-.34.032-.016.293.419.8 1.179.506.759 1.305 1.82 2.429 2.999 2.215 2.35 6.029 5.096 10.903 6.164 4.874 1.061 9.487.151 12.478-1.06a22.84 22.84 0 003.457-1.709c.784-.483 1.195-.768 1.219-.736zm-10.857-80.289c.008 0 .032.064.063.19.04.151.087.333.143.562.118.491.285 1.227.482 2.168.38 1.892.95 4.638 1.132 8.096.071 1.725.039 3.64-.324 5.65-.364 2.01-1.077 4.115-2.256 6.093-1.186 1.978-2.832 3.783-4.692 5.436-1.859 1.662-3.916 3.205-6.013 4.796-4.455 3.355-8.799 6.378-12.683 9.132-3.885 2.746-7.304 5.223-10.041 7.296l-.087.063-.087-.063c-2.445-1.978-4.297-3.688-5.499-4.946-.594-.633-1.021-1.147-1.29-1.519-.135-.182-.214-.333-.277-.435-.055-.103-.087-.151-.079-.159.016-.008.15.19.419.538.285.349.72.847 1.329 1.456 1.219 1.219 3.102 2.889 5.563 4.835h-.174c2.714-2.104 6.116-4.613 9.993-7.375 3.869-2.769 8.205-5.808 12.652-9.155 2.089-1.591 4.146-3.126 5.99-4.764 1.843-1.638 3.465-3.403 4.636-5.334a17.833 17.833 0 002.239-5.959c.372-1.978.42-3.869.372-5.578-.142-3.435-.664-6.181-.997-8.08-.174-.918-.308-1.646-.411-2.184-.04-.229-.071-.419-.103-.57 0-.126-.008-.19 0-.19zm149.014 17.813c8.039-6.884 10.753-19.285 6.338-28.907-3.775-.388-7.549-.776-11.323-1.171 5.744-3.015 9.21-9.876 8.229-16.294-6.101 6.584-16.664 8.531-24.71 4.55-5.286-2.611-9.574-7.478-15.382-8.499-5.27-.925-10.452 1.544-15.5 3.34-5.041 1.796-11.157 2.785-15.335-.562-3.315-2.651-4.336-7.304-4.122-11.538.214-4.241 1.44-8.372 1.701-12.606.515-8.308-3.086-16.68-9.17-22.33-1.907-6.03-6.473-11.23-12.32-13.699-7.073-2.991-15.722-1.86-21.79 2.841-2.477 1.915-4.566 4.392-7.375 5.777-3.173 1.567-6.86 1.567-10.294 2.413-3.434.847-7.034 3.118-7.406 6.64l-1.384 7.209a16.09 16.09 0 01-.76 1.519c-2.92 5.12-8.886 8.483-10.183 14.228-.728 3.22.174 6.71-.91 9.829-1.432 4.106-5.863 6.417-7.928 10.239-2.833 5.255-.91 14.45 3.623 18.335 4.534 3.886 13.879 7.993 19.718 9.235 1.583-6.069 2.983-12.558 4.336-19.197 2.382 2.287 4.874 4.463 7.359 6.623 6.504 5.65 13.142 11.387 17.652 18.723 8.569 13.943 8.712 32.429 19.504 44.734 2.113 2.413 4.684 4.566 7.754 5.492 3.07.933 6.71.435 8.981-1.828 2.682-2.675 3.03-7.186 5.989-9.536 3.941-3.126 9.701-.633 13.942 2.081 3.07 1.963 6.132 4.036 9.614 5.112 3.481 1.077 7.524 1.005 10.476-1.115 2.959-2.121 4.256-6.648 2.12-9.599-.854-1.179-2.128-2.002-2.975-3.189-.847-1.187-1.092-3.063.063-3.941 1.282-.973 3.07-.032 4.463.783 6.765 3.981 15.334 4.74 22.693 2.002 7.358-2.738 13.348-8.91 15.872-16.341-3.877.602-7.92.127-11.56-1.353z" fill="#001E2B"/><path d="M426.196 92.332s.38.262 1.021.879c.625.617 1.551 1.575 2.326 3.078a8.97 8.97 0 01.871 2.667c.142 1.013.087 2.184-.388 3.308-.459 1.115-1.258 2.208-2.429 2.951-.586.364-1.266.641-1.994.72a4.461 4.461 0 01-2.215-.324c-2.936-1.195-4.408-4.59-7.588-6.101-3.094-1.638-7.05-1.749-10.856-.879-3.846.879-7.501 2.936-11.252 5.041-3.734 2.089-7.722 4.361-12.303 5.144-2.263.411-4.597.443-6.805-.048a13.29 13.29 0 01-3.149-1.171 12.333 12.333 0 01-2.659-1.97c-1.566-1.543-2.666-3.442-3.41-5.397-.752-1.955-1.163-3.973-1.392-5.95-.42-3.973-.087-7.748-.048-11.261.071-3.506-.134-6.806-.957-9.67a21.92 21.92 0 00-1.512-3.965 23.692 23.692 0 00-1.914-3.268 23.865 23.865 0 00-4.052-4.51c-1.258-1.1-2.357-1.797-3.093-2.28-.364-.214-.649-.388-.863-.506-.19-.12-.292-.182-.285-.19 0-.008.111.047.309.15.214.119.506.277.886.475.752.467 1.868 1.14 3.149 2.231 1.29 1.077 2.746 2.556 4.131 4.503a22.88 22.88 0 011.962 3.284 22.77 22.77 0 011.559 3.996c.854 2.904 1.076 6.228 1.02 9.75-.023 3.521-.34 7.296.087 11.213.23 1.954.649 3.94 1.385 5.856.736 1.907 1.804 3.758 3.323 5.246.768.728 1.614 1.393 2.564 1.899.949.499 1.978.879 3.046 1.132 2.144.475 4.415.451 6.639.039 4.494-.767 8.434-2.999 12.177-5.088 3.75-2.097 7.437-4.17 11.362-5.056 1.946-.428 3.909-.641 5.8-.491.949.047 1.867.237 2.761.451.878.27 1.749.554 2.532.99 3.284 1.606 4.755 5.016 7.54 6.132 1.353.586 2.857.364 3.965-.348 1.123-.697 1.906-1.741 2.357-2.817.467-1.077.531-2.2.404-3.197a8.767 8.767 0 00-.815-2.62c-.752-1.487-1.646-2.46-2.247-3.094a16.243 16.243 0 00-.72-.696c-.15-.15-.23-.23-.23-.237zm-129.34 45.676s-.031-.119-.063-.356c-.04-.237-.071-.593-.214-1.037-.237-.894-.783-2.192-1.946-3.529-1.179-1.314-2.936-2.651-5.246-3.648-2.295-1.045-5.135-1.559-8.261-2.152-3.093-.61-6.646-1.251-9.827-3.371-3.125-2.113-5.625-5.706-6.266-9.94-.649-4.209.712-8.942 3.94-12.305 3.276-3.363 7.905-5.025 11.687-7.984.933-.76 1.78-1.599 2.492-2.533.665-.965 1.211-2.01 1.519-3.133.625-2.248.578-4.598.791-6.885.103-1.147.277-2.287.633-3.379a8.443 8.443 0 011.67-2.96c1.535-1.685 3.648-2.571 5.657-3.149 2.034-.593 4.051-.957 5.966-1.488 1.907-.53 3.703-1.242 5.207-2.326 1.527-1.045 2.793-2.342 3.908-3.656 1.116-1.322 2.065-2.683 2.944-4.004 1.748-2.651 3.244-5.12 4.834-7.098 1.567-1.995 3.157-3.522 4.613-4.559 1.456-1.044 2.746-1.598 3.64-1.875.894-.285 1.384-.348 1.384-.348.008.032-.482.119-1.361.427-.878.3-2.152.87-3.576 1.923-1.432 1.045-2.991 2.572-4.526 4.566-1.566 1.978-3.038 4.447-4.771 7.114-.878 1.33-1.828 2.706-2.943 4.052-1.116 1.337-2.398 2.65-3.957 3.735-1.535 1.116-3.386 1.86-5.309 2.398-1.93.538-3.948.91-5.958 1.503-1.994.578-4.019 1.448-5.475 3.047a8.123 8.123 0 00-1.583 2.817c-.34 1.044-.506 2.16-.609 3.292-.213 2.255-.15 4.63-.799 6.963-.316 1.164-.886 2.256-1.582 3.26-.736.982-1.615 1.837-2.564 2.612-1.931 1.512-4.051 2.667-6.085 3.87-2.025 1.195-3.988 2.461-5.57 4.075-3.141 3.26-4.478 7.874-3.861 11.965.609 4.123 3.046 7.644 6.084 9.718 3.094 2.081 6.607 2.746 9.693 3.371 3.11.601 5.982 1.139 8.3 2.223 2.326 1.029 4.099 2.406 5.278 3.751 1.163 1.369 1.693 2.707 1.907 3.617.126.451.15.815.174 1.052.031.245.031.364.031.364z" fill="#001E2B"/><path d="M360.027 66.97c-.008.024-.221-.031-.609-.158-.388-.119-.926-.34-1.582-.64-1.314-.602-3.047-1.623-4.724-3.063-1.67-1.44-2.943-3.007-3.735-4.21a15.306 15.306 0 01-.87-1.472c-.182-.364-.269-.562-.245-.578.063-.031.506.736 1.353 1.884a25.065 25.065 0 003.758 4.067 25.117 25.117 0 004.581 3.11c1.274.673 2.105.997 2.073 1.06zm26.312 53.977c-.016.04-.499-.119-1.393-.316-.894-.198-2.208-.396-3.837-.467-1.638-.072-3.585 0-5.753.166-2.168.15-4.557.372-7.081.316-2.524-.063-4.946-.443-6.987-1.313-2.033-.863-3.624-2.137-4.684-3.419-1.06-1.29-1.59-2.572-1.804-3.474-.103-.451-.158-.807-.166-1.052-.016-.246-.024-.372-.008-.372.047-.008.071.506.324 1.385.253.87.807 2.089 1.868 3.323 1.052 1.227 2.626 2.438 4.605 3.261 1.986.823 4.359 1.187 6.844 1.25 2.492.055 4.874-.151 7.042-.285 2.168-.142 4.138-.182 5.792-.079 1.653.111 2.975.356 3.861.609.443.127.783.23 1.013.325.245.079.364.126.364.142zm46.622 35.982c0 .008-.071.039-.229.103-.159.063-.388.166-.705.229-.632.151-1.629.23-2.832-.126-1.187-.364-2.564-1.124-3.798-2.398-1.266-1.258-2.2-3.086-3.054-5.12-.863-2.026-1.591-4.36-2.999-6.505-.665-1.1-1.559-2.089-2.508-3.062-1.013-.918-2.105-1.812-3.355-2.54-4.969-2.992-11.497-4.226-18.159-3.83-6.702.348-13 1.661-18.831 2.073-5.824.522-11.173-.119-15.358-1.591-4.21-1.44-7.153-3.687-8.799-5.515-.435-.436-.76-.887-1.052-1.259a7.806 7.806 0 01-.689-.989c-.158-.261-.285-.467-.387-.633-.087-.142-.127-.221-.119-.221.008 0 .055.063.158.198.103.158.245.356.42.609.174.269.403.601.712.957.3.364.633.8 1.076 1.227 1.669 1.78 4.605 3.957 8.775 5.349 4.154 1.417 9.439 2.026 15.231 1.48 5.8-.427 12.098-1.749 18.847-2.105 6.718-.396 13.333.855 18.381 3.917 1.266.744 2.381 1.662 3.41 2.604.973.997 1.883 2.018 2.548 3.141 1.432 2.208 2.136 4.558 2.983 6.584.822 2.026 1.724 3.83 2.951 5.073 1.195 1.258 2.524 2.033 3.679 2.405 1.163.372 2.144.325 2.769.198.618-.119.926-.285.934-.253z" fill="#3D4F58"/><path d="M308.524 66.97a5.915 5.915 0 00-6.029 5.255l-6.402 66.638c-1.107 9.369 11.149 29.461 21.19 30.569 10.143 1.116 11.133-3.799 12.446-12.677 2.2-14.838 2.935-20.417 2.928-20.33 0 0 13.055-.435 17.897-16.76 2.406-8.119 3.782-21.77 4.55-32.975.688-10.09-4.32-23.233-14.424-23.486l-32.156 3.766z" fill="#FFBE9D"/><path d="M350.689 95.53c-.111 1.131-1.156 1.978-2.342 1.883-1.187-.095-2.058-1.084-1.947-2.216.111-1.132 1.155-1.978 2.342-1.883 1.187.087 2.057 1.084 1.947 2.216zm.907-4.313c-.245.3-1.962-.792-4.273-.625-2.318.134-3.932 1.44-4.201 1.179-.135-.119.103-.641.807-1.235.688-.585 1.899-1.195 3.339-1.29 1.44-.095 2.69.356 3.426.847.744.499 1.021.99.902 1.124zm-21.268 5.515c-.276.277-1.875-.981-4.193-1.044-2.318-.095-4.051 1.052-4.297.76-.118-.127.167-.626.926-1.148.744-.514 2.002-1.005 3.45-.957 1.448.047 2.643.617 3.331 1.179.688.577.918 1.092.783 1.21zm4.32 12.258c.008-.135 1.472-.19 3.822-.182.594.016 1.171-.024 1.322-.411.197-.404.031-1.069-.167-1.797-.364-1.495-.743-3.062-1.147-4.7-1.575-6.687-2.627-12.155-2.358-12.218.269-.064 1.765 5.31 3.339 11.996.372 1.646.736 3.221 1.068 4.716.135.697.42 1.504 0 2.343-.213.419-.688.68-1.076.728-.387.063-.72.031-1.012.008-2.35-.174-3.798-.348-3.791-.483z" fill="#001E2B"/><path d="M332.655 136.425s-11.315-.751-21.546-8.894c0 0 4.123 12.21 21.016 12.843l.53-3.949z" fill="#EB996E"/><path d="M330.652 92.768c-.364.562-2.556-.254-5.277-.562-2.722-.356-5.041-.08-5.262-.712-.095-.301.411-.792 1.416-1.187.997-.396 2.493-.641 4.13-.443 1.63.197 3.031.79 3.901 1.408.879.633 1.258 1.227 1.092 1.496zm20.597-4.661c-.38.546-2.002.079-3.925.158-1.922.008-3.529.538-3.932 0-.174-.261.055-.8.736-1.337.672-.53 1.827-.997 3.149-1.029 1.321-.024 2.492.396 3.181.902.712.514.957 1.045.791 1.306z" fill="#001E2B"/><path d="M329.048 113.192a4.94 4.94 0 013.624-.76c.633.119 1.274.38 1.685.879.546.649.61 1.567.586 2.421-.016.507-.048 1.029-.23 1.504-.174.474-.506.918-.965 1.131-.475.222-1.029.166-1.551.079-.862-.142-1.725-.387-2.445-.886-.72-.49-1.282-1.266-1.369-2.136-.079-.871.404-1.805 1.227-2.105" fill="#EB996E"/><path d="M335.294 118.272c-.174.064-.475-.443-1.029-1.139-.554-.697-1.4-1.575-2.54-2.224-1.139-.649-2.326-.934-3.204-1.052-.878-.127-1.472-.127-1.503-.309-.04-.158.514-.467 1.519-.57.989-.103 2.437.072 3.806.855 1.361.775 2.255 1.931 2.674 2.841.419.918.435 1.551.277 1.598zm-40.1 16.009c5.491-1.092 9.732-5.816 11.623-11.094 1.891-5.271 1.796-11.04 1.29-16.618-.063-.721-.182-1.52-.752-1.963-.83-.641-2.025-.119-2.919.427a93.378 93.378 0 00-9.954 6.996c-2.943 2.374-5.855 5.104-6.987 8.704-1.732 5.532 1.931 12.139 7.541 13.603" fill="#001E2B"/><path d="M421.603 132.991l-25.936-41.687-7.169-14.672s-2.287-3.03-4.66-5.618c-3.901-4.25-7.747-.95-7.747-.95s-.561-1.622-2.603-1.606c-2.437.024-3.584 1.828-3.584 1.828s-1.06-1.18-4.004-1.361c-.633-.04-1.266.206-1.867.601-.965-.846-2.73-2.073-4.439-1.448-1.329.483-9.392 6.616-11.378 9.702-.981 1.527.839 3.505 3.292 2.58 1.076-.412 2.16-.736 2.943-1.195 1.313-.768 1.994-1.607 1.994-1.607s-2.034 3.561-.008 4.186c.847.262 2.643.072 3.814-.925.775-.657 1.669-1.504 2.516-2.327-.032.048-.071.095-.103.143-1.123 1.661 1.804 4.122 3.228 3.125a20.944 20.944 0 001.891-1.495c3.292 2.39-1.281 5.452-3.212 5.294-2.991-.246-6.488-.23-8.925-.032-1.678.142-3.181.538-4.083 1.472-1.092 1.124.055 3.482 1.598 3.72 2.841.434 6.465 1.068 10.231 2.04 4.439 1.14 16.038 4.915 16.038 4.915l1.132.918 15.777 38.467-27.005 5.721-6.029 34.217 48.74-13.223c10.998-5.721 16.205-20.337 9.558-30.783z" fill="#FFBE9D"/><path d="M379.451 97.666c-.008.016-.214-.04-.617-.15-.436-.127-1.021-.293-1.749-.499a1856.79 1856.79 0 01-6.409-1.907c-1.353-.411-2.833-.855-4.423-1.337-1.591-.49-3.284-.997-5.096-1.456-1.804-.46-3.711-.918-5.712-1.18-.974-.15-2.073-.055-3.102-.561a2.087 2.087 0 01-.696-.522 1.238 1.238 0 01-.238-.428l-.063-.42c-.063-.545-.071-1.115.103-1.677.182-.57.625-1.036 1.123-1.298.491-.277 1.013-.435 1.512-.601 1.036-.332 2.104-.388 3.125-.388 2.057.024 3.996.309 5.847.238a19.345 19.345 0 002.683-.262c.862-.158 1.685-.38 2.492-.585 1.598-.427 3.173-.736 4.613-.586 1.432.119 2.674.523 3.719.95 1.044.427 1.899.886 2.595 1.274.688.388 1.211.712 1.567.926.348.221.53.348.522.356-.008.016-.206-.087-.57-.285-.403-.214-.934-.499-1.598-.863-.704-.364-1.559-.799-2.603-1.202-1.037-.404-2.263-.776-3.656-.87-1.392-.127-2.904.19-4.502.624-.799.214-1.63.451-2.516.618-.886.166-1.796.253-2.738.284-1.891.088-3.853-.19-5.863-.213-1.005 0-2.033.063-2.999.372-.965.316-2.073.656-2.365 1.638-.151.467-.143.989-.088 1.503l.048.364c.024.08.087.182.15.261.151.174.348.309.562.412.886.443 1.947.372 2.967.522 2.034.27 3.948.744 5.753 1.21a99.05 99.05 0 015.095 1.496c1.583.5 3.054.958 4.407 1.385 2.659.847 4.827 1.544 6.378 2.034.72.237 1.297.427 1.725.57.419.158.617.237.617.253zm-19.995-29.525c.039.064-1.219.8-3.086 2.208a30.404 30.404 0 00-3.102 2.69c-1.108 1.077-2.271 2.343-3.648 3.522-.672.57-1.305 1.187-1.463 1.955-.079.372-.048.76.134 1.06.174.309.483.515.815.633.689.23 1.424.166 2.089.04a9.98 9.98 0 001.812-.522c2.16-.879 3.157-2.026 3.212-1.947.016.016-.213.3-.712.736a9.158 9.158 0 01-2.389 1.48 9.5 9.5 0 01-1.86.585c-.68.143-1.471.238-2.278-.016-.396-.126-.8-.387-1.037-.79-.245-.397-.285-.895-.198-1.346.182-.934.918-1.615 1.591-2.184 1.353-1.163 2.516-2.406 3.647-3.482a28.949 28.949 0 015.547-4.163c.593-.316.918-.482.926-.459z" fill="#EB996E"/><path d="M369.353 71.418c.023.015-.309.403-.918 1.092-.657.728-1.535 1.693-2.603 2.864a2812.92 2812.92 0 00-3.901 4.21c-.752.807-1.646 1.56-2.738 2.09-.546.26-1.155.458-1.812.45-.649-.015-1.329-.205-1.82-.728-.261-.269-.387-.633-.435-.989a3.136 3.136 0 01.103-1.02c.182-.642.483-1.204.839-1.734l.008-.008.016-.015a394.16 394.16 0 003.861-4.155c1.187-1.258 2.326-2.287 3.252-3.165.459-.436.886-.847 1.353-1.092.482-.246.933-.238 1.282-.277.696-.048 1.107.016 1.076.087.015-.032-.372-.04-1.061.047-.332.064-.791.08-1.194.317-.42.237-.815.649-1.274 1.1-.902.902-2.018 1.946-3.181 3.213a279.76 279.76 0 01-3.83 4.201l.016-.023a5.528 5.528 0 00-.767 1.598 2.724 2.724 0 00-.095.87c.039.278.134.547.324.752.364.396.973.586 1.519.594.57.008 1.124-.166 1.638-.412 1.021-.49 1.907-1.218 2.635-1.986 1.48-1.55 2.825-2.951 3.964-4.154a530.86 530.86 0 002.698-2.778c.293-.293.546-.538.752-.744.182-.134.277-.213.293-.205zm12.12 3.814c.039.031-.04.237-.317.459-.269.213-.759.42-1.313.324a1.648 1.648 0 01-1.124-.752c-.182-.3-.19-.522-.134-.538.055-.023.158.15.364.364.206.206.546.451.965.523.42.07.823-.04 1.084-.166.269-.12.427-.246.475-.214z" fill="#EB996E"/><path d="M382.422 78.864c-.087.071-.68-.522-1.203-1.409-.522-.886-.759-1.693-.656-1.733.11-.047.506.665 1.012 1.528.499.854.934 1.543.847 1.614zm1.753 14.149c-.039.024-.395-.586-.752-1.646-.356-1.06-.672-2.603-.648-4.329.023-1.725.379-3.252.767-4.304.388-1.053.752-1.646.791-1.63.135.04-1.123 2.563-1.147 5.942-.071 3.38 1.116 5.927.989 5.967zm21.295 54.831c-.079.008-.158-.838-.569-2.128-.198-.649-.515-1.385-.934-2.176a14.266 14.266 0 00-1.654-2.367 14.165 14.165 0 00-2.136-1.946c-.728-.515-1.416-.926-2.034-1.211-1.226-.578-2.057-.76-2.033-.839.008-.031.214 0 .593.079.38.072.918.238 1.559.491.649.253 1.377.649 2.136 1.163.752.53 1.52 1.195 2.224 1.986.696.8 1.25 1.654 1.677 2.462.412.823.712 1.598.878 2.271.175.672.269 1.226.285 1.606.032.396.032.609.008.609z" fill="#EB996E"/><path d="M314.97 224.057c-3.458-.72-6.583.839-6.583.839-3.521-1.559-7.865 1.132-7.865 1.132-1.274-.609-8.949 4.408-8.949 4.408l-9.558 4.51-51.059-37.944 14.472-15.059-20.28-21.105-23.768 24.46c-2.96 3.055-4.455 7.177-4.74 11.514-.601 9.298 4.7 17.979 13.008 22.189l60.166 30.862s6.377-.222 13.68-2.129c5.191-1.353 14.06-5.294 14.06-5.294s-.023.269 1.559 3.34c2.857 5.531 7.042-.436 7.042-.436s.855 1.963 1.622 2.707c3.616 3.505 6.124-1.203 6.124-1.203s1.084 1.891 4.321.483c3.22-1.401-.467-11.127-.467-11.127s1.084 2.113 3.181-.561c2.088-2.675-2.509-10.865-5.966-11.586z" fill="#FFBE9D"/><path d="M307.742 225.387c-.008-.016.214-.143.665-.253.443-.119 1.139-.151 1.939.055.799.206 1.693.649 2.555 1.306a9.31 9.31 0 011.274 1.139c.404.451.712.989.997 1.543a38.796 38.796 0 012.334 5.864c.238.776.396 1.409.499 1.844.095.443.134.688.111.696-.064.016-.349-.941-.879-2.453a54.15 54.15 0 00-2.429-5.769c-.269-.538-.57-1.044-.934-1.464a9.2 9.2 0 00-1.202-1.1c-.823-.648-1.662-1.092-2.406-1.329-1.527-.475-2.516.024-2.524-.079zm6.15 21.461c-.024.008-.182-.301-.443-.879-.301-.648-.673-1.464-1.116-2.421-.941-2.05-2.318-4.843-3.631-8.04-.641-1.598-1.227-3.126-2.081-4.321a7.19 7.19 0 00-2.936-2.453c-1.005-.467-1.931-.53-2.532-.451-.609.079-.926.245-.949.206-.008-.016.071-.055.221-.135.151-.079.388-.166.704-.229.625-.135 1.607-.103 2.675.34a7.269 7.269 0 013.133 2.493c.902 1.234 1.511 2.801 2.152 4.392 1.306 3.173 2.643 5.99 3.521 8.079.443 1.037.784 1.892.997 2.485.206.594.309.926.285.934zm-23.439-12.21c-.008-.024.277-.19.815-.451.617-.301 1.377-.665 2.287-1.1.491-.23 1.005-.483 1.598-.736a4.472 4.472 0 012.05-.301 4.234 4.234 0 012.144.823c.649.498 1.131 1.171 1.574 1.875.436.705.776 1.441 1.108 2.129.34.688.688 1.337 1.029 1.955.688 1.226 1.337 2.334 1.82 3.292a19.7 19.7 0 011.012 2.334c.198.57.277.886.254.902-.072.024-.499-1.234-1.528-3.094-.506-.934-1.179-2.018-1.891-3.244a37.609 37.609 0 01-1.06-1.963c-.348-.696-.68-1.409-1.1-2.089-.419-.681-.894-1.322-1.463-1.765a3.98 3.98 0 00-1.939-.767 4.12 4.12 0 00-1.891.237c-.57.23-1.108.475-1.598.681-.926.387-1.702.712-2.335.981-.561.221-.87.332-.886.301zm1.112-4.202c.015.023-.238.182-.697.443a77.73 77.73 0 01-1.97 1.068 364.177 364.177 0 01-6.575 3.379 450.516 450.516 0 01-6.631 3.276c-.854.412-1.551.736-2.033.95-.483.213-.76.324-.768.293-.015-.024.238-.182.697-.444a77.73 77.73 0 011.97-1.068 364.177 364.177 0 016.575-3.379 440.787 440.787 0 016.631-3.276 64.06 64.06 0 012.033-.95c.483-.213.76-.316.768-.292zm-59.938-33.347c-.024.134-2.698-.609-6.029-.198-3.332.372-5.769 1.725-5.816 1.599-.024-.04.546-.436 1.567-.887 1.02-.451 2.5-.926 4.201-1.123 1.693-.198 3.252-.087 4.344.11 1.1.206 1.741.451 1.733.499z" fill="#EB996E"/><path d="M344.384 60.015a159.468 159.468 0 00-37.608 3.972c-2.856.649-5.879 1.488-7.809 3.696-2.042 2.326-2.406 5.65-2.675 8.736-.324 3.759-.648 7.517-.981 11.276a25.288 25.288 0 01-1.804 2.69c-2.975 3.886-6.765 7.123-9.471 11.206-2.706 4.075-4.201 9.496-1.994 13.864 1.329 2.643 3.806 4.503 5.61 6.853 3.062 3.981 4.059 9.108 5.847 13.801 1.788 4.693 5.017 9.472 9.946 10.414 2.35.451 4.795-.048 7.161.301 3.537.514 6.512 2.833 9.329 5.04 2.816 2.208 5.863 4.463 9.415 4.812 3.561.356 7.636-2.058 7.707-5.635-2.611 1.52-6.077 1.417-8.601-.245-2.073-1.361-3.41-3.577-5.19-5.31-4.368-4.241-11.418-5.587-14.456-10.865-2.406-4.178-1.448-9.401-.356-14.093.949-4.068 1.907-8.483.736-12.393.087-.625.142-1.266.142-1.899.032-4.162-1.622-8.625.316-12.305 2.564-4.875 9.954-5.484 12.542-10.343 1.503-2.825.973-6.433 2.619-9.171 1.55-2.58 4.636-3.767 7.58-4.408 2.935-.64 6.037-.934 8.64-2.453 2.603-1.52 4.534-4.772 3.355-7.541z" fill="#001E2B"/><path d="M353.976 144.916c.008.008-.031.072-.118.198-.103.143-.23.325-.388.554-.356.475-.95 1.124-1.82 1.844a12.34 12.34 0 01-3.608 1.939 12.515 12.515 0 01-5.388.625c-2.018-.166-4.202-.989-6.061-2.485-1.883-1.448-3.561-3.371-5.689-4.898-1.068-.752-2.287-1.353-3.624-1.52-1.345-.189-2.714.198-4.035.728-1.33.523-2.667 1.195-4.194 1.449-1.527.269-3.125-.103-4.502-.8-1.401-.688-2.627-1.614-3.806-2.524-1.179-.918-2.334-1.844-3.339-2.904-1.013-1.045-1.883-2.24-2.374-3.577-.522-1.337-.546-2.793-.269-4.115.261-1.329.744-2.54 1.195-3.711a49.49 49.49 0 001.203-3.435 47.387 47.387 0 001.464-6.362c.617-3.949.617-7.209.514-9.44a41.268 41.268 0 00-.182-2.572c-.024-.277-.048-.499-.056-.665-.007-.15-.015-.23-.007-.23.007 0 .023.072.047.222.024.174.055.388.103.665.087.585.182 1.448.261 2.572a45.02 45.02 0 01-.38 9.496 46.552 46.552 0 01-1.424 6.417 48.587 48.587 0 01-1.195 3.466c-.443 1.171-.91 2.374-1.163 3.656-.253 1.274-.229 2.635.269 3.901.467 1.275 1.306 2.414 2.295 3.435.989 1.029 2.128 1.947 3.299 2.857 1.171.91 2.382 1.812 3.735 2.476 1.337.673 2.832 1.013 4.265.768 1.432-.229 2.761-.886 4.106-1.416 1.337-.539 2.793-.95 4.225-.744 1.425.182 2.706.831 3.798 1.598 2.176 1.583 3.838 3.506 5.681 4.946 1.812 1.48 3.909 2.279 5.879 2.461 1.97.23 3.79-.063 5.286-.554a12.38 12.38 0 003.584-1.844c1.757-1.392 2.358-2.524 2.413-2.477z" fill="#001E2B"/><path d="M274.921 119.752s-.246-.277-.633-.87c-.372-.602-.839-1.559-1.116-2.881-.285-1.321-.324-3.007.079-4.89a14.926 14.926 0 012.738-5.872c1.456-1.931 3.434-3.727 5.712-5.405 2.271-1.685 4.851-3.26 7.422-5.096 2.548-1.844 5.159-3.98 7.042-6.845.95-1.416 1.622-3.03 2.137-4.724.514-1.694.862-3.466 1.266-5.254.403-1.789.87-3.562 1.598-5.208.712-1.653 1.772-3.157 3.109-4.296 1.338-1.14 2.896-1.947 4.487-2.47 1.59-.538 3.22-.815 4.81-.949 3.189-.277 6.212.08 9.021.285 2.808.23 5.427.356 7.801.103a16.592 16.592 0 006.116-1.82c1.662-.902 2.92-1.979 3.751-3.023.831-1.037 1.282-1.986 1.511-2.651.222-.665.309-1.029.333-1.02 0 0-.048.371-.254 1.051-.213.673-.641 1.654-1.471 2.723-.815 1.076-2.089 2.192-3.767 3.126a16.74 16.74 0 01-6.195 1.907c-2.398.276-5.048.166-7.857-.048-2.809-.198-5.816-.53-8.957-.245-1.567.142-3.165.42-4.716.95-1.558.514-3.062 1.297-4.351 2.405-1.29 1.1-2.303 2.548-2.999 4.162-.712 1.607-1.171 3.356-1.575 5.136-.411 1.78-.759 3.561-1.274 5.278-.514 1.717-1.218 3.38-2.191 4.827-1.931 2.928-4.59 5.08-7.161 6.932-2.595 1.836-5.175 3.395-7.438 5.065-2.271 1.646-4.233 3.411-5.681 5.302a14.833 14.833 0 00-2.745 5.745c-.412 1.844-.404 3.506-.143 4.811.522 2.612 1.685 3.72 1.591 3.759z" fill="#3D4F58"/><path d="M277.24 123.907s-.981-.713-2.429-2.335c-.712-.815-1.551-1.883-2.113-3.355-.269-.728-.451-1.575-.364-2.477.08-.894.451-1.812 1.069-2.595 1.281-1.567 3.402-2.414 5.625-2.881 1.124-.237 2.287-.419 3.45-.704 1.163-.285 2.35-.689 3.371-1.401 1.013-.728 1.843-1.741 2.453-2.904.625-1.163 1.06-2.461 1.519-3.775.459-1.313.918-2.674 1.614-3.964.672-1.298 1.677-2.485 2.967-3.284 1.29-.8 2.722-1.243 4.122-1.607 1.401-.364 2.786-.656 4.091-1.1 2.643-.83 4.716-2.643 6.283-4.629 1.59-1.986 2.753-4.13 3.9-6.101 1.14-1.97 2.271-3.79 3.553-5.27 1.258-1.496 2.682-2.604 4.059-3.316 1.385-.72 2.706-1.045 3.79-1.148 1.092-.087 1.947.048 2.492.206.554.15.823.285.823.285-.008.024-.292-.087-.838-.206-.546-.126-1.393-.23-2.461-.126-1.068.118-2.35.467-3.695 1.187-1.345.72-2.722 1.82-3.948 3.3-1.243 1.464-2.358 3.276-3.482 5.254-1.131 1.97-2.287 4.139-3.901 6.165-.799 1.012-1.717 1.986-2.793 2.825a11.904 11.904 0 01-3.663 1.954c-1.337.46-2.73.752-4.115 1.116-1.384.364-2.777.8-4.003 1.559-1.227.76-2.176 1.875-2.833 3.134-.672 1.25-1.131 2.587-1.59 3.901-.459 1.313-.902 2.627-1.551 3.83-.633 1.203-1.503 2.271-2.587 3.039-1.084.751-2.319 1.155-3.506 1.44-1.187.285-2.358.459-3.465.688-2.192.443-4.249 1.258-5.468 2.73a4.66 4.66 0 00-1.036 2.438c-.095.846.063 1.661.316 2.366.522 1.424 1.337 2.5 2.018 3.323.696.823 1.29 1.417 1.693 1.82.19.182.34.333.467.451.119.103.174.159.166.167z" fill="#3D4F58"/><path d="M374.647 72.787c.024.015-.126.237-.411.609-.285.38-.712.91-1.25 1.559a74.871 74.871 0 01-4.447 4.867c-.902.878-1.749 1.883-2.912 2.247-.561.174-1.163.182-1.669-.016-.514-.198-.863-.593-1.076-.981-.428-.8-.356-1.551-.301-2.01.071-.475.166-.72.19-.712.032.008-.008.269-.032.728-.008.45-.023 1.163.388 1.851.206.34.514.657.942.808.419.15.941.142 1.432-.024 1.005-.325 1.827-1.282 2.737-2.176a147.263 147.263 0 004.518-4.764c1.148-1.25 1.844-2.026 1.891-1.986z" fill="#EB996E"/><path d="M380.691 72.794c.024.016-.15.238-.475.618-.324.38-.807.918-1.408 1.575-.633.68-1.345 1.456-2.128 2.302-.404.436-.831.887-1.266 1.353-.443.467-.91.958-1.488 1.37-.57.411-1.234.72-1.93.767-.689.063-1.417-.23-1.797-.783a1.55 1.55 0 01-.292-.918c.008-.325.134-.61.269-.847.292-.475.593-.839.854-1.203.53-.72.966-1.298 1.266-1.693.309-.396.491-.602.514-.586.024.016-.11.261-.379.68-.269.42-.665 1.03-1.163 1.765-.238.372-.546.776-.792 1.203-.253.427-.292.95.032 1.377.309.427.87.657 1.464.602.593-.04 1.187-.317 1.717-.697.53-.38.989-.855 1.432-1.314l1.282-1.329c.807-.823 1.543-1.575 2.191-2.24a79.25 79.25 0 011.504-1.487c.356-.356.569-.538.593-.514z" fill="#EB996E"/><path d="M463.297 315.053c1.353-2.944 4.209-5.144 7.398-5.698 3.189-.554 6.623.562 8.886 2.88-1.543 2.746-4.313 4.574-7.288 5.595-3.497 1.203-7.303-.206-8.996-2.777z" fill="#0AAD0A"/><path d="M457.68 316.35c-.016-.047.847-.364 2.271-.712 1.432-.348 3.418-.744 5.633-1.108 2.208-.364 4.226-.641 5.681-.807 1.456-.174 2.366-.237 2.374-.182.008.056-.886.23-2.334.475-1.575.261-3.513.578-5.657.926-2.208.364-4.202.712-5.642.981-1.432.277-2.31.491-2.326.427z" fill="#001E2B"/><path d="M180.496 264.953c3.354 2.762 5.198 7.265 4.731 11.593-.467 4.321-3.22 8.333-7.089 10.319-2.904-7.446-4.02-15.462 2.358-21.912zm11.004 5.714c.309 5.618 3.592 10.991 8.458 13.816 4.866 2.826 11.157 3.031 16.189.515-5.531-8.736-13.032-16.04-24.647-14.331z" fill="#0AAD0A"/><path d="M166.282 243.144c.008-.008.134.127.364.396.253.301.577.696.989 1.179.846 1.037 2.065 2.532 3.616 4.345 3.085 3.64 7.445 8.593 12.58 13.761a182.99 182.99 0 007.446 7.066c2.366 2.089 4.557 3.902 6.448 5.342 1.915 1.416 3.498 2.524 4.661 3.173 1.147.681 1.828.958 1.812 1.005-.008.016-.174-.055-.499-.19-.324-.142-.807-.332-1.384-.672-1.195-.61-2.809-1.686-4.756-3.079-1.93-1.416-4.138-3.213-6.527-5.294a172.873 172.873 0 01-7.486-7.058 199.35 199.35 0 01-12.509-13.865 139.088 139.088 0 01-3.521-4.431c-.38-.506-.688-.91-.926-1.227-.213-.284-.316-.443-.308-.451z" fill="#001E2B"/><path d="M179.883 276.214c-.071-.016.198-1.116.419-2.912.23-1.796.356-4.305.079-7.051a31.685 31.685 0 00-1.527-6.884c-.593-1.71-1.076-2.73-1.012-2.762.023-.016.166.229.403.688.245.451.546 1.124.878 1.979.673 1.701 1.369 4.154 1.67 6.94.285 2.785.103 5.333-.198 7.137-.15.903-.309 1.631-.451 2.121-.15.483-.237.752-.261.744z" fill="#001E2B"/><path d="M529.06 116.065c-1.954-2.588-2.532-6.149-1.503-9.219 1.028-3.071 3.631-5.571 6.749-6.458 1.685 2.659 1.978 5.959 1.471 9.069-.601 3.656-3.655 6.338-6.717 6.608z" fill="#0AAD0A"/><path d="M527.543 121.636c-.055-.008.079-.918.459-2.343.372-1.424.973-3.363 1.701-5.484.728-2.121 1.44-4.02 1.978-5.381.538-1.369.91-2.192.966-2.176.055.024-.222.886-.689 2.279-.522 1.511-1.155 3.363-1.867 5.421a255.113 255.113 0 00-1.812 5.428c-.451 1.385-.68 2.263-.736 2.256z" fill="#001E2B"/><path d="M494.197 174.94c-1.63-6.046-.103-12.86 3.964-17.623 4.067-4.764 10.547-7.36 16.774-6.703 1.1 5.983-.759 12.123-3.916 17.33-3.727 6.125-11.133 8.729-16.822 6.996z" fill="#0AAD0A"/><path d="M470.821 198.363c-.008-.008.103-.158.332-.427.261-.301.601-.681 1.021-1.164.91-.997 2.231-2.421 3.893-4.162 3.315-3.482 7.952-8.238 13.11-13.461a1818.43 1818.43 0 0113.277-13.302c1.694-1.662 3.07-3.015 4.067-3.988.459-.443.831-.799 1.124-1.068.261-.238.403-.364.411-.357.008.008-.11.151-.348.412-.269.285-.625.657-1.068 1.124-.973.997-2.318 2.382-3.972 4.083-3.402 3.458-8.055 8.174-13.19 13.389-5.135 5.207-9.788 9.924-13.198 13.374-1.653 1.693-3.006 3.07-3.988 4.067-.443.459-.807.823-1.076 1.108-.245.253-.379.38-.395.372z" fill="#001E2B"/><path d="M494.197 174.94c-1.63-6.046-.103-12.86 3.964-17.623 4.067-4.764 10.547-7.36 16.774-6.703 1.1 5.983-.759 12.123-3.916 17.33-3.727 6.125-11.133 8.729-16.822 6.996z" fill="#001E2B" opacity=".3"/><path d="M483.388 177.29c-3.418-1.757-5.878-5.27-6.361-9.085-.483-3.814 1.013-7.826 3.885-10.382 3.173 1.97 5.19 5.357 6.251 8.934 1.242 4.226-.641 8.665-3.775 10.533z" fill="#0AAD0A"/><path d="M483.388 177.29c-3.418-1.757-5.878-5.27-6.361-9.085-.483-3.814 1.013-7.826 3.885-10.382 3.173 1.97 5.19 5.357 6.251 8.934 1.242 4.226-.641 8.665-3.775 10.533z" fill="#001E2B" opacity=".3"/><path d="M484.626 184.032c-.024.008-.111-.253-.245-.72-.135-.475-.285-1.163-.451-2.018-.333-1.717-.681-4.099-.997-6.742a152.568 152.568 0 01-.665-6.774c-.135-1.741-.174-2.817-.119-2.817.056-.008.198 1.06.404 2.793.213 1.844.482 4.178.783 6.758.317 2.635.617 5.017.878 6.742.262 1.71.475 2.762.412 2.778z" fill="#001E2B"/><path d="M335.219 269.013c2.413-5.69 7.809-10.01 13.886-11.118 6.077-1.108 12.652 1.036 16.909 5.507-8.973 6.956-19.441 11.704-30.795 5.611z" fill="#0AAD0A"/><path d="M335.219 269.013c2.413-5.69 7.809-10.01 13.886-11.118 6.077-1.108 12.652 1.036 16.909 5.507-8.973 6.956-19.441 11.704-30.795 5.611z" fill="#001E2B" opacity=".3"/><path d="M330.149 271.791c-.016-.024.238-.222.712-.554a27.586 27.586 0 012.073-1.314c1.788-1.052 4.384-2.319 7.398-3.316 3.015-.989 5.856-1.511 7.921-1.733a28.093 28.093 0 012.452-.174c.578-.016.902-.008.902.024 0 .071-1.273.15-3.315.443a47.159 47.159 0 00-7.825 1.836c-2.983.989-5.57 2.2-7.382 3.181-1.82.966-2.896 1.662-2.936 1.607z" fill="#001E2B"/><path d="M126.648 165.895c4.321-2.018 9.654-1.71 13.713.799 4.059 2.508 6.725 7.13 6.86 11.902-8.744-.649-17.202-3.332-20.573-12.701z" fill="#0AAD0A"/><path d="M126.648 165.895c4.321-2.018 9.654-1.71 13.713.799 4.059 2.508 6.725 7.13 6.86 11.902-8.744-.649-17.202-3.332-20.573-12.701z" fill="#001E2B" opacity=".3"/><path d="M122.305 164.874c.008-.032.253-.016.696.031.443.04 1.092.143 1.875.301 1.575.317 3.719.918 5.966 1.907 2.247.989 4.146 2.161 5.436 3.11.649.475 1.155.879 1.488 1.179.34.301.514.467.498.491-.04.055-.823-.554-2.152-1.432a37.786 37.786 0 00-5.436-2.976 37.71 37.71 0 00-5.863-2.002c-1.543-.38-2.516-.546-2.508-.609z" fill="#001E2B"/><path d="M410.167 259.311c-.514-4.233 1.234-8.681 4.494-11.434 3.26-2.754 7.936-3.736 12.027-2.525-2.983 7.257-7.62 13.706-16.521 13.959z" fill="#0AAD0A"/><path d="M408.089 262.722c-.039-.024.285-.847.989-2.105a26.661 26.661 0 013.276-4.55 26.961 26.961 0 014.162-3.759c1.171-.839 1.954-1.25 1.978-1.211.032.056-.696.554-1.804 1.44a33.648 33.648 0 00-4.035 3.799 33.65 33.65 0 00-3.339 4.423c-.744 1.211-1.164 1.995-1.227 1.963z" fill="#001E2B"/><path d="M472.434 218.21c-1.297-4.068-.419-8.76 2.263-12.076 2.683-3.316 7.09-5.16 11.339-4.74-1.567 7.684-4.906 14.885-13.602 16.816z" fill="#0AAD0A"/><path d="M472.434 218.21c-1.297-4.068-.419-8.76 2.263-12.076 2.683-3.316 7.09-5.16 11.339-4.74-1.567 7.684-4.906 14.885-13.602 16.816z" fill="#001E2B" opacity=".3"/><path d="M471.031 221.945c-.047-.016.119-.887.578-2.248.451-1.361 1.234-3.205 2.366-5.088a26.177 26.177 0 013.386-4.471c.989-1.045 1.685-1.599 1.717-1.559.048.047-.577.673-1.503 1.757a33.913 33.913 0 00-3.252 4.495 33.944 33.944 0 00-2.445 4.977c-.514 1.314-.783 2.152-.847 2.137z" fill="#001E2B"/><path d="M3.094 161.614c.925-4.171 4.05-7.779 8.039-9.291 3.988-1.511 8.727-.886 12.177 1.623-5.214 5.847-11.734 10.39-20.216 7.668z" fill="#0AAD0A"/><path d="M.001 164.138c-.031-.032.546-.704 1.63-1.654 1.076-.95 2.682-2.145 4.605-3.197a26.974 26.974 0 015.175-2.16c1.377-.404 2.263-.531 2.27-.483.017.063-.838.293-2.183.76a34.485 34.485 0 00-5.072 2.239 34.498 34.498 0 00-4.62 3.063c-1.1.886-1.757 1.479-1.805 1.432z" fill="#001E2B"/><path d="M364.758 58.345l6.361-11.467a30.387 30.387 0 01-4.668-15.929c-.158-16.84 13.356-30.625 30.202-30.79C413.49 0 427.273 13.515 427.44 30.362c.158 16.84-13.356 30.625-30.202 30.791a30.328 30.328 0 01-18.721-6.204l.008.016-13.767 3.379z" fill="#fff"/><path d="M364.758 58.345c.712-.182 5.016-1.274 13.736-3.482l-.056.166-.008-.016-.482-.617.625.467a30.954 30.954 0 006.282 3.656c2.453 1.044 5.246 1.883 8.324 2.255 1.535.174 3.141.277 4.787.182.823-.055 1.662-.087 2.5-.166.839-.134 1.686-.277 2.548-.42a30.728 30.728 0 0010.12-4.114 30.611 30.611 0 008.593-8.206c2.374-3.38 4.154-7.376 4.969-11.696.799-4.32.68-8.942-.499-13.398-1.186-4.439-3.354-8.775-6.575-12.32L418.38 9.29c-.411-.45-.894-.823-1.337-1.234-.459-.388-.878-.831-1.377-1.18l-1.456-1.068c-.475-.372-.989-.672-1.503-.973l-1.535-.91c-.538-.253-1.076-.506-1.606-.76-.538-.245-1.061-.53-1.622-.704A30.788 30.788 0 00394.421.506c-4.462.357-8.719 1.678-12.367 3.767a30.658 30.658 0 00-14.195 17.734c-1.02 3.379-1.281 6.734-1.25 9.836a30.301 30.301 0 004.589 14.996l.032.047-.032.048a5145.187 5145.187 0 01-6.44 11.41c.332-.616 2.279-4.177 6.274-11.513v.103a30.352 30.352 0 01-4.7-15.09c-.039-3.135.206-6.521 1.227-9.94a31.138 31.138 0 015.103-9.947 30.855 30.855 0 019.21-8.016C385.559 1.812 389.88.475 394.39.11a31.15 31.15 0 0113.704 1.97c.57.174 1.1.467 1.646.712.538.254 1.084.515 1.63.776l1.558.926c.523.308 1.053.61 1.527.989l1.472 1.084c.507.348.926.8 1.393 1.195.451.42.941.791 1.353 1.25l1.258 1.361c3.268 3.6 5.467 7.985 6.662 12.495a31.211 31.211 0 01.491 13.58c-.823 4.384-2.635 8.427-5.049 11.838a30.757 30.757 0 01-8.711 8.285 31.074 31.074 0 01-10.247 4.139c-.87.142-1.724.277-2.571.411-.855.08-1.701.111-2.532.167-1.662.095-3.284-.016-4.835-.198-3.109-.38-5.926-1.243-8.387-2.31a31.172 31.172 0 01-6.314-3.728l.143-.142.008.015.095.127-.151.04c-8.735 2.057-13.055 3.086-13.775 3.252z" fill="#001E2B"/><path d="M388.487 25.433l3.964-.04s-.032-3.33 3.426-3.426c1.796-.047 2.738 1.124 3.126 2.018.451 1.045.324 2.24-.254 3.213-.664 1.116-2.128 2.137-4.802 1.694l.087 8.95 3.924-.04-.047-5.239s5.491-1.472 5.427-7.541c-.055-5.8-5.269-7.098-7.5-7.075-1.694.024-7.493.491-7.351 7.486zm9.555 14.219l-3.98.038.036 3.72 3.98-.038-.036-3.72z" fill="#0AAD0A"/></g><defs><clipPath id="clip0_2812_6697"><path fill="#fff" d="M0 0h536v333H0z"/></clipPath></defs></svg>