<svg width="394" height="394" fill="none" xmlns="http://www.w3.org/2000/svg"><path d="M197 336.917c84.381 0 152.785-3.993 152.785-8.92 0-4.926-68.404-8.92-152.785-8.92s-152.785 3.994-152.785 8.92c0 4.927 68.404 8.92 152.785 8.92z" fill="#F1F4F3"/><path d="M196.827 280.371a4 4 0 01-3.997 4.136H88.938a4 4 0 01-3.998-3.864l-5.85-171.955a4 4 0 013.998-4.136h103.891a4 4 0 013.998 3.864l5.85 171.955z" fill="#0AAD0A"/><path d="M202.413 274.784a4 4 0 01-3.998 4.136H94.524a4 4 0 01-3.998-3.863l-5.858-171.956a4 4 0 013.998-4.136h103.891a4 4 0 013.998 3.864l5.858 171.955z" fill="#0AAD0A"/><path opacity=".3" d="M202.413 274.784a4 4 0 01-3.998 4.136H94.524a4 4 0 01-3.998-3.863l-5.858-171.956a4 4 0 013.998-4.136h103.891a4 4 0 013.998 3.864l5.858 171.955z" fill="#fff"/><path d="M165.064 173.016c11.981-12.187 11.471-32.116-1.139-44.512-12.609-12.396-32.544-12.564-44.525-.377-11.981 12.188-11.471 32.117 1.139 44.512 12.61 12.396 32.544 12.565 44.525.377z" fill="#0AAD0A"/><path d="M168.214 150.579a25.222 25.222 0 01-2.718 12.372 24.888 24.888 0 01-22.38 13.6 26.995 26.995 0 01-23.293-13.6 26.4 26.4 0 01-3.562-12.372 24.953 24.953 0 011.595-9.908 24.948 24.948 0 0113.651-14.148 24.92 24.92 0 019.844-1.948 27.076 27.076 0 0126.863 26.004z" fill="#fff"/><path opacity=".6" d="M165.481 162.951a24.896 24.896 0 01-22.379 13.6 26.992 26.992 0 01-23.293-13.6 39.862 39.862 0 0122.615-6.927 42.143 42.143 0 0123.057 6.927zm-15.155-13.02c4.406-4.482 4.218-11.81-.418-16.368-4.637-4.558-11.967-4.62-16.373-.138-4.405 4.481-4.218 11.809.419 16.367 4.637 4.558 11.967 4.62 16.372.139z" fill="#0AAD0A"/><path d="M180.002 211.685a1.999 1.999 0 01-1.998 2.068h-67.375a2 2 0 01-1.999-1.932l-.345-10.184a2 2 0 011.999-2.068h67.375a2 2 0 011.998 1.932l.345 10.184zm.868 25.35a2 2 0 01-1.999 2.068h-67.383a2 2 0 01-1.999-1.932l-.345-10.184a2 2 0 011.999-2.068h67.383a2 2 0 011.999 1.932l.345 10.184z" fill="#fff"/><path d="M153.393 226.873l-17.202 2.364a1.195 1.195 0 00-1.033.928 1.19 1.19 0 00-.007.49l2.261 11.529a1.384 1.384 0 001.529 1.079l17.202-2.364a1.202 1.202 0 001.032-1.426l-2.253-11.528a1.378 1.378 0 00-1.529-1.072zm-4.941 11.678l-3.152.418-.307-3.719a2.21 2.21 0 01-1.284-1.576 1.964 1.964 0 011.702-2.364 2.25 2.25 0 012.49 1.757 1.93 1.93 0 01-.615 1.836l1.166 3.648zm3.237-12.3a1.232 1.232 0 01-1.355-.954l-.221-1.127a6.482 6.482 0 00-6.793-5.169 5.523 5.523 0 00-4.056 2.142 5.524 5.524 0 00-1.034 4.469l.252 1.3a1.072 1.072 0 01-.182.835 1.065 1.065 0 01-.74.426 1.211 1.211 0 01-1.355-.953l-.213-1.096a7.758 7.758 0 013.405-8.139 7.76 7.76 0 012.899-1.12 8.83 8.83 0 0110.086 6.832l.253 1.293a1.057 1.057 0 01-.946 1.261z" fill="#001E2B"/><path d="M169.088 256.9a2 2 0 01-1.999 2.068h-42.464a2 2 0 01-1.999-1.933l-.174-5.236a1.999 1.999 0 011.998-2.066h42.46a2 2 0 011.999 1.932l.179 5.235z" fill="#0AAD0A"/><path d="M146.742 206.661a2.485 2.485 0 01-.698 1.833 2.482 2.482 0 01-1.808.759 2.71 2.71 0 01-2.687-2.592 2.485 2.485 0 01.698-1.833 2.49 2.49 0 011.808-.76 2.704 2.704 0 012.687 2.593zm-11.207 0a2.47 2.47 0 01-.159.989 2.47 2.47 0 01-1.364 1.411 2.458 2.458 0 01-.983.192 2.699 2.699 0 01-2.679-2.592 2.494 2.494 0 012.506-2.593 2.698 2.698 0 012.679 2.593zm-11.133 0a2.485 2.485 0 01-.698 1.833 2.482 2.482 0 01-1.808.759 2.693 2.693 0 01-2.679-2.592 2.485 2.485 0 01.697-1.833 2.49 2.49 0 011.809-.76 2.698 2.698 0 012.679 2.593zm33.503 0a2.484 2.484 0 01-1.523 2.398 2.474 2.474 0 01-.983.194 2.693 2.693 0 01-2.679-2.592 2.485 2.485 0 012.514-2.569 2.697 2.697 0 012.671 2.569zm11.169 0a2.488 2.488 0 01-.695 1.835 2.475 2.475 0 01-1.811.757 2.699 2.699 0 01-2.679-2.592 2.485 2.485 0 01.697-1.833 2.487 2.487 0 011.809-.76 2.698 2.698 0 012.679 2.593z" fill="#001E2B"/><path d="M263.124 137.333c1.048 1.686 1.923 3.293 2.821 4.972a95.588 95.588 0 012.506 5.09 72.8 72.8 0 014.019 10.82c.142.465.244.961.362 1.442l.174.733.086.362.103.599a10.777 10.777 0 01-.245 4.066 23.054 23.054 0 01-2.458 5.871 46.67 46.67 0 01-6.998 9.164l-3.317-2.506a87.671 87.671 0 004.436-9.456c.575-1.426.98-2.915 1.206-4.436a3.507 3.507 0 00-.063-1.395l-.315-.961c-.126-.394-.244-.788-.394-1.19a89.379 89.379 0 00-4.153-9.519 217.265 217.265 0 00-4.964-9.314l7.194-4.342z" fill="#FF8B7B"/><path d="M261.019 176.851l-3.624 1.915 4.16 4.87s2.601-1.758 2.719-4.437l-3.255-2.348zm-8.488 4.917l4.452 3.538 4.571-1.67-4.161-4.87-4.862 3.002z" fill="#FF8B7B"/><path d="M237.309 111.549c-.086.442-.394.749-.677.694-.284-.055-.45-.465-.363-.899.087-.433.394-.788.686-.693.291.095.441.457.354.898z" fill="#001E2B"/><path d="M236.954 112.306a15.954 15.954 0 01-2.852 3.325 2.588 2.588 0 002.017.788l.835-4.113z" fill="#FF5652"/><path d="M235.535 127.766v-5.169l6.84.788s-.11 4.444-3.94 5.752l-2.9-1.371z" fill="#FF8B7B"/><path d="M237.505 118.878l4.815 1.387.086 3.159-6.84-.827 1.939-3.719z" fill="#FF8B7B"/><path opacity=".2" d="M242.319 120.265l-4.815-1.387-.938 1.796a7.677 7.677 0 004.445 6.683 7.538 7.538 0 001.394-3.94l-.086-3.152z" fill="#000"/><path d="M239.406 109.445a.265.265 0 00.141-.045.263.263 0 00.117-.26.272.272 0 00-.061-.136 2.618 2.618 0 00-2.238-.867.264.264 0 00-.169.106.266.266 0 00-.044.194.267.267 0 00.299.22 2.077 2.077 0 011.766.702.268.268 0 00.189.086z" fill="#001E2B"/><path d="M249.474 119.524c-.788 4.058-1.277 9.676 1.576 12.379 0 0-1.103 4.114-8.668 4.114-8.282 0-3.98-3.609-3.98-3.609 3.444-1.072 3.412-4.988 2.624-8.14l8.448-4.744z" fill="#FF8B7B"/><path d="M252.586 134.614c.74-1.04.709-4.342-.079-4.925-1.269-.938-6.714-1.158-14.034.528.788 3.199-.907 4.87-.907 4.87l15.02-.473zm24.636 187.079a1.811 1.811 0 01-1.387-.079.537.537 0 01-.126-.606.613.613 0 01.339-.387c.748-.362 2.466.339 2.545.371a.132.132 0 01.058.047.128.128 0 01.021.071c0 .025-.007.05-.02.072a.147.147 0 01-.051.054 7.795 7.795 0 01-1.379.457zm-.906-.89a.614.614 0 00-.15.055.33.33 0 00-.205.22c-.071.237 0 .316.047.339.3.253 1.403 0 2.183-.291a4.315 4.315 0 00-1.875-.323z" fill="#0AAD0A"/><path d="M278.568 321.244h-.063c-.63-.181-1.97-1.135-1.985-1.757a.43.43 0 01.338-.426.687.687 0 01.576.047c.74.379 1.213 1.907 1.229 1.978a.124.124 0 010 .126.096.096 0 01-.044.027.11.11 0 01-.051.005zm-1.576-1.962h-.063c-.157.055-.157.134-.157.173 0 .371.898 1.119 1.576 1.419-.166-.442-.528-1.316-1.009-1.576a.452.452 0 00-.339-.016h-.008zm-40.703 3.341c-.709 0-1.394-.102-1.623-.418a.493.493 0 010-.575.654.654 0 01.418-.307c.922-.252 2.86.851 2.939.898a.12.12 0 01.063.134.125.125 0 01-.102.11 9.537 9.537 0 01-1.695.158zm-.874-1.08a.826.826 0 00-.253 0 .407.407 0 00-.26.182c-.094.165-.055.244 0 .291.26.363 1.655.371 2.688.221a6.013 6.013 0 00-2.175-.694z" fill="#0AAD0A"/><path d="M237.979 322.465h-.055c-.67-.299-1.993-1.497-1.891-2.127 0-.15.126-.331.489-.363a.947.947 0 01.724.221 3.76 3.76 0 01.867 2.135.158.158 0 01-.055.119.151.151 0 01-.079.015zm-1.355-2.245h-.079c-.236 0-.252.11-.252.141-.063.379.835 1.324 1.521 1.734a3.053 3.053 0 00-.733-1.71.693.693 0 00-.465-.165h.008z" fill="#0AAD0A"/><path d="M244.06 322.339h-5.54l-.551-12.836h5.539l.552 12.836zm40.685-2.569l-5.413 1.175-5.445-11.954 5.421-1.175 5.437 11.954z" fill="#FF8B7B"/><path d="M278.803 320.401l6.091-1.316a.478.478 0 01.536.268l2.112 4.586a.796.796 0 01.085.358.796.796 0 01-.328.637.788.788 0 01-.341.14c-2.127.417-3.191.52-5.862 1.095-1.647.362-5.367 1.269-7.644 1.757-2.277.489-3.057-1.694-2.167-2.096 3.98-1.82 5.634-3.42 6.714-4.909.195-.266.481-.451.804-.52zm-40.244 1.292h6.052a.494.494 0 01.473.378l1.095 4.925a.79.79 0 01-.788.993c-2.183-.039-5.335-.165-8.077-.165-3.215 0-5.981.173-9.747.173-2.278 0-2.908-2.301-1.955-2.514 4.334-.945 7.88-1.048 11.623-3.356a2.571 2.571 0 011.324-.434z" fill="#001E2B"/><path d="M260.964 133.172c5.193 1.19 9.456 14.452 9.456 14.452l-10.378 7.935a22.798 22.798 0 01-5.516-10.244c-1.836-6.95 1.127-13.372 6.438-12.143z" fill="#0AAD0A"/><path opacity=".4" d="M260.964 133.172c5.193 1.19 9.456 14.452 9.456 14.452l-10.378 7.935a22.798 22.798 0 01-5.516-10.244c-1.836-6.95 1.127-13.372 6.438-12.143z" fill="#000"/><path d="M233.643 148.987c-1.292 1.395-2.584 2.64-3.94 3.94a75.22 75.22 0 01-2.04 1.868l-1.048.922-.261.228-.449.363a6.315 6.315 0 01-1.521.898 4.957 4.957 0 01-1.922.394 4.72 4.72 0 01-1.655-.292 4.643 4.643 0 01-1.576-1 4.727 4.727 0 01-1.229-2.041 5.35 5.35 0 01-.229-1.174 8.017 8.017 0 010-1.403c.04-.378.087-.709.15-1.017.216-1.074.521-2.128.914-3.152.354-.972.762-1.924 1.221-2.852.505-1.001.985-1.734 1.466-2.569a64.242 64.242 0 016.659-9.03 61.017 61.017 0 018.077-7.66l2.899 2.987a152.834 152.834 0 00-5.886 8.526 92.452 92.452 0 00-5.043 8.865c-.339.741-.788 1.576-1.001 2.175a21.27 21.27 0 00-.733 2.127c-.198.65-.348 1.314-.449 1.986a3.31 3.31 0 000 .315v-.071a2.207 2.207 0 00-.102-.52 3.393 3.393 0 00-.906-1.465 3.849 3.849 0 00-1.301-.788 3.765 3.765 0 00-1.324-.245 3.207 3.207 0 00-1.662.442l.299-.276.954-.867 1.883-1.765c1.245-1.174 2.498-2.427 3.68-3.593l6.075 5.744z" fill="#FF8B7B"/><path opacity=".2" d="M256.512 142.912c2.821 2.789 3.743 7.88 3.94 12.292l-.457.355a22.798 22.798 0 01-5.516-10.244 13.51 13.51 0 01-.268-1.237l2.301-1.166z" fill="#000"/><path d="M228.136 138.688c-1.135 5.989-1.844 18.289 1.442 42.639h29.676c.205-4.547-2.656-26.753 1.734-48.194a77.85 77.85 0 00-9.929-1.253 110.022 110.022 0 00-12.608 0 46.547 46.547 0 00-3.94.543 7.883 7.883 0 00-6.375 6.265z" fill="#0AAD0A"/><path opacity=".4" d="M228.136 138.688c-1.135 5.989-1.844 18.289 1.442 42.639h29.676c.205-4.547-2.656-26.753 1.734-48.194a77.85 77.85 0 00-9.929-1.253 110.022 110.022 0 00-12.608 0 46.547 46.547 0 00-3.94.543 7.883 7.883 0 00-6.375 6.265z" fill="#000"/><path opacity=".2" d="M232.673 147.569l-5.358-1.285c-.166 3.247-.181 7.266.055 12.238 2.466-2.805 5.618-7.187 5.303-10.953zm5.296 161.934l.283 6.619h5.548l-.284-6.619h-5.547zm41.339-1.687l-5.421 1.175 2.805 6.162 5.421-1.174-2.805-6.163z" fill="#000"/><path d="M252.107 113.598c-1.418 5.311-1.986 8.495-5.264 10.701-4.925 3.357-11.071-.488-11.229-6.099-.173-5.067 2.183-12.907 7.88-13.979a7.503 7.503 0 018.613 9.377z" fill="#FF8B7B"/><path d="M239.672 113.795c-.268-.709-1.49-6.201-.339-7.628 1.15-1.426 14.271-.394 16.209 1.513 3.223 3.152.985 5.989-2.537 9.637-2.648 2.743-2.75 5.832-4.09 6.304-2.364.788-5.973.048-6.698-2.45-.725-2.498-2.545-7.376-2.545-7.376z" fill="#001E2B"/><path d="M253.952 101.431c-4.634-1.97-13.325.213-18.022-.922a7.232 7.232 0 005.997 7.376 61.927 61.927 0 0011.82 1.095c5.153-.236 4.145-5.87.205-7.549z" fill="#001E2B"/><path d="M254.676 107.846a8.835 8.835 0 004.909-.938c.867 2.096-3.901 2.671-4.909.938z" fill="#001E2B"/><path d="M242.194 114.016a6.236 6.236 0 01-1.576 3.68c-1.214 1.331-2.474.496-2.687-1.119-.189-1.466.205-3.94 1.686-4.649 1.482-.71 2.679.441 2.577 2.088z" fill="#FF8B7B"/><path d="M240.098 181.35s6.304 42.355 9.747 58.226c3.775 17.375 24.058 74.86 24.058 74.86l9.921-2.152s-14.184-46.854-17.336-71.148c-2.443-18.66-7.242-59.801-7.242-59.801l-19.148.015z" fill="#21313C"/><path d="M271.524 311.134c-.039 0 1.852 3.593 1.852 3.593l11.158-2.419-.938-3.357-12.072 2.183z" fill="#001E2B"/><path opacity=".3" d="M244.077 196.441c7.273 1.426 6.501 28.549 5.626 42.504-2.096-9.866-5.169-28.841-7.265-42.307a2.475 2.475 0 011.639-.197z" fill="#000"/><path d="M229.578 181.35s-.788 41.441-.158 58.312c.631 17.581 6.769 75.144 6.769 75.144h9.393s.339-56.539.788-73.804c.457-18.818 2.727-59.683 2.727-59.683l-19.519.031z" fill="#21313C"/><path d="M234.386 311.102c-.048 0 .528 3.893.528 3.893h11.418l.315-3.475-12.261-.418z" fill="#001E2B"/><path d="M239.751 140.532c2.655 7.163-12.955 15.602-12.955 15.602l-6.761-8.668s4.547-8.999 10.063-13.049c6.816-4.996 7.628.662 9.653 6.115z" fill="#0AAD0A"/><path opacity=".4" d="M239.751 140.532c2.655 7.163-12.955 15.602-12.955 15.602l-6.761-8.668s4.547-8.999 10.063-13.049c6.816-4.996 7.628.662 9.653 6.115z" fill="#000"/><path d="M300.912 86.152c15.706 0 28.438-8.114 28.438-18.124 0-10.01-12.732-18.124-28.438-18.124-15.707 0-28.439 8.114-28.439 18.124 0 10.01 12.732 18.124 28.439 18.124z" fill="#0AAD0A"/><path d="M290.652 77.153a7.964 7.964 0 01-7.824-6.611 8.05 8.05 0 016.075-9.078 7.928 7.928 0 018.526 3.562l18.258-3.767a2.853 2.853 0 013.341 1.962 2.745 2.745 0 01-2.104 3.397l-.472.094a.46.46 0 00-.331.244.484.484 0 000 .41l.323.835a1.256 1.256 0 01-.489 1.521 1.497 1.497 0 00-.701 1.111 1.237 1.237 0 01-.954 1.096l-.37.078a1.229 1.229 0 01-1.308-.63 1.539 1.539 0 00-2.449-.258 1.54 1.54 0 00-.396.85 1.221 1.221 0 01-.945 1.087l-.371.078a1.237 1.237 0 01-1.308-.63 1.577 1.577 0 00-1.095-.74 1.25 1.25 0 01-1.103-1.237v-.9a.49.49 0 00-.583-.457l-5.824 1.198a7.93 7.93 0 01-6.264 6.62 8.17 8.17 0 01-1.632.165zm-1.576-14.972a7.256 7.256 0 00-5.516 8.211 7.18 7.18 0 0011.89 4.014 7.176 7.176 0 002.294-4.424V69.7l6.423-1.3a1.275 1.275 0 011.576 1.197v.898a.46.46 0 00.378.45 2.292 2.292 0 011.663 1.126.454.454 0 00.465.253l.362-.08a.438.438 0 00.331-.409c.05-.49.254-.953.583-1.32a2.33 2.33 0 012.684-.565c.45.202.823.542 1.067.971a.446.446 0 00.457.252l.378-.079a.44.44 0 00.323-.41 2.287 2.287 0 011.08-1.694.48.48 0 00.165-.567l-.323-.835a1.265 1.265 0 01.43-1.48c.148-.11.319-.186.5-.222l.481-.103a1.982 1.982 0 001.542-1.63 1.98 1.98 0 00-.037-.789 2.059 2.059 0 00-2.427-1.395l-18.77 3.9-.142-.243a7.092 7.092 0 00-7.817-3.428l-.04-.016zm1.576 12.04a5.05 5.05 0 01-2.765-.787 5.046 5.046 0 01-1.91-6.12 5.05 5.05 0 018.563-1.335 5.054 5.054 0 01-2.863 8.18 5.02 5.02 0 01-1.017.078l-.008-.015zm0-9.306a4.752 4.752 0 00-.874.087 4.272 4.272 0 00-2.631 6.603 4.271 4.271 0 004.412 1.758 4.26 4.26 0 003.318-3.371 4.266 4.266 0 00-1.837-4.36 4.193 4.193 0 00-2.356-.7l-.032-.017z" fill="#fff"/><path opacity=".6" d="M277.771 96.782c5.162 0 9.346-2.667 9.346-5.957s-4.184-5.957-9.346-5.957c-5.161 0-9.345 2.667-9.345 5.957s4.184 5.957 9.345 5.957z" fill="#0AAD0A"/><path opacity=".3" d="M262.9 99.225c2.12 0 3.838-1.094 3.838-2.443s-1.718-2.443-3.838-2.443c-2.119 0-3.838 1.094-3.838 2.443 0 1.35 1.719 2.443 3.838 2.443z" fill="#0AAD0A"/></svg>