<svg width="56" height="22" viewBox="0 0 32 22" fill="none" xmlns="http://www.w3.org/2000/svg"><rect width="32" height="21.333" rx="4" fill="#F2F0EC"/><path fill="#fff" d="M3.102 2.133h25.807V19.2H3.102z" opacity=".01"/><path fill="#F26122" d="M12.602 5.107h6.807v11.12h-6.807z"/><path d="M13.334 10.667A7.053 7.053 0 0116 5.107a7.073 7.073 0 100 11.12 7.053 7.053 0 01-2.666-5.56z" fill="#EA1D25"/><path fill-rule="evenodd" clip-rule="evenodd" d="M26.758 14.82v.227h-.04v-.227h-.093v-.047h.233v.047h-.1zm.454-.047v.274h-.047v-.207l-.073.18h-.053l-.08-.18v.207h-.047v-.274h.067l.086.194.08-.194h.067z" fill="#F69E1E"/><path d="M27.44 10.667A7.073 7.073 0 0116 16.227 7.073 7.073 0 0017.187 6.3 6.937 6.937 0 0016 5.107a7.073 7.073 0 0111.44 5.56z" fill="#F69E1E"/></svg>