<svg width="56" height="22" viewBox="0 0 32 22" fill="none" xmlns="http://www.w3.org/2000/svg"><rect width="32" height="21.333" rx="4" fill="#DFE3E8"/><path d="M13.564 16.88l.234-1.467h-2.974l1.707-10.84a.14.14 0 01.047-.086.16.16 0 01.093-.034h4.14c1.38 0 2.327.287 2.827.854.22.237.375.53.446.846a2.94 2.94 0 010 1.167v.333l.234.134c.177.088.337.208.473.353.204.246.335.544.38.86.05.413.032.832-.053 1.24a4.322 4.322 0 01-.514 1.407 2.87 2.87 0 01-.806.886 3.37 3.37 0 01-1.087.487c-.436.11-.884.164-1.333.16h-.327a.98.98 0 00-.627.227.946.946 0 00-.326.586v.134l-.407 2.586v.1a.1.1 0 010 .054h-.04l-2.087.013z" fill="#253D80"/><path d="M20.536 7.387l-.04.246c-.547 2.8-2.42 3.774-4.807 3.774h-1.213a.593.593 0 00-.587.5l-.62 3.946-.18 1.12a.313.313 0 00.307.36h2.16a.52.52 0 00.513-.44v-.106l.407-2.58v-.14a.513.513 0 01.507-.44h.353c2.087 0 3.727-.847 4.2-3.334.256-.85.098-1.77-.427-2.486a2.152 2.152 0 00-.573-.42z" fill="#189BD7"/><path d="M19.96 7.16l-.253-.067-.28-.053a6.706 6.706 0 00-1.067-.073h-3.253a.507.507 0 00-.507.433l-.666 4.38v.127a.593.593 0 01.586-.5h1.214c2.386 0 4.26-.974 4.806-3.774l.04-.246a2.987 2.987 0 00-.446-.187l-.174-.04z" fill="#242E65"/><path d="M14.602 7.4a.507.507 0 01.507-.433h3.253c.357-.004.714.02 1.067.073l.28.053.253.067.127.04c.154.05.303.112.447.187a2.667 2.667 0 00-.534-2.38C19.336 4.3 18.242 4 16.816 4h-4.147a.593.593 0 00-.587.5l-1.727 10.94a.36.36 0 00.354.413h2.56l.666-4.073.667-4.38z" fill="#253D80"/></svg>