<svg width="394" height="394" fill="none" xmlns="http://www.w3.org/2000/svg"><path d="M197 336.917c84.381 0 152.785-3.993 152.785-8.92 0-4.926-68.404-8.92-152.785-8.92s-152.785 3.994-152.785 8.92c0 4.927 68.404 8.92 152.785 8.92z" fill="#F4F6F8"/><path d="M205.203 288.014H104.678a6.406 6.406 0 01-6.304-6.02l-9.015-174.582a5.645 5.645 0 011.54-4.252 5.657 5.657 0 014.165-1.76H195.59a6.398 6.398 0 016.304 6.012l8.999 174.582a5.647 5.647 0 01-1.535 4.248 5.65 5.65 0 01-4.155 1.772z" fill="#0AAD0A"/><path opacity=".8" d="M205.203 288.014H104.678a6.406 6.406 0 01-6.304-6.02l-9.015-174.582a5.645 5.645 0 011.54-4.252 5.657 5.657 0 014.165-1.76H195.59a6.398 6.398 0 016.304 6.012l8.999 174.582a5.647 5.647 0 01-1.535 4.248 5.65 5.65 0 01-4.155 1.772z" fill="#fff"/><path d="M185.669 95.71h-11.118v.789h11.118v-.788zm-14.974 0h-4.074v.789h4.074v-.788zm38.836 181.225h-96.136a6.12 6.12 0 01-6.052-5.745l-8.605-166.977a5.404 5.404 0 015.461-5.752h96.136a6.12 6.12 0 016.044 5.752l8.604 166.977a5.404 5.404 0 01-1.471 4.064 5.398 5.398 0 01-3.981 1.681z" fill="#0AAD0A"/><path d="M209.528 273.097h-96.136a2.3 2.3 0 01-2.215-2.112l-8.612-166.969a1.57 1.57 0 011.623-1.71h96.136a2.302 2.302 0 012.206 2.112l8.653 166.969a1.573 1.573 0 01-1.616 1.71h-.039zm-105.34-170.594a1.405 1.405 0 00-1.056.426 1.446 1.446 0 00-.37 1.079l8.605 166.969a2.102 2.102 0 002.017 1.923h96.136a1.373 1.373 0 001.048-.425 1.392 1.392 0 00.37-1.08l-8.597-166.969a2.092 2.092 0 00-2.009-1.923h-96.144z" fill="#fff"/><path opacity=".3" d="M175.904 163.16c10.935-11.221 10.223-29.649-1.59-41.16-11.813-11.512-30.253-11.747-41.187-.527-10.935 11.221-10.223 29.649 1.59 41.16 11.813 11.512 30.253 11.747 41.187.527z" fill="#fff"/><path d="M178.089 142.321a22.622 22.622 0 01-2.261 11.221 22.119 22.119 0 01-20.071 12.332 25.017 25.017 0 01-21.339-12.332 24.256 24.256 0 01-3.42-11.221 22.129 22.129 0 016.03-16.645 22.142 22.142 0 0116.302-6.901 25.066 25.066 0 0124.759 23.546z" fill="#fff"/><path d="M175.804 153.542a22.124 22.124 0 01-20.07 12.332 25.024 25.024 0 01-21.339-12.332 35.579 35.579 0 0120.377-6.304 38.719 38.719 0 0121.032 6.304zm-13.991-11.769c3.939-4.042 3.681-10.683-.576-14.832-4.258-4.149-10.903-4.235-14.842-.193-3.94 4.043-3.682 10.683.576 14.832 4.257 4.149 10.902 4.236 14.842.193z" fill="#0AAD0A"/><path d="M195.746 211.972h-75.277a2.593 2.593 0 01-2.561-2.435l-.568-11.032a2.29 2.29 0 011.393-2.248c.29-.122.602-.183.916-.179h75.278a2.596 2.596 0 012.561 2.427l.567 11.032a2.277 2.277 0 01-.622 1.722 2.282 2.282 0 01-1.687.713z" fill="#fff"/><path opacity=".3" d="M172.7 189.987h-31.442a2.592 2.592 0 01-2.568-2.443l-.119-2.364a2.297 2.297 0 01.622-1.722 2.291 2.291 0 011.687-.713h31.433a2.593 2.593 0 012.561 2.435l.127 2.364a2.306 2.306 0 01-1.387 2.255 2.3 2.3 0 01-.914.188zm11.694 75.025h-47.099a4.424 4.424 0 01-4.358-4.145l-.275-5.437a3.93 3.93 0 011.079-2.919 3.947 3.947 0 012.861-1.226h47.083a4.42 4.42 0 014.357 4.145l.276 5.437a3.936 3.936 0 01-3.924 4.145z" fill="#000"/><path d="M197.125 238.654H121.84a2.601 2.601 0 01-2.561-2.435l-.568-11.032a2.294 2.294 0 012.309-2.435h75.278a2.595 2.595 0 012.561 2.435l.575 11.032a2.3 2.3 0 01-2.309 2.435z" fill="#fff"/><path d="M130.02 204.021a2.52 2.52 0 01-.148 1.025 2.525 2.525 0 01-1.396 1.47 2.538 2.538 0 01-1.017.2 2.87 2.87 0 01-2.829-2.695 2.545 2.545 0 01.688-1.905 2.534 2.534 0 011.866-.79 2.878 2.878 0 012.836 2.695zm8.297 0a2.518 2.518 0 01-.688 1.905 2.525 2.525 0 01-1.865.79 2.862 2.862 0 01-2.829-2.695 2.528 2.528 0 012.553-2.695 2.865 2.865 0 011.947.789c.525.501.84 1.182.882 1.906zm8.25 0a2.535 2.535 0 01-.688 1.905 2.534 2.534 0 01-1.865.79 2.874 2.874 0 01-2.837-2.695 2.54 2.54 0 012.561-2.695 2.871 2.871 0 012.829 2.695zm8.316 0a2.524 2.524 0 01-.69 1.903 2.543 2.543 0 01-1.863.792 2.877 2.877 0 01-2.837-2.695 2.542 2.542 0 012.553-2.695 2.878 2.878 0 012.837 2.695zm-23.469 26.666a2.527 2.527 0 01-2.553 2.695 2.878 2.878 0 01-2.837-2.695 2.542 2.542 0 012.561-2.695 2.863 2.863 0 012.829 2.695zm8.282 0a2.524 2.524 0 01-.69 1.903 2.543 2.543 0 01-1.863.792 2.876 2.876 0 01-2.837-2.695 2.528 2.528 0 012.553-2.695 2.878 2.878 0 012.837 2.695zm8.281 0a2.52 2.52 0 01-.148 1.025 2.525 2.525 0 01-1.396 1.47 2.538 2.538 0 01-1.017.2 2.862 2.862 0 01-2.829-2.695 2.545 2.545 0 01.688-1.905 2.534 2.534 0 011.866-.79 2.878 2.878 0 012.836 2.695zm8.277 0a2.52 2.52 0 01-1.538 2.495 2.525 2.525 0 01-1.015.2 2.876 2.876 0 01-2.837-2.695 2.554 2.554 0 01.693-1.906 2.55 2.55 0 011.868-.789 2.865 2.865 0 011.947.789c.525.501.84 1.182.882 1.906zm8.281 0a2.527 2.527 0 01-2.553 2.695 2.878 2.878 0 01-2.836-2.695 2.524 2.524 0 01.69-1.903 2.535 2.535 0 011.863-.792 2.878 2.878 0 012.836 2.695zm8.282 0a2.54 2.54 0 01-2.561 2.695 2.869 2.869 0 01-2.829-2.695 2.528 2.528 0 012.553-2.695 2.879 2.879 0 012.837 2.695z" fill="#263238"/><path d="M262.404 139.177c.197.299.299.457.425.669l.355.584c.228.394.433.787.63 1.174.394.788.788 1.576 1.103 2.364a43.34 43.34 0 011.702 4.799 50.234 50.234 0 011.876 9.881l.055.623c.007.126.007.252 0 .378v.417c.013.548-.019 1.097-.095 1.64a13.479 13.479 0 01-.788 2.939 20.351 20.351 0 01-2.726 4.728 33.828 33.828 0 01-7.336 6.942l-2.175-2.545a45.2 45.2 0 005.232-7.242 16.549 16.549 0 001.576-3.719 7.52 7.52 0 00.26-1.687 3.73 3.73 0 000-.732v-.166a1.02 1.02 0 000-.221l-.094-.551a62.519 62.519 0 00-2.144-8.668c-.457-1.411-1.016-2.774-1.576-4.106a30.112 30.112 0 00-.906-1.954l-.489-.93-.244-.433-.205-.347 5.564-3.837z" fill="#FF8B7B"/><path d="M255.074 176.331l2.853 6.028 2.261-5.098s-2.009-4.413-4.728-4.003l-.386 3.073z" fill="#FF8B7B"/><path d="M259.967 182.658l2.269-3.719-2.049-1.678-2.261 5.098 2.041.299z" fill="#FF8B7B"/><path d="M247.138 321.677a8.074 8.074 0 001.75-.236.177.177 0 00.076-.047.183.183 0 00.042-.079.158.158 0 00-.071-.158c-.228-.149-2.23-1.442-3.002-1.095a.537.537 0 00-.307.441.891.891 0 00.26.788c.357.276.802.413 1.252.386zm1.301-.465c-1.143.237-2.01.197-2.364-.11a.606.606 0 01-.166-.559c0-.134.079-.174.134-.197.426-.189 1.584.37 2.396.866z" fill="#0AAD0A"/><path d="M248.848 321.441h.079a.184.184 0 00.057-.061.179.179 0 00.022-.081c0-.079 0-1.978-.725-2.616a.819.819 0 00-.662-.205.545.545 0 00-.528.433c-.15.749 1.048 2.167 1.678 2.53h.079zm-1.127-2.671a.476.476 0 01.347.134c.416.612.631 1.339.615 2.08-.631-.504-1.379-1.576-1.285-2.025 0-.071.055-.166.252-.189h.071zm-8.019-.308a.164.164 0 00.034-.08.158.158 0 00-.01-.086.167.167 0 00-.054-.069.166.166 0 00-.081-.033c-.323 0-3.152-.134-3.798.56v.047a.494.494 0 00-.071.489.875.875 0 00.575.575c.915.284 2.53-.749 3.412-1.387l-.007-.016zm-3.672.497c.354-.379 1.914-.481 3.081-.465-1.222.835-2.238 1.229-2.75 1.071a.562.562 0 01-.379-.378.213.213 0 010-.197l.048-.031z" fill="#0AAD0A"/><path d="M239.702 318.462a.176.176 0 000-.157c-.04-.063-.922-1.576-1.962-1.891a1.14 1.14 0 00-.899.11c-.378.22-.402.481-.354.646.205.733 2.214 1.379 3.081 1.371a.15.15 0 00.077-.022.149.149 0 00.057-.057zm-2.829-1.576a.682.682 0 01.15-.11.783.783 0 01.661-.087c.686.182 1.324 1.064 1.616 1.498-.938-.103-2.364-.678-2.482-1.119a.18.18 0 01.055-.19v.008z" fill="#0AAD0A"/><path d="M248.375 116.096c-.788 3.94-2.49 12.458.244 15.074 0 0-1.072 3.94-8.345 3.94-8.006 0-3.822-3.94-3.822-3.94 4.366-1.04 4.255-4.286 3.491-7.328l8.432-7.746z" fill="#FF8B7B"/><path d="M235.045 106.861a.43.43 0 00.134 0 .32.32 0 00.16-.183.323.323 0 00-.018-.243 3.1 3.1 0 00-2.269-1.733.321.321 0 00-.347.275.313.313 0 00.067.23.312.312 0 00.209.117 2.47 2.47 0 011.781 1.395.313.313 0 00.283.142z" fill="#263238"/><path d="M232.656 110.32a14.365 14.365 0 01-2.301 3.152 2.297 2.297 0 001.837.583l.464-3.735z" fill="#FF8B7B"/><path d="M233.248 109.43c-.064.528-.402.922-.741.882-.339-.039-.575-.504-.512-1.032.063-.528.401-.922.788-.883.386.04.52.505.465 1.033z" fill="#263238"/><path d="M232.885 108.445l-1.213-.489s.512 1.04 1.213.489z" fill="#263238"/><path d="M246.659 316.965l-6.43 1.497-3.909-14.783 6.43-1.497 3.909 14.783zm9.866 4.318h-6.595l.512-15.279h6.603l-.52 15.279z" fill="#FF8B7B"/><path d="M249.4 320.519h7.415a.528.528 0 01.528.457l.843 5.863a1.058 1.058 0 01-.622 1.084c-.137.06-.284.091-.434.09-2.584-.039-3.829-.197-7.092-.197-2.009 0-4.94.213-7.706.213s-2.924-2.743-1.765-2.987c5.169-1.119 5.988-2.648 7.73-4.113a1.71 1.71 0 011.103-.41z" fill="#263238"/><path d="M239.661 317.477l6.738-3.097a.52.52 0 01.662.19l3.222 4.98a1.051 1.051 0 01.098.857 1.053 1.053 0 01-.217.384 1.053 1.053 0 01-.353.264c-2.364 1.04-3.562 1.426-6.525 2.789-1.82.836-5.516 2.758-8.022 3.94-2.506 1.182-3.798-1.268-2.852-1.978 4.231-3.152 5.445-5.413 6.414-7.47.164-.379.461-.684.835-.859z" fill="#263238"/><path opacity=".2" d="M236.32 303.679l2.096 7.928 6.352-1.805-2.01-7.62-6.438 1.497zm20.723 2.325h-6.603l-.26 7.88h6.603l.26-7.88z" fill="#000"/><path d="M260.04 132.668c2.742.606 5.673 10.464 5.673 10.464l-7.753 8.251s-6.438-9.267-5.122-12.671c1.331-3.554 3.932-6.753 7.202-6.044z" fill="#5C6C75"/><path opacity=".4" d="M255.659 138.948c-1.387-1.269-2.325-.89-2.963.118-.63 2.932 3.105 9.07 4.61 11.395.693-2.774 1.489-8.621-1.647-11.513z" fill="#000"/><path d="M225.296 132.865s-3.152 1.103 3.152 39.833h26.792c-.449-10.906-.465-17.635 4.728-40.03a79.071 79.071 0 00-11.387-1.498 84.895 84.895 0 00-12.167 0c-5.192.481-11.118 1.695-11.118 1.695z" fill="#5C6C75"/><path opacity=".4" d="M225.051 147.726c.173 1.884.402 4.003.701 6.399 2.199-1.978 3.995-7.604 3.333-10.882a19.357 19.357 0 00-4.034 4.483z" fill="#000"/><path d="M227.92 141.84a116.716 116.716 0 01-4.878 10.677 65.516 65.516 0 01-6.304 10.244l-.504.623-.252.307c-.087.103-.158.197-.292.339a9.813 9.813 0 01-1.576 1.387 12.806 12.806 0 01-3.294 1.639 24.045 24.045 0 01-6.304 1.119 46.787 46.787 0 01-11.946-1.064l.434-3.309c1.812 0 3.711 0 5.516-.15a44.386 44.386 0 005.405-.599 21.293 21.293 0 004.839-1.355 7.25 7.25 0 001.741-1.056c.202-.169.384-.359.544-.568l.158-.212.181-.26.37-.521a78.139 78.139 0 005.272-9.542 277.682 277.682 0 004.594-10.244l6.296 2.545z" fill="#FF8B7B"/><path d="M225.297 132.865c-3.286.788-7.32 9.802-7.32 9.802l6.808 10.008s9.07-11.418 7.99-14.901c-1.103-3.633-3.467-5.886-7.478-4.909z" fill="#5C6C75"/><path d="M194.893 164.306l-5.681-2.624-.567 5.65s4.728 1.395 7.092 0l-.844-3.026z" fill="#FF8B7B"/><path d="M185.817 161.115l-.544 4.302 3.373 1.915.567-5.65-3.396-.567zm65.411-51.299c-1.206 6.438-1.576 9.196-5.264 12.119-5.516 4.397-13.199 1.513-13.94-5.153-.678-6.005 1.403-15.524 8.077-17.336a8.928 8.928 0 0111.127 10.37z" fill="#FF8B7B"/><path d="M237.083 111.171c-.37 3.286-.512 11.82 6.706 12.088 8.833.323 11.481-7.226 10.693-10.244 4.602-3.743 5.264-10.181.095-15.106-5.17-4.925-16.548-2.175-19.7 2.624-3.996 5.949 2.206 10.638 2.206 10.638z" fill="#263238"/><path d="M245.933 99.824c-.425-3.467-.094-5.855 3.152-5.855 3.247 0 7.675 1.174 9.299 4.492 1.623 3.317 1.757 8.51-2.774 7.982-4.531-.528-9.165-2.474-9.677-6.62z" fill="#0AAD0A"/><path d="M250.963 98.989c-.788-4.13 2.907-15.76 11.883-16.548 4.16-.355 6.083 4.12 3.94 4.861 3.94-.047 6.461 5.162 2.789 5.942 2.9 1.86 2.183 5.674-1.954 7.549-3.081 1.418-15.594 3.916-16.658-1.804z" fill="#263238"/><path d="M260.551 103.425c-2.891 0-5.91-.425-7.785-1.678a3.865 3.865 0 01-1.852-2.995.205.205 0 01.259-.206.192.192 0 01.117.099c.011.024.017.05.018.076a3.518 3.518 0 001.679 2.703c3.569 2.364 11.82 1.576 14.389.788 2.222-.725 3.727-2.136 4.026-3.76a3.259 3.259 0 00-1.316-3.151.182.182 0 01-.059-.138.183.183 0 01.059-.138.199.199 0 01.276 0 3.67 3.67 0 011.458 3.57c-.323 1.773-1.923 3.286-4.287 4.058-2.281.575-4.63.835-6.982.772z" fill="#263238"/><path d="M235.076 110.32a4.846 4.846 0 00-.843 3.554c.26 1.655 1.867 1.765 3.034.709 1.166-1.056 2.182-2.963 1.323-4.334a2.062 2.062 0 00-2.778-.663c-.304.178-.557.43-.736.734z" fill="#FF8B7B"/><path d="M235.523 172.698s3.83 45.302 7.809 70.833c3.208 20.622 5.745 68.824 5.745 68.824h8.999s3.199-46.76 1.576-67.153c-4.121-51.614 5.075-55.822-4.389-72.496l-19.74-.008z" fill="#21313C"/><path opacity=".4" d="M246.854 189.821a43.975 43.975 0 00-8.502 12.829c1.048 10.181 2.293 21.481 3.616 31.378a86.972 86.972 0 004.886-44.207z" fill="#000"/><path d="M229.227 172.414s-8.313 49.479-9.622 71.779c3.263 20.622 16.611 64.214 16.611 64.214l8.188-2.97s-4.531-47.532-9.456-60.542c11.087-37.328 19.235-46.768 16.863-72.197-5.681 0-22.584-.284-22.584-.284z" fill="#21313C"/><path d="M235.121 310.582l11.064-3.002-.63-4.413-11.844 3.207 1.41 4.208zm12.719 1.955h11.466l.599-4.019-12.128-.41.063 4.429z" fill="#263238"/><path d="M255.658 171.122l1.206 2.403c.094.19-.126.379-.434.379h-28.115c-.237 0-.442-.118-.457-.276l-.245-2.364c0-.166.197-.307.457-.307h27.147a.497.497 0 01.441.165z" fill="#0AAD0A"/><path opacity=".5" d="M255.658 171.122l1.206 2.403c.094.19-.126.379-.434.379h-28.115c-.237 0-.442-.118-.457-.276l-.245-2.364c0-.166.197-.307.457-.307h27.147a.497.497 0 01.441.165z" fill="#000"/><path d="M252.01 174.148h.725c.149 0 .26-.079.252-.165l-.347-3.152c0-.095-.134-.166-.276-.166h-.733c-.141 0-.252.071-.244.166l.339 3.152c.016.102.142.165.284.165zm-9.756-22.947a.407.407 0 01-.386-.291c-2.569-9.503-7.88-17.336-10.456-18.518a.896.896 0 00-.67-.11.396.396 0 01-.548-.5.397.397 0 01.225-.218 1.576 1.576 0 011.324.111c2.726 1.292 8.116 9.015 10.811 18.731 1.93 0 4.909-.26 5.634-.324.898-1.071 7.502-9.329 5.035-18.368a.373.373 0 01.037-.298.375.375 0 01.239-.182.393.393 0 01.481.275c2.75 10.055-5.225 19.125-5.311 19.212a.364.364 0 01-.252.134c-.04 0-3.972.346-6.163.346z" fill="#0AAD0A"/><path d="M255.312 156.765c-4.294-8.046-6.051-8.613-6.816-11.198a13.407 13.407 0 012.443-3.94c-.52-.149-1.639-.37-2.364-.504.079-.355.166-.701.244-1.04a7.537 7.537 0 00-2.364.11v-.788a10.24 10.24 0 00-3.049-.197c.089.373.176.751.26 1.135-.788.15-1.986.394-2.561.559a11.34 11.34 0 012.403 4.389c-2.316 3.98-11.315 29.558 3.326 31.52 14.641 1.963 12.765-11.993 8.478-20.046z" fill="#0AAD0A"/><path opacity=".4" d="M255.312 156.765c-4.294-8.046-6.051-8.613-6.816-11.198a13.407 13.407 0 012.443-3.94c-.52-.149-1.639-.37-2.364-.504.079-.355.166-.701.244-1.04a7.537 7.537 0 00-2.364.11v-.788a10.24 10.24 0 00-3.049-.197c.089.373.176.751.26 1.135-.788.15-1.986.394-2.561.559a11.34 11.34 0 012.403 4.389c-2.316 3.98-11.315 29.558 3.326 31.52 14.641 1.963 12.765-11.993 8.478-20.046z" fill="#fff"/><path d="M242.91 144.527a4.951 4.951 0 00-.119 1.237c0 .292.788.489 1.663.576.875.086 4.547.228 4.429-.182-.119-.41.181-.969.197-1.316.015-.346-1.458-.362-2.695-.315-1.238.047-3.231-.441-3.475 0zm-8.522 29.621h.725c.142 0 .252-.079.245-.165l-.339-3.152c0-.095-.134-.166-.284-.166h-.701c-.142 0-.252.071-.245.166l.339 3.152c-.015.102.111.165.26.165z" fill="#0AAD0A"/></svg>