<svg width="394" height="394" fill="none" xmlns="http://www.w3.org/2000/svg"><path d="M196.852 380.218c100.766 0 182.453-47.162 182.453-105.34 0-58.178-81.687-105.34-182.453-105.34S14.398 216.7 14.398 274.878c0 58.178 81.688 105.34 182.454 105.34z" fill="#F1F4F3"/><path d="M255.233 302.647a9.98 9.98 0 00-1.458-5.122 13.339 13.339 0 00-.622-.953l-.04-.048a10.24 10.24 0 00-.677-.835l-.071-.071a9.017 9.017 0 00-.733-.717l-.071-.055a7.14 7.14 0 00-.788-.599l-.473-.26-.213-.095-.244-.11a3.413 3.413 0 00-.347-.11h-.094a2.747 2.747 0 00-.41-.079 2.58 2.58 0 00-1.505.236c-4.169 2.089-28.187 17.376-39.242 24.263l-5.477 3.325a1.25 1.25 0 00-.41.379.298.298 0 01-.039.063 1.619 1.619 0 00-.126.236.968.968 0 00-.055.165c-.026.07-.047.141-.063.213v.142l-.907.497-.788.441a31.542 31.542 0 00-6.241-4.634c-7.58-4.373-17.619-6.784-28.273-6.784s-20.693 2.411-28.273 6.784c-7.88 4.531-12.167 10.654-12.167 17.234 0 6.58 4.318 12.695 12.167 17.233 7.58 4.374 17.619 6.777 28.273 6.777s20.693-2.403 28.273-6.777c7.88-4.538 12.167-10.653 12.167-17.233a15.842 15.842 0 00-2.569-8.518l.725-.386a1.638 1.638 0 001.576.149c3.751-2.064 40.314-17.651 47.792-21.662.788-.528 1.348-1.568 1.403-3.089zm-64.616 44.711c-6.54 3.775-15.358 5.855-24.814 5.855s-18.274-2.08-24.814-5.855c-5.619-3.246-8.715-7.241-8.715-11.244 0-4.004 3.096-8.007 8.715-11.245 6.54-3.783 15.35-5.863 24.814-5.863s18.274 2.08 24.814 5.863c5.618 3.238 8.715 7.234 8.715 11.245 0 4.01-3.12 7.998-8.754 11.244h.039zm70.211-137.277l-37.083-21.457a7.533 7.533 0 00-6.824 0L28.518 297.368c-1.883 1.087-1.883 2.852 0 3.94l37.091 21.457a7.547 7.547 0 006.824 0l70.597-40.763 10.859 6.304c5.744 3.317 15.058 3.317 20.811 0l32.347-18.542c5.753-3.318 5.753-8.668 0-12.017l-10.851-6.304 64.616-37.462c1.892-1.048 1.892-2.797.016-3.9zm62.206 101.581c20.085 0 36.366-9.402 36.366-21s-16.281-21.001-36.366-21.001c-20.084 0-36.366 9.403-36.366 21.001s16.282 21 36.366 21z" fill="#E8EDEB"/><path d="M343.695 266.951c0-4.925-.978-13.995 3.152-22.506 3.025-6.17 8.423-12.158 13.451-11.559 4.673.551 5.098 7.746.622 12.671-4.476 4.925-10.165 11.741-11.41 22.623l-3.223 8.085-2.592-9.314z" fill="#0AAD0A"/><path opacity=".2" d="M343.695 266.951c0-4.925-.978-13.995 3.152-22.506 3.025-6.17 8.423-12.158 13.451-11.559 4.673.551 5.098 7.746.622 12.671-4.476 4.925-10.165 11.741-11.41 22.623l-3.223 8.085-2.592-9.314z" fill="#001E2B"/><path d="M345.373 270.41a.352.352 0 00.283-.355c-.567-13.994 3.988-25.617 13.168-33.6a.348.348 0 00.081-.105.357.357 0 00.017-.26.345.345 0 00-.172-.196.34.34 0 00-.375.049c-9.346 8.124-13.979 19.928-13.396 34.144a.347.347 0 00.354.331l.04-.008z" fill="#fff"/><path d="M342.78 284.547a17.384 17.384 0 008.668 2.411c5.271.126 7.218-2.648 7.218-2.648s-2.687-4.562-5.792-5.516a29.135 29.135 0 019.456 2.467s3.152-.371 3.767-5.351c0 0-2.254-2.639-8.724-3.364a20.837 20.837 0 019.354-.788c.433.11 1.355-6.304 1.505-9.283.15-2.979-1.001-2.75-3.317-3.05-2.317-.299-9.977.347-11.214 1.765-1.237 1.419-1.379 5.721-1.379 5.721s-1.662-2.206-1.623-4.373a8.084 8.084 0 00-4.728.788c-2.364 1.213-3.152 2.183-3.278 4.019-.126 1.836-.276 4.594.465 6.729 0 0-2.183-3.522-2.073-6.58a32.564 32.564 0 00-2.245 4.602c-1.033 2.68.189 9.165 3.94 12.451z" fill="#0AAD0A"/><path d="M342.891 284.878a.337.337 0 00.236-.221c2.995-9.196 17.108-21.276 22.498-23.12a.326.326 0 00.233-.301.313.313 0 00-.021-.132.33.33 0 00-.433-.213c-5.516 1.852-19.873 14.184-22.931 23.553a.346.346 0 00.221.434.348.348 0 00.197 0z" fill="#fff"/><path d="M174.682 285.256l27.88-16.122c2.868-1.655 4.302-3.83 4.302-6.005v-3.877l-26.232-14.885a6.171 6.171 0 01-2.774-4.807v-34.412l-48.628 28.139v34.365a6.127 6.127 0 002.782 4.807l21.859 12.797c5.745 3.278 15.067 3.278 20.811 0z" fill="#3D4F58"/><path d="M140.878 273.735v3.862l-8.921-5.138a6.143 6.143 0 01-2.773-4.807v-34.365l9.274-5.35c.189 2.364.402 4.791.591 7.163l-6.501 3.759v26.855a6.097 6.097 0 002.774 4.806l5.556 3.215z" fill="#21313C"/><path d="M132.551 265.721a6.144 6.144 0 002.774 4.807l18.549 10.788c5.745 3.317 15.059 3.317 20.811 0l27.887-16.115c5.745-3.317 5.745-8.668 0-12.009l-18.557-10.803a6.117 6.117 0 01-2.782-4.807v-26.855l-48.682 28.139v26.855z" fill="#637381"/><path opacity=".15" d="M189.665 245.659l-5.65-3.262a6.126 6.126 0 01-2.782-4.807v-26.863l-48.682 28.139v26.855a6.144 6.144 0 002.774 4.807l5.555 3.2 48.785-28.069z" fill="#001E2B"/><path d="M206.872 259.252v3.877c0 2.183-1.442 4.342-4.31 6.012l-27.879 16.107a20.866 20.866 0 01-9.929 2.467v-3.862a20.854 20.854 0 009.929-2.466l27.879-16.123c2.868-1.694 4.31-3.869 4.31-6.012z" fill="#3D4F58"/><path d="M54.372 302.797a7.465 7.465 0 006.721-.126l188.332-108.744a7.648 7.648 0 003.467-6.005V23.144a7.428 7.428 0 00-3.254-5.879 7.438 7.438 0 00-6.722.118L54.584 126.127a7.668 7.668 0 00-3.467 6.005v164.779a7.449 7.449 0 003.255 5.886z" fill="#637381"/><path d="M61.093 302.663l188.332-108.705a7.665 7.665 0 003.467-6.004V23.144c0-2.215-1.576-3.113-3.467-2.002L61.132 129.886a7.668 7.668 0 00-3.467 6.005v164.77c-.04 2.215 1.513 3.113 3.428 2.002z" fill="#3D4F58"/><path d="M64.137 278.889V138.01a4.598 4.598 0 012.056-3.601L244.281 31.615c1.143-.662 2.081-.127 2.081 1.197V173.7a4.564 4.564 0 01-2.081 3.601L66.193 280.095c-1.126.662-2.056.126-2.056-1.206z" fill="#0AAD0A"/><path opacity=".7" d="M64.137 278.889V138.01a4.598 4.598 0 012.056-3.601L244.281 31.615c1.143-.662 2.081-.127 2.081 1.197V173.7a4.564 4.564 0 01-2.081 3.601L66.193 280.095c-1.126.662-2.056.126-2.056-1.206z" fill="#fff"/><path d="M154.882 241.64a2.04 2.04 0 01-1.04-.268 2.66 2.66 0 01-1.15-2.45 7.508 7.508 0 013.451-5.973 2.359 2.359 0 012.695-.235 2.37 2.37 0 011.15 2.449 7.506 7.506 0 01-3.451 5.981 3.353 3.353 0 01-1.655.496zm2.908-8.392a2.582 2.582 0 00-1.253.394 6.773 6.773 0 00-3.057 5.295 1.575 1.575 0 002.663 1.537 6.752 6.752 0 003.057-5.295 1.927 1.927 0 00-.788-1.766 1.28 1.28 0 00-.622-.165z" fill="#0AAD0A"/><path d="M277.274 58.123L93.898 163.904v135.118a2.366 2.366 0 002.34 2.328 2.36 2.36 0 001.167-.295l3.27-1.883 173.179-99.855a7.551 7.551 0 003.42-5.926V58.123z" fill="#F0F0F0"/><path d="M276.486 59.486v133.905a6.803 6.803 0 01-3.026 5.24l-173.179 99.856-3.27 1.883c-.238.141-.51.215-.788.213a1.577 1.577 0 01-1.433-.952 1.521 1.521 0 01-.12-.609V164.33l181.8-104.805.016-.039zm.772-1.324L93.898 163.904v135.118a2.364 2.364 0 002.364 2.364c.41.002.813-.107 1.167-.315l3.27-1.883 173.155-99.871a7.551 7.551 0 003.42-5.926V58.123l-.016.04z" fill="#C1C7C6"/><path opacity=".8" d="M272.923 55.617L89.531 161.351l4.366 2.521 183.375-105.75-4.349-2.505z" fill="#637381"/><path d="M95.127 301.087a2.36 2.36 0 01-1.23-2.065V163.904l-4.365-2.522V295.76a3.48 3.48 0 000 .496 3.626 3.626 0 001.781 2.648l3.601 2.088.181.095h.032z" fill="#EBEBEB"/><path d="M89.531 161.414v-9.117a3.786 3.786 0 011.702-2.963L271.22 45.57a3.764 3.764 0 013.405 0l.937.544a3.762 3.762 0 011.71 2.955v9.125L93.897 163.904l-4.366-2.49z" fill="#0AAD0A"/><path opacity=".3" d="M89.531 161.414v-9.117a3.786 3.786 0 011.702-2.963L271.22 45.57a3.764 3.764 0 013.405 0l.937.544a3.762 3.762 0 011.71 2.955v9.125L93.897 163.904l-4.366-2.49z" fill="#001E2B"/><path d="M93.898 154.811a3.784 3.784 0 011.703-2.963l179.971-103.78c.938-.552 1.702-.11 1.702.977v9.149L93.898 163.904v-9.093z" fill="#0AAD0A"/><path opacity=".4" d="M93.898 154.811a3.784 3.784 0 011.703-2.963l179.971-103.78c.938-.552 1.702-.11 1.702.977v9.149L93.898 163.904v-9.093z" fill="#001E2B"/><path d="M94.393 153.124a3.52 3.52 0 00-.496 1.686v9.094l-4.358-2.514v-9.101c.02-.593.191-1.17.496-1.679l4.358 2.514z" fill="#0AAD0A"/><path opacity=".5" d="M94.393 153.124a3.52 3.52 0 00-.496 1.686v9.094l-4.358-2.514v-9.101c.02-.593.191-1.17.496-1.679l4.358 2.514z" fill="#001E2B"/><path d="M269.266 57.784c0 1.017.717 1.434 1.576.922a3.532 3.532 0 001.576-2.774c0-1.016-.717-1.434-1.576-.922a3.537 3.537 0 00-1.576 2.774zm-6.399 3.68c0 1.017.717 1.434 1.576.922a3.538 3.538 0 001.576-2.774c0-1.016-.717-1.434-1.576-.922a3.546 3.546 0 00-1.576 2.774zm-6.406 3.711c0 1.017.717 1.435 1.576.922a3.535 3.535 0 001.576-2.773c0-1.017-.717-1.434-1.576-.922a3.532 3.532 0 00-1.576 2.773zM93.898 163.904v135.118a2.366 2.366 0 002.34 2.328 2.36 2.36 0 001.167-.295l3.27-1.883 40.07-23.112V136.915l-46.847 26.989zm50.047-24.704v131.21l129.484-74.758V64.442L143.945 139.2z" fill="#FAFAFA"/><path d="M130.019 152.77l-29.889 17.273a2.199 2.199 0 00-1.001 1.733v3.113c0 .638.45.89 1.001.575l29.889-17.273a2.198 2.198 0 001-1.734v-3.104c0-.639-.449-.899-1-.583z" fill="#0AAD0A"/><path opacity=".8" d="M130.019 152.77l-29.889 17.273a2.199 2.199 0 00-1.001 1.733v3.113c0 .638.45.89 1.001.575l29.889-17.273a2.198 2.198 0 001-1.734v-3.104c0-.639-.449-.899-1-.583z" fill="#FAFAFA"/><path d="M136.671 154.007l-.875-.851c.177-.447.27-.923.276-1.403a1.662 1.662 0 00-.654-1.513 1.015 1.015 0 00-1.072.047 3.51 3.51 0 00-1.387 2.861 1.656 1.656 0 00.662 1.513c.14.084.301.128.465.126.214-.003.424-.063.607-.174.319-.199.589-.468.788-.788l.725.694a.306.306 0 00.236.102.34.34 0 00.252-.11.333.333 0 00.101-.257.324.324 0 00-.036-.137.325.325 0 00-.088-.11zm-2.325 0a.379.379 0 01-.378.047c-.15-.087-.315-.378-.315-.914a2.849 2.849 0 011.04-2.262.461.461 0 01.244-.078.254.254 0 01.134 0c.142.086.307.37.307.914a2.89 2.89 0 01-1.032 2.301v-.008zm-34.484 30.59l-.67.386s-.07 0-.07-.055v-1.813c0-.027.006-.054.018-.079a.178.178 0 01.052-.062l.67-.387s.07 0 .07.056v1.812a.18.18 0 01-.07.142zm1-.583l-.67.386c-.039 0-.071 0-.071-.055v-1.813a.164.164 0 01.071-.134l.67-.37c.039 0 .071 0 .071.047v1.821a.173.173 0 01-.071.118zm1.012-.583l-.67.394c-.04 0-.071 0-.071-.056v-1.82a.178.178 0 01.02-.075.18.18 0 01.051-.059l.67-.386c.039 0 .07 0 .07.055v1.813a.135.135 0 01-.017.076.148.148 0 01-.053.058zm-2.012 3.506l-.67.386s-.07 0-.07-.055v-1.812a.18.18 0 01.07-.142l.67-.386s.07 0 .07.055v1.812a.177.177 0 01-.018.079.172.172 0 01-.052.063zm1-.583l-.67.386c-.039 0-.071 0-.071-.055v-1.812a.165.165 0 01.071-.134l.67-.347c.039 0 .071 0 .071.047v1.821a.175.175 0 01-.071.094zm1.012-.583l-.67.394c-.04 0-.071 0-.071-.055v-1.82a.167.167 0 01.071-.134l.67-.387c.039 0 .07 0 .07.056v1.812a.138.138 0 01-.017.077.153.153 0 01-.053.057zm-1.91 7.344l-.788-.496v-.15l.788-1.458c0-.071.102-.063.102 0v1.962c.008.087-.063.166-.102.142z" fill="#637381"/><path d="M99.619 192.004l1.087-.622v.512l-1.087.63c-.087.055-.166 0-.166-.165a.467.467 0 01.166-.355zm1.291-.741l.371-.212v.512l-.371.213v-.513zm1.37-.567v1.899a.415.415 0 01-.173.355c-.087.055-.166 0-.166-.158v-1.639l-.457.26v-.512l.623-.363c.094-.023.173.048.173.158zm-1.991 6.682a3.584 3.584 0 00-1.142 3.073c.134.985.717.946.788 1.403 0 .055.04.071.071.055l.733-.417a.214.214 0 00.053-.059.202.202 0 00.025-.075c.079-.607.828-1.34.828-2.814.008-1.126-.615-1.678-1.356-1.166zm.44 5.296l-.709.409c-.047 0-.086 0-.086-.071v-.646a.22.22 0 01.086-.173l.709-.41c.048 0 .087 0 .087.071v.662a.209.209 0 01-.026.088.205.205 0 01-.061.07zm-.268-20.646a4.3 4.3 0 00-1.285 2.726 2.883 2.883 0 00.181 1.482l-.236 1.245c0 .102 0 .15.095.087l.717-.788a1.105 1.105 0 001.04-.3 4.297 4.297 0 001.284-2.726c.182-1.726-.733-2.585-1.796-1.726zm.252 4.066c-.654.378-1.19-.134-1.19-1.15a3.151 3.151 0 011.19-2.522c.662-.378 1.198.134 1.198 1.15a3.16 3.16 0 01-1.198 2.538v-.016zm-.252 19.866a4.275 4.275 0 00-1.285 2.718 2.897 2.897 0 00.181 1.489l-.236 1.238c0 .102 0 .157.095.094l.717-.788a1.116 1.116 0 001.04-.299 4.325 4.325 0 001.284-2.727c.182-1.725-.733-2.6-1.796-1.725zm.252 4.066c-.654.378-1.19-.134-1.19-1.151a3.15 3.15 0 011.19-2.521c.662-.379 1.198.134 1.198 1.15a3.158 3.158 0 01-1.198 2.522zm.759 4.696a1.658 1.658 0 01-.631 1.332c-.346.205-.63-.071-.63-.607a1.686 1.686 0 01.63-1.332c.347-.197.631.071.631.607zm1.078.189a1.11 1.11 0 01-.417.891c-.237.134-.426-.048-.426-.402a1.104 1.104 0 01.426-.891c.228-.134.417.048.417.402zm-.971 3.633l-1.505.851v-1.907a1.296 1.296 0 01.544-1.032l.41-.237c.291-.165.536 0 .536.41l.015 1.915zm.616-2.522l-.41.237v2.167l.788-.449v-1.687c-.016-.268-.181-.378-.378-.268zm-3.066.867c0 .355.19.536.418.402a1.103 1.103 0 00.417-.883c0-.362-.189-.543-.417-.409a1.128 1.128 0 00-.418.89zm.355.694l.402-.237v2.175l-.788.441v-1.686a.86.86 0 01.386-.693z" fill="#637381"/><path d="M106.378 180.342l17.51-10.134c.473-.276.851-.079.851.433a1.832 1.832 0 01-.851 1.419l-17.51 10.133c-.472.268-.851.079-.851-.433a1.836 1.836 0 01.851-1.418zm0 8.234l17.502-10.102c.473-.268.851-.079.851.434a1.83 1.83 0 01-.851 1.418l-17.502 10.102c-.472.268-.851.079-.851-.433a1.832 1.832 0 01.851-1.419zm0 8.243l17.51-10.063c.473-.276.851-.079.851.425a1.826 1.826 0 01-.851 1.419l-17.51 10.063c-.472.275-.851.078-.851-.434a1.82 1.82 0 01.851-1.41zm0 8.234l17.502-10.102c.473-.276.851-.079.851.434a1.807 1.807 0 01-.851 1.41l-17.502 10.11c-.472.268-.851.079-.851-.433.02-.287.108-.565.255-.812a1.84 1.84 0 01.596-.607zm0 8.235l17.502-10.102c.473-.268.851-.079.851.433a1.83 1.83 0 01-.851 1.419l-17.502 10.086c-.472.268-.851.079-.851-.433a1.834 1.834 0 01.851-1.403z" fill="#C1C7C6"/><path d="M109.585 220.017l17.502-10.102c.473-.275.851-.078.851.426a1.818 1.818 0 01-.851 1.418l-17.502 10.102c-.472.276-.851.079-.851-.425.02-.287.108-.565.255-.812a1.84 1.84 0 01.596-.607z" fill="#637381"/><path d="M109.585 225.581l17.502-10.102c.473-.276.851-.079.851.433a1.81 1.81 0 01-.851 1.411l-17.502 10.102c-.472.275-.851.078-.851-.426a1.83 1.83 0 01.851-1.418zm0 5.563l17.502-10.102c.473-.276.851-.079.851.433a1.807 1.807 0 01-.851 1.411l-17.502 10.11c-.472.268-.851.079-.851-.434a1.832 1.832 0 01.851-1.418zm3.407 3.538l17.501-10.102c.473-.276.851-.079.851.425a1.826 1.826 0 01-.851 1.419l-17.501 10.102c-.465.276-.851.079-.851-.425a1.84 1.84 0 01.851-1.419z" fill="#C1C7C6"/><path d="M108.9 239.465l1.426-2.506c.055-.094.055-.22 0-.252l-1.426-.866c-.063-.04-.166.086-.166.22v3.373c.008.118.103.157.166.031z" fill="#637381"/><path d="M112.992 240.222l17.501-10.126c.473-.268.851-.079.851.433a1.82 1.82 0 01-.851 1.419l-17.501 10.126c-.465.275-.851.078-.851-.434a1.843 1.843 0 01.851-1.418z" fill="#C1C7C6"/><path d="M108.9 245.013l1.426-2.506c.055-.095.055-.221 0-.26l-1.426-.867c-.063-.039-.166.095-.166.229v3.372c.008.134.103.15.166.032z" fill="#637381"/><path d="M112.992 245.769l17.501-10.102c.473-.276.851-.079.851.434a1.827 1.827 0 01-.851 1.418l-17.501 10.102c-.465.268-.851.079-.851-.433a1.847 1.847 0 01.851-1.419z" fill="#C1C7C6"/><path d="M108.9 250.584l1.426-2.514c.055-.094.055-.22 0-.252l-1.426-.867c-.063-.039-.166.095-.166.229v3.372c.008.111.103.127.166.032z" fill="#637381"/><path d="M112.992 251.317l17.501-10.102c.473-.276.851-.079.851.425a1.826 1.826 0 01-.851 1.419l-17.501 10.102c-.465.276-.851.079-.851-.426a1.83 1.83 0 01.851-1.418z" fill="#C1C7C6"/><path d="M108.9 256.1l1.426-2.506c.055-.094.055-.221 0-.252l-1.426-.867c-.063-.047-.166.087-.166.221v3.404c.008.102.103.126.166 0z" fill="#637381"/><path d="M112.992 256.888l17.501-10.102c.473-.268.851-.079.851.433a1.82 1.82 0 01-.851 1.419l-17.501 10.102c-.465.268-.851.079-.851-.434a1.843 1.843 0 01.851-1.418z" fill="#C1C7C6"/><path d="M108.9 261.616l1.426-2.506c.055-.094.055-.22 0-.26l-1.426-.867c-.063-.039-.166.095-.166.229v3.404c.008.134.103.15.166 0z" fill="#637381"/><path d="M112.992 262.404l17.501-10.102c.473-.276.851-.079.851.433a1.807 1.807 0 01-.851 1.411l-17.501 10.11c-.465.268-.851.079-.851-.434a1.843 1.843 0 01.851-1.418z" fill="#C1C7C6"/><path d="M108.9 267.195l1.426-2.514c.055-.094.055-.22 0-.252l-1.426-.867c-.063-.039-.166.095-.166.229v3.341c.008.165.103.181.166.063z" fill="#637381"/><path d="M112.992 267.92l17.501-10.102c.473-.276.851-.079.851.425a1.826 1.826 0 01-.851 1.419l-17.501 10.102c-.465.276-.851.079-.851-.434a1.83 1.83 0 01.851-1.41z" fill="#C1C7C6"/><path d="M108.9 272.735l1.426-2.506c.055-.095.055-.221 0-.252l-1.426-.867c-.063-.047-.166.087-.166.22v3.373c.008.134.103.158.166.032z" fill="#637381"/><path d="M112.992 273.491l17.501-10.102c.473-.268.851-.079.851.433a1.82 1.82 0 01-.851 1.419l-17.501 10.102c-.465.268-.851.079-.851-.433a1.843 1.843 0 01.851-1.419z" fill="#C1C7C6"/><path d="M108.9 278.282l1.418-2.482c.055-.095.055-.221 0-.26l-1.426-.867c-.063-.039-.165.095-.165.229v3.372c.015.111.11.126.173.008z" fill="#637381"/><path d="M148.003 157.19l57.524-33.206a1.885 1.885 0 00.852-1.474v-14.664c0-.544-.387-.788-.852-.489l-57.524 33.199a1.873 1.873 0 00-.858 1.473v14.673c0 .543.386.764.858.488z" fill="#F0F0F0"/><path d="M153.012 146.844l.378-1.576-.52.299v-.331a.128.128 0 010-.055v-.047l.835-.481a.075.075 0 010 .047v.253c.003.049.003.099 0 .149l-.378 1.576a.504.504 0 010 .055.09.09 0 010 .04l-.252.142a.058.058 0 01-.026-.006.066.066 0 01-.022-.015.07.07 0 01-.013-.024.074.074 0 01-.002-.026zm1.436-2.64a.362.362 0 01.229-.071.236.236 0 01.157.063.378.378 0 01.087.181c.009.087.009.174 0 .26v.481c.007.1.007.2 0 .3a1.286 1.286 0 01-.087.283 1.634 1.634 0 01-.157.252 1.04 1.04 0 01-.229.189.463.463 0 01-.228.071.263.263 0 01-.15-.071.329.329 0 01-.095-.181 1.411 1.411 0 010-.26v-.473a1.866 1.866 0 010-.299 1.28 1.28 0 01.245-.536.846.846 0 01.228-.189zm.189 1.087v-.457a.582.582 0 000-.118.21.21 0 000-.079.067.067 0 00-.055 0h-.087a.362.362 0 00-.141.174.582.582 0 000 .118v.701a.176.176 0 000 .079.075.075 0 00.055 0c.028.01.058.01.086 0a.286.286 0 00.087-.079.219.219 0 00.055-.094.334.334 0 000-.118.687.687 0 00-.039-.134l.039.007zm.983-1.197v-.205a.531.531 0 000-.126l-.047-.095a.119.119 0 00-.087 0 .215.215 0 00-.118 0 .498.498 0 00-.205.229.523.523 0 00-.047.307v.205a.377.377 0 000 .142.13.13 0 00.047.086.112.112 0 00.087 0 .293.293 0 00.118 0 .462.462 0 00.118-.102.534.534 0 00.134-.276c.004-.055.004-.11 0-.165zm.434-.828v.055l-.867 2.278.142-.079a.098.098 0 00.039-.039v-.048l.867-2.253-.142.086a.086.086 0 00-.039 0zm-3.049-.937l-.575-.891a11.394 11.394 0 00-1.364 3.68l.93-.079a8.597 8.597 0 011.009-2.71zm1.631-1.766v-1.505a6.434 6.434 0 00-2.206 2.364l.575.891a4.822 4.822 0 011.631-1.75zm-2.772 5.879c.002-.471.047-.94.134-1.403l-.929.079a9.688 9.688 0 00-.19 1.891 6.834 6.834 0 00.19 1.679l.929-1.009a5.42 5.42 0 01-.134-1.237z" fill="#637381"/><path d="M158.206 140.989a3.158 3.158 0 00-1.364-2.104 2.219 2.219 0 00-2.206.173v1.505a1.643 1.643 0 011.631-.118 2.305 2.305 0 011.009 1.576c.092.406.137.821.134 1.237a7.763 7.763 0 01-.134 1.403 8.805 8.805 0 01-1.009 2.711 4.949 4.949 0 01-1.631 1.765 1.618 1.618 0 01-1.631.118 2.284 2.284 0 01-1.009-1.576l-.93 1.009a3.085 3.085 0 001.364 2.104 2.19 2.19 0 002.206-.174 6.549 6.549 0 002.206-2.364 11.524 11.524 0 001.364-3.672c.119-.626.179-1.262.181-1.899a7.313 7.313 0 00-.181-1.694z" fill="#0AAD0A"/><path d="M164.007 136.86l17.494-10.102c.473-.276.859-.079.859.425-.021.288-.11.566-.26.812a1.82 1.82 0 01-.599.607l-17.494 10.086c-.472.276-.859.079-.859-.426a1.838 1.838 0 01.859-1.402z" fill="#637381"/><path d="M164.007 140.587l30.299-17.494c.473-.275.851-.078.851.434a1.807 1.807 0 01-.851 1.41l-30.299 17.494c-.472.276-.859.079-.859-.433a1.813 1.813 0 01.859-1.411z" fill="#C1C7C6"/><path d="M210.394 121.155l57.524-33.206a1.884 1.884 0 00.851-1.482V71.802c0-.543-.378-.788-.851-.488l-57.524 33.198a1.89 1.89 0 00-.851 1.482v14.665c.016.543.394.764.851.496z" fill="#F0F0F0"/><path d="M215.707 109.461c0-.104.016-.208.047-.307a1.232 1.232 0 01.276-.505c.057-.059.121-.112.189-.157a.793.793 0 01.189-.063.284.284 0 01.166.039.354.354 0 01.118.142.767.767 0 01.039.26c.005.05.005.1 0 .15a.842.842 0 010 .142.817.817 0 01-.039.134l-.047.126-.331.898a.094.094 0 000 .047.096.096 0 01-.04.04l-.275.157a.045.045 0 01-.005-.019c0-.007.002-.014.005-.02l.228-.607a.383.383 0 01-.165 0 .202.202 0 01-.134-.055.32.32 0 01-.095-.142.677.677 0 01-.126-.26zm.701-.402a.296.296 0 000-.094.076.076 0 00-.015-.028.078.078 0 00-.024-.02h-.063a.142.142 0 00-.071 0l-.071.056-.055.086a.418.418 0 00-.047.103.435.435 0 000 .102.253.253 0 000 .095s0 .039.047.047h.055a.123.123 0 00.071 0 .266.266 0 00.071-.063.322.322 0 00.063-.079.384.384 0 00.039-.102.444.444 0 000-.103zm.985-1.237a.354.354 0 01.221-.071.225.225 0 01.158.063.482.482 0 01.094.181.872.872 0 010 .26v.481c.012.1.012.2 0 .3a2.04 2.04 0 01-.094.283.975.975 0 01-.379.441.496.496 0 01-.228.071.264.264 0 01-.158-.071.43.43 0 01-.094-.181 1.18 1.18 0 010-.252v-.481a1.866 1.866 0 010-.299c.023-.1.055-.197.094-.292a1.03 1.03 0 01.158-.244.784.784 0 01.228-.189zm.182 1.087a4.354 4.354 0 000-.457.506.506 0 000-.11.254.254 0 000-.087.086.086 0 00-.055 0h-.087a.286.286 0 00-.087.079.602.602 0 00-.063.095v.252c-.008.15-.008.299 0 .449v.118a.52.52 0 000 .079c.01.005.021.007.032.007a.067.067 0 00.031-.007h.087l.087-.071a.437.437 0 00.055-.102.775.775 0 000-.118.674.674 0 000-.127zm1.023-1.394a.879.879 0 010 .205c.004.055.004.11 0 .165a1.347 1.347 0 01-.055.15.684.684 0 01-.079.126.495.495 0 01-.126.102.238.238 0 01-.118.04.119.119 0 01-.079 0 .26.26 0 01-.055-.095.674.674 0 010-.142.37.37 0 010-.094.515.515 0 010-.111 1.029 1.029 0 010-.157.792.792 0 01.055-.15.443.443 0 01.079-.134.595.595 0 01.118-.094.268.268 0 01.126 0 .088.088 0 01.039-.008c.014 0 .027.002.04.008a.277.277 0 01.055.094.753.753 0 010 .095zm.441-.568v-.055h.039l.142-.086-.859 2.253a.185.185 0 010 .047v.04l-.141.079.819-2.278zm-.788.962v.094c0 .016 0 0 .047 0a.075.075 0 00.037-.023.083.083 0 00.019-.04v-.291a.503.503 0 000-.095h-.056a.116.116 0 00-.047.071.338.338 0 000 .11v.174zm1.158.079a.87.87 0 010 .204 1.15 1.15 0 010 .166 1.04 1.04 0 01-.055.15.447.447 0 01-.086.126.301.301 0 01-.119.102.236.236 0 01-.118 0 .09.09 0 01-.079 0 .287.287 0 01-.055-.094.75.75 0 010-.134.704.704 0 010-.205 1.15 1.15 0 010-.166.889.889 0 01.055-.149.349.349 0 01.079-.127.462.462 0 01.118-.102.298.298 0 01.119 0 .104.104 0 01.043-.009c.015 0 .03.003.043.009a.26.26 0 01.055.095.58.58 0 010 .102v.032zm-.346.394v.094c0 .016 0 0 .047 0a.078.078 0 00.055-.063.389.389 0 000-.118.634.634 0 000-.174.213.213 0 000-.094h-.055a.116.116 0 00-.047.071.338.338 0 000 .11v.174zm-1.497-4.161v-1.505a6.429 6.429 0 00-2.207 2.364l.576.89a4.819 4.819 0 011.631-1.749z" fill="#637381"/><path d="M221.137 104.646a3.09 3.09 0 00-.46-1.195 3.092 3.092 0 00-.903-.909 2.187 2.187 0 00-2.206.174v1.505a1.626 1.626 0 011.631-.118 2.293 2.293 0 011.008 1.576c.093.405.138.821.134 1.237-.002.47-.046.94-.134 1.402a8.576 8.576 0 01-1.008 2.711 4.95 4.95 0 01-1.631 1.765 1.619 1.619 0 01-1.632.118 2.285 2.285 0 01-1.008-1.576 5.299 5.299 0 01-.134-1.237c.001-.47.046-.94.134-1.402a8.58 8.58 0 01.985-2.711l-.575-.89a11.412 11.412 0 00-1.364 3.672 10.432 10.432 0 00-.189 1.899 7.288 7.288 0 00.189 1.678 3.073 3.073 0 001.364 2.104 2.19 2.19 0 002.206-.173 6.499 6.499 0 002.206-2.364 11.59 11.59 0 001.364-3.672 10.53 10.53 0 00.181-1.899 7.259 7.259 0 00-.158-1.695z" fill="#0AAD0A"/><path d="M226.945 100.517l17.501-10.11c.465-.268.851-.079.851.434a1.84 1.84 0 01-.851 1.418l-17.501 10.102c-.473.276-.851.079-.851-.433a1.807 1.807 0 01.851-1.411z" fill="#637381"/><path d="M226.945 104.237l30.298-17.486c.473-.276.859-.079.859.433a1.826 1.826 0 01-.859 1.41l-30.298 17.494c-.473.268-.851.079-.851-.433a1.823 1.823 0 01.851-1.418z" fill="#C1C7C6"/><path d="M153.855 161.217l12.277-7.092c.473-.276.851-.079.851.425a1.826 1.826 0 01-.851 1.419l-12.277 7.092c-.473.276-.851.079-.851-.434a1.807 1.807 0 01.851-1.41z" fill="#637381"/><path d="M267.992 99.91v93.773a1.104 1.104 0 01-.457.788l-119.602 69.028v-93.772a1.13 1.13 0 01.464-.788l1.49-.859a2.663 2.663 0 001.253-2.159v-5.405a1.08 1.08 0 01.457-.788l17.17-9.913v5.043a1.278 1.278 0 00.327.972 1.292 1.292 0 00.934.423c.278-.003.549-.079.788-.221l97.192-56.114-.016-.008zm.315-.992a.79.79 0 00-.378.118l-97.523 56.302a.793.793 0 01-.378.119c-.284 0-.473-.229-.473-.607v-5.429c0-.387-.197-.607-.473-.607a.781.781 0 00-.378.118l-17.501 10.102a1.896 1.896 0 00-.851 1.482v5.421a1.873 1.873 0 01-.859 1.474l-1.49.866a1.885 1.885 0 00-.858 1.474v94.127c0 .386.197.614.472.614a.787.787 0 00.386-.118l119.918-69.242a1.876 1.876 0 00.851-1.473V99.524c0-.386-.189-.606-.472-.606h.007z" fill="#C1C7C6"/><path d="M154.857 173.841a.846.846 0 01-.418-.103 1.008 1.008 0 01-.449-.898v-3.57a2.28 2.28 0 011.056-1.82l9.511-5.516a.983.983 0 01.993-.063.998.998 0 01.449.898v3.57a2.28 2.28 0 01-1.056 1.82l-9.503 5.516a1.21 1.21 0 01-.583.166zm.583-5.705a1.46 1.46 0 00-.662 1.134v3.57a.306.306 0 00.055.213.311.311 0 00.213-.063l9.511-5.477a1.52 1.52 0 00.654-1.143v-3.569a.294.294 0 00-.055-.213.309.309 0 00-.213.063l-9.503 5.485z" fill="#C1C7C6"/><path d="M156.024 169.601l6.202-3.593c.315-.181.567-.055.567.284a1.201 1.201 0 01-.567.945l-6.202 3.601c-.315.182-.567.048-.567-.291a1.224 1.224 0 01.567-.946z" fill="#C1C7C6"/><path d="M163.643 165.417l.512.733s.055 0 .079-.047l.512-1.324v-.095l-1.024.591a.126.126 0 00-.079.142z" fill="#637381"/><path d="M153.55 208.473c.457-.26.788-.047.788.473a1.812 1.812 0 01-.788 1.426c-.457.26-.788.048-.788-.472a1.804 1.804 0 01.788-1.427zm6.414-7.391c.457-.26.827-.047.827.473a1.805 1.805 0 01-.827 1.426c-.449.26-.788.047-.788-.473a1.806 1.806 0 01.788-1.426zm6.391-3.696c.449-.26.788-.047.788.473a1.82 1.82 0 01-.788 1.426c-.457.26-.828.048-.828-.473a1.821 1.821 0 01.828-1.426zm6.398-2.072c.457-.26.788-.048.788.472a1.804 1.804 0 01-.788 1.427c-.457.26-.788.047-.788-.473a1.8 1.8 0 01.788-1.426zm6.406-6.659c.457-.26.788-.047.788.481a1.806 1.806 0 01-.788 1.418c-.449.268-.788.055-.788-.473a1.839 1.839 0 01.788-1.426zm6.399-2.356c.457-.26.788-.047.788.473a1.812 1.812 0 01-.788 1.426c-.458.26-.788.047-.788-.473a1.798 1.798 0 01.788-1.426zm6.398-7.423c.457-.268.827-.055.827.473a1.818 1.818 0 01-.827 1.426c-.449.26-.788.047-.788-.481a1.817 1.817 0 01.788-1.418zm6.406-1.82c.449-.26.788-.048.788.48-.012.282-.09.556-.227.802a1.833 1.833 0 01-.561.617c-.457.268-.788.055-.788-.473a1.82 1.82 0 01.788-1.426zm6.399-20.331c.457-.26.788-.047.788.481a1.847 1.847 0 01-.788 1.426c-.457.26-.788.048-.788-.48a1.82 1.82 0 01.788-1.427zm6.422 11.119c.449-.268.788-.055.788.473a1.839 1.839 0 01-.788 1.426c-.457.26-.828.047-.828-.481a1.811 1.811 0 01.828-1.418zm6.382 0c.457-.268.788-.055.788.473a1.827 1.827 0 01-.788 1.426c-.457.26-.788.047-.788-.481a1.8 1.8 0 01.788-1.418zm6.399 0c.457-.268.788-.055.788.473a1.847 1.847 0 01-.788 1.426c-.449.26-.788.047-.788-.481a1.814 1.814 0 01.788-1.418zm6.406-11.111c.45-.268.788-.055.788.473a1.835 1.835 0 01-.788 1.426c-.457.26-.827.048-.827-.48a1.803 1.803 0 01.827-1.419zm6.398-2.127c.458-.26.789-.048.789.472a1.811 1.811 0 01-.789 1.427c-.457.26-.788.047-.788-.473a1.809 1.809 0 01.788-1.426zm6.422-8.968c.457-.26.828-.047.828.481a1.806 1.806 0 01-.828 1.418c-.449.268-.788.055-.788-.473a1.858 1.858 0 01.788-1.426zm6.971 1.302c.322-.558.324-1.16.003-1.345-.32-.185-.841.118-1.163.675-.322.558-.323 1.16-.003 1.345.32.185.841-.117 1.163-.675zm6.406-.001c.323-.558.324-1.16.004-1.345-.321-.185-.842.117-1.164.675-.322.558-.323 1.16-.003 1.345.321.185.841-.118 1.163-.675zm5.839-4.997c.449-.26.788-.047.788.481a1.823 1.823 0 01-.788 1.419c-.458.267-.828.055-.828-.473a1.834 1.834 0 01.828-1.427z" fill="#0AAD0A"/><path d="M153.535 209.608a.216.216 0 01-.134-.047.203.203 0 01-.057-.142c0-.053.02-.104.057-.142l6.461-7.423.056-.047 6.351-3.664 6.391-2.073 6.367-6.627.078-.047 6.352-2.364 6.367-7.352a.299.299 0 01.094-.063l6.304-1.821 6.352-20.196a.202.202 0 01.165-.142.212.212 0 01.197.103l6.343 10.984h12.608l6.312-10.945a.2.2 0 01.111-.095l6.343-2.104 6.359-8.912a.222.222 0 01.074-.058.21.21 0 01.092-.021h12.749l6.352-3.672a.207.207 0 01.276.071.205.205 0 01-.079.268l-6.399 3.704a.22.22 0 01-.102 0h-12.703l-6.343 8.88a.17.17 0 01-.095.071l-6.304 2.104-6.367 11.032a.207.207 0 01-.074.07.217.217 0 01-.099.025h-12.805a.2.2 0 01-.166-.095l-6.178-10.701-6.264 19.921a.22.22 0 01-.053.081.228.228 0 01-.081.053l-6.351 1.828-6.36 7.352-.078.055-6.367 2.364-6.367 6.627a.171.171 0 01-.079.048l-6.407 2.072-6.304 3.641-6.469 7.352a.195.195 0 01-.126.047z" fill="#0AAD0A"/><path d="M153.548 213.548a.397.397 0 01-.339-.197.405.405 0 01.142-.544l108.831-62.827a.392.392 0 01.547.44.393.393 0 01-.153.238l-108.831 62.803a.371.371 0 01-.197.087z" fill="#C1C7C6"/><path d="M153.55 204.778c.457-.26.788-.048.788.472a1.817 1.817 0 01-.788 1.427c-.457.26-.788.047-.788-.473a1.796 1.796 0 01.788-1.426zm6.414-11.088c.457-.26.827-.047.827.473a1.809 1.809 0 01-.827 1.426c-.449.261-.788.048-.788-.472a1.814 1.814 0 01.788-1.427zm6.978-.092c.323-.557.324-1.159.004-1.344-.321-.185-.842.117-1.164.675-.322.557-.323 1.16-.003 1.345.321.185.841-.118 1.163-.676zm5.811-14.722c.457-.268.788-.055.788.473a1.806 1.806 0 01-.788 1.426c-.457.26-.788.047-.788-.481a1.8 1.8 0 01.788-1.418zm6.406 3.727c.457-.26.788-.047.788.473a1.814 1.814 0 01-.788 1.426c-.449.26-.788.048-.788-.472a1.828 1.828 0 01.788-1.427zm6.399-1.852c.457-.26.788-.047.788.481a1.794 1.794 0 01-.788 1.418c-.458.268-.788.056-.788-.472a1.82 1.82 0 01.788-1.427zm6.398-5.539c.457-.268.827-.055.827.473a1.818 1.818 0 01-.827 1.426c-.449.26-.788.047-.788-.473a1.819 1.819 0 01.788-1.426zm6.406-7.368c.449-.268.788-.055.788.473a1.839 1.839 0 01-.788 1.426c-.457.26-.788.047-.788-.481a1.807 1.807 0 01.788-1.418zm6.399-1.875c.457-.261.788-.048.788.472a1.814 1.814 0 01-.788 1.427c-.457.26-.788.047-.788-.473a1.808 1.808 0 01.788-1.426zm6.422-5.54c.457-.268.788-.055.788.473a1.835 1.835 0 01-.788 1.426c-.45.26-.788.047-.788-.481a1.812 1.812 0 01.788-1.418zm6.382 0c.457-.268.788-.055.788.473a1.82 1.82 0 01-.788 1.426c-.457.26-.788.047-.788-.481a1.797 1.797 0 01.788-1.418zm6.399-14.791c.457-.26.788-.047.788.481a1.815 1.815 0 01-.788 1.418c-.449.268-.788.055-.788-.473a1.836 1.836 0 01.788-1.426zm6.406 7.344c.45-.26.788-.055.788.473a1.806 1.806 0 01-.788 1.426c-.457.26-.827.048-.827-.472a1.805 1.805 0 01.827-1.427zm6.398-7.344c.458-.26.789-.047.789.481a1.804 1.804 0 01-.789 1.418c-.457.268-.788.055-.788-.473a1.834 1.834 0 01.788-1.426zm6.407-3.696c.449-.26.788-.047.788.481a1.821 1.821 0 01-.788 1.419c-.457.267-.827.055-.827-.473.017-.286.101-.564.244-.812.144-.247.344-.458.583-.615zm6.398 0c.457-.26.788-.047.788.481a1.794 1.794 0 01-.788 1.419c-.457.267-.788.055-.788-.473a1.833 1.833 0 01.788-1.427zm6.403-3.695c.457-.26.827-.048.827.48a1.803 1.803 0 01-.827 1.419c-.45.268-.788.055-.788-.473a1.847 1.847 0 01.788-1.426zm6.43 0c.449-.26.788-.048.788.48a1.819 1.819 0 01-.788 1.419c-.458.268-.828.055-.828-.473.017-.286.101-.564.245-.811.143-.248.343-.459.583-.615z" fill="#0AAD0A"/><path d="M153.551 205.928a.177.177 0 01-.102 0 .195.195 0 01-.071-.268l6.446-11.111a.176.176 0 01.134-.094l6.256-1.34 6.359-13.317a.194.194 0 01.053-.064.193.193 0 01.074-.038.182.182 0 01.157 0l6.304 3.656 6.304-1.82 6.359-5.516 6.391-7.376a.156.156 0 01.095-.063l6.359-1.836 6.367-5.516a.193.193 0 01.134-.047h6.304l6.319-14.665a.234.234 0 01.065-.078.227.227 0 01.093-.04.184.184 0 01.173.071l6.257 7.218 6.249-7.218a.16.16 0 01.055-.048l6.422-3.703a.14.14 0 01.095 0h6.351l6.304-3.657a.218.218 0 01.095 0h6.453a.197.197 0 110 .394h-6.351l-6.304 3.657h-6.446l-6.351 3.664-6.375 7.368a.205.205 0 01-.299 0l-6.202-7.155-6.304 14.499a.197.197 0 01-.181.118h-6.304l-6.407 5.453h-.078l-6.344 1.828-6.375 7.352-6.414 5.563-.071.04-6.398 1.852a.179.179 0 01-.15 0l-6.225-3.594-6.304 13.215a.176.176 0 01-.053.07.174.174 0 01-.081.033l-6.304 1.339-6.407 11.032a.184.184 0 01-.044.088.182.182 0 01-.082.054z" fill="#0AAD0A"/><g opacity=".3" fill="#001E2B"><path opacity=".3" d="M153.55 204.778c.457-.26.788-.048.788.472a1.817 1.817 0 01-.788 1.427c-.457.26-.788.047-.788-.473a1.796 1.796 0 01.788-1.426zm6.414-11.088c.457-.26.827-.047.827.473a1.809 1.809 0 01-.827 1.427c-.449.26-.788.047-.788-.473a1.814 1.814 0 01.788-1.427zm6.978-.091c.323-.558.324-1.16.004-1.345-.321-.185-.842.117-1.164.675-.322.558-.323 1.16-.003 1.345.321.185.841-.118 1.163-.675zm5.811-14.723c.457-.268.788-.055.788.473a1.814 1.814 0 01-.788 1.426c-.457.26-.788.047-.788-.481a1.8 1.8 0 01.788-1.418zm6.406 3.727c.457-.26.788-.047.788.473a1.814 1.814 0 01-.788 1.426c-.449.26-.788.048-.788-.472a1.828 1.828 0 01.788-1.427zm6.399-1.852c.457-.26.788-.047.788.481a1.794 1.794 0 01-.788 1.419c-.458.267-.788.055-.788-.473a1.82 1.82 0 01.788-1.427zm6.398-5.539c.457-.268.827-.055.827.473a1.818 1.818 0 01-.827 1.426c-.449.26-.788.047-.788-.473a1.819 1.819 0 01.788-1.426zm6.406-7.368c.449-.268.788-.055.788.473a1.839 1.839 0 01-.788 1.426c-.457.26-.788.047-.788-.481a1.807 1.807 0 01.788-1.418zm6.399-1.875c.457-.26.788-.048.788.472a1.814 1.814 0 01-.788 1.427c-.457.26-.788.047-.788-.473a1.808 1.808 0 01.788-1.426zm6.422-5.54c.457-.268.788-.055.788.473a1.835 1.835 0 01-.788 1.426c-.45.26-.788.047-.788-.481a1.812 1.812 0 01.788-1.418zm6.382 0c.457-.268.788-.055.788.473a1.827 1.827 0 01-.788 1.426c-.457.26-.788.047-.788-.481a1.8 1.8 0 01.788-1.418zm6.399-14.791c.457-.26.788-.047.788.481a1.815 1.815 0 01-.788 1.418c-.449.268-.788.055-.788-.473a1.836 1.836 0 01.788-1.426zm6.406 7.344c.45-.26.788-.055.788.473a1.806 1.806 0 01-.788 1.426c-.457.26-.827.048-.827-.472a1.805 1.805 0 01.827-1.427zm6.398-7.344c.458-.26.788-.047.788.481a1.8 1.8 0 01-.788 1.418c-.457.268-.788.055-.788-.473a1.834 1.834 0 01.788-1.426zm6.407-3.696c.449-.26.788-.047.788.481a1.821 1.821 0 01-.788 1.419c-.457.267-.827.055-.827-.473.017-.286.101-.564.244-.812.144-.247.344-.458.583-.615zm6.402 0c.457-.26.788-.047.788.481a1.794 1.794 0 01-.788 1.419c-.457.267-.788.055-.788-.473a1.833 1.833 0 01.788-1.427zm6.399-3.695c.457-.26.827-.048.827.48a1.803 1.803 0 01-.827 1.419c-.45.268-.788.055-.788-.473a1.847 1.847 0 01.788-1.426zm6.43 0c.449-.26.788-.048.788.48a1.819 1.819 0 01-.788 1.419c-.458.268-.828.055-.828-.473.017-.286.101-.564.245-.811.143-.248.343-.459.583-.615z"/><path opacity=".3" d="M153.551 205.928a.177.177 0 01-.102 0 .195.195 0 01-.071-.268l6.446-11.111a.176.176 0 01.134-.094l6.256-1.34 6.359-13.317a.194.194 0 01.053-.064.193.193 0 01.074-.038.182.182 0 01.157 0l6.304 3.656 6.304-1.82 6.359-5.516 6.391-7.376a.156.156 0 01.095-.063l6.359-1.836 6.367-5.516a.193.193 0 01.134-.047h6.304l6.319-14.665a.234.234 0 01.065-.078.227.227 0 01.093-.04.184.184 0 01.173.071l6.257 7.218 6.249-7.218a.16.16 0 01.055-.048l6.422-3.703a.14.14 0 01.095 0h6.351l6.304-3.657a.218.218 0 01.095 0h6.453a.197.197 0 110 .394h-6.351l-6.304 3.657h-6.446l-6.351 3.664-6.375 7.368a.205.205 0 01-.299 0l-6.202-7.155-6.304 14.499a.197.197 0 01-.181.118h-6.304l-6.407 5.453h-.078l-6.344 1.828-6.375 7.352-6.414 5.564-.071.039-6.398 1.852a.179.179 0 01-.15 0l-6.225-3.594-6.304 13.215a.176.176 0 01-.053.07.174.174 0 01-.081.033l-6.304 1.339-6.407 11.032a.184.184 0 01-.044.088.182.182 0 01-.082.054z"/></g><path d="M156.899 177.355l6.218-3.601c.315-.181.567-.055.567.292a1.204 1.204 0 01-.567.937l-6.202 3.601c-.307.182-.567.056-.567-.291a1.21 1.21 0 01.166-.533c.096-.163.228-.301.385-.405z" fill="#C1C7C6"/><path d="M153.55 178.876c.457-.268.788-.055.788.473a1.8 1.8 0 01-.788 1.426c-.457.26-.827.047-.827-.473a1.805 1.805 0 01.827-1.426z" fill="#0AAD0A"/><path opacity=".3" d="M153.55 178.876c.457-.268.788-.055.788.473a1.8 1.8 0 01-.788 1.426c-.457.26-.827.047-.827-.473a1.805 1.805 0 01.827-1.426z" fill="#001E2B"/><path d="M156.899 181.035l6.202-3.593c.315-.181.567-.055.567.283a1.197 1.197 0 01-.567.946l-6.202 3.601c-.307.181-.567.048-.567-.291a1.231 1.231 0 01.567-.946z" fill="#C1C7C6"/><path d="M153.55 182.603c.457-.26.788-.055.788.473a1.8 1.8 0 01-.788 1.426c-.457.26-.827.048-.827-.473a1.805 1.805 0 01.827-1.426zm0 49.25a.202.202 0 01-.179-.12.2.2 0 01-.016-.077c0-.026.006-.052.016-.077a.223.223 0 01.045-.065l3.246-3.341 3.152-.402 3.223-4.16 3.223.441 3.152-2.829 3.199-1.915 3.255-4.515 3.239 1.017 3.112-2.782a.197.197 0 01.276 0 .18.18 0 01.064.138.183.183 0 01-.064.138l-3.278 2.931-3.152-1.001-3.152 4.374-3.199 1.915-3.239 2.931-3.152-.433-3.152 4.105-3.357.394-3.152 3.239a.215.215 0 01-.11.094z" fill="#0AAD0A"/><path d="M154.819 221.042a.35.35 0 01.078-.071.873.873 0 01.568-.205.56.56 0 01.386.142c.117.11.204.248.252.402.067.206.099.422.095.638a2.972 2.972 0 01-.095.733 3.351 3.351 0 01-.252.701 2.571 2.571 0 01-.386.591 1.8 1.8 0 01-.481.41.971.971 0 01-.489.15.608.608 0 01-.378-.15.943.943 0 01-.26-.402 2.118 2.118 0 01-.086-.638 2.249 2.249 0 010-.402c.017-.13.044-.259.078-.386 0-.126.071-.244.111-.363.039-.118.078-.236.118-.346l.851-2.427a.856.856 0 00.055-.119.188.188 0 01.095-.11l.268-.15a.028.028 0 01.013-.011.04.04 0 01.018-.004.04.04 0 01.018.004c.005.002.01.006.014.011v.197l-.591 1.805zm-.607 2.049c0 .128.019.255.055.378.03.099.084.188.158.26a.359.359 0 00.236.102.626.626 0 00.323-.094c.12-.076.229-.169.323-.276.094-.116.173-.243.237-.378.137-.274.207-.577.204-.883a1.38 1.38 0 00-.047-.378.605.605 0 00-.157-.26.363.363 0 00-.237-.102.67.67 0 00-.323.094 1.314 1.314 0 00-.323.276 1.737 1.737 0 00-.236.386 2.023 2.023 0 00-.213.875zm2.78-1.159c.017.067.038.133.063.197a.28.28 0 00.126.126c.072.026.15.026.221 0 .129-.028.251-.079.363-.149a1.386 1.386 0 00.504-.513 1.51 1.51 0 00.157-.378 1.56 1.56 0 00.056-.441.9.9 0 00-.056-.363.296.296 0 00-.149-.173.373.373 0 00-.229 0c-.1.028-.195.071-.283.126l-.387.221a.072.072 0 01-.047.018.074.074 0 01-.047-.018.16.16 0 010-.11v-.261a.372.372 0 010-.133l.047-.127.843-1.891-1.347.788a.058.058 0 01-.019.016.07.07 0 01-.025.005.069.069 0 01-.024-.005.058.058 0 01-.019-.016s-.039-.055-.039-.11v-.26a.284.284 0 01.039-.158.215.215 0 01.087-.11l1.844-1.064h.086a.137.137 0 01.013.059.13.13 0 01-.013.059v.221a.483.483 0 010 .142.597.597 0 01-.063.15l-.827 1.859a.924.924 0 01.433-.134.451.451 0 01.331.103.651.651 0 01.213.339c.058.18.085.369.079.559.001.242-.031.483-.095.717a2.807 2.807 0 01-.252.638 2.682 2.682 0 01-.37.52 1.87 1.87 0 01-.449.363c-.164.107-.35.177-.544.205a.553.553 0 01-.37-.079.602.602 0 01-.221-.284 1.213 1.213 0 01-.079-.425.245.245 0 010-.126.208.208 0 01.071-.087l.213-.126h.087a.183.183 0 01.078.11zm2.789-1.607c.009.069.03.135.063.197a.25.25 0 00.126.126.335.335 0 00.221 0c.128-.029.251-.079.362-.15a1.33 1.33 0 00.505-.52c.066-.117.119-.241.157-.37.039-.144.058-.293.055-.442a.895.895 0 00-.055-.362.326.326 0 00-.15-.173.37.37 0 00-.228 0 1.33 1.33 0 00-.284.118l-.394.228a.066.066 0 01-.043.015.066.066 0 01-.043-.015.15.15 0 010-.11v-.26a.254.254 0 010-.134 1.12 1.12 0 01.047-.126l.843-1.891-1.347.788a.075.075 0 01-.048.018.074.074 0 01-.047-.018.163.163 0 010-.111v-.26a.347.347 0 010-.157.197.197 0 01.036-.065.204.204 0 01.059-.046l1.843-1.071a.071.071 0 01.087 0 .17.17 0 01.04.118v.26a.562.562 0 010 .142c0 .047-.04.094-.063.15l-.828 1.859c.13-.077.275-.126.426-.142a.505.505 0 01.338.111c.098.09.171.204.213.331.055.184.082.375.079.567 0 .242-.032.483-.095.717a2.99 2.99 0 01-.252.631 2.31 2.31 0 01-.37.52c-.13.145-.282.27-.449.37-.165.106-.35.176-.544.205a.64.64 0 01-.378-.079.733.733 0 01-.221-.284 1.205 1.205 0 01-.071-.425.268.268 0 010-.126.188.188 0 01.071-.095l.213-.118a.063.063 0 01.043-.017c.016 0 .032.006.044.017.019.023.033.05.039.079z" fill="#637381"/><path d="M154.126 234.399l27.667-16.036c.307-.182.567-.048.567.291a1.243 1.243 0 01-.567.946l-27.667 16.012c-.307.181-.567.055-.567-.292a1.235 1.235 0 01.567-.921zm0-18.487l6.202-3.593c.315-.182.567-.055.567.283a1.22 1.22 0 01-.567.946l-6.202 3.593c-.307.182-.567.055-.567-.283a1.243 1.243 0 01.567-.946z" fill="#C1C7C6"/><path d="M153.549 254.012a.215.215 0 01-.074-.017.192.192 0 01-.06-.046.194.194 0 01-.06-.138.19.19 0 01.06-.138l3.247-3.341 3.215-.402 3.231-2.829 3.152-.851 3.254-6.469 3.254 1.576 3.152-2.774h.056l3.112-.591 3.152-5.445a.2.2 0 01.279-.09.197.197 0 01.093.212.194.194 0 01-.033.075l-3.239 5.602-3.238.615-3.263 2.868-3.152-1.576-3.152 6.304-3.238.883-3.215 2.829-3.192.41-3.152 3.238a.214.214 0 01-.189.095z" fill="#0AAD0A"/><path opacity=".3" d="M153.549 254.012a.215.215 0 01-.074-.017.192.192 0 01-.06-.046.194.194 0 01-.06-.138.19.19 0 01.06-.138l3.247-3.341 3.215-.402 3.231-2.829 3.152-.851 3.254-6.469 3.254 1.576 3.152-2.774h.056l3.112-.591 3.152-5.445a.2.2 0 01.279-.09.197.197 0 01.093.212.194.194 0 01-.033.075l-3.239 5.602-3.238.615-3.263 2.868-3.152-1.576-3.152 6.304-3.238.883-3.215 2.829-3.192.41-3.152 3.238a.214.214 0 01-.189.095z" fill="#001E2B"/><path d="M155.182 246.155a.422.422 0 010 .166.205.205 0 01-.095.102l-.189.111a.063.063 0 01-.043.017.066.066 0 01-.044-.017.174.174 0 010-.119v-3.94l-.788 1.324c-.031.058-.063.09-.094.095a.064.064 0 01-.087 0l-.11-.158a.155.155 0 010-.126c0-.056.016-.111.047-.157l1.001-1.766a.325.325 0 01.079-.094l.071-.047.189-.111a.074.074 0 01.047-.018c.018 0 .034.007.047.018a.133.133 0 010 .111l-.031 4.609zm2.047-3.64c.087-.164.158-.335.213-.512.05-.185.074-.376.071-.568a.836.836 0 00-.15-.559c-.094-.11-.244-.11-.457 0a.894.894 0 00-.276.236 1.628 1.628 0 00-.197.308 2.886 2.886 0 00-.189.74.468.468 0 01-.047.15.286.286 0 01-.079.087l-.213.118h-.071a.13.13 0 010-.095 2.81 2.81 0 01.079-.591c.05-.214.121-.422.213-.622.098-.2.214-.39.347-.568.127-.165.285-.304.465-.409a.891.891 0 01.457-.142.487.487 0 01.323.142c.1.105.171.236.205.378.043.183.064.371.063.559.008.145.008.289 0 .434-.016.135-.04.269-.071.402-.04.134-.087.268-.142.409-.055.142-.126.284-.205.442l-1.048 2.104 1.434-.828a.064.064 0 01.087 0v.371a.28.28 0 010 .157.175.175 0 01-.032.064.191.191 0 01-.055.047l-2.017 1.166a.075.075 0 01-.043.015.078.078 0 01-.044-.015.156.156 0 01-.039-.111v-.26a.466.466 0 010-.149c.022-.065.048-.128.079-.189l1.339-2.711zm3.706-2.608v1.213c0 .277-.024.554-.071.827-.048.27-.122.534-.221.788-.092.228-.217.44-.37.631-.145.185-.325.34-.528.457a.94.94 0 01-.536.158.552.552 0 01-.363-.205 1.192 1.192 0 01-.22-.505 4.008 4.008 0 01-.079-.74v-1.245c.006-.28.033-.56.079-.836.041-.27.115-.535.22-.788.094-.224.216-.436.363-.63.147-.188.329-.345.536-.465a.889.889 0 01.528-.15.514.514 0 01.37.213c.108.151.184.322.221.504.052.254.076.513.071.773zm-1.947 2.364c-.029.31.039.621.197.89.126.15.315.15.56 0 .25-.148.444-.376.551-.646.141-.359.211-.742.205-1.127v-1.214a1.481 1.481 0 00-.205-.898c-.126-.15-.307-.15-.551 0a1.332 1.332 0 00-.56.646c-.137.36-.204.742-.197 1.127v1.222z" fill="#637381"/><path d="M154.126 256.549l27.667-16.028c.307-.181.567-.055.567.292a1.237 1.237 0 01-.567.938l-27.667 16.035c-.307.182-.567.048-.567-.291a1.243 1.243 0 01.567-.946zm0-18.486l6.202-3.602c.315-.181.567-.047.567.292a1.224 1.224 0 01-.567.946l-6.202 3.593c-.307.181-.567.055-.567-.284a1.229 1.229 0 01.567-.945z" fill="#C1C7C6"/><path d="M191.956 209.608a.219.219 0 01-.084-.023.21.21 0 01-.066-.056.175.175 0 01-.044-.063.174.174 0 01-.016-.075c0-.026.005-.051.016-.075a.184.184 0 01.044-.063l3.199-2.553 3.223-3.68 3.27-.48 3.152-.702 3.239-3.814 3.152.56 3.152-5.051 3.246.047 3.152-2.797a.205.205 0 01.065-.045.208.208 0 01.077-.016.2.2 0 01.198.199c0 .051-.02.101-.056.138l-3.254 2.907-3.152-.055-3.207 5.091-3.223-.568-3.152 3.743-3.271.741-3.152.457-3.152 3.593-3.23 2.64a.194.194 0 01-.126 0z" fill="#0AAD0A"/><path d="M193.226 198.82l.079-.071.086-.063a.911.911 0 01.457-.11.564.564 0 01.386.142c.115.112.202.25.253.402.06.207.089.422.086.638-.001.247-.03.493-.086.733a3.885 3.885 0 01-.253.701 2.81 2.81 0 01-.386.591 1.831 1.831 0 01-.488.41.956.956 0 01-.481.15.63.63 0 01-.386-.15.933.933 0 01-.221-.465 1.92 1.92 0 01-.094-.638 3.37 3.37 0 010-.402c0-.134.047-.26.079-.386l.11-.371c.039-.118.087-.228.126-.338l.851-2.428.047-.118a.26.26 0 01.095-.11l.268-.15h.071a.14.14 0 010 .095.167.167 0 010 .063.065.065 0 010 .039l-.599 1.836zm-.599 2.049c-.003.128.015.256.055.378a.597.597 0 00.15.26.36.36 0 00.244.103.597.597 0 00.315-.095c.122-.074.231-.167.323-.276.095-.119.177-.249.245-.386.063-.139.114-.284.149-.433.034-.145.053-.293.055-.441 0-.128-.019-.256-.055-.379a.698.698 0 00-.149-.26.405.405 0 00-.245-.102.71.71 0 00-.323.094 1.527 1.527 0 00-.559.662 1.974 1.974 0 00-.15.434 1.725 1.725 0 00-.055.441zm3.843-3.207c.087-.166.158-.341.213-.52.046-.186.069-.376.071-.568a.851.851 0 00-.15-.551c-.095-.118-.252-.11-.457 0a1.182 1.182 0 00-.284.228 1.692 1.692 0 00-.307.67c0 .126-.055.252-.079.378a.376.376 0 01-.047.15.208.208 0 01-.071.087l-.213.126a.062.062 0 01-.079 0 .14.14 0 010-.095c.001-.197.028-.393.079-.583.048-.214.12-.423.213-.622a2.64 2.64 0 01.346-.568c.128-.167.285-.309.465-.417a.864.864 0 01.45-.134.45.45 0 01.331.142.793.793 0 01.197.37c.049.185.073.376.07.567.009.142.009.284 0 .426a2.4 2.4 0 01-.078.402c-.035.139-.08.276-.134.409-.063.142-.126.284-.205.442l-1.048 2.104 1.434-.828a.074.074 0 01.087 0 .164.164 0 01.039.118v.261a.427.427 0 01-.039.157.313.313 0 01-.087.11l-2.017 1.159h-.095a.171.171 0 010-.118v-.26a.472.472 0 010-.15c.021-.063.047-.124.079-.181l1.316-2.711zm3.184-4.232a.064.064 0 01.087 0 .13.13 0 01.034.055c.007.02.009.042.005.064v.299a.842.842 0 010 .142c.003.058.003.115 0 .173l-1.04 4.728a1.173 1.173 0 01-.055.15.182.182 0 01-.087.102l-.212.126a.062.062 0 01-.079 0 .13.13 0 010-.102.222.222 0 010-.063l1.04-4.728-1.576.89a.071.071 0 01-.087 0 .163.163 0 01-.039-.118v-.26a.427.427 0 01.039-.157.264.264 0 01.087-.111l1.883-1.19z" fill="#637381"/><path d="M192.54 212.177l27.659-16.036c.315-.181.567-.047.567.292a1.216 1.216 0 01-.567.945l-27.659 16.028c-.315.181-.567.047-.567-.291.013-.19.072-.375.171-.537.098-.163.234-.301.396-.401zm0-18.494l6.194-3.594c.315-.181.575-.055.575.284a1.221 1.221 0 01-.575.946l-6.194 3.593c-.315.181-.567.055-.567-.284.013-.191.072-.376.171-.54.098-.165.234-.303.396-.405z" fill="#C1C7C6"/><path d="M191.957 231.782a.22.22 0 01-.102 0 .211.211 0 01-.063-.275l3.27-5.359 3.294.607 3.097-.851 3.199-3.901 3.152-.788 3.231-5.768 3.309.961 3.105-.591 3.152-2.805a.207.207 0 01.067-.05.188.188 0 01.081-.018c.028 0 .056.005.081.017a.182.182 0 01.067.049.195.195 0 01-.036.294l-3.238 2.884h-.048l-3.262.614-3.05-.89-3.152 5.642-3.223.788-3.199 3.901h-.055l-3.247.89h-.047l-3.065-.567-3.152 5.13a.193.193 0 01-.166.086z" fill="#0AAD0A"/><path opacity=".3" d="M191.957 231.782a.22.22 0 01-.102 0 .211.211 0 01-.063-.275l3.27-5.359 3.294.607 3.097-.851 3.199-3.901 3.152-.788 3.231-5.768 3.309.961 3.105-.591 3.152-2.805a.207.207 0 01.067-.05.188.188 0 01.081-.018c.028 0 .056.005.081.017a.182.182 0 01.067.049.195.195 0 01-.036.294l-3.238 2.884h-.048l-3.262.614-3.05-.89-3.152 5.642-3.223.788-3.199 3.901h-.055l-3.247.89h-.047l-3.065-.567-3.152 5.13a.193.193 0 01-.166.086z" fill="#001E2B"/><path d="M193.438 222.492l-.063.047h-.063a.97.97 0 01-.433.142.588.588 0 01-.379-.118.787.787 0 01-.228-.347 1.777 1.777 0 01-.103-.67 2.93 2.93 0 01.095-.733 3.7 3.7 0 01.252-.685c.104-.203.231-.394.378-.568.126-.156.278-.29.449-.394.147-.092.315-.147.489-.157.138.002.27.056.37.15a.907.907 0 01.237.401c.058.205.084.418.079.631.01.128.01.257 0 .386 0 .134-.063.268-.095.41-.032.142-.079.268-.126.402s-.079.252-.118.354l-.851 2.427-.055.118a.2.2 0 01-.095.111l-.268.157a.047.047 0 01-.063 0 .177.177 0 010-.102v-.055a.384.384 0 000-.048l.591-1.859zm.607-2.041a1.146 1.146 0 00-.055-.386.498.498 0 00-.142-.213.308.308 0 00-.229-.087.668.668 0 00-.299.087 1.293 1.293 0 00-.3.252 1.615 1.615 0 00-.228.355 1.874 1.874 0 00-.197.867c-.003.132.013.265.047.394.028.093.08.177.15.244a.347.347 0 00.228.086.515.515 0 00.3-.086c.112-.068.213-.153.299-.252a1.876 1.876 0 00.378-.773 1.74 1.74 0 00.048-.488zm1.214 1.497a.814.814 0 00.071.197.292.292 0 00.126.134.396.396 0 00.221 0c.128-.028.251-.079.362-.15.101-.059.193-.13.276-.212.087-.092.163-.192.228-.3a1.564 1.564 0 00.213-.819.897.897 0 00-.055-.363.33.33 0 00-.15-.173.44.44 0 00-.228 0c-.1.028-.196.07-.284.126l-.394.22a.062.062 0 01-.087 0 .146.146 0 010-.11v-.26a.43.43 0 010-.134l.056-.126.843-1.891-1.356.788a.061.061 0 01-.043.017.061.061 0 01-.043-.017.183.183 0 01-.04-.118v-.26a.393.393 0 01.04-.158.259.259 0 01.086-.11l1.852-1.064a.064.064 0 01.087 0c.027.03.041.07.039.11v.26a.423.423 0 010 .142 1.084 1.084 0 01-.063.15l-.827 1.86a.893.893 0 01.425-.134.46.46 0 01.331.102.72.72 0 01.221.339c.054.181.081.37.079.559.001.243-.031.484-.095.717a3.279 3.279 0 01-.252.639 2.713 2.713 0 01-.37.52 1.91 1.91 0 01-.449.362c-.165.106-.35.176-.544.205a.587.587 0 01-.378-.079.712.712 0 01-.221-.283 1.17 1.17 0 01-.071-.418.43.43 0 010-.134.214.214 0 01.079-.087l.213-.126h.078c.01.011.017.023.021.037a.1.1 0 01.003.042z" fill="#637381"/><path d="M192.54 234.328l27.659-16.052c.315-.181.567-.055.567.292a1.204 1.204 0 01-.567.937l-27.659 16.036c-.315.181-.567.047-.567-.291a1.212 1.212 0 01.567-.922zm0-18.487l6.194-3.601c.315-.181.575-.047.575.291a1.23 1.23 0 01-.575.946l-6.194 3.593c-.315.182-.567.056-.567-.283a1.197 1.197 0 01.567-.946z" fill="#C1C7C6"/><path d="M233.571 173.659a3.606 3.606 0 013.617-.299l-3.649 9.834.032-9.535z" fill="#0AAD0A"/><path d="M229.922 177.599a10.846 10.846 0 013.648-3.94v9.567l-3.648-5.627z" fill="#0AAD0A"/><path d="M227.66 183.683a19.211 19.211 0 012.262-6.084l3.648 5.627-5.91.457z" fill="#0AAD0A"/><path opacity=".3" d="M229.922 177.599a19.211 19.211 0 00-2.262 6.084l5.91-.457v-9.567a10.846 10.846 0 00-3.648 3.94z" fill="#001E2B"/><path d="M237.187 173.36a5.096 5.096 0 012.262 3.467l-5.91 6.367 3.648-9.834zm-9.528 16.233a11.947 11.947 0 01-.307-2.782c.003-1.058.106-2.113.307-3.152l5.91-.457-5.91 6.391zm11.821-6.824a19.213 19.213 0 01-2.261 6.083l-3.649-5.626 5.91-.457zm-5.91 10.023a3.614 3.614 0 01-1.787.631 3.616 3.616 0 01-1.861-.363l3.648-9.834v9.566z" fill="#0AAD0A"/><path d="M227.66 189.593l5.91-6.367-3.648 9.834a5.103 5.103 0 01-2.262-3.467zm11.82-12.734c.209.912.309 1.846.3 2.781a16.837 16.837 0 01-.3 3.152l-5.91.457 5.91-6.39z" fill="#0AAD0A"/><path d="M237.188 188.852a10.849 10.849 0 01-3.649 3.94v-9.566l3.649 5.626z" fill="#0AAD0A"/><path d="M230.474 197.67l6.193-3.594c.315-.181.568-.055.568.284a1.23 1.23 0 01-.568.946l-6.193 3.593c-.316.181-.568.055-.568-.284a1.229 1.229 0 01.568-.945z" fill="#637381"/><path d="M229.103 202.169l8.935-5.169c.316-.181.568-.055.568.292a1.205 1.205 0 01-.568.937l-8.935 5.185c-.316.182-.568.055-.568-.283a1.208 1.208 0 01.568-.962zm0 3.704l8.935-5.185c.316-.181.568-.047.568.291a1.216 1.216 0 01-.568.938l-8.935 5.185c-.316.181-.568.055-.568-.284.013-.191.071-.377.169-.541.099-.164.236-.303.399-.404zm0 3.735l8.935-5.185c.316-.181.568-.047.568.291a1.229 1.229 0 01-.568.946l-8.935 5.177c-.316.181-.568.055-.568-.283a1.22 1.22 0 01.568-.946z" fill="#C1C7C6"/><path d="M255.973 160.673a3.603 3.603 0 013.648-.268l-3.648 9.803v-9.535zm-3.649 3.94a10.907 10.907 0 013.649-3.94v9.535l-3.649-5.595zm-2.254 6.084a19.213 19.213 0 012.254-6.084l3.648 5.626-5.902.458z" fill="#0AAD0A"/><path d="M259.621 160.405a5.115 5.115 0 012.262 3.467l-5.91 6.368 3.648-9.835zm-9.548 16.202a11.947 11.947 0 01-.307-2.782c.004-1.058.107-2.113.307-3.152l5.902-.457-5.902 6.391z" fill="#0AAD0A"/><path d="M261.883 169.782a19.163 19.163 0 01-2.262 6.084l-3.648-5.658 5.91-.426z" fill="#0AAD0A"/><path d="M255.973 179.806a3.635 3.635 0 01-3.649.276l3.649-9.874v9.598z" fill="#0AAD0A"/><path d="M250.07 176.607l5.902-6.367-3.648 9.842a5.134 5.134 0 01-2.254-3.475z" fill="#0AAD0A"/><path opacity=".3" d="M252.327 164.613a19.213 19.213 0 00-2.254 6.084 17.006 17.006 0 00-.307 3.152c-.007.936.096 1.869.307 2.781a5.138 5.138 0 002.254 3.475l3.648-9.897v-9.535a10.913 10.913 0 00-3.648 3.94z" fill="#001E2B"/><path d="M261.883 163.904c.211.912.314 1.846.307 2.782a17.014 17.014 0 01-.307 3.152l-5.91.457 5.91-6.391z" fill="#0AAD0A"/><path d="M259.621 175.866a10.78 10.78 0 01-3.648 3.94v-9.598l3.648 5.658z" fill="#0AAD0A"/><path d="M252.876 184.731l6.202-3.593c.315-.182.567-.056.567.283a1.221 1.221 0 01-.169.542 1.22 1.22 0 01-.398.404l-6.202 3.601c-.315.181-.567.047-.567-.292a1.215 1.215 0 01.567-.945z" fill="#637381"/><path d="M251.513 189.23l8.928-5.185c.315-.181.567-.047.567.292a1.216 1.216 0 01-.567.945l-8.928 5.178c-.315.181-.575.055-.575-.284a1.221 1.221 0 01.575-.946zm0 3.704l8.928-5.177c.315-.182.567-.055.567.283a1.22 1.22 0 01-.567.946l-8.928 5.177c-.315.189-.575.055-.575-.284a1.23 1.23 0 01.575-.945zm0 3.703l8.928-5.153c.315-.181.567-.055.567.284a1.216 1.216 0 01-.567.945l-8.928 5.185c-.315.182-.575.048-.575-.291a1.224 1.224 0 01.575-.97z" fill="#C1C7C6"/><path d="M255.854 288.944a10.522 10.522 0 00-4.484-8.416c-1.276-.788-2.45-.906-3.325-.457-5.272 2.648-42.315 26.406-44.687 27.58a1.683 1.683 0 00-.788 1.529 5.295 5.295 0 002.253 4.231 1.664 1.664 0 001.694.221c3.751-2.065 40.322-17.651 47.793-21.654.93-.473 1.497-1.521 1.544-3.034z" fill="#0AAD0A"/><path opacity=".1" d="M254.398 283.822a9.464 9.464 0 00-3.026-3.294c-1.269-.788-2.443-.906-3.31-.465l-.11.055c-4.815 2.467-32.387 20.055-41.662 25.776h-.063l-.378.236-.11.071-.213.126-.252.15c-.977.599-1.647.985-1.899 1.111a1.144 1.144 0 00-.213.173 1.82 1.82 0 00-.536 1.356 3.876 3.876 0 000 .528v.212c0 .071 0 .213.063.323l.071.26c0 .103.063.197.102.3.022.078.048.154.079.228l51.457-27.146z" fill="#001E2B"/><path d="M204.832 313.427a5.256 5.256 0 01-2.246-4.216c.047-1.521 1.135-2.104 2.435-1.3a5.313 5.313 0 012.222 4.216c0 1.497-1.119 2.104-2.411 1.3z" fill="#0AAD0A"/><path d="M193.76 314.451a4.063 4.063 0 001.726 3.239 1.307 1.307 0 001.292.173l8.968-4.767c.189-.127.341-.302.44-.507.1-.205.144-.432.127-.659a4.063 4.063 0 00-1.726-3.239 1.282 1.282 0 00-.624-.257 1.275 1.275 0 00-.668.092l-8.96 4.767a1.303 1.303 0 00-.575 1.158z" fill="#3D4F58"/><path d="M194.344 313.277a1.297 1.297 0 00-.583 1.174c-.005.473.086.943.268 1.379l11.56-6.146a3.517 3.517 0 00-.993-.993 1.29 1.29 0 00-1.293-.165l-8.959 4.767v-.016z" fill="#21313C"/><path d="M205.26 322.402c0-5.744-3.799-11.481-11.387-15.862-15.177-8.763-39.786-8.763-54.963 0-7.588 4.381-11.387 10.118-11.387 15.862v10.583c0 5.737 3.799 11.481 11.387 15.863 15.177 8.762 39.786 8.762 54.963 0 7.588-4.382 11.387-10.126 11.387-15.863v-10.583zm-64.467-12.608c6.777-3.94 15.871-6.067 25.602-6.067 9.732 0 18.826 2.151 25.603 6.067 6.13 3.538 9.503 8.014 9.503 12.608 0 4.594-3.373 9.078-9.503 12.608-6.777 3.94-15.871 6.068-25.603 6.068-9.731 0-18.825-2.159-25.602-6.068-6.13-3.538-9.511-8.022-9.511-12.608s3.381-9.07 9.511-12.608z" fill="#0AAD0A"/><path opacity=".3" d="M138.908 338.273c15.177 8.762 39.786 8.762 54.963 0 15.177-8.763 15.177-22.971 0-31.733-15.177-8.763-39.786-8.763-54.963 0-15.177 8.762-15.193 22.97 0 31.733zm-7.628-15.871c0-4.594 3.373-9.07 9.504-12.608 6.776-3.94 15.87-6.067 25.602-6.067 9.731 0 18.825 2.151 25.61 6.067 6.122 3.538 9.503 8.014 9.503 12.608 0 4.594-3.381 9.078-9.503 12.608-6.785 3.94-15.879 6.068-25.61 6.068-9.732 0-18.826-2.159-25.602-6.068-6.123-3.53-9.504-7.99-9.504-12.608z" fill="#fff"/><path d="M131.281 322.402a10.516 10.516 0 001.513 5.296c1.576-2.672 4.255-5.177 7.998-7.329 6.769-3.94 15.863-6.067 25.603-6.067 9.739 0 18.825 2.151 25.594 6.067 3.735 2.152 6.453 4.657 7.998 7.329a10.516 10.516 0 001.513-5.296c0-4.594-3.373-9.07-9.511-12.608-6.769-3.94-15.871-6.067-25.594-6.067-9.724 0-18.834 2.159-25.603 6.067-6.138 3.538-9.511 8.014-9.511 12.608z" fill="#0AAD0A"/><path opacity=".1" d="M131.281 322.402a10.516 10.516 0 001.513 5.296c1.576-2.672 4.255-5.177 7.998-7.329 6.769-3.94 15.863-6.067 25.603-6.067 9.739 0 18.825 2.151 25.594 6.067 3.735 2.152 6.453 4.657 7.998 7.329a10.516 10.516 0 001.513-5.296c0-4.594-3.373-9.07-9.511-12.608-6.769-3.94-15.871-6.067-25.594-6.067-9.724 0-18.834 2.159-25.603 6.067-6.138 3.538-9.511 8.014-9.511 12.608z" fill="#001E2B"/><path opacity=".4" d="M140.782 314.577c6.777-3.94 15.87-6.067 25.602-6.067 9.732 0 18.825 2.159 25.61 6.067 5.051 2.924 8.227 6.486 9.188 10.244-.961 3.736-4.137 7.297-9.188 10.244-6.785 3.94-15.878 6.068-25.61 6.068s-18.825-2.159-25.602-6.068c-5.059-2.923-8.235-6.485-9.188-10.244.953-3.758 4.129-7.32 9.188-10.244z" fill="#fff"/><path opacity=".1" d="M157.227 344.222v10.567a50.77 50.77 0 01-18.321-5.941c-7.588-4.382-11.386-10.126-11.386-15.871v-10.575a13.36 13.36 0 01.465-3.467c-1.844 6.832 1.796 14.066 10.913 19.338a51.231 51.231 0 0018.329 5.949z" fill="#001E2B"/><path d="M342.473 279.63c.465.189.56 1.071.591 2.829 0 1.331.252 3.664-1.308 4.089-1.56.426-3.845.142-4.815-1.134-1.213-1.576-2.025-2.987-3.758-4.941-1.505-1.687-3.152-3.27-3.712-5.603-.512-2.112 0-3.01 1.426-3.593 1.986-.788 5.012 2.017 6.549 2.482 1.316.402 4.546 5.682 5.027 5.871z" fill="#21313C"/><path d="M342.512 278.006l-.047 2.152a5.261 5.261 0 01-5.453 0c-.094-.205-.496-3.097-.496-3.097l5.996.945z" fill="#FF8B7B"/><path d="M324.727 291.67s.575 1.892.874 3.538c.237 1.309.568 3.499.087 4.468-.481.97-2.277 1.576-5.035 1.482-1.789-.055-4.602 1.095-6.541 2.12-1.938 1.024-6.107 1.402-8.187 1.111-2.451-.347-4.964-1.829-5.335-2.853-.37-1.024.174-2.072 6.02-4.413.056 0 8.117-2.443 10.985-5.468l7.132.015z" fill="#21313C"/><path d="M324.784 289.338s-.048 1.576-.063 2.514c-.016.937-1.119 2.253-3.94 2.088-1.962-.111-3.326-.67-3.207-2.285l.055-2.364 7.155.047z" fill="#FF8B7B"/><path d="M344.563 249.41a58.422 58.422 0 00-2.293-11.292s.985-9.677 1.576-18.865c.623-9.913 1.206-15.019-.749-29.345 0 0-30.409-2.734-31.236 8.731-.827 11.465.347 40.716.615 45.767.268 5.051 1.032 9.527 1.891 17.722.859 8.195 3.302 27.194 3.302 27.194a7.589 7.589 0 007.131 0s2.766-22.899 2.663-28.715a49.85 49.85 0 00-1.922-12.75s.788-9.456 1.576-17.666c.788-8.211 1.379-12.159 1.576-15.76l.693-.324s.386 14.184.654 19.259c.268 5.075.954 9.905 2.199 19.298 1.087 8.164 4.428 25.5 4.428 25.5 3.617 2.057 5.847-.126 5.847-.126s2.876-21.56 2.049-28.628z" fill="#3D4F58"/><path d="M328.652 214.47s7.88-3.656 11.82-7.021c0 0-3.719 5.004-8.51 7.155 0 0-2.088 17.604-2.072 17.249l-.584-17.391-.654.008z" fill="#21313C"/><path d="M323.207 149.05l1.182 10.496 9.913-.496-1.095-12.253-10 2.253z" fill="#FF8B7B"/><path d="M338.052 153.069c3.688-.173 5.563.386 7.226 3.57 1.663 3.183 2.301 12.694 2.884 17.604.583 4.909.717 8.36-1.3 8.865-2.017.504-9.882.724-9.882.724l1.072-30.763z" fill="#3D4F58"/><path d="M344.269 158.506c-.528-2.931-4.397-6.02-8.014-5.437l-2.451.418c-.433 1.765-5.272 2.868-9.897 1.781-1.395.37-5.981 1.229-7.148 1.615-3.317 1.103-4.728 4.373-5.208 15.208 0 0 .268 24.547.134 29.432 8.203 3.467 16.816 3.554 21.599 2.624 9.96-1.938 11.245-6.02 11.245-6.02l-1.482-11.229s2.435-21.741 1.222-28.392z" fill="#637381"/><path d="M323.593 152.51l.079.661c2.006.425 4.078.425 6.084 0 3.222-.717 3.877-1.623 3.877-1.623l-.071-.788s.788-.291 1.221.938c.185.493.343.995.473 1.505 0 0 .37 2.262-3.42 3.412a11.723 11.723 0 01-9.456-1.032l-1.482.315s1.285-2.963 1.671-3.562a.982.982 0 01.93-.52l.094.694z" fill="#3D4F58"/><path d="M293.325 141.249l-19.661 10.268 9.771 26.705 18.345-10.276-8.455-26.697z" fill="#637381"/><path d="M292.426 143.865l-16.5 8.613 8.652 22.962 15.39-8.62-7.542-22.955z" fill="#F5F5F5"/><path opacity=".15" d="M288.946 146.347s-.142-.37-.323-.788c-.181-.417-1.576-.181-3.065.599l-2.9 1.505c-1.521.788-2.609 1.781-2.427 2.23l.315.788 8.4-4.334z" fill="#001E2B"/><path d="M288.622 143.077c-.102-.284-.701-.236-1.331.103l-1.135.614s-.702-1.765-3.318-.544c-2.616 1.222-2.017 3.271-2.017 3.271l-1.206.662c-.669.37-1.142.898-1.063 1.182l.149.52 10.126-5.28-.205-.528z" fill="#0AAD0A"/><path d="M287.536 144.259c-.946.465-1.316.694-1.048 1.387a19 19 0 00.599 1.363l-4.476 2.364s-.37-1.008-.536-1.394c-.165-.387-.496-.576-1.206-.205l-.267-.284 7.092-3.601-.158.37z" fill="#0AAD0A"/><path opacity=".3" d="M287.536 144.259c-.946.465-1.316.694-1.048 1.387a19 19 0 00.599 1.363l-4.476 2.364s-.37-1.008-.536-1.394c-.165-.387-.496-.576-1.206-.205l-.267-.284 7.092-3.601-.158.37z" fill="#001E2B"/><path d="M289.132 146.387l-.315-.788c-.182-.457-1.576-.189-3.066.599l-2.907 1.497c-1.513.788-2.601 1.781-2.427 2.238l.323.788 8.392-4.334z" fill="#0AAD0A"/><path d="M316.777 156.883c-4.539.394-6.469 1.221-9.873 7.36-3.704 6.674-10.812 18.738-11.71 20.267-1.253 2.12-1.489 5.343-.41 7.289 1.009 1.82 4.216 2.648 7.88-1.458 4.326-4.885 12.372-16.816 12.372-16.816s6.792-9.014 1.741-16.642z" fill="#FF8B7B"/><path d="M296.651 193.194c-3.483-.418-11.607-11.442-13.916-15.043a25.674 25.674 0 00-7.045-7.431c-3.68-2.718-3.152-6.903-1.536-10.732.551-1.324 2.443-.465 2.443-.465l.662 1.82 1.15 3.152c.788.725 1.229.961 1.277.749.102-.41-.568-2.104-.552-3.869 0-2.12 1.505-.725 1.946 0a25.393 25.393 0 011.576 3.506c.741 1.899.442 3.822 1.34 5.114.898 1.293 13.026 12.916 13.026 12.916l-.371 10.283z" fill="#FF8B7B"/><path d="M317.634 156.639c-2.75-.063-6.052.378-8.613 3.703-2.561 3.326-12.805 21.402-12.805 21.402l-5.744-5.153a10.014 10.014 0 00-4.429 6.225 62.53 62.53 0 005.201 7.092c2.435 2.663 5.145 4.515 7.368 3.696 2.222-.82 4.491-2.577 9.274-9.244 4.783-6.666 10.008-14.522 10.008-14.522s3.302-7.676-.26-13.199z" fill="#3D4F58"/><path d="M316.217 136.198s-2.474 3.751-2.19 4.121c.283.371 2.104.701 2.104.701l.086-4.822z" fill="#F28F8F"/><path d="M317.377 138.609a2.956 2.956 0 11-.002-5.911 2.956 2.956 0 01.002 5.911zm0-5.248a2.306 2.306 0 00-2.132 1.415 2.302 2.302 0 004.037 2.165 2.301 2.301 0 00-1.905-3.58z" fill="#21313C"/><path d="M323.08 125.804c-5.012 1.056-6.462 3.263-6.935 11.213-.488 8.322.363 10.93 1.45 12.049.741.788 4.838.898 6.903.323 2.592-.709 8.439-2.782 11.174-6.966 3.223-4.917 4.066-11.591.622-14.326-4.838-3.853-11.166-2.726-13.214-2.293z" fill="#FF8B7B"/><path d="M323.269 149.625l-.237-1.528a9.846 9.846 0 01-5.13 1.158c.954.465 3.444.607 5.367.37z" fill="#F28F8F"/><path d="M314.703 135.04l8.905 1.158-.355.622-8.55-1.111v-.669z" fill="#21313C"/><path d="M315.31 129.019c.379.052.765.028 1.135-.071a1.78 1.78 0 00.607 2.088 2.531 2.531 0 002.246.3 2.16 2.16 0 00-.245 1.576 2.506 2.506 0 002.593 1.875c.055 1.167.071 2.301 1.308 2.829 0 0 .788-3.073 3.388-2.687 2.601.386 2.955 3.712 1.316 5.737s-3.152 1.253-3.152 1.245c.15.071.205 1.056.252 1.237a9.46 9.46 0 00.67 1.686 8.017 8.017 0 002.364 2.743 5.772 5.772 0 004.728 1.308 5.092 5.092 0 003.428-2.75c.115-.367.303-.708.552-1.001.381-.272.816-.46 1.276-.552a3.752 3.752 0 002.128-5.295 3.446 3.446 0 001.316-6.005 4.138 4.138 0 001.773-4.476 4.195 4.195 0 00-2.963-2.836c-1.017-.292-.623-.45-.938-1.442a3.698 3.698 0 00-1.166-1.742 3.74 3.74 0 00-3.444-.638 3.49 3.49 0 00-.872-1.699 3.487 3.487 0 00-1.634-.988 3.348 3.348 0 00-1.765-.071c-.417.102-1.268.488-1.426.89-.528-.52-.701-1.205-1.34-1.67a3.805 3.805 0 00-5.594 1.19 4.668 4.668 0 00-3.499-1.466 3.82 3.82 0 00-3.191 1.946 3.251 3.251 0 00.433 3.641 3.777 3.777 0 00-1.939 1.67 2.37 2.37 0 00.276 2.617c.242.339.584.595.977.732.132.035.267.062.402.079z" fill="#21313C"/><path d="M322.906 139.342l.086-3.483a1.744 1.744 0 00-.086 3.483z" fill="#21313C"/></svg>