<svg width="512" height="160" fill="none" xmlns="http://www.w3.org/2000/svg"><g opacity=".35"><path opacity=".35" d="M95.448 142.978H200.12c4.679 0 8.467 3.807 8.467 8.511 0 4.704-3.788 8.511-8.467 8.511H95.448c-4.68 0-8.467-3.807-8.467-8.511 0-4.697 3.788-8.511 8.467-8.511zM418.862 0H512v17.022h-93.138c-4.679 0-8.467-3.807-8.467-8.511 0-4.697 3.794-8.511 8.467-8.511z" fill="#92A39D"/><path opacity=".35" d="M258.397 52.223h46.517c4.68 0 8.468 3.808 8.468 8.511 0 4.704-3.788 8.511-8.468 8.511h-46.517c-4.679 0-8.467-3.807-8.467-8.51 0-4.704 3.794-8.512 8.467-8.512z" fill="#E5EAE9"/><path opacity=".35" d="M49.725 75.325h85.459c4.679 0 8.467 3.807 8.467 8.51 0 4.704-3.788 8.511-8.467 8.511H49.725c-4.68 0-8.467-3.807-8.467-8.51 0-4.704 3.794-8.511 8.467-8.511zM80.179 6.424h147.667c4.68 0 8.468 3.807 8.468 8.511 0 4.704-3.788 8.51-8.468 8.51H80.179c-4.68 0-8.468-3.806-8.468-8.51s3.788-8.51 8.468-8.51z" fill="#92A39D"/></g><path opacity=".65" d="M371.067 147.093c65.322 0 118.275-3.096 118.275-6.915s-52.953-6.914-118.275-6.914c-65.321 0-118.274 3.095-118.274 6.914 0 3.819 52.953 6.915 118.274 6.915z" fill="#92A39D"/><path d="M280.754 82.074c0-1.858-1.503-3.37-3.352-3.37a3.363 3.363 0 003.352-3.368c0 1.858 1.504 3.369 3.352 3.369a3.36 3.36 0 00-3.352 3.369zm179.754-30.367c0-1.858-1.503-3.37-3.352-3.37a3.363 3.363 0 003.352-3.369c0 1.858 1.504 3.37 3.352 3.37a3.36 3.36 0 00-3.352 3.369z" fill="#EABC49"/><path d="M272.879 72.084c0-2.845-2.298-5.155-5.129-5.155 2.831 0 5.129-2.309 5.129-5.155 0 2.846 2.297 5.155 5.129 5.155-2.832 0-5.129 2.31-5.129 5.155zm194.726-28.836c0-2.846-2.297-5.155-5.128-5.155 2.831 0 5.128-2.31 5.128-5.155 0 2.846 2.298 5.155 5.129 5.155-2.831-.007-5.129 2.303-5.129 5.155z" fill="#D7513E"/><path d="M445.513 127.795H297.611c-2.207 0-3.99-1.799-3.99-4.011V33.625c0-2.218 1.79-4.01 3.99-4.01h147.902c2.206 0 3.989 1.799 3.989 4.01v90.153c0 2.218-1.783 4.017-3.989 4.017z" fill="#2B5B4F"/><path d="M443.988 123.255H299.133a.998.998 0 01-.996-1.001V35.156a.998.998 0 01.996-1.001h144.862c.553 0 .996.451.996 1v87.099a1 1 0 01-1.003 1.001z" fill="#EB8F48"/><path d="M453.017 136.227H290.106c-3.527 0-6.391-2.878-6.391-6.424 0-1.106.892-2.008 1.998-2.008H457.41c1.1 0 1.998.896 1.998 2.008 0 3.546-2.863 6.424-6.391 6.424z" fill="#254C40"/><path d="M382.015 131.628h-20.912a3.82 3.82 0 01-3.814-3.833h28.54a3.82 3.82 0 01-3.814 3.833zm-23.754-37.543h27.603a3.074 3.074 0 003.065-3.082V51.406a3.074 3.074 0 00-3.065-3.081h-27.603a3.075 3.075 0 00-3.066 3.08v39.598a3.07 3.07 0 003.066 3.082z" fill="#FAE7DB"/><path d="M379.96 89.512h-15.803a2.282 2.282 0 01-2.278-2.29 2.286 2.286 0 012.278-2.29h15.803a2.286 2.286 0 012.278 2.29 2.286 2.286 0 01-2.278 2.29z" fill="#EAC9B7"/><path d="M373.752 62.232v-4.461a.509.509 0 00-.507-.51h-1.673a.51.51 0 00-.508.51v4.461c0 1.642-2.252 2.997-2.252 4.763v13.162c0 .419.339.765.762.765h5.675c.417 0 .762-.34.762-.765V66.995c-.007-1.766-2.259-3.114-2.259-4.763z" fill="#2B5B4F"/><path d="M373.751 62.232h-2.689v-4.461a.51.51 0 01.508-.51h1.673a.51.51 0 01.508.51v4.461z" fill="#D7513E"/><path d="M373.778 59.19h-2.74a.416.416 0 01-.417-.418c0-.236.189-.419.417-.419h2.74c.234 0 .416.19.416.419a.412.412 0 01-.416.419zm.872 9.008h-4.478v9.578h4.478v-9.578z" fill="#EB8F48"/><path d="M317.25 94.085h27.603a3.074 3.074 0 003.066-3.082V51.406a3.074 3.074 0 00-3.066-3.081H317.25c-1.692 0-3.059 1.38-3.059 3.08v39.598a3.065 3.065 0 003.059 3.082z" fill="#FAE7DB"/><path d="M338.956 89.512h-15.803a2.282 2.282 0 01-2.278-2.29 2.282 2.282 0 012.278-2.29h15.803a2.286 2.286 0 012.278 2.29c-.007 1.263-1.022 2.29-2.278 2.29z" fill="#EAC9B7"/><path d="M336.853 63.292h-10.908a.999.999 0 01-.996-1v-.04c0-.556.449-1 .996-1h10.908c.554 0 .996.45.996 1v.04c0 .549-.442 1-.996 1z" fill="#EABC49"/><path d="M337.186 64.234h-1.008v-.942h-9.555v.942h-1.009c-.794 0-1.438.648-1.438 1.446v13.777c0 .798.644 1.446 1.438 1.446h11.572c.795 0 1.439-.648 1.439-1.446V65.68c0-.798-.644-1.446-1.439-1.446z" fill="#D7513E"/><path d="M337.185 80.903c.794 0 1.439-.648 1.439-1.446V66.681c-.3-.007-.599.02-.892.072-.989.196-1.894.68-2.831 1.053-.938.373-1.966.648-2.942.4-1.126-.282-2.044-1.218-3.196-1.31-.664-.052-1.315.184-1.94.433-.618.248-1.256.51-1.926.516-.247 0-.495-.039-.729-.13V79.45c0 .798.644 1.445 1.438 1.445h11.579v.007z" fill="#2B5B4F"/><path d="M331.401 75.774c2.89 0 5.233-1.435 5.233-3.206 0-1.77-2.343-3.205-5.233-3.205-2.89 0-5.233 1.435-5.233 3.206 0 1.77 2.343 3.205 5.233 3.205z" fill="#EABC49"/><path d="M399.269 94.085h27.603c1.692 0 3.059-1.38 3.059-3.082V51.406c0-1.701-1.374-3.081-3.059-3.081h-27.603a3.074 3.074 0 00-3.066 3.08v39.598c.007 1.708 1.38 3.082 3.066 3.082z" fill="#FAE7DB"/><path d="M420.975 89.512h-15.802a2.282 2.282 0 01-2.278-2.29 2.286 2.286 0 012.278-2.29h15.802a2.286 2.286 0 012.278 2.29 2.286 2.286 0 01-2.278 2.29z" fill="#EAC9B7"/><path d="M413.072 80.903l-1.386-.753-1.387.753-1.386-.753-1.386.753-1.387-.753-1.386.753s1.119-5.378 1.119-9.833-1.119-9.832-1.119-9.832l1.386.752 1.387-.752 1.386.752 1.386-.752 1.387.752 1.386-.752 1.386.752 1.387-.752 1.386.752 1.386-.752 1.387.752 1.386-.752s-1.12 5.377-1.12 9.832c0 4.455 1.12 9.833 1.12 9.833l-1.386-.753-1.387.753-1.386-.753-1.386.753-1.387-.753-1.386.753z" fill="#EABC49"/><path d="M418.617 61.238l-1.386.752-1.386-.752-1.387.752-1.386-.752-1.386.752-1.387-.752-1.386.752-1.386-.752-1.387.752-1.386-.752s.176.857.39 2.165h15.849c.215-1.308.39-2.165.39-2.165l-1.386.752-1.38-.752zm-11.089 19.665l1.386-.753 1.387.753 1.386-.753 1.386.753 1.387-.753 1.386.753 1.386-.753 1.387.753 1.386-.753 1.386.753s-.176-.857-.39-2.166h-15.849c-.215 1.309-.39 2.166-.39 2.166l1.386-.753 1.38.753z" fill="#2B5B4F"/><path d="M416.501 71.07c0 3.062-1.536 5.548-3.43 5.548-1.894 0-3.43-2.486-3.43-5.548 0-3.061 1.536-5.547 3.43-5.547 1.894 0 3.43 2.48 3.43 5.547z" fill="#D7513E"/><path d="M408.232 104.885h-72.33a1.504 1.504 0 01-1.504-1.511c0-.837.671-1.511 1.504-1.511h72.33c.833 0 1.504.674 1.504 1.511 0 .837-.671 1.511-1.504 1.511zm8.916 7.569h-90.164a1.504 1.504 0 01-1.504-1.511c0-.838.671-1.511 1.504-1.511h90.164c.833 0 1.503.673 1.503 1.511 0 .831-.67 1.511-1.503 1.511zm18.429-37.661a.531.531 0 01-.378-.157.54.54 0 010-.76l2.649-2.662-2.649-2.662a.54.54 0 010-.76.532.532 0 01.755 0l2.649 2.663c.417.42.417 1.1 0 1.518l-2.649 2.663a.53.53 0 01-.377.157zm-127.027 0a.538.538 0 00.377-.916l-2.649-2.663 2.649-2.662a.538.538 0 000-.76.532.532 0 00-.755 0l-2.649 2.663a1.079 1.079 0 000 1.518l2.649 2.663a.531.531 0 00.378.157z" fill="#DD7C3A"/><path d="M428.776 75.865h-14.163v23.538h14.163V75.865zm3.344-5.475h-14.163v-2.335c0-1.158.931-2.094 2.083-2.094h9.997c1.152 0 2.083.936 2.083 2.094v2.335z" fill="#2B5B4F"/><path d="M428.776 75.865h-14.163l3.346-5.475h14.162l-3.345 5.475z" fill="#FAE7DB"/><path d="M435.475 75.865v23.538h-6.698V75.865l3.346-5.475 3.352 5.475z" fill="#D7513E"/><path d="M425.619 80.988h-7.856a.524.524 0 010-1.047h7.856a.524.524 0 010 1.047zm0 3.735h-7.856a.524.524 0 010-1.046h7.856a.524.524 0 010 1.046zm0 3.736h-7.856a.524.524 0 010-1.047h7.856a.524.524 0 010 1.047z" fill="#254C40"/><path d="M475.738 67.95l1.608-9.499a1.1 1.1 0 00-.892-1.269l-3.566-.608a1.096 1.096 0 00-1.263.896l-1.608 9.499c-.592 3.506-5.877 5.56-6.515 9.322l-4.745 28.045a1.654 1.654 0 001.341 1.903l6.04 1.034 6.04 1.033a1.647 1.647 0 001.894-1.347l4.745-28.045c.638-3.768-3.671-7.464-3.079-10.964z" fill="#2B5B4F"/><path d="M475.737 67.95l-5.721-.975 1.607-9.499c.104-.595.664-1 1.263-.896l3.567.609c.592.104.995.667.891 1.269l-1.607 9.492z" fill="#D7513E"/><path d="M476.897 61.474l-5.845-1.001a.911.911 0 01-.742-1.054.908.908 0 011.048-.745l5.845 1a.913.913 0 01-.306 1.8zm-1.385 19.524l-9.535-1.629-3.451 20.4 9.536 1.629 3.45-20.4z" fill="#EB8F48"/><path d="M448.29 62.88c-10.498 3.055-.52 45.577 12.08 41.907 12.601-3.67-1.575-44.969-12.08-41.907z" fill="#D7513E"/><path d="M455.325 69.33c-1.562-.948-3.495-1.275-5.382-.72a6.767 6.767 0 00-4.166 3.5l9.548-2.78zm7.563 26.24c-1.562-.949-3.495-1.276-5.383-.72a6.764 6.764 0 00-4.165 3.5l9.548-2.78zm-4.808-19.953a7.895 7.895 0 00-6.359-.85 7.946 7.946 0 00-4.92 4.14l11.279-3.29zm3.903 13.535a7.896 7.896 0 00-6.359-.85 7.945 7.945 0 00-4.921 4.14l11.28-3.29zm-1.468-6.797a8.586 8.586 0 00-6.873-.922 8.582 8.582 0 00-5.318 4.474l12.191-3.552z" fill="#EB8F48"/><path d="M445.297 75.1h-8.279a1.866 1.866 0 01-1.862-1.87c0-1.034.833-1.872 1.862-1.872h8.279c1.028 0 1.861.838 1.861 1.871a1.865 1.865 0 01-1.861 1.871z" fill="#EABC49"/><path d="M448.89 87.497a2.158 2.158 0 00-2.154-2.165h-.208c1.75 0 2.889-1.845 2.115-3.422l-3.346-6.81h-8.278l-3.346 6.81c-.774 1.577.365 3.422 2.115 3.422h-.208a2.158 2.158 0 00-2.154 2.165c0 1.197.963 2.165 2.154 2.165a2.158 2.158 0 00-2.154 2.166c0 1.197.963 2.165 2.154 2.165a2.158 2.158 0 00-2.154 2.165c0 1.197.963 2.166 2.154 2.166a2.158 2.158 0 00-2.154 2.165c0 1.197.963 2.165 2.154 2.165h11.162a2.159 2.159 0 002.155-2.165 2.159 2.159 0 00-2.155-2.165 2.159 2.159 0 002.155-2.166 2.159 2.159 0 00-2.155-2.165 2.159 2.159 0 002.155-2.165 2.159 2.159 0 00-2.155-2.166 2.157 2.157 0 002.148-2.165z" fill="#FAE7DB"/><path d="M448.889 87.497a2.158 2.158 0 00-2.154-2.165h-.209c1.751 0 2.89-1.845 2.116-3.422l-1.113-2.263a4.951 4.951 0 00-.619.137c-1.288.36-2.447 1.08-3.657 1.649-1.211.569-2.558 1.007-3.873.758-1.185-.222-2.2-.968-3.306-1.445a4.652 4.652 0 00-1.654-.373l-.755 1.537c-.774 1.577.365 3.422 2.116 3.422h-.209a2.158 2.158 0 00-2.154 2.165c0 1.197.963 2.165 2.154 2.165a2.158 2.158 0 00-2.154 2.166c0 1.197.963 2.165 2.154 2.165a2.158 2.158 0 00-2.154 2.165c0 1.197.963 2.166 2.154 2.166a2.158 2.158 0 00-2.154 2.165c0 1.197.963 2.165 2.154 2.165h11.163a2.158 2.158 0 002.154-2.165 2.158 2.158 0 00-2.154-2.165 2.158 2.158 0 002.154-2.166 2.158 2.158 0 00-2.154-2.165 2.158 2.158 0 002.154-2.165 2.158 2.158 0 00-2.154-2.166 2.158 2.158 0 002.154-2.165z" fill="#EB8F48"/><path d="M470.862 129.384h-50.813a4.547 4.547 0 01-4.459-3.683l-7.231-36.856h72.35c.957 0 1.673.876 1.484 1.818l-6.873 35.038a4.556 4.556 0 01-4.458 3.683z" fill="#EABC49"/><path d="M408.359 88.844l-1.315-6.685c-.676-3.441-3.703-5.947-7.192-5.947h-5.135c-.625 0-1.139-.51-1.139-1.145 0-.628.508-1.144 1.139-1.144h5.135c4.576 0 8.54 3.277 9.425 7.784l1.451 7.131h-2.369v.007z" fill="#2B5B4F"/><path d="M428.51 141.395c3.785 0 6.853-3.084 6.853-6.889 0-3.804-3.068-6.888-6.853-6.888-3.785 0-6.854 3.084-6.854 6.888 0 3.805 3.069 6.889 6.854 6.889z" fill="#EB8F48"/><path d="M425.711 134.506a2.813 2.813 0 002.805 2.82 2.813 2.813 0 002.805-2.82 2.812 2.812 0 00-2.805-2.819 2.808 2.808 0 00-2.805 2.819z" fill="#2B5B4F"/><path d="M462.393 141.395c3.785 0 6.853-3.084 6.853-6.889 0-3.804-3.068-6.888-6.853-6.888-3.785 0-6.854 3.084-6.854 6.888 0 3.805 3.069 6.889 6.854 6.889z" fill="#EB8F48"/><path d="M459.586 134.506a2.813 2.813 0 002.805 2.82 2.813 2.813 0 002.805-2.82 2.812 2.812 0 00-2.805-2.819 2.812 2.812 0 00-2.805 2.819z" fill="#2B5B4F"/><path opacity=".8" d="M445.287 122.862a1.807 1.807 0 01-1.803-1.812V97.172c0-1 .807-1.812 1.803-1.812.996 0 1.803.811 1.803 1.812v23.878a1.807 1.807 0 01-1.803 1.812zm-14.5 0a1.807 1.807 0 01-1.803-1.812V97.172c0-1 .807-1.812 1.803-1.812.996 0 1.803.811 1.803 1.812v23.878a1.807 1.807 0 01-1.803 1.812zm29.004 0c.996 0 1.803-.811 1.803-1.812V97.172c0-1-.807-1.812-1.803-1.812-.996 0-1.803.811-1.803 1.812v23.878c0 1.001.807 1.812 1.803 1.812z" fill="#D39F37"/><path d="M287.635 94.366l-14.313-8.158a3.568 3.568 0 00-3.039-.235l-49.173 18.729a3.605 3.605 0 00-2.083 4.645l8.976 23.805a3.576 3.576 0 004.621 2.094l49.172-18.73a3.592 3.592 0 002.122-2.198l5.337-15.648a3.608 3.608 0 00-1.62-4.304zm-7.993 8.851c-1.607.615-3.404-.203-4.016-1.819a3.136 3.136 0 011.81-4.036c1.607-.615 3.404.203 4.016 1.819.611 1.615-.196 3.428-1.81 4.036z" fill="#2B5B4F"/><path d="M238.142 123.019c-2.512.713-4.758.111-5.721-2.172l3.254-1.236c.352.706.879 1.02 1.556.988l-1.067-2.84c-2.103.223-4.7.596-5.761-2.217-.846-2.244.528-4.285 2.897-5.378l-.547-1.452 1.146-.438.546 1.452c2.526-.733 4.569-.078 5.591 2.146l-3.267 1.243c-.319-.635-.82-.923-1.386-.91l1.047 2.787c2.116-.189 4.758-.602 5.806 2.185.729 1.937-.163 4.233-2.935 5.43l.546 1.452-1.145.439-.56-1.479zm-3.007-7.974l-.943-2.493c-.619.36-.886.909-.619 1.609.241.628.814.844 1.562.884zm2.298 2.616l.963 2.552c.67-.399.931-1.054.683-1.721-.247-.641-.852-.824-1.646-.831zm13.35.543c-2.512.713-4.758.111-5.721-2.172l3.254-1.236c.352.706.879 1.021 1.556.988l-1.068-2.839c-2.102.222-4.699.595-5.76-2.218-.846-2.244.527-4.285 2.896-5.377l-.546-1.453 1.145-.438.547 1.452c2.519-.732 4.569-.078 5.591 2.146l-3.267 1.243c-.319-.635-.821-.922-1.387-.909l1.048 2.786c2.115-.189 4.758-.601 5.806 2.185.729 1.937-.163 4.233-2.936 5.43l.547 1.452-1.145.439-.56-1.479zm-3.007-7.968l-.944-2.492c-.618.36-.885.909-.618 1.609.241.622.813.838 1.562.883zm2.297 2.617l.964 2.551c.67-.399.93-1.053.683-1.72-.254-.648-.853-.831-1.647-.831zm13.35.536c-2.512.714-4.757.112-5.721-2.171l3.255-1.237c.351.707.878 1.021 1.555.988l-1.067-2.839c-2.102.222-4.699.595-5.76-2.218-.846-2.244.527-4.285 2.896-5.377l-.547-1.453 1.146-.438.547 1.452c2.518-.732 4.569-.078 5.59 2.146l-3.267 1.243c-.319-.634-.82-.922-1.386-.909l1.048 2.787c2.115-.19 4.758-.602 5.805 2.185.729 1.936-.162 4.232-2.935 5.429l.547 1.453-1.146.438-.56-1.479zm-3.007-7.967l-.943-2.493c-.619.36-.885.909-.619 1.609.235.628.807.838 1.562.884zm2.292 2.616l.963 2.552c.664-.399.931-1.054.683-1.721-.247-.648-.846-.831-1.646-.831zm14.264-11.906a4.452 4.452 0 00-2.571 5.731c.866 2.296 3.417 3.454 5.702 2.584a4.453 4.453 0 002.571-5.73c-.866-2.297-3.417-3.455-5.702-2.585zm2.669 7.085c-1.608.615-3.404-.203-4.016-1.819a3.135 3.135 0 011.809-4.036c1.608-.615 3.404.203 4.016 1.819.612 1.615-.195 3.428-1.809 4.036z" fill="#EABC49"/><path d="M397.193 136.227c-6.561 5.312-15.738 8.171-25 7.301-11.019-1.034-22.415-6.745-32.959-16.512-3.151-2.918-6.145-6.097-9.047-9.172-2.584-2.741-5.259-5.573-8.032-8.216-7.205-6.869-13.707-11.023-20.476-13.077-8.292-2.519-17.079-1.289-23.503 3.29-.976.7-.794 1.361-.67 1.616.39.785 1.796 1.152 3.306.968.222-.242.41-.516.547-.817-1.569.373-2.981.019-3.222-.471-.13-.262.222-.563.443-.72 6.248-4.455 14.807-5.652 22.891-3.192 6.658 2.021 13.075 6.129 20.196 12.913 2.76 2.63 5.428 5.456 8.005 8.191 2.91 3.081 5.917 6.273 9.08 9.204 10.661 9.878 22.201 15.654 33.37 16.701 1.126.105 2.252.157 3.371.157 8.578 0 16.818-3.055 22.78-8.164h-1.08z" fill="#000"/></svg>