<svg width="56" height="22" viewBox="0 0 32 22" fill="none" xmlns="http://www.w3.org/2000/svg"><rect width="32" height="21.333" rx="4" fill="#2A2A6C"/><path fill-rule="evenodd" clip-rule="evenodd" d="M20.236 11.78c.004-1.016-.834-1.455-1.485-1.796-.412-.216-.748-.392-.748-.65 0-.22.213-.454.666-.514a2.987 2.987 0 011.574.273l.28-1.333a4.294 4.294 0 00-1.494-.273c-1.573 0-2.666.84-2.666 2.04 0 .886.793 1.38 1.393 1.673.6.293.834.5.827.767 0 .413-.493.6-.953.606a3.331 3.331 0 01-1.627-.4l-.287 1.334a4.78 4.78 0 001.774.326c1.673 0 2.773-.826 2.78-2.106l-.034.053zM15.91 7.593l-1.333 6.167h-1.6l1.333-6.167h1.6zm6.707 4l.84-2.313.487 2.313h-1.327zm3.26 2.187h-1.48l-.194-.92h-2.006l-.327.92h-1.68l2.393-5.713a.727.727 0 01.667-.454h1.333l1.294 6.167zm-14.801-.04l2.587-6.167h-1.734l-1.66 4.194L9.603 8.2a.747.747 0 00-.74-.627H6.149l-.04.18a6.593 6.593 0 011.574.52c.213.1.357.306.38.54l1.273 4.927h1.74z" fill="#fff"/></svg>