<svg width="56" height="56" fill="#3d4f58" xmlns="http://www.w3.org/2000/svg"><path d="M6.254 1.513c-.71.273-1.49 1.063-1.759 1.781-.176.471-.202.73-.202 2.047 0 1.345.022 1.551.198 1.916.243.502.77.869 1.341.933l.421.048v1.751c0 2.174-.068 2.433-1.216 4.576-.982 1.833-1.147 2.203-1.473 3.308l-.248.84-.029 15.4c-.022 11.182-.001 15.554.076 15.96.32 1.697 1.702 3.091 3.425 3.457.53.112 2.56.134 12.579.134 7.666.001 12.164-.033 12.553-.094 1.265-.199 2.642-1.189 3.209-2.308.554-1.094.53-.279.503-17.125l-.026-15.424-.211-.746c-.12-.424-.715-1.777-1.375-3.127-.64-1.309-1.205-2.569-1.256-2.8-.051-.231-.094-1.177-.095-2.101l-.002-1.682.468-.166c.611-.217 1.068-.628 1.261-1.131.126-.33.149-.673.123-1.842-.032-1.406-.039-1.449-.34-2.06-.334-.678-.812-1.152-1.505-1.494l-.427-.211-12.74-.019-12.74-.019-.513.198M32.097 2.94c.174.103.447.348.606.545.289.357.29.364.32 1.64.025 1.033.004 1.303-.105 1.393-.104.087-3.241.113-13.604.115-12.557.003-13.474-.008-13.556-.155-.05-.088-.069-.661-.045-1.295.038-.975.076-1.194.265-1.532.235-.418.667-.74 1.149-.856.161-.039 5.774-.064 12.473-.056 11.999.014 12.185.017 12.497.201m14.01 4.864c-1.432.516-3.071 2.37-3.929 4.44-1.486 3.591-.888 8.241 1.417 11.011l.362.434-.659 13.192c-.526 10.555-.638 13.304-.559 13.752.207 1.178 1.02 2.331 2.021 2.867 2.469 1.322 5.43.03 6.055-2.641.131-.558.099-1.499-.464-13.83l-.604-13.232.565-.712c.921-1.158 1.547-2.597 1.924-4.418.228-1.099.231-3.43.007-4.357-.531-2.195-1.649-4.183-3.098-5.512-1.085-.994-2.11-1.329-3.038-.994m-14.929 2.369c.029 1.09.103 2.115.171 2.38.067.257.664 1.58 1.327 2.94.886 1.818 1.242 2.653 1.346 3.15.122.588.137 2.652.116 16.006l-.025 15.331-.319.588c-.367.678-.688.978-1.407 1.317l-.514.242H6.953l-.466-.231c-.679-.335-1.288-.982-1.529-1.626l-.201-.539.025-15.462.025-15.462.302-.887c.166-.488.674-1.584 1.129-2.437.454-.853.906-1.745 1.004-1.982l.178-.43 5.865-.026 5.865-.025.178-.22a.786.786 0 00-.024-1.011l-.203-.216H7.747v-3.36l11.69.023 11.69.024.051 1.913m16.334-.762c1.185.755 2.455 2.6 3.017 4.382.689 2.187.459 4.931-.593 7.067-1.056 2.142-2.596 3.023-4.066 2.325-2.184-1.036-3.55-5.39-2.779-8.858.474-2.131 1.843-4.228 3.255-4.985.481-.258.67-.247 1.166.069m-27.03 2.391c-.25.251-.285.48-.125.83.167.367.462.435 1.895.435 1.191 0 1.362-.02 1.572-.186a.933.933 0 00.294-.42c.068-.271-.141-.742-.369-.83-.083-.032-.8-.058-1.594-.058-1.408 0-1.449.006-1.673.229m4.2 0c-.25.251-.285.48-.125.83.169.37.459.435 1.961.435h1.403l.273-.273c.15-.15.273-.341.273-.425 0-.23-.254-.672-.425-.738-.083-.032-.821-.058-1.641-.058-1.457 0-1.494.005-1.719.229M7.784 22.253c-.159.07-.317.197-.35.284-.033.087-.061 4.411-.061 9.608v9.449l.216.203.216.203h23.616l.203-.216.203-.216v-9.45c0-5.986-.034-9.513-.092-9.621-.05-.094-.224-.217-.387-.274-.21-.073-3.629-.102-11.785-.099-9.433.003-11.541.026-11.779.129m22.549 9.854V40.6H8.867V23.613h21.466v8.494M11.67 24.529c-.409.409-.341.889.169 1.191.152.09.362.315.466.501.475.843 1.176 3.037 1.7 5.318.247 1.074.257 1.177.114 1.257-.386.216-.96.853-1.249 1.387-.305.563-.317.62-.317 1.61 0 .942.022 1.069.263 1.54.344.673.982 1.315 1.637 1.646.485.246.609.268 1.554.268.99 0 1.047-.012 1.61-.317a3.683 3.683 0 001.595-1.674c.217-.463.248-.647.248-1.463 0-.815-.031-1-.248-1.463-.544-1.159-1.636-1.926-2.869-2.014l-.645-.046-.348-1.459a52.396 52.396 0 00-.656-2.482c-.171-.563-.294-1.04-.275-1.06.02-.019.536.24 1.146.575 1.235.679 4.057 2.09 4.654 2.326l.385.153-.138.588c-.318 1.358.251 2.891 1.357 3.657 1.645 1.14 3.983.705 5.037-.937 1.144-1.783.462-4.196-1.453-5.136-.482-.236-.629-.262-1.514-.262-.897 0-1.023.023-1.493.268-.282.147-.585.33-.673.407-.211.187-.428.125-1.787-.504-1.762-.815-6.084-3.139-7.032-3.781-.609-.413-.897-.435-1.238-.094m35.23.344c.462 0 .977-.035 1.143-.077l.304-.077v.416c0 .229.252 5.93.561 12.668.309 6.739.534 12.403.501 12.588-.212 1.17-1.195 2.035-2.424 2.133-.838.067-1.448-.162-2.059-.773-.909-.909-.894.306-.182-14.129.341-6.909.619-12.64.618-12.736-.002-.153.04-.164.348-.093.193.044.728.08 1.19.08m-22.113 4.984c.967.439 1.429 1.695.984 2.675-.357.784-1.414 1.37-2.177 1.205-1.055-.228-1.754-1.063-1.753-2.097.001-.709.614-1.579 1.308-1.856.383-.153 1.224-.115 1.638.073m-7.847 4.139c.351.185.724.583.932.995.248.49.166 1.463-.163 1.934-.76 1.088-2.229 1.235-3.149.315a2.019 2.019 0 01-.229-2.613 2.036 2.036 0 012.609-.631m29.413 10.251l-.246.193v4.826l.246.194c.135.106.339.193.454.193.114 0 .318-.087.454-.193l.246-.194V44.44l-.246-.193c-.136-.107-.34-.194-.454-.194-.115 0-.319.087-.454.194" fill-rule="evenodd"/></svg>