<svg width="56" height="56" fill="#3d4f58" xmlns="http://www.w3.org/2000/svg"><path d="M39.615 1.482c-2.408.689-5.92 3.244-11.615 8.45-2.166 1.98-11.172 10.99-13.38 13.386C8.679 29.765 5.119 34.379 3.338 37.94c-1.308 2.616-1.407 3.949-.369 4.983.266.264.589.48.822.55 2.419.718 6.677-1.78 13.242-7.77 3.539-3.228 13.946-13.993 18.728-19.372 6.081-6.838 8.485-10.74 8.015-13.006-.172-.825-.85-1.597-1.659-1.885-.492-.176-1.82-.154-2.502.042M41.95 3.09c.305.268.33.329.33.823 0 .687-.174 1.258-.693 2.275-1.41 2.762-4.569 6.675-10.641 13.179C19.811 31.295 13.759 37.073 9.241 40.089c-3.039 2.029-5.195 2.564-5.46 1.354-.144-.656.72-2.735 1.964-4.725 1.147-1.835 1.162-1.851 2.853-2.9 3.103-1.926 5.079-2.913 7.362-3.677.967-.324 1.034-.36.671-.364-1.579-.016-4.415.816-6.564 1.926-.58.299-1.094.56-1.142.58-.123.05 1.938-2.486 3.252-4.003 1.047-1.208 1.136-1.285 2.134-1.856 2.704-1.546 6.071-2.998 8.501-3.664.595-.164 1.071-.306 1.058-.317-.013-.011-.524.018-1.137.063-2.117.157-4.114.668-6.119 1.566-.99.443-1.047.458-.83.218.127-.141.893-.956 1.701-1.811 1.603-1.698 1.606-1.699 4.164-3.063 3.621-1.929 6.062-2.922 9.058-3.683l.513-.13-.887.046c-1.256.065-3.035.369-4.323.74-1.132.326-2.913.989-3.609 1.344-.216.11-.411.182-.433.159-.023-.022.916-.962 2.085-2.088l2.127-2.048 1.68-.896c3.259-1.738 4.995-2.521 7.747-3.496l1.68-.594-.84.058c-1.726.121-4.457.823-6.324 1.626-.449.193-.816.341-.816.329 0-.05 2.445-2.216 3.546-3.141 3.918-3.293 6.511-4.835 8.14-4.84.57-.002.657.025.957.288m9.6 8.104c-3.248.878-8.229 4.84-17.159 13.651-10.108 9.974-16.547 17.56-19.17 22.584-.611 1.171-1.088 2.441-1.182 3.148-.137 1.034.376 2.074 1.23 2.492.475.232.572.246 1.417.201 1.455-.077 2.921-.706 5.197-2.232 4.091-2.741 8.783-7.083 17.162-15.882 8.679-9.114 11.932-12.829 14.239-16.259 1.075-1.6 1.613-2.603 1.974-3.682.263-.786.292-.973.256-1.68-.044-.881-.177-1.218-.672-1.714-.752-.751-1.972-.984-3.292-.627m1.879 1.445c1.063.444.789 1.993-.81 4.58-2.201 3.562-7.288 9.321-18.131 20.524-5.979 6.177-11.058 10.673-14.201 12.572-1.739 1.05-3.38 1.654-4.126 1.518-.359-.066-.667-.482-.667-.903-.001-.697.922-2.758 2.034-4.543.791-1.269.895-1.399 1.307-1.638.19-.111.864-.506 1.498-.88 1.963-1.156 4.975-2.407 7.34-3.05.668-.181 1.235-.351 1.26-.377.056-.057-1.169.039-2.146.167-1.751.23-3.687.806-5.625 1.674-.569.254-1.045.452-1.058.439-.041-.041 2.068-2.648 3.34-4.129l1.202-1.4 1.187-.638c2.708-1.456 5.552-2.652 7.814-3.284.974-.273 1.065-.314.7-.318-1.759-.02-4.605.637-6.649 1.535-.668.294-.877.354-.79.23.065-.093.915-1.011 1.888-2.041 1.744-1.844 1.786-1.88 2.797-2.43 3.14-1.707 7.404-3.449 9.707-3.966l.653-.146-.98.052c-1.309.07-2.657.273-3.719.561-.909.246-2.802.9-3.607 1.247-.44.189-.344.077 1.629-1.9l2.096-2.101 1.217-.647c.67-.356 1.701-.867 2.291-1.135.59-.269 1.42-.652 1.844-.852 1.079-.508 1.958-.854 3.896-1.535 1.625-.571 1.66-.588 1.073-.54-1.922.157-4.072.666-6.206 1.468l-1.12.42.7-.662c.995-.942 3.428-3.067 4.526-3.953 3.944-3.182 6.518-4.47 7.836-3.919" fill-rule="evenodd"/></svg>