<svg width="56" height="56" fill="#3d4f58" xmlns="http://www.w3.org/2000/svg"><path d="M16.554 2.349c-.376.182-.407.432-.407 3.257v2.703l-3.272 4.671c-1.799 2.569-3.353 4.805-3.453 4.969-.178.292-.181.621-.182 18.059v17.76l.244.245.244.244 18.026-.065 18.026-.065.233-.232.234-.232.051-2.915c.028-1.603.028-9.593 0-17.755l-.051-14.84-3.384-5.093-3.383-5.094v-5.18l-.273-.273-.273-.273-11.09.006c-7.435.005-11.156.038-11.29.103m21.339 3.344v1.96H17.64v-3.92h20.253v1.96m-.669 3.53c-.017.042-1.331 1.953-2.92 4.247l-2.888 4.17h-9.973c-8.305 0-9.96-.021-9.898-.125.041-.069 1.375-1.98 2.963-4.247l2.888-4.121h9.93c5.461 0 9.916.034 9.898.076m4.547 4.919l2.936 4.435v24.73H32.573V18.614l3.104-4.449c1.707-2.447 3.116-4.451 3.131-4.454.015-.002 1.349 1.991 2.963 4.431m-24.938-3.129c-.257.103-.5.451-.5.716 0 .114.102.325.226.469l.225.262h7.595c7.02 0 7.614-.012 7.84-.16.493-.323.394-1.076-.17-1.291-.296-.113-14.936-.109-15.216.004m14.247 24.92v16.8H10.733v-33.6H31.08v16.8m-10.976-8.119c-3.088.33-5.696 2.571-6.593 5.666-.178.614-.21.937-.203 2.08.006 1.216.034 1.434.267 2.147.466 1.421 1.092 2.438 2.071 3.365 1.529 1.446 3.266 2.141 5.354 2.141s3.825-.695 5.354-2.141c.979-.927 1.605-1.944 2.071-3.365.234-.715.26-.929.266-2.147.007-1.548-.102-2.073-.701-3.355-1.402-3.001-4.539-4.748-7.886-4.391m2.52 1.677c2.812.719 4.817 3.514 4.595 6.404-.255 3.321-2.928 5.825-6.219 5.825a6.227 6.227 0 01-5.971-4.433c-1.01-3.303.992-6.923 4.31-7.792.937-.245 2.335-.247 3.285-.004m22.083 16.522v1.214H32.573V44.8h12.134v1.213m0 4.667v1.96H32.573v-3.92h12.134v1.96" fill-rule="evenodd"/></svg>