<svg width="56" height="56" fill="#3d4f58" xmlns="http://www.w3.org/2000/svg"><path d="M16.342 12.136c-.305.13-.469.365-.472.677-.003.214.283.543 1.616 1.867 1.545 1.532 2.439 2.59 2.985 3.528.137.236.249.475.249.533 0 .058-.472.346-1.05.642-2.358 1.206-4.255 2.774-5.369 4.44-.232.347-.437.63-.456.63-.019 0-2.621-2.18-5.782-4.844-3.161-2.665-5.823-4.865-5.915-4.889-.241-.063-.706.187-.823.443a.766.766 0 00-.043.434c.031.118 1.606 2.987 3.5 6.375 3.12 5.581 3.434 6.181 3.341 6.386-.057.125-1.621 2.94-3.476 6.255-2.185 3.906-3.371 6.12-3.371 6.288 0 .341.365.726.688.726.138 0 .372-.094.52-.209.209-.162 10.492-8.805 11.152-9.373.131-.113.191-.06.508.453 1.043 1.69 2.971 3.328 5.46 4.639l1.021.537-.431.646c-.666.998-1.604 2.06-3.026 3.426-1.097 1.053-1.301 1.292-1.298 1.522.003.336.167.562.5.688.331.126 3.662.127 4.923.001 3.735-.371 7.508-1.581 10.049-3.221l.683-.441 1.464.016c4.25.045 8.621-.661 12.126-1.958 3.082-1.141 5.879-2.956 7.46-4.842 1.093-1.304 1.965-3.169 1.807-3.867-.109-.487-.214-.581-1.147-1.03l-.833-.4.639-.255c.736-.294 1.223-.633 1.337-.933.116-.307-.059-1.015-.472-1.905-1.192-2.565-3.822-4.809-7.506-6.403-3.609-1.562-7.478-2.34-12.18-2.449-1.923-.045-2.216-.071-2.38-.217-.427-.379-1.755-1.174-2.828-1.694-1.944-.941-4.542-1.714-7.037-2.094-1.172-.179-5.789-.275-6.133-.128m5.323 1.535c2.614.306 5.066 1.003 7.247 2.062.705.342 1.239.636 1.188.655-.051.018-.702.12-1.447.227a31.97 31.97 0 00-5.145 1.176c-.7.225-1.294.409-1.322.409-.027 0-.216-.305-.421-.677-.471-.859-1.206-1.817-2.328-3.033l-.882-.957h.966c.532 0 1.496.062 2.144.138m16.648 4.284c1.741.233 3.431.551 4.045.763.085.029-.018.202-.315.532-4.39 4.883-4.351 13.224.084 17.874.306.321.539.596.518.611-.091.066-1.9.454-2.885.618-1.901.317-3.264.42-5.367.407l-2.753-.017c-1.762-.01-5.24-.63-7.453-1.33-1.542-.487-3.565-1.375-4.876-2.139-2.013-1.174-3.966-3.188-4.423-4.562-.239-.72-.645-.964-1.122-.672-.153.094-2.229 1.815-4.612 3.825-2.383 2.009-4.347 3.64-4.365 3.622-.017-.017 1.124-2.095 2.536-4.616 1.413-2.522 2.568-4.661 2.568-4.754 0-.093-.073-.273-.162-.4-.275-.393-4.964-8.809-4.927-8.845.019-.019 2.03 1.649 4.47 3.707s4.537 3.78 4.66 3.827c.37.141.64-.078 1.056-.851.543-1.01.947-1.53 1.884-2.422 3.084-2.933 8.25-4.832 14.533-5.341 1.044-.084 5.915.03 6.906.163m6.887 1.659c3.874 1.487 6.556 3.559 7.801 6.027.161.319.292.637.292.707 0 .075-.386.274-.946.486-1.475.558-1.934 1.125-1.536 1.895.158.305.586.554 1.642.954.437.165.822.327.857.359.099.09-.527 1.365-.984 2.004-.963 1.348-2.832 2.839-4.863 3.879-.988.506-2.736 1.222-2.985 1.222-.254 0-1.719-1.493-2.252-2.294a11.827 11.827 0 01-1.778-4.456c-.19-1.042-.212-3.266-.043-4.264.282-1.664.952-3.4 1.809-4.688.538-.809 1.824-2.125 2.076-2.125.078 0 .488.132.91.294m.533 3.807a2.64 2.64 0 00-1.541 1.308c-.09.177-.184.582-.21.899-.038.479-.007.662.185 1.078.465 1.01 1.138 1.435 2.266 1.432.839-.003 1.145-.122 1.677-.654.544-.545.655-.835.656-1.724.001-.661-.034-.85-.209-1.13-.636-1.024-1.799-1.521-2.824-1.209m1.297 1.676a.917.917 0 01-.645 1.596c-.945 0-1.28-1.279-.455-1.736.379-.21.78-.159 1.1.14M23.151 38.635c1.474.509 3.032.892 4.843 1.192l1.535.255-.928.44c-2.51 1.193-6.256 2.038-9.031 2.038h-1.015l.882-.957c1.027-1.114 1.806-2.106 2.218-2.826.161-.281.323-.51.36-.51.037 0 .548.166 1.136.368" fill-rule="evenodd"/></svg>