<svg width="56" height="56" fill="#3d4f58" xmlns="http://www.w3.org/2000/svg"><path d="M12.499 2.513l-.272.273-.001 2.923-.001 2.924-.426.747c-2.745 4.802-4.464 13.61-5.826 29.837-.154 1.832-.315 3.428-.359 3.547-.044.119-.06.377-.036.573.055.446-.15 3.279-.257 3.562-.103.268.046 2.047.241 2.894.083.36.332 1.032.554 1.494.91 1.896 2.418 2.921 4.617 3.139.532.053 7.737.076 18.014.058 16.153-.029 17.158-.04 17.68-.198 2.369-.716 3.85-2.583 4.257-5.366.12-.82.104-1.148-.336-6.92-1.356-17.797-3.196-27.755-6.011-32.538l-.47-.8V2.786l-.273-.273-.273-.273H12.772l-.273.273m29.874 3.672v2.452l-.233.344c-.374.55-1.208 2.28-1.582 3.283-1.861 4.987-3.163 12.324-4.201 23.669-.512 5.606-.824 9.988-.834 11.714-.009 1.616.01 1.835.21 2.473.281.899.778 1.848 1.246 2.38l.37.42H23.872c-12.038 0-13.532-.016-13.985-.148-1.01-.296-1.9-1.066-2.421-2.094-.327-.647-.468-1.165-.55-2.027l-.065-.676 13.663-.024 13.663-.024.178-.221c.247-.305.23-.771-.037-1.023l-.216-.202-13.574-.024-13.575-.024.081-1.329.081-1.329 13.531-.024 13.531-.024.178-.221a.783.783 0 00-.025-1.01l-.203-.216H7.28v-.268c0-.147.106-1.523.236-3.057 1.265-14.982 2.849-23.509 5.22-28.108l.564-1.094 13.005-.046L39.31 9.66l.225-.262c.286-.332.286-.637 0-.969l-.225-.262-12.795-.025-12.795-.024V3.733h28.653v2.452m0 26.258v20.496l-1.143-.034c-1.048-.031-1.195-.058-1.756-.323-1.483-.701-2.507-2.51-2.512-4.442-.002-.592.36-5.678.657-9.22.92-11 2.019-18.412 3.488-23.529.384-1.337 1.134-3.444 1.227-3.444.021 0 .039 9.223.039 20.496m2.205-18.676c1.679 4.877 2.966 12.867 3.953 24.546.518 6.124.738 9.699.645 10.445-.226 1.818-1.103 3.163-2.487 3.816-.574.271-.725.3-1.726.331l-1.096.035.003-20.52c.004-18.53.018-20.488.147-20.193.079.179.331.872.561 1.54m-24.524 3.654c-.461.08-1.237.625-1.544 1.084-.552.824-.714 1.397-.722 2.557l-.008 1.042-.373-.305c-1.167-.954-2.334-1.041-3.241-.242-1.41 1.241-1.121 4.183.578 5.887.691.693 1.272.966 2.056.968.996.002 1.555-.383 2.021-1.392.226-.489.26-.675.261-1.465.003-.902.003-.905.19-.734.283.258.918.553 1.334.62.954.152 2.098-.57 2.618-1.652l.26-.543.249.542c.493 1.074 1.648 1.806 2.607 1.653.381-.061 1.037-.353 1.289-.574.127-.111.139-.053.107.52-.081 1.435.605 2.622 1.7 2.941.476.138.568.138 1.097.003.744-.191 1.069-.397 1.702-1.081 1.573-1.7 1.808-4.455.483-5.676-.497-.458-.953-.611-1.635-.549a2.823 2.823 0 00-1.61.711l-.306.269-.001-.946c-.001-1.603-.563-2.76-1.633-3.363-.434-.245-.608-.289-1.127-.284-.504.004-.703.055-1.12.289-.635.356-1.331 1.199-1.6 1.936-.186.511-.208.535-.29.328-.471-1.198-1.024-1.908-1.769-2.272-.493-.241-1.123-.349-1.573-.272m1.01 1.67c.329.213.676.73.881 1.313.278.792.226 2.14-.109 2.79-.273.529-.718.843-1.069.754-.127-.031-.381-.189-.565-.351-.925-.812-1.229-2.632-.649-3.884.362-.782.912-1.009 1.511-.622m5.972.058c.517.483.793 1.761.591 2.74-.205.989-.799 1.86-1.401 2.051-.471.15-1.074-.418-1.297-1.222-.167-.602-.126-1.749.084-2.347.441-1.255 1.38-1.821 2.023-1.222m-10.939 3.557c.821.465 1.464 1.697 1.474 2.821.012 1.42-.677 1.824-1.649.968-.838-.738-1.351-2.264-1.087-3.237.205-.761.594-.93 1.262-.552m15.492-.155c.489.188.625 1.608.244 2.552-.546 1.354-1.658 2.17-2.239 1.643-.256-.231-.408-.965-.331-1.588.151-1.206 1.222-2.651 1.973-2.662.111-.001.27.023.353.055m-9.422 3.118c-2.422.486-4.779 2.766-5.642 5.458-.622 1.942-.547 3.14.245 3.893.629.597 1.47.664 3.887.306 2.009-.297 3.152-.296 5.515.009 1.937.249 2.494.246 3.126-.018 1.241-.519 1.456-1.966.622-4.182-1.004-2.668-3.26-4.896-5.49-5.421-.623-.147-1.653-.168-2.263-.045m2.785 1.846c1.877.93 3.528 3.219 3.904 5.411.215 1.253.089 1.289-3.003.854-1.798-.253-3.399-.234-5.407.062-1.697.25-2.574.26-2.72.03-.127-.201-.102-1.106.047-1.677.517-1.986 1.788-3.709 3.337-4.525.888-.467 1.453-.605 2.34-.57.628.025.825.08 1.502.415" fill-rule="evenodd"/></svg>