<svg width="56" height="56" fill="#3d4f58" xmlns="http://www.w3.org/2000/svg"><path d="M3.92 6.436c-.671.23-1.334.925-1.538 1.611-.125.422-.142 2.389-.142 16.317v15.837l.193.246c.259.329.803.344 1.097.03l.203-.216V24.419c0-17.408-.04-16.222.557-16.531.829-.428 1.694.241 1.55 1.199-.06.4-.059 1.526.008 25.073.04 14.019.039 14.143-.146 14.439-.405.647-1.139.74-1.649.207l-.273-.284-.047-2.196c-.046-2.169-.049-2.198-.267-2.374a.758.758 0 00-.959 0l-.22.178v4.637l.252.478a2.546 2.546 0 003.382 1.115c.572-.28.922-.646 1.21-1.267.195-.418.196-.456.221-13.09l.025-12.67h4.866l.575.319c.81.448 1.743.713 2.722.772.766.047.863.033 1.097-.153.396-.316.358-.795-.104-1.321-.467-.531-.817-1.231-1.01-2.019-.198-.809-.196-2.71.004-4.364.256-2.114.284-3.081.118-4.033-.371-2.123-1.373-3.645-2.904-4.409-1.15-.573-2.626-.614-3.154-.087-.199.2-.262.338-.23.505l.044.23H7.377l-.053-.256c-.154-.742-.3-1.031-.751-1.486-.744-.75-1.627-.948-2.653-.595m35.581.906c-.065.027-.182.172-.26.323-.115.222-.124.374-.049.783.12.646.3.99.756 1.447.753.752 2.053 1.183 3.849 1.277l1.096.056v1.182l-.359.183c-.445.227-.913.751-1.169 1.309-.176.383-.198.635-.229 2.595-.026 1.676-.06 2.17-.152 2.17-.065 0-.415.148-.777.329-.752.376-1.563 1.179-1.937 1.918-.533 1.051-.515.529-.488 14.621l.025 12.952.255.484c.294.558.81 1.093 1.294 1.34.669.342 1.361.381 6.198.351l4.666-.029.518-.242c.684-.322 1.112-.71 1.447-1.315l.275-.496.025-13.108c.026-14.298.054-13.492-.49-14.561-.469-.921-1.43-1.803-2.312-2.121l-.443-.16v-2.018c0-1.519-.034-2.134-.14-2.488-.165-.558-.754-1.266-1.271-1.53l-.362-.184v-1.18l.372-.112c.565-.169.654-.422.654-1.859 0-1.265-.094-1.736-.377-1.888-.175-.093-10.385-.121-10.615-.029m-20.7.394c-.513.233-1.029.857-1.154 1.396-.145.621 1.681 34.082 1.897 34.786.08.259.304.698.498.975.541.775.996 1.076 2.335 1.541.085.029.116.354.116 1.191 0 1.051.021 1.194.241 1.634.273.548.642.895 1.253 1.179.397.185.573.195 3.313.195s2.916-.01 3.313-.195c.611-.284.98-.631 1.253-1.179.222-.445.241-.578.241-1.708v-1.226l.482-.226c.625-.292 1.216-.889 1.522-1.537.27-.569.327-1.071.513-4.522l.763-14.047c.811-14.942.883-16.57.747-17.023-.114-.381-.552-.874-.988-1.113-.253-.139-.752-.16-4.313-.184l-4.027-.027-.259.222c-.353.304-.355.759-.004 1.06l.254.219h3.804c3.013 0 3.839.025 3.973.123.145.107.166.247.148 1.004a30.684 30.684 0 01-.082 1.579l-.06.7-7.672.024-7.673.024-.047-.304a26.839 26.839 0 01-.104-1.58c-.079-1.734-.155-1.664 1.783-1.664h1.454l.273-.272c.296-.296.332-.469.164-.784-.216-.406-.333-.431-1.991-.432-1.344-.001-1.645.025-1.966.171m22.152.732c.86.219.956.261.683.303-.29.045-.23.08.7.414.56.201 1.051.395 1.093.43.112.097-.946-.08-1.429-.238-.527-.172-1.052-.488-.987-.593.027-.044-.233-.187-.578-.318-.816-.31-.705-.309.518.002m7.954.719V9.6l-.528.066c-.29.036-1.099.042-1.797.012-1.114-.047-1.456-.104-2.809-.472l-1.54-.419 3.337-.007 3.337-.007v.414m-36.67.34c.42.212 1.149 1.013 1.434 1.575.607 1.199.705 2.308.432 4.908-.325 3.101-.251 4.855.265 6.211.103.272.171.511.151.531-.059.059-.876-.326-1.185-.559-1.125-.847-1.591-1.476-1.962-2.651-.337-1.068-.28-1.78.356-4.422.233-.965.259-1.242.261-2.753.002-1.61-.009-1.708-.253-2.345-.141-.366-.256-.694-.256-.73 0-.083.328.019.757.235m32.843.366c-.226.226-.302.226-.84 0l-.42-.176.723-.005.724-.005-.187.186m-34.677.857c.079.266.144.623.144.794v.309H7.373v-1.586h2.886l.144.483m37.552.94l.028.537h-1.69v-.498c0-.274.03-.527.066-.564.036-.036.404-.053.817-.038l.751.026.028.537m-37.452 1.96c-.032.167-.122.608-.2.98l-.142.677H7.373v-1.96h3.188l-.058.303m38.723.305c.489.37.519.52.52 2.59l.001 1.938-2.544-.025-2.543-.025-.027-1.726c-.015-.95-.003-1.862.026-2.027.03-.165.182-.427.338-.583l.284-.284 1.883.003c1.498.003 1.919.031 2.062.139m-14.731.862c-.033.449-.309 5.562-.615 11.363-.305 5.801-.581 10.851-.612 11.223l-.057.677h-6.295c-4.955 0-6.303-.025-6.331-.117-.04-.131-1.271-23.069-1.267-23.613l.002-.35h15.233l-.058.817M9.766 17.14a10.89 10.89 0 00-.059 1.166v.734H7.373v-2.333h2.452l-.059.433m41.351 3.034c.719.269 1.417.966 1.719 1.716l.224.557.029 12.366c.015 6.802.002 12.585-.03 12.852a1.826 1.826 0 01-.729 1.28c-.258.191-.36.196-5.04.221l-4.777.026-.414-.213c-.228-.117-.501-.331-.607-.476-.192-.263-.192-.287-.192-13.3V22.167l.223-.42c.334-.627.627-.978 1.052-1.259.747-.495.803-.501 4.531-.508 3.336-.006 3.495.001 4.011.194m-40.84.756c.11.218.282.512.382.653l.18.257H7.373v-1.307h2.703l.201.397m22.856 19.02c0 .208-.044 1.1-.097 1.984-.082 1.336-.133 1.677-.304 2.026-.222.453-.637.783-1.174.932-.48.133-8.579.126-9.111-.008-.502-.127-1.109-.63-1.365-1.134-.15-.294-.211-.665-.275-1.693l-.121-1.9-.038-.584h12.485v.377m-2.442 7.554c-.03.756-.074.98-.23 1.19-.352.474-.454.49-3.161.49s-2.809-.016-3.161-.49c-.156-.21-.2-.434-.23-1.19l-.037-.931h6.856l-.037.931" fill-rule="evenodd"/></svg>