<svg width="56" height="56" fill="#3d4f58" xmlns="http://www.w3.org/2000/svg"><path d="M17.584 4.331c-.159.07-.317.199-.35.286-.033.087-.061 2.877-.061 6.2v6.042l-.536.166c-1.986.614-3.595 2.318-4.193 4.442-.162.576-.171 1.354-.171 15.711v15.105l.262.225.262.225h14.166l.262-.225.262-.225V21.42l-.206-.653a5.763 5.763 0 00-3.738-3.747l-.77-.242V4.699l-.24-.226c-.24-.225-.255-.226-2.45-.248-1.712-.018-2.275.006-2.499.106m3.696 2.762V8.4h-2.613V5.787h2.613v1.306m0 6.207v3.407h-2.613V9.893h2.613V13.3m1.522 5.039c1.64.427 2.844 1.683 3.138 3.273.068.372.1 5.114.1 15.085V51.24H13.72V36.977c0-9.772.032-14.437.1-14.817.326-1.797 1.822-3.382 3.599-3.812.797-.193 4.652-.199 5.383-.009m8.691 7.68c-.659.547-1.417 1.856-1.769 3.054-.305 1.037-.347 2.592-.099 3.64.338 1.427 1.315 2.991 2.437 3.902.653.529 2.019 1.212 2.751 1.375.283.063.619.144.747.18l.233.066.025 4.822.024 4.822-.398.004c-.218.003-.511.055-.65.117-.14.062-1.304.847-2.588 1.746-2.504 1.752-2.651 1.899-2.431 2.43.064.156.193.324.285.373.103.055 2.626.09 6.503.09 6.17 0 6.34-.005 6.532-.184.269-.25.342-.528.217-.826-.071-.17-.848-.771-2.438-1.883-1.284-.899-2.448-1.684-2.588-1.746-.139-.062-.431-.114-.649-.117l-.397-.004v-4.81c0-3.767.025-4.816.117-4.843.064-.018.494-.121.956-.228 3.136-.728 5.359-3.565 5.386-6.872.01-1.326-.223-2.337-.802-3.48-.33-.652-1.038-1.556-1.316-1.683-.178-.081-1.543-.11-5.069-.109-4.433.002-4.841.016-5.019.164m9.828 1.872c.2.299.484.898.63 1.33.229.675.267.93.267 1.812.001 1.62-.461 2.778-1.583 3.964-.669.707-1.329 1.131-2.29 1.473-.581.206-.841.242-1.712.241-.869-.001-1.139-.04-1.763-.253-.935-.32-1.435-.615-2.12-1.249a5.555 5.555 0 01-1.536-2.398c-.557-1.751-.32-3.398.721-5.021l.284-.443h8.739l.363.544m-26.252.058l-.229.229.003 7.914c.003 8.37-.012 8.082.434 8.319.281.15 9.067.155 9.395.005a.778.778 0 00.331-.331c.073-.161.104-2.52.104-8.067v-7.84l-.229-.229-.23-.229h-9.35l-.229.229m8.544 8.171v6.907h-7.28V29.213h7.28v6.907m9.254-6.483c-.377.479-.49 1.662-.248 2.592.411 1.577 1.522 2.688 3.099 3.098.741.193 1.169.177 1.463-.054.546-.429.182-1.3-.543-1.3-.666 0-1.275-.275-1.825-.826-.684-.683-.894-1.252-.795-2.15.117-1.054.1-1.236-.133-1.425-.314-.255-.79-.224-1.018.065M17.5 32.214c-.472.259-.572.837-.204 1.183.211.198.275.203 2.804.203h2.588l.23-.229c.367-.368.297-.896-.151-1.128-.213-.11-.737-.136-2.672-.133-1.562.001-2.474.038-2.595.104m-.191 3.482a.73.73 0 00-.051.997c.178.22.181.22 2.636.248 1.351.016 2.553.004 2.671-.025.575-.145.766-.807.353-1.22l-.23-.229h-5.15l-.229.229m-.042 3.317c-.26.26-.246.752.029 1.011.211.198.275.203 2.83.203 2.613 0 2.615-.001 2.818-.216a.69.69 0 00-.013-.981c-.212-.199-.275-.203-2.847-.203-2.506 0-2.639.008-2.817.186m21.788 11.294l1.202.84h-7.434l1.202-.84 1.202-.84h2.626l1.202.84" fill-rule="evenodd"/></svg>